<?xml version="1.0" encoding="UTF-8" ?>
<!DOCTYPE svg PUBLIC "-//W3C//DTD SVG 1.1//EN" "http://www.w3.org/Graphics/SVG/1.1/DTD/svg11.dtd">
<svg width="98pt" height="99pt" viewBox="0 0 98 99" version="1.1" xmlns="http://www.w3.org/2000/svg">
<g id="#000000fc">
<path fill="#000000" opacity="1.00" d=" M 43.81 3.67 C 44.47 2.92 45.11 2.14 45.74 1.36 C 46.33 2.96 47.39 3.25 48.91 2.23 C 49.16 2.63 49.65 3.42 49.90 3.82 C 48.57 3.76 47.24 3.73 45.92 3.72 C 45.82 4.22 45.63 5.21 45.53 5.70 C 44.89 4.49 43.63 3.31 42.12 3.81 C 34.09 4.70 26.08 2.93 18.04 3.54 C 23.61 2.47 29.29 3.01 34.90 2.40 C 37.79 1.87 40.59 4.01 43.39 2.40 L 43.81 3.67 Z" />
<path fill="#000000" opacity="1.00" d=" M 51.03 3.79 C 52.05 2.01 54.22 2.27 55.92 2.36 C 61.29 2.58 66.61 3.39 71.99 3.50 C 67.34 3.86 62.66 3.47 58.01 3.96 C 55.69 4.22 53.33 4.39 51.03 3.79 Z" />
<path fill="#000000" opacity="1.00" d=" M 28.08 15.15 C 36.27 8.62 48.04 7.56 57.62 11.41 C 66.00 14.87 71.43 22.87 74.53 31.08 C 78.97 43.26 78.29 56.93 74.13 69.09 C 77.66 65.71 81.82 61.94 87.06 62.26 C 88.84 62.27 89.83 63.95 91.03 64.97 C 90.47 65.51 89.34 66.61 88.78 67.15 C 84.17 68.30 79.17 69.00 75.62 72.51 C 77.60 72.16 79.57 71.77 81.54 71.37 C 81.80 70.98 82.32 70.18 82.58 69.78 C 87.87 69.31 94.12 68.81 98.00 73.25 L 98.00 76.37 C 95.85 76.11 94.11 74.85 92.40 73.65 C 90.01 71.96 87.07 71.42 84.31 70.63 C 83.68 71.04 83.06 71.44 82.43 71.84 C 88.60 72.43 90.19 82.09 84.38 84.37 C 80.24 86.68 74.28 81.66 77.24 77.38 C 78.88 74.79 82.36 75.64 83.35 78.29 C 82.48 78.48 80.75 78.85 79.89 79.04 C 80.21 80.52 80.10 82.73 82.10 82.97 C 86.82 83.75 88.32 76.48 84.79 74.14 C 81.90 71.61 77.87 72.97 74.49 73.39 C 74.02 73.96 73.51 74.50 72.96 74.99 C 69.67 76.95 67.96 80.59 65.10 83.03 C 57.10 90.83 44.51 92.29 34.25 88.68 C 26.37 85.82 20.70 78.91 17.49 71.37 C 12.97 61.16 12.78 49.55 14.80 38.72 C 16.53 29.74 20.82 20.92 28.08 15.15 M 39.13 18.04 C 37.55 19.88 39.30 22.41 41.51 22.31 C 41.56 21.48 41.65 19.83 41.69 19.00 C 43.50 20.78 42.81 22.93 40.82 24.28 C 43.66 24.38 46.87 25.83 47.24 28.97 C 48.20 33.44 43.03 36.96 39.03 35.31 C 35.59 34.43 34.28 30.82 33.65 27.72 C 31.46 32.86 31.11 38.56 30.63 44.06 C 30.18 54.66 30.42 65.67 34.41 75.65 C 36.39 80.44 40.33 85.43 46.00 85.41 C 53.47 85.73 58.73 76.38 55.13 69.98 C 53.38 66.01 47.70 64.65 44.45 67.55 C 41.91 69.57 42.50 74.68 46.18 74.86 C 48.64 74.79 48.64 71.94 48.73 70.16 C 50.56 71.02 52.89 72.68 52.05 75.05 C 51.28 79.64 44.71 80.15 42.27 76.66 C 38.25 72.24 42.11 64.20 48.08 64.56 C 53.53 64.03 57.77 68.91 57.63 74.16 C 59.75 68.02 60.25 61.46 60.52 55.02 C 60.72 46.57 60.37 38.02 58.34 29.79 C 57.04 24.84 54.92 19.51 50.30 16.79 C 46.90 14.88 41.72 14.75 39.13 18.04 M 29.13 19.18 C 27.30 19.66 28.09 22.71 29.95 22.14 C 31.93 21.72 31.01 18.54 29.13 19.18 M 60.18 21.78 C 60.75 21.75 61.91 21.69 62.48 21.67 C 62.43 21.15 62.32 20.11 62.26 19.59 C 60.87 18.81 58.54 20.35 60.18 21.78 M 34.58 26.96 C 34.36 31.12 38.96 35.73 43.09 33.22 C 46.58 31.69 45.83 25.81 41.96 25.45 C 39.10 25.02 38.78 28.15 38.20 30.15 C 37.90 27.61 38.49 25.30 40.94 24.07 C 38.87 23.98 37.60 22.52 36.85 20.76 C 35.58 22.59 34.84 24.75 34.58 26.96 M 24.09 27.88 C 24.61 28.31 25.66 29.17 26.18 29.61 C 27.28 29.00 28.41 26.96 26.64 26.36 C 25.53 25.34 24.84 27.35 24.09 27.88 M 64.19 26.06 C 62.54 26.94 62.89 29.42 64.95 29.30 C 67.10 28.62 66.12 25.88 64.19 26.06 M 22.13 34.28 C 19.53 35.90 21.96 40.11 24.71 38.65 C 27.72 37.16 25.02 32.19 22.13 34.28 M 65.33 34.61 C 63.03 36.55 66.15 40.42 68.53 38.42 C 71.66 36.71 67.70 31.74 65.33 34.61 M 18.93 49.88 C 20.17 52.41 21.22 55.06 22.89 57.35 C 24.16 54.90 25.36 52.41 26.59 49.93 C 25.38 47.34 24.15 44.75 22.87 42.19 C 21.32 44.63 20.17 47.28 18.93 49.88 M 64.06 49.95 C 65.24 52.25 66.27 54.62 67.50 56.90 C 69.94 55.89 70.15 52.05 71.74 49.95 C 70.54 47.30 69.27 44.69 67.92 42.11 C 66.53 44.67 65.25 47.29 64.06 49.95 M 22.33 62.28 C 20.90 63.01 20.59 65.21 21.74 66.30 C 23.01 67.61 25.93 66.95 25.94 64.91 C 26.55 62.85 24.07 61.29 22.33 62.28 M 65.42 62.65 C 62.95 64.54 66.16 68.63 68.63 66.47 C 71.49 64.67 67.85 60.10 65.42 62.65 M 25.59 71.71 C 23.35 72.06 24.79 75.53 26.60 74.54 C 28.42 74.02 27.40 70.88 25.59 71.71 M 64.10 71.19 C 62.73 72.54 63.00 75.50 65.42 74.56 C 67.27 73.21 65.37 71.91 64.10 71.19 M 28.45 79.24 C 27.21 80.54 29.17 82.66 30.53 81.45 C 32.26 80.21 29.79 77.55 28.45 79.24 M 60.08 81.01 C 61.05 82.58 62.47 80.46 62.81 79.44 C 61.53 78.88 58.32 78.92 60.08 81.01 Z" />
<path fill="#000000" opacity="1.00" d=" M 9.29 30.25 C 12.72 27.74 16.45 33.74 12.61 35.66 C 9.19 38.25 5.57 32.16 9.29 30.25 Z" />
<path fill="#000000" opacity="1.00" d=" M 46.87 38.74 C 51.33 36.39 57.56 40.99 55.94 46.00 C 55.22 49.32 50.26 50.67 48.28 47.76 C 46.74 45.99 48.47 44.05 49.63 42.68 C 49.24 43.74 48.93 44.82 48.70 45.93 C 49.80 48.65 53.98 47.66 54.45 45.04 C 55.44 41.56 51.41 38.17 48.13 39.54 C 44.12 41.24 43.91 47.35 47.01 50.03 C 50.84 53.94 54.30 58.27 56.50 63.32 L 57.89 64.24 C 57.57 59.93 55.63 56.14 52.94 52.86 C 51.53 51.17 54.80 50.37 55.68 51.48 C 59.40 54.42 59.18 59.74 58.55 63.97 C 57.42 64.65 56.31 65.36 55.21 66.08 C 51.63 62.25 46.38 63.72 41.85 64.10 C 42.29 62.88 42.50 61.25 44.06 60.96 C 47.90 59.20 51.84 61.40 55.21 63.16 C 51.81 58.51 47.03 54.97 44.12 49.96 C 42.07 46.27 43.00 40.85 46.87 38.74 Z" />
<path fill="#000000" opacity="1.00" d=" M 6.36 41.35 C 8.52 40.06 11.43 42.92 9.92 44.97 C 9.22 47.03 5.82 47.00 5.10 44.98 C 4.03 43.75 5.31 42.08 6.36 41.35 Z" />
<path fill="#000000" opacity="1.00" d=" M 22.45 45.16 C 23.67 46.53 24.41 48.23 25.18 49.87 C 24.41 51.51 23.58 53.12 22.54 54.59 C 21.82 53.05 21.12 51.50 20.43 49.95 C 21.09 48.35 21.76 46.75 22.45 45.16 Z" />
<path fill="#000000" opacity="1.00" d=" M 65.49 49.91 C 66.26 48.26 67.07 46.64 67.94 45.04 C 68.73 46.65 69.51 48.26 70.29 49.87 C 69.32 51.14 69.39 53.85 67.46 53.93 C 66.75 52.62 66.14 51.26 65.49 49.91 Z" />
<path fill="#000000" opacity="1.00" d=" M 6.47 51.69 C 8.97 49.82 11.48 54.42 8.62 55.61 C 6.21 57.18 3.93 52.84 6.47 51.69 Z" />
<path fill="#000000" opacity="1.00" d=" M 38.98 52.14 C 39.21 49.79 42.05 50.84 43.20 51.74 C 45.49 53.40 46.80 55.99 48.18 58.38 C 44.69 58.79 41.49 61.43 38.01 61.02 C 37.40 58.52 40.36 58.30 41.94 57.40 C 39.40 57.42 36.46 58.40 34.30 56.62 C 33.76 54.92 35.63 54.10 36.98 53.82 C 39.98 53.65 42.62 55.26 45.21 56.53 C 43.20 54.97 40.58 54.18 38.98 52.14 Z" />
<path fill="#000000" opacity="1.00" d=" M 9.20 60.15 C 11.24 59.39 12.72 62.61 10.66 63.53 C 8.45 65.34 6.69 60.85 9.20 60.15 Z" />
<path fill="#000000" opacity="1.00" d=" M 11.47 68.36 C 12.09 67.44 13.18 67.63 14.12 67.66 C 14.21 68.14 14.38 69.09 14.46 69.57 C 14.08 69.91 13.31 70.58 12.93 70.91 C 12.22 70.23 10.75 69.58 11.47 68.36 Z" />
<path fill="#000000" opacity="1.00" d=" M 5.95 70.36 C 10.84 71.30 15.29 74.08 18.16 78.18 C 14.35 76.25 11.08 73.36 7.03 71.88 C 7.04 75.87 9.77 78.96 13.29 80.47 C 12.12 81.40 10.98 82.37 9.86 83.35 C 7.78 83.28 5.71 83.18 3.63 83.06 L 3.65 83.84 C 5.54 84.01 7.44 84.18 9.33 84.42 C 5.77 85.58 1.92 84.76 0.00 81.31 L 0.00 80.43 C 3.01 79.43 6.19 79.35 9.30 79.86 C 6.44 77.47 5.59 73.94 5.95 70.36 M 1.36 81.44 C 3.73 83.79 7.21 81.03 10.18 81.61 C 8.10 79.20 4.17 81.92 1.36 81.44 Z" />
<path fill="#000000" opacity="1.00" d=" M 8.36 73.46 C 11.41 76.20 15.80 77.54 18.12 80.89 C 14.25 79.75 9.37 77.86 8.36 73.46 Z" />
<path fill="#000000" opacity="1.00" d=" M 13.06 87.61 C 14.50 86.69 16.55 85.45 18.11 86.84 C 21.78 89.49 19.27 95.98 14.82 95.83 C 9.20 96.28 6.46 87.34 11.38 84.62 C 10.22 87.37 9.55 91.64 12.77 93.32 C 15.84 95.51 20.50 91.38 18.23 88.18 C 17.11 86.07 14.80 87.22 13.06 87.61 Z" />
<path fill="#000000" opacity="1.00" d=" M 45.41 94.61 C 45.93 95.21 46.45 95.81 46.98 96.41 C 55.31 94.91 63.72 96.63 72.11 96.47 C 63.12 96.85 54.13 97.86 45.15 96.81 L 45.86 99.00 L 45.83 99.00 C 44.72 97.52 43.11 97.16 41.51 97.89 C 41.52 97.21 41.55 95.85 41.56 95.16 C 42.90 95.64 44.30 95.63 45.41 94.61 Z" />
<path fill="#000000" opacity="1.00" d=" M 18.00 96.45 C 23.37 96.26 28.75 96.33 34.09 95.73 C 36.06 95.45 38.04 95.63 39.92 96.26 C 38.01 98.01 35.39 97.43 33.06 97.28 C 28.05 96.79 23.02 96.80 18.00 96.45 Z" />
</g>
</svg>
