<?xml version="1.0" encoding="UTF-8" ?>
<!DOCTYPE svg PUBLIC "-//W3C//DTD SVG 1.1//EN" "http://www.w3.org/Graphics/SVG/1.1/DTD/svg11.dtd">
<svg width="60pt" height="100pt" viewBox="0 0 60 100" version="1.1" xmlns="http://www.w3.org/2000/svg">
<g id="#000000fd">
<path fill="#000000" opacity="1.00" d=" M 4.84 3.03 C 10.22 2.68 15.61 2.40 21.00 2.16 C 22.53 1.91 23.83 2.84 25.07 3.55 C 18.34 4.35 11.57 3.33 4.84 3.03 Z" />
<path fill="#000000" opacity="1.00" d=" M 34.93 3.04 C 41.79 1.22 48.98 2.97 55.97 3.11 C 48.97 2.95 41.78 5.00 34.93 3.04 Z" />
<path fill="#000000" opacity="1.00" d=" M 30.29 11.29 C 32.92 9.84 35.98 10.04 38.87 9.90 C 39.04 29.59 38.66 49.28 39.10 68.96 C 41.64 65.88 45.79 63.38 49.81 65.24 C 54.32 66.87 55.57 73.66 51.60 76.53 C 49.82 78.45 46.40 77.46 45.89 74.92 C 44.97 72.93 47.41 71.65 48.48 70.37 C 49.51 70.68 51.57 71.28 52.61 71.59 C 51.53 70.02 50.81 67.91 48.95 67.08 C 46.05 65.81 42.62 67.50 41.13 70.12 C 38.22 74.94 38.75 81.54 42.16 85.98 C 44.53 88.90 48.42 89.65 51.72 91.02 C 39.32 91.57 26.89 91.22 14.48 91.21 C 19.77 89.43 23.09 84.48 23.28 78.97 C 24.20 64.69 23.48 50.35 23.81 36.06 C 23.72 32.05 24.29 27.52 21.80 24.09 C 18.88 21.41 14.52 21.66 10.89 20.74 C 17.28 17.43 23.84 14.48 30.29 11.29 M 30.17 23.29 C 29.00 24.72 31.48 26.50 32.46 24.94 C 33.58 23.51 31.15 21.70 30.17 23.29 M 29.75 28.75 C 28.50 30.40 29.61 32.76 31.69 32.75 C 33.43 32.04 33.20 29.95 33.63 28.45 C 32.33 28.51 31.03 28.50 29.75 28.75 M 31.77 42.16 C 32.25 39.77 32.31 37.32 31.83 34.92 C 29.95 37.08 29.93 39.96 31.77 42.16 M 28.22 50.62 C 29.26 52.66 30.30 54.70 31.36 56.73 C 32.62 54.25 33.90 51.72 34.26 48.91 C 34.01 49.00 33.51 49.17 33.26 49.25 C 32.68 50.95 32.22 52.69 31.67 54.40 C 30.87 53.19 30.08 51.98 29.29 50.76 C 30.05 49.42 30.84 48.08 31.69 46.78 C 31.69 46.22 31.71 45.08 31.71 44.51 C 30.37 46.44 29.30 48.54 28.22 50.62 M 31.03 58.98 C 30.16 61.50 30.25 64.15 31.48 66.52 C 32.41 64.01 32.64 61.28 31.03 58.98 M 30.20 69.11 C 27.51 70.27 30.55 74.61 32.62 72.45 C 34.95 71.32 31.95 67.02 30.20 69.11 M 30.16 76.29 C 29.01 77.73 31.50 79.49 32.47 77.91 C 33.57 76.47 31.13 74.70 30.16 76.29 Z" />
<path fill="#000000" opacity="1.00" d=" M 42.11 10.11 C 45.75 8.78 47.55 14.90 43.88 15.79 C 40.26 17.12 38.50 11.14 42.11 10.11 Z" />
<path fill="#000000" opacity="1.00" d=" M 41.35 21.44 C 44.03 19.39 47.32 23.46 44.72 25.56 C 42.19 28.00 38.64 23.55 41.35 21.44 Z" />
<path fill="#000000" opacity="1.00" d=" M 17.16 23.84 C 18.14 22.82 19.90 23.22 20.64 24.30 C 22.44 26.41 22.37 29.40 22.54 32.01 C 20.21 29.70 18.23 26.96 17.16 23.84 Z" />
<path fill="#000000" opacity="1.00" d=" M 10.50 25.86 C 11.16 24.37 12.30 23.33 13.97 24.17 C 17.09 25.13 18.77 28.28 20.84 30.57 L 19.59 31.39 C 21.01 32.12 22.59 32.77 23.24 34.42 C 19.42 33.67 15.53 33.19 11.81 32.02 C 11.79 29.72 14.39 30.09 15.95 29.52 C 13.96 28.57 11.94 27.57 10.50 25.86 Z" />
<path fill="#000000" opacity="1.00" d=" M 41.45 32.49 C 43.36 30.33 46.88 33.71 44.69 35.69 C 42.77 38.03 39.06 34.39 41.45 32.49 Z" />
<path fill="#000000" opacity="1.00" d=" M 40.92 44.87 C 41.22 43.04 43.41 42.02 44.80 43.48 C 44.75 44.91 44.18 46.23 43.77 47.58 C 42.79 46.71 41.78 45.86 40.92 44.87 Z" />
<path fill="#000000" opacity="1.00" d=" M 50.71 53.54 C 50.46 51.24 52.72 49.12 54.99 49.27 C 57.05 49.26 58.54 50.90 60.00 52.13 L 60.00 54.93 C 58.61 57.14 56.82 59.35 54.12 59.94 C 49.18 61.18 44.19 62.24 39.58 64.50 C 43.32 60.15 48.98 58.59 54.47 58.04 C 53.15 56.61 51.43 55.40 50.71 53.54 M 52.53 51.54 C 51.27 52.71 52.46 54.88 53.82 55.47 C 54.37 54.89 55.48 53.74 56.03 53.17 C 55.51 54.78 55.05 56.40 54.64 58.05 C 56.27 56.75 59.41 55.67 58.77 52.97 C 58.55 50.03 54.10 49.16 52.53 51.54 Z" />
<path fill="#000000" opacity="1.00" d=" M 0.86 60.11 C 2.35 55.49 8.30 52.70 12.59 55.36 C 16.11 57.04 17.24 62.47 14.06 65.03 C 12.30 66.66 9.87 65.54 7.85 65.19 C 9.09 63.52 12.14 61.23 10.02 59.09 C 7.65 56.14 2.96 58.79 2.47 62.02 C 1.36 67.30 6.91 72.26 12.08 70.95 C 17.04 70.27 20.03 65.85 22.23 61.80 C 21.30 66.80 17.70 71.32 12.64 72.54 C 5.80 74.49 -1.74 66.91 0.86 60.11 Z" />
<path fill="#000000" opacity="1.00" d=" M 41.29 54.65 C 42.61 52.83 44.24 53.65 44.73 55.49 C 43.85 57.89 41.33 56.80 41.29 54.65 Z" />
<path fill="#000000" opacity="1.00" d=" M 9.61 79.25 C 14.55 77.17 18.91 74.08 22.11 69.74 C 21.56 71.10 21.01 72.46 20.45 73.81 C 20.94 73.93 21.91 74.17 22.39 74.29 C 21.37 79.44 20.71 85.77 15.67 88.66 C 14.25 89.83 11.65 89.30 11.65 87.20 C 14.96 84.22 18.49 81.36 20.49 77.27 C 20.05 76.71 19.61 76.16 19.16 75.62 C 17.92 79.34 12.91 82.87 9.61 79.25 Z" />
<path fill="#000000" opacity="1.00" d=" M 42.88 85.12 C 41.80 82.39 42.52 79.67 44.18 77.36 C 46.33 79.87 48.43 82.78 47.66 86.31 C 49.40 84.68 51.13 83.01 53.12 81.69 C 53.21 83.07 53.95 84.74 53.08 86.00 C 51.91 88.01 49.26 87.42 47.33 87.85 C 45.87 86.90 44.38 86.00 42.88 85.12 M 43.70 81.11 C 44.04 82.34 44.79 82.78 45.96 82.43 C 47.01 81.14 44.07 79.24 43.70 81.11 Z" />
<path fill="#000000" opacity="1.00" d=" M 31.08 95.16 C 31.76 96.02 32.43 96.89 33.12 97.75 L 33.78 96.02 C 34.27 96.34 35.25 96.99 35.74 97.32 C 43.11 95.65 50.74 97.09 58.18 97.48 C 49.12 97.84 40.05 97.81 30.99 98.04 L 32.81 100.00 L 31.98 100.00 C 31.57 99.40 30.74 98.21 30.33 97.61 C 29.27 97.76 28.22 97.91 27.16 98.06 C 27.38 97.56 27.82 96.56 28.04 96.05 C 28.63 96.41 29.82 97.12 30.41 97.48 C 30.58 96.90 30.91 95.74 31.08 95.16 Z" />
<path fill="#000000" opacity="1.00" d=" M 4.98 97.51 C 10.65 97.11 16.33 96.65 22.02 96.43 C 23.63 96.32 25.10 97.10 26.60 97.55 C 19.47 98.96 12.19 97.12 4.98 97.51 Z" />
</g>
</svg>
