<?xml version="1.0" encoding="UTF-8" ?>
<!DOCTYPE svg PUBLIC "-//W3C//DTD SVG 1.1//EN" "http://www.w3.org/Graphics/SVG/1.1/DTD/svg11.dtd">
<svg width="86pt" height="99pt" viewBox="0 0 86 99" version="1.1" xmlns="http://www.w3.org/2000/svg">
<g id="#000000fc">
<path fill="#000000" opacity="1.00" d=" M 44.47 2.84 C 44.62 2.31 44.91 1.24 45.05 0.71 C 45.20 1.26 45.50 2.37 45.65 2.93 C 46.44 2.71 48.04 2.26 48.83 2.04 C 48.85 2.55 48.88 3.56 48.90 4.06 C 48.03 3.81 46.29 3.31 45.42 3.06 C 45.40 3.77 45.36 5.19 45.35 5.90 C 45.02 5.00 44.71 4.09 44.41 3.18 C 42.88 4.07 41.27 4.22 40.85 2.18 C 41.75 2.34 43.57 2.68 44.47 2.84 Z" />
<path fill="#000000" opacity="1.00" d=" M 19.08 3.39 C 23.30 2.47 27.65 2.70 31.94 2.35 C 34.68 2.25 37.74 1.53 40.12 3.31 C 33.19 4.89 26.09 2.71 19.08 3.39 Z" />
<path fill="#000000" opacity="1.00" d=" M 50.79 3.70 C 51.18 2.68 51.91 2.16 52.95 2.15 C 58.47 2.16 63.97 2.92 69.50 2.73 C 69.52 2.87 69.56 3.16 69.58 3.31 C 63.31 3.07 57.05 4.41 50.79 3.70 Z" />
<path fill="#000000" opacity="1.00" d=" M 20.25 15.22 C 30.87 10.13 43.10 7.68 54.74 10.23 C 61.73 11.75 68.00 16.76 70.44 23.57 C 73.48 31.88 70.86 41.57 64.92 47.94 C 60.13 53.42 53.03 55.75 46.67 58.83 C 42.10 61.11 36.69 62.26 33.18 66.22 C 30.05 69.73 29.36 75.80 32.41 79.49 C 37.58 79.95 42.79 79.49 47.98 79.65 C 53.63 79.53 59.57 80.10 64.92 77.91 C 69.43 75.89 70.77 70.80 72.19 66.53 C 72.82 74.50 72.31 82.50 72.48 90.48 C 54.37 90.52 36.26 90.41 18.16 90.50 C 16.33 83.12 17.25 75.14 21.54 68.76 C 21.07 68.88 20.12 69.11 19.65 69.23 C 16.39 74.32 12.99 79.74 13.03 86.02 C 12.64 87.94 13.36 91.01 10.92 91.76 C 7.49 91.92 6.71 87.52 7.28 84.91 C 8.21 77.72 14.03 72.82 19.08 68.26 C 13.03 70.10 7.83 74.09 4.52 79.47 C 3.59 81.39 1.66 80.90 0.00 80.41 L 0.00 77.16 C 2.84 70.61 10.26 68.02 16.88 67.45 C 16.86 67.14 16.84 66.51 16.82 66.20 C 13.43 66.36 9.92 66.40 6.77 67.84 C 4.96 68.36 3.05 70.02 1.21 68.69 C 0.37 65.99 3.12 64.15 5.38 63.58 C 10.61 62.13 15.77 64.46 20.63 66.12 C 18.86 64.00 17.04 61.70 14.37 60.69 C 12.73 59.77 10.58 59.48 9.42 57.87 C 10.55 55.33 13.69 56.30 15.43 57.55 C 19.30 59.85 20.00 64.76 23.18 67.70 C 26.03 61.80 29.26 55.68 29.41 49.00 C 29.67 44.02 26.08 38.80 20.95 38.19 C 15.45 37.40 9.76 43.27 12.04 48.73 C 13.03 52.38 17.79 54.32 20.87 51.93 C 23.68 50.09 23.11 46.55 22.49 43.75 C 25.91 47.60 23.33 54.34 18.03 54.39 C 11.46 54.65 8.06 45.72 12.15 40.98 C 16.01 35.08 25.57 36.06 28.75 42.15 C 33.09 49.20 28.97 57.48 25.82 64.11 C 31.00 60.60 35.37 56.05 39.28 51.20 C 41.55 48.38 43.37 44.82 42.50 41.10 C 40.48 41.39 38.21 43.48 36.44 41.62 C 34.76 40.10 36.00 37.22 38.07 36.86 C 41.57 35.98 44.67 39.66 44.34 43.01 C 44.09 48.92 39.12 52.87 35.75 57.18 C 40.56 54.33 45.53 51.54 49.63 47.68 C 54.80 42.63 57.62 34.72 55.31 27.67 C 53.96 23.26 50.36 19.55 45.87 18.37 C 39.95 16.75 33.37 18.65 28.97 22.87 C 25.52 25.84 23.66 30.10 20.61 33.42 C 20.17 27.36 20.28 21.29 20.25 15.22 M 57.37 17.04 C 56.26 18.45 58.65 20.26 59.65 18.72 C 60.83 17.28 58.37 15.46 57.37 17.04 M 61.06 22.11 C 59.35 23.12 60.68 26.07 62.53 25.40 C 65.10 25.02 63.39 20.35 61.06 22.11 M 63.57 27.89 C 62.53 28.98 61.50 30.08 60.46 31.17 C 61.45 32.22 62.42 33.28 63.40 34.34 C 64.63 33.38 65.85 32.42 67.07 31.45 C 65.95 30.21 64.78 29.03 63.57 27.89 M 61.31 37.34 C 59.18 39.23 63.16 41.76 64.18 39.49 C 65.18 37.79 62.68 35.61 61.31 37.34 M 59.33 43.25 C 58.80 44.87 59.34 45.43 60.97 44.93 C 61.51 43.30 60.97 42.74 59.33 43.25 M 39.79 85.27 C 41.75 86.50 43.80 87.57 45.93 88.45 C 47.87 87.45 49.79 86.43 51.64 85.29 C 49.73 84.33 47.88 83.21 45.87 82.48 C 43.69 83.03 41.78 84.27 39.79 85.27 M 30.62 86.22 C 31.29 87.79 33.02 87.35 34.35 87.37 C 34.35 86.13 35.15 84.08 33.58 83.49 C 31.90 82.39 29.72 84.48 30.62 86.22 M 57.34 83.29 C 54.92 83.85 55.56 87.79 58.02 87.50 C 61.02 87.61 60.27 82.19 57.34 83.29 M 25.33 84.30 C 23.76 85.28 25.54 87.65 26.96 86.56 C 28.60 85.59 26.79 83.06 25.33 84.30 M 63.29 84.31 C 61.76 85.32 63.56 87.69 64.97 86.58 C 66.55 85.58 64.73 83.08 63.29 84.31 Z" />
<path fill="#000000" opacity="1.00" d=" M 42.21 19.23 C 44.61 18.02 46.18 22.02 43.78 22.89 C 41.52 23.86 40.02 20.18 42.21 19.23 Z" />
<path fill="#000000" opacity="1.00" d=" M 34.66 21.58 C 35.70 19.51 38.95 22.58 36.84 23.85 C 35.26 25.08 33.42 23.06 34.66 21.58 Z" />
<path fill="#000000" opacity="1.00" d=" M 47.22 22.40 C 47.96 22.28 49.45 22.04 50.19 21.92 C 50.39 23.29 50.97 24.97 49.04 25.37 C 47.41 25.13 47.34 23.69 47.22 22.40 Z" />
<path fill="#000000" opacity="1.00" d=" M 29.46 25.22 C 30.76 23.49 33.30 26.08 31.61 27.38 C 30.29 28.63 28.30 26.53 29.46 25.22 Z" />
<path fill="#000000" opacity="1.00" d=" M 50.82 29.86 C 50.93 28.18 51.43 26.81 53.34 27.45 C 53.39 27.99 53.50 29.05 53.55 29.59 C 52.87 29.66 51.50 29.79 50.82 29.86 Z" />
<path fill="#000000" opacity="1.00" d=" M 26.24 29.06 C 28.17 28.34 29.13 31.65 27.05 31.99 C 25.26 32.47 24.45 29.55 26.24 29.06 Z" />
<path fill="#000000" opacity="1.00" d=" M 51.25 34.11 C 52.89 33.60 53.44 34.16 52.90 35.78 C 51.25 36.28 50.70 35.73 51.25 34.11 Z" />
<path fill="#000000" opacity="1.00" d=" M 61.22 53.57 C 65.15 49.50 71.49 47.34 76.99 49.01 C 79.32 49.68 80.24 52.01 79.20 54.14 C 81.77 55.51 85.07 56.83 85.78 60.01 C 86.51 61.91 84.78 63.13 83.20 63.62 C 85.40 66.02 87.64 71.79 82.89 72.59 C 80.07 71.45 81.96 67.70 80.50 65.55 C 76.88 59.42 69.16 57.98 62.64 57.30 C 69.53 55.67 76.48 58.51 82.16 62.24 C 81.34 57.06 76.03 55.10 71.45 54.58 L 70.59 53.12 C 72.83 53.24 75.07 53.42 77.31 53.58 C 73.41 47.78 66.13 51.25 61.22 53.57 Z" />
<path fill="#000000" opacity="1.00" d=" M 56.20 68.95 C 53.89 63.95 59.67 58.54 64.61 60.45 C 70.15 61.96 71.19 69.15 68.30 73.45 C 68.67 70.24 69.55 66.51 67.28 63.75 C 65.04 60.50 58.65 60.78 57.74 65.00 C 57.11 66.81 58.44 68.55 60.12 69.10 C 62.39 69.03 62.40 66.56 62.72 64.91 C 64.33 66.02 66.42 67.72 65.18 69.91 C 63.52 73.99 57.40 72.75 56.20 68.95 Z" />
<path fill="#000000" opacity="1.00" d=" M 43.27 62.50 C 44.67 61.31 46.42 63.74 44.99 64.80 C 43.58 66.04 41.80 63.54 43.27 62.50 Z" />
<path fill="#000000" opacity="1.00" d=" M 38.86 65.40 C 40.48 64.86 41.03 65.42 40.54 67.06 C 38.92 67.61 38.36 67.06 38.86 65.40 Z" />
<path fill="#000000" opacity="1.00" d=" M 35.48 68.54 C 36.84 67.76 38.42 70.09 37.14 71.15 C 35.48 73.25 32.70 69.24 35.48 68.54 Z" />
<path fill="#000000" opacity="1.00" d=" M 34.36 74.63 C 36.25 73.06 38.75 76.34 36.81 77.73 C 34.79 79.57 32.27 76.08 34.36 74.63 Z" />
<path fill="#000000" opacity="1.00" d=" M 41.97 85.76 C 44.03 83.17 47.20 83.46 49.45 85.57 C 47.09 87.02 44.42 87.06 41.97 85.76 Z" />
<path fill="#000000" opacity="1.00" d=" M 42.86 96.69 C 43.50 95.91 44.13 95.13 44.76 94.34 C 45.86 95.06 46.92 96.76 48.47 95.66 C 48.49 96.27 48.50 96.88 48.52 97.49 C 47.39 97.27 46.26 97.06 45.13 96.86 L 45.79 99.00 L 44.59 99.00 L 44.62 97.03 C 36.04 97.39 27.48 96.93 18.91 96.49 C 26.76 96.28 34.59 95.32 42.45 95.95 L 42.86 96.69 Z" />
<path fill="#000000" opacity="1.00" d=" M 49.74 96.55 C 52.63 94.90 55.93 95.71 59.06 95.91 C 62.73 96.21 66.41 96.23 70.08 96.47 C 65.02 96.87 59.93 96.78 54.89 97.37 C 53.11 97.69 51.41 97.03 49.74 96.55 Z" />
</g>
</svg>
