<?xml version="1.0" encoding="UTF-8" ?>
<!DOCTYPE svg PUBLIC "-//W3C//DTD SVG 1.1//EN" "http://www.w3.org/Graphics/SVG/1.1/DTD/svg11.dtd">
<svg width="73pt" height="103pt" viewBox="0 0 73 103" version="1.1" xmlns="http://www.w3.org/2000/svg">
<g id="#000000fd">
<path fill="#000000" opacity="1.00" d=" M 29.27 2.85 C 29.44 2.36 29.79 1.38 29.96 0.90 C 30.13 1.37 30.46 2.33 30.63 2.80 C 31.50 2.64 33.25 2.32 34.12 2.16 C 34.04 4.46 32.14 3.58 30.62 3.31 C 30.24 4.22 29.85 5.12 29.45 6.02 C 29.51 5.31 29.63 3.89 29.69 3.18 C 28.80 3.38 27.00 3.79 26.10 3.99 C 26.11 3.52 26.12 2.58 26.12 2.10 C 26.91 2.29 28.48 2.66 29.27 2.85 Z" />
<path fill="#000000" opacity="1.00" d=" M 4.05 3.30 C 8.94 2.40 13.95 2.68 18.89 2.21 C 20.78 2.20 23.35 1.50 24.30 3.72 C 17.55 4.31 10.81 3.04 4.05 3.30 Z" />
<path fill="#000000" opacity="1.00" d=" M 34.82 2.70 C 41.54 1.55 48.38 2.91 55.15 2.98 C 49.80 3.51 44.42 3.67 39.05 3.98 C 37.47 4.23 36.11 3.49 34.82 2.70 Z" />
<path fill="#000000" opacity="1.00" d=" M 9.37 14.45 C 18.97 10.40 29.74 7.87 40.11 10.25 C 46.20 11.69 52.42 15.38 54.52 21.60 C 56.41 27.13 54.00 33.13 50.39 37.38 C 47.58 40.89 43.61 43.13 39.82 45.41 C 46.84 45.78 53.82 49.47 57.25 55.74 C 60.45 62.28 60.83 70.53 56.99 76.90 C 52.41 84.64 43.71 89.07 35.04 90.42 C 24.57 91.76 13.85 89.74 4.12 85.82 C 2.35 85.02 -0.94 83.61 0.86 81.19 C 3.55 76.31 6.17 71.37 9.18 66.68 C 11.85 72.40 13.65 79.11 19.22 82.79 C 27.09 88.48 39.71 84.30 42.60 75.04 C 45.28 68.47 39.72 58.70 32.04 59.80 C 28.02 60.28 24.15 64.73 26.27 68.76 C 27.15 71.09 30.54 72.32 32.32 70.27 C 33.79 68.67 32.20 66.56 32.02 64.77 C 34.25 64.89 36.94 65.47 37.60 67.97 C 39.00 71.95 35.00 75.95 31.04 75.45 C 25.65 75.23 22.04 68.97 24.07 64.09 C 26.26 57.89 35.67 55.88 40.09 60.88 C 42.21 62.65 42.45 65.85 44.82 67.35 C 44.36 61.29 41.38 55.01 35.70 52.27 C 29.81 49.41 23.08 51.11 16.84 49.95 C 15.41 49.93 14.26 49.08 13.18 48.24 C 19.34 45.99 26.06 44.78 31.30 40.57 C 31.22 41.01 31.07 41.89 30.99 42.34 C 30.29 42.82 28.89 43.80 28.18 44.29 C 36.80 42.71 43.35 32.69 39.55 24.35 C 36.22 16.32 25.13 14.66 18.43 19.40 C 14.04 22.09 11.90 26.93 9.10 31.02 C 9.04 25.57 8.01 19.66 9.37 14.45 M 45.34 25.05 C 45.65 27.37 47.14 29.28 48.33 31.23 C 49.30 28.60 52.27 25.43 49.82 22.74 C 49.67 24.83 49.30 26.89 48.86 28.94 C 45.70 27.41 45.58 21.07 50.13 22.42 C 49.74 21.84 48.96 20.68 48.56 20.11 C 46.45 20.49 46.08 23.34 45.34 25.05 M 39.17 49.18 C 37.57 49.55 38.25 52.16 39.83 51.68 C 41.45 51.35 40.77 48.65 39.17 49.18 M 44.32 52.28 C 42.72 53.22 44.45 55.69 45.90 54.62 C 47.51 53.69 45.78 51.16 44.32 52.28 M 49.45 56.62 C 46.97 57.02 47.30 61.24 49.98 60.94 C 53.38 61.37 52.62 55.56 49.45 56.62 M 48.34 67.71 C 49.82 68.66 50.93 70.72 52.76 70.89 C 54.06 69.93 55.20 68.78 56.39 67.69 C 55.13 66.32 53.87 64.95 52.62 63.57 C 51.10 64.86 49.69 66.25 48.34 67.71 M 48.43 74.43 C 46.01 76.50 49.86 80.11 51.67 77.70 C 53.76 75.64 50.55 72.85 48.43 74.43 M 44.25 80.44 C 42.72 81.46 44.54 83.88 45.95 82.71 C 47.47 81.69 45.66 79.25 44.25 80.44 M 39.13 83.30 C 37.56 83.68 38.24 86.28 39.81 85.78 C 41.45 85.43 40.74 82.74 39.13 83.30 Z" />
<path fill="#000000" opacity="1.00" d=" M 23.33 34.05 C 17.42 30.15 21.53 20.59 27.91 20.11 C 33.80 18.81 39.64 24.10 39.18 30.05 C 39.46 34.71 36.12 38.28 33.13 41.39 C 32.62 40.97 32.12 40.54 31.62 40.11 C 37.30 37.66 40.12 29.71 36.36 24.55 C 33.24 20.07 25.37 19.92 22.67 24.92 C 20.93 27.87 21.69 32.41 25.15 33.70 C 28.71 35.41 33.29 32.12 32.65 28.20 C 32.93 28.81 33.22 29.43 33.50 30.05 C 32.51 33.93 28.72 36.33 24.75 35.45 C 24.84 35.91 25.01 36.84 25.10 37.31 C 27.38 37.41 29.66 37.68 31.93 37.93 C 27.62 41.78 21.90 44.27 16.07 44.18 C 13.25 43.94 9.43 43.16 8.76 39.88 C 8.89 37.19 11.90 37.66 13.60 38.50 C 17.88 40.29 22.56 39.98 27.07 39.61 C 23.48 38.92 16.24 38.68 17.27 33.36 C 19.19 32.45 20.42 34.67 21.84 35.49 C 22.34 35.02 22.84 34.54 23.33 34.05 Z" />
<path fill="#000000" opacity="1.00" d=" M 57.18 33.95 C 55.34 30.29 60.65 26.91 63.57 29.36 C 67.33 31.34 65.78 36.80 62.41 38.31 C 57.85 40.20 52.72 39.89 48.02 41.36 C 51.47 36.98 57.62 38.00 62.40 36.42 C 64.90 35.68 65.83 31.98 63.62 30.38 C 61.57 27.97 56.95 30.54 58.39 33.54 C 59.83 35.65 61.54 33.82 61.75 31.99 C 61.70 33.19 61.61 34.40 61.48 35.60 C 59.95 35.48 57.75 35.89 57.18 33.95 Z" />
<path fill="#000000" opacity="1.00" d=" M 53.29 40.65 C 56.60 40.85 61.08 40.62 62.90 44.03 C 62.79 44.78 62.59 46.29 62.48 47.05 C 64.62 49.08 67.35 52.45 64.36 55.12 C 62.65 53.39 62.41 50.87 61.24 48.83 C 59.58 46.98 57.04 46.18 55.55 44.14 C 57.43 44.69 59.29 45.32 61.16 45.91 C 59.87 42.73 56.48 41.79 53.33 41.73 L 53.29 40.65 Z" />
<path fill="#000000" opacity="1.00" d=" M 51.20 45.83 C 55.79 46.60 59.28 49.90 62.27 53.23 C 62.16 54.22 62.51 55.00 63.31 55.58 C 63.71 57.61 64.35 60.78 61.70 61.53 C 58.79 61.51 60.78 57.83 60.47 56.08 C 60.09 50.91 54.80 48.61 51.20 45.83 Z" />
<path fill="#000000" opacity="1.00" d=" M 19.05 57.51 C 20.45 52.19 26.73 49.77 31.39 52.64 C 27.46 52.41 22.55 52.41 20.76 56.67 C 24.24 57.01 27.74 56.89 31.22 56.73 C 27.93 59.61 22.96 58.13 19.05 57.51 Z" />
<path fill="#000000" opacity="1.00" d=" M 22.25 55.90 C 24.93 53.42 28.85 53.60 32.24 53.85 L 33.37 55.32 C 29.66 55.31 25.95 55.60 22.25 55.90 Z" />
<path fill="#000000" opacity="1.00" d=" M 13.30 60.29 C 15.19 59.90 17.19 61.65 16.64 63.61 C 16.33 66.30 11.97 66.60 11.35 63.97 C 10.70 62.39 11.82 60.81 13.30 60.29 Z" />
<path fill="#000000" opacity="1.00" d=" M 62.90 69.76 C 63.36 68.98 64.59 67.54 65.52 68.39 C 68.67 69.88 67.49 73.94 66.27 76.36 C 63.59 81.78 57.86 84.33 52.96 87.30 C 55.86 86.83 58.82 86.03 61.12 84.09 C 63.02 82.84 64.61 80.58 67.16 80.93 C 68.19 83.50 66.27 85.98 64.06 87.11 C 59.97 89.46 55.08 88.68 50.59 89.01 C 56.18 91.02 62.25 88.67 67.89 90.40 C 70.07 91.07 71.43 93.04 73.00 94.56 L 73.00 98.86 C 71.42 100.51 69.57 102.42 67.09 102.30 C 64.04 102.27 61.12 98.80 62.90 95.89 C 64.02 93.41 66.96 94.33 69.04 94.53 C 68.46 96.05 67.92 97.58 67.71 99.20 C 67.82 98.21 67.79 97.23 67.62 96.26 C 66.58 94.25 63.40 96.01 64.02 97.97 C 64.24 101.61 69.57 102.11 71.20 99.14 C 73.72 97.00 71.12 93.27 68.53 92.69 C 63.49 92.02 58.24 93.08 53.34 91.44 C 51.38 90.93 50.54 88.96 49.31 87.57 C 53.30 84.92 57.11 81.77 59.58 77.59 C 61.03 75.13 61.70 72.33 62.90 69.76 Z" />
<path fill="#000000" opacity="1.00" d=" M 15.18 72.05 C 15.39 70.27 17.75 71.32 18.90 71.12 C 18.81 72.48 19.17 75.15 17.04 74.89 C 15.45 75.17 14.53 73.38 15.18 72.05 Z" />
<path fill="#000000" opacity="1.00" d=" M 20.43 79.03 C 20.29 77.53 22.17 77.03 23.17 77.86 C 23.31 78.76 23.41 79.66 23.49 80.56 C 22.40 80.21 20.60 80.60 20.43 79.03 Z" />
<path fill="#000000" opacity="1.00" d=" M 27.41 80.23 C 29.05 79.68 29.60 80.23 29.06 81.88 C 27.45 82.38 26.90 81.83 27.41 80.23 Z" />
<path fill="#000000" opacity="1.00" d=" M 29.51 94.37 C 29.77 94.38 30.30 94.40 30.57 94.41 L 30.16 95.85 C 31.57 96.02 32.98 96.20 34.39 96.38 C 33.35 98.08 30.92 96.33 30.06 98.52 C 29.27 97.69 28.31 97.10 27.15 96.97 C 19.16 98.21 11.18 96.69 3.18 96.46 C 8.13 96.32 13.10 96.54 18.04 95.99 C 21.99 95.53 25.95 96.49 29.90 95.89 L 29.51 94.37 Z" />
<path fill="#000000" opacity="1.00" d=" M 35.60 96.14 C 42.01 95.30 48.48 96.79 54.93 96.47 C 49.62 96.84 44.31 97.41 38.98 97.61 C 37.58 97.95 36.55 96.99 35.60 96.14 Z" />
</g>
</svg>
