<?xml version="1.0" encoding="UTF-8" ?>
<!DOCTYPE svg PUBLIC "-//W3C//DTD SVG 1.1//EN" "http://www.w3.org/Graphics/SVG/1.1/DTD/svg11.dtd">
<svg width="70pt" height="99pt" viewBox="0 0 70 99" version="1.1" xmlns="http://www.w3.org/2000/svg">
<g id="#000000fd">
<path fill="#000000" opacity="1.00" d=" M 37.58 2.96 C 39.05 2.34 40.53 1.74 42.00 1.12 C 43.25 1.70 44.51 2.24 45.79 2.74 C 45.77 2.89 45.74 3.21 45.72 3.37 C 44.10 3.92 42.58 4.70 41.08 5.51 L 41.97 3.90 C 40.46 3.82 38.82 4.01 37.58 2.96 Z" />
<path fill="#000000" opacity="1.00" d=" M 15.91 3.06 C 21.65 2.67 27.39 2.39 33.13 2.15 C 34.51 1.88 35.61 2.70 36.48 3.65 C 29.63 4.27 22.77 3.25 15.91 3.06 Z" />
<path fill="#000000" opacity="1.00" d=" M 46.56 3.03 C 53.27 1.18 60.32 3.04 67.16 3.01 C 60.32 3.09 53.26 4.98 46.56 3.03 Z" />
<path fill="#000000" opacity="1.00" d=" M 29.88 8.99 C 39.61 9.22 49.35 8.95 59.08 9.10 C 55.33 10.79 49.64 11.99 49.42 17.08 C 49.24 32.37 49.38 47.67 49.37 62.96 C 53.89 62.32 58.68 61.46 62.17 58.27 C 65.40 55.42 67.98 51.42 68.10 47.01 C 68.30 44.53 65.65 41.90 63.17 43.02 C 60.90 43.90 60.43 47.58 63.10 48.26 C 65.57 48.60 65.19 45.68 65.84 44.15 C 66.46 45.83 67.17 48.47 64.86 49.24 C 61.00 51.09 58.24 44.79 61.58 42.60 C 65.51 39.22 70.81 44.62 69.26 48.92 C 67.34 56.68 64.46 64.23 61.35 71.58 C 57.38 72.13 53.35 71.75 49.36 71.83 C 49.72 75.96 49.51 80.50 51.93 84.09 C 54.25 87.59 58.58 88.56 62.20 90.12 C 49.86 90.55 37.50 90.21 25.15 90.31 C 27.36 88.92 30.02 87.86 31.37 85.47 C 33.75 81.32 33.87 76.39 34.28 71.74 C 29.76 71.55 24.06 72.17 21.88 76.80 C 20.00 80.27 22.74 85.46 26.99 84.58 C 30.03 83.86 29.81 80.56 29.63 78.15 C 31.19 80.66 31.77 84.11 29.33 86.30 C 24.98 90.96 16.33 87.13 16.10 80.99 C 15.50 76.96 18.54 73.74 21.66 71.72 C 15.12 71.78 8.57 71.94 2.03 71.77 C 1.09 68.91 0.65 65.92 0.09 62.97 C 10.06 45.00 20.05 27.03 29.88 8.99 M 40.41 16.08 C 38.79 16.99 40.44 19.52 41.93 18.45 C 43.52 17.55 41.91 14.95 40.41 16.08 M 30.95 21.68 C 29.27 23.96 28.07 26.54 26.55 28.92 C 27.02 29.41 27.50 29.89 27.98 30.36 C 30.92 28.12 34.10 32.02 33.31 34.94 C 32.41 39.32 29.19 43.11 29.84 47.81 C 31.34 49.50 32.65 51.37 33.35 53.54 L 34.38 53.63 C 34.07 43.39 34.52 33.14 34.20 22.89 C 34.51 21.09 31.96 20.70 30.95 21.68 M 40.62 21.31 C 39.28 22.51 39.45 23.61 41.12 24.60 C 43.31 23.89 43.01 21.06 40.62 21.31 M 40.46 27.50 C 38.10 28.08 39.10 32.21 41.51 31.56 C 44.61 31.56 43.25 26.00 40.46 27.50 M 25.94 31.75 C 26.86 33.03 27.74 34.34 28.58 35.67 C 29.53 34.71 30.49 33.76 31.46 32.82 C 30.62 34.31 30.25 36.75 27.97 36.32 C 26.18 35.27 26.16 32.90 25.21 31.24 C 24.26 33.33 23.21 35.39 22.08 37.39 C 25.64 38.00 27.45 41.11 28.55 44.23 C 28.75 39.47 34.64 34.19 30.34 30.00 C 28.88 30.59 27.41 31.17 25.94 31.75 M 41.75 41.01 C 42.22 38.71 42.22 36.36 41.72 34.07 C 39.74 35.96 39.62 39.18 41.75 41.01 M 21.27 38.78 C 17.02 46.88 12.56 54.87 8.17 62.91 C 16.90 62.81 25.63 62.88 34.35 62.86 C 34.25 59.74 34.27 56.55 33.35 53.54 C 31.12 50.50 28.06 47.57 24.03 47.54 C 19.72 47.19 15.70 51.72 17.08 55.94 C 17.70 58.43 21.19 60.30 23.25 58.26 C 25.76 56.48 22.64 54.09 21.31 52.72 C 23.04 52.43 24.95 51.09 26.57 52.42 C 29.20 54.05 29.32 58.08 27.11 60.12 C 23.92 63.38 17.81 62.09 15.95 58.00 C 13.63 53.98 16.21 48.85 20.04 46.89 C 22.22 46.03 24.65 46.20 26.81 45.27 C 24.68 44.81 22.44 44.47 20.60 43.19 C 23.44 42.32 26.03 43.59 28.45 45.04 C 26.25 42.73 23.88 40.60 21.27 38.78 M 41.17 43.53 C 40.15 45.60 39.15 47.68 38.16 49.76 C 39.21 51.77 40.25 53.78 41.31 55.78 C 42.20 53.88 43.27 52.04 43.85 50.01 C 43.75 47.63 42.12 45.64 41.17 43.53 M 41.45 65.41 C 42.10 63.15 42.25 60.80 41.98 58.46 C 39.24 59.88 40.12 63.31 41.45 65.41 M 39.27 69.17 C 38.55 70.54 40.55 71.58 40.92 72.80 C 41.72 71.78 43.57 71.08 43.31 69.51 C 43.21 67.43 39.57 66.88 39.27 69.17 M 40.18 75.47 C 38.73 76.80 41.07 79.12 42.36 77.60 C 43.76 76.25 41.49 74.00 40.18 75.47 M 40.36 81.24 C 39.89 82.89 40.46 83.43 42.06 82.86 C 42.53 81.21 41.97 80.67 40.36 81.24 Z" />
<path fill="#000000" opacity="1.00" d=" M 53.25 16.24 C 56.53 14.40 59.63 19.52 56.39 21.36 C 53.16 23.63 49.73 18.19 53.25 16.24 Z" />
<path fill="#000000" opacity="1.00" d=" M 54.38 25.48 C 57.40 24.97 58.72 29.75 55.61 30.67 C 52.19 32.04 50.58 25.85 54.38 25.48 Z" />
<path fill="#000000" opacity="1.00" d=" M 53.42 35.52 C 55.03 34.09 57.71 35.93 56.96 37.95 C 57.01 39.17 55.19 40.26 54.14 39.67 C 52.20 39.45 51.79 36.43 53.42 35.52 Z" />
<path fill="#000000" opacity="1.00" d=" M 54.59 44.49 C 56.44 44.44 57.77 46.96 56.10 48.17 C 54.96 49.51 52.98 48.40 52.51 47.00 C 52.77 45.79 53.47 44.95 54.59 44.49 Z" />
<path fill="#000000" opacity="1.00" d=" M 41.05 45.63 C 43.01 48.10 43.07 50.91 41.40 53.55 C 40.75 52.36 40.09 51.18 39.53 49.95 C 39.96 48.48 40.47 47.05 41.05 45.63 Z" />
<path fill="#000000" opacity="1.00" d=" M 57.93 49.98 C 60.56 50.19 63.18 50.48 65.80 50.76 C 64.55 53.20 63.44 57.60 59.72 56.52 C 60.28 55.88 61.41 54.61 61.97 53.98 C 60.61 54.35 59.24 54.65 57.91 55.08 C 56.47 55.63 55.88 57.41 54.38 57.85 C 53.25 57.30 52.84 56.41 53.15 55.18 C 55.36 53.61 57.89 52.55 60.61 52.37 C 59.70 51.59 58.81 50.79 57.93 49.98 Z" />
<path fill="#000000" opacity="1.00" d=" M 1.64 75.74 C 5.57 72.22 11.34 72.65 16.23 73.16 C 14.89 76.32 14.02 79.65 13.56 83.05 C 13.26 84.88 12.86 87.83 10.24 86.90 C 8.61 84.34 10.25 81.45 10.80 78.82 C 8.61 82.59 7.24 87.40 2.80 89.14 C 2.01 87.31 1.02 85.18 2.21 83.27 C 4.70 78.49 9.89 76.26 14.30 73.65 C 10.18 74.93 6.85 77.80 2.92 79.48 C 0.30 80.35 0.09 76.96 1.64 75.74 Z" />
<path fill="#000000" opacity="1.00" d=" M 55.62 77.43 C 57.03 75.94 58.64 74.06 60.95 75.01 C 66.26 76.31 66.04 84.97 60.84 86.33 C 56.35 88.11 52.63 83.96 51.05 80.23 C 53.25 81.36 55.32 83.84 58.08 83.18 C 60.66 82.77 62.78 79.29 60.68 77.18 C 59.27 75.35 57.25 76.98 55.62 77.43 Z" />
<path fill="#000000" opacity="1.00" d=" M 39.32 94.82 C 40.58 95.80 43.25 94.90 43.63 96.71 C 42.47 97.91 40.05 96.90 39.53 99.00 L 39.15 99.00 C 39.36 98.18 39.79 96.54 40.00 95.72 C 38.79 96.16 36.38 97.02 35.17 97.46 C 35.40 97.08 35.85 96.33 36.08 95.96 C 37.18 95.65 38.34 95.44 39.32 94.82 Z" />
<path fill="#000000" opacity="1.00" d=" M 14.42 96.58 C 19.61 95.97 24.83 95.68 30.05 95.45 C 31.68 95.27 33.21 95.96 34.71 96.49 C 28.06 98.13 21.19 96.05 14.42 96.58 Z" />
<path fill="#000000" opacity="1.00" d=" M 44.33 96.31 C 51.43 94.37 58.90 96.51 66.13 96.63 C 60.86 96.51 55.58 96.58 50.33 97.17 C 48.28 97.46 46.27 96.93 44.33 96.31 Z" />
</g>
</svg>
