<?xml version="1.0" encoding="UTF-8" ?>
<!DOCTYPE svg PUBLIC "-//W3C//DTD SVG 1.1//EN" "http://www.w3.org/Graphics/SVG/1.1/DTD/svg11.dtd">
<svg width="74pt" height="101pt" viewBox="0 0 74 101" version="1.1" xmlns="http://www.w3.org/2000/svg">
<g id="#000000fc">
<path fill="#000000" opacity="1.00" d=" M 36.25 0.00 L 36.62 0.00 C 37.65 1.52 39.50 2.00 40.95 3.00 C 39.44 3.88 37.75 4.40 36.30 5.38 C 36.10 5.18 35.71 4.76 35.51 4.56 C 34.97 4.31 33.90 3.81 33.37 3.55 C 33.38 3.30 33.40 2.78 33.41 2.52 C 33.97 2.21 35.08 1.61 35.64 1.31 C 35.79 0.98 36.10 0.33 36.25 0.00 Z" />
<path fill="#000000" opacity="1.00" d=" M 11.04 3.14 C 16.70 2.60 22.39 2.40 28.07 2.14 C 29.40 1.90 30.45 2.83 31.45 3.53 C 24.66 4.44 17.84 3.18 11.04 3.14 Z" />
<path fill="#000000" opacity="1.00" d=" M 41.61 3.32 C 42.95 2.62 44.38 1.92 45.96 2.14 C 51.28 2.45 56.63 2.57 61.93 3.16 C 55.16 3.09 48.32 4.67 41.61 3.32 Z" />
<path fill="#000000" opacity="1.00" d=" M 13.43 11.24 C 29.31 11.25 45.20 11.19 61.09 11.26 C 59.35 17.57 57.36 23.80 55.62 30.11 C 55.20 31.68 54.53 33.17 53.70 34.56 C 53.50 30.85 53.86 26.10 50.07 24.00 C 45.70 20.54 37.13 23.76 38.40 29.91 C 38.60 33.09 43.38 35.00 45.11 31.97 C 45.17 31.26 45.29 29.84 45.35 29.12 C 44.30 29.13 42.19 29.16 41.14 29.17 C 41.88 27.28 43.55 24.86 45.92 26.14 C 49.58 27.58 48.71 33.00 45.49 34.44 C 41.75 36.58 36.96 33.18 37.09 29.07 C 36.58 25.85 39.45 23.83 41.58 22.01 C 34.38 22.45 27.18 21.54 19.99 22.02 C 18.40 28.19 17.32 34.50 16.04 40.74 C 24.37 40.82 32.70 40.81 41.03 40.81 C 45.71 40.80 50.53 41.82 54.38 44.59 C 65.56 52.22 67.64 69.70 59.19 80.10 C 54.14 86.29 47.00 91.28 38.91 92.24 C 30.85 93.26 22.68 91.59 15.10 88.86 C 9.89 86.95 4.57 84.88 0.44 81.05 C 3.28 75.65 6.09 70.21 9.31 65.02 C 11.13 68.26 11.47 73.51 15.97 74.14 C 19.37 74.80 21.20 70.27 18.34 68.30 C 17.25 68.80 16.16 69.29 15.06 69.76 C 16.21 68.83 17.08 66.97 18.82 67.38 C 20.63 67.57 21.59 69.34 22.76 70.50 C 23.75 68.46 24.77 66.07 27.04 65.17 C 28.28 64.53 30.06 64.90 31.05 63.88 C 30.61 62.43 28.94 61.99 28.01 60.92 C 26.02 58.72 25.30 55.75 24.82 52.91 C 26.44 53.20 28.07 53.52 29.68 53.87 C 27.93 51.05 30.86 47.01 33.85 49.06 C 36.90 51.18 33.97 55.11 30.86 54.69 C 32.13 56.65 32.79 58.88 32.61 61.24 C 34.02 60.21 35.44 59.20 36.87 58.21 C 36.71 59.69 36.63 61.18 36.31 62.64 C 35.25 63.21 34.13 63.64 33.06 64.19 C 33.27 65.63 35.21 65.87 36.04 66.92 C 40.31 71.25 38.13 79.33 32.70 81.65 C 28.77 83.82 24.24 82.28 20.18 81.46 C 26.81 87.20 38.18 85.48 43.29 78.46 C 51.56 68.27 46.26 49.86 32.90 47.22 C 24.39 46.42 15.79 46.99 7.25 46.94 C 9.08 35.00 11.41 23.15 13.43 11.24 M 34.43 14.56 C 33.03 14.91 33.26 17.97 35.08 17.71 C 37.77 18.41 37.15 12.99 34.43 14.56 M 17.42 15.14 C 17.54 15.69 17.76 16.78 17.88 17.33 C 20.65 17.14 23.40 16.70 26.11 16.09 C 23.29 15.29 20.35 14.93 17.42 15.14 M 44.66 16.15 C 47.15 16.64 49.66 17.37 52.22 17.21 C 52.42 16.75 52.82 15.82 53.02 15.35 C 50.24 14.35 47.36 15.40 44.66 16.15 M 40.12 45.16 C 38.21 45.56 38.98 48.74 40.87 48.15 C 42.74 47.71 42.00 44.61 40.12 45.16 M 45.09 49.73 C 45.83 50.53 46.63 51.27 47.43 52.02 C 47.57 51.15 47.85 49.41 47.99 48.54 C 47.27 48.84 45.81 49.43 45.09 49.73 M 49.03 55.98 C 50.16 56.97 50.98 59.13 52.85 58.57 C 55.26 58.18 55.46 54.54 53.20 53.71 C 51.35 53.03 50.24 55.03 49.03 55.98 M 26.01 53.93 C 27.03 57.02 28.20 60.22 30.87 62.31 C 30.09 60.38 29.19 58.51 28.20 56.68 L 29.48 57.06 C 30.18 57.58 31.57 58.63 32.27 59.15 C 31.23 56.32 28.86 54.58 26.01 53.93 M 50.37 65.91 C 51.90 67.37 53.43 68.83 54.97 70.30 C 56.47 68.83 57.97 67.38 59.47 65.92 C 57.97 64.44 56.46 62.96 54.95 61.47 C 53.42 62.95 51.90 64.43 50.37 65.91 M 24.13 71.00 C 22.68 74.86 27.08 76.75 30.15 77.07 C 26.96 78.02 24.12 76.45 22.49 73.69 C 20.98 76.43 18.00 77.00 15.13 76.55 C 19.32 79.63 24.50 82.86 29.90 81.09 C 34.41 79.93 37.32 74.37 34.81 70.19 C 32.87 65.71 25.26 66.13 24.13 71.00 M 51.38 73.36 C 48.24 74.20 50.07 79.43 52.98 78.04 C 56.35 77.34 54.47 71.94 51.38 73.36 M 45.21 82.09 C 46.15 82.58 47.12 83.02 48.11 83.39 C 47.94 82.60 47.61 81.01 47.44 80.22 C 46.39 80.45 45.47 80.96 45.21 82.09 M 39.40 84.06 C 38.04 85.37 40.13 87.69 41.49 86.30 C 42.98 85.03 40.75 82.53 39.40 84.06 Z" />
<path fill="#000000" opacity="1.00" d=" M 30.23 25.25 C 32.37 23.37 35.33 23.43 37.98 23.05 C 36.03 26.09 33.60 29.25 33.80 33.06 C 34.15 35.42 35.12 37.61 35.72 39.91 C 30.10 38.30 32.31 31.71 32.98 27.67 C 30.07 30.12 31.38 34.06 31.01 37.31 C 29.52 36.11 28.88 34.34 28.35 32.57 C 25.86 30.24 28.01 26.84 30.23 25.25 M 31.13 26.85 C 31.77 26.28 31.77 26.28 31.13 26.85 M 29.26 30.46 C 30.60 30.30 31.58 28.09 31.13 26.85 C 29.56 26.76 28.64 29.20 29.26 30.46 Z" />
<path fill="#000000" opacity="1.00" d=" M 59.42 36.05 C 60.24 31.41 67.00 31.35 68.79 35.34 C 71.55 39.23 67.22 44.14 63.04 43.98 C 56.67 43.87 51.27 39.68 44.97 39.02 C 51.51 36.39 57.70 40.95 63.99 42.11 C 67.48 42.57 70.22 37.95 67.62 35.31 C 66.09 32.56 60.65 33.39 61.08 36.88 C 61.05 39.15 64.25 39.94 64.95 37.57 C 65.14 37.53 65.52 37.43 65.71 37.38 C 65.10 38.32 64.49 39.25 63.89 40.19 C 61.52 40.24 58.87 38.82 59.42 36.05 Z" />
<path fill="#000000" opacity="1.00" d=" M 16.98 40.12 C 17.65 37.31 18.45 34.21 21.46 33.05 C 21.43 33.70 21.37 35.00 21.34 35.65 C 22.66 35.36 23.98 35.09 25.32 34.92 C 27.05 36.66 24.01 37.18 23.20 38.22 C 23.47 38.73 24.00 39.76 24.26 40.27 C 21.83 40.23 19.41 40.16 16.98 40.12 Z" />
<path fill="#000000" opacity="1.00" d=" M 57.35 44.69 C 63.17 44.80 69.84 46.78 72.83 52.20 C 74.10 53.79 73.55 57.15 71.07 56.85 C 69.30 55.26 68.26 53.06 66.71 51.27 C 64.23 48.27 60.54 46.76 57.35 44.69 Z" />
<path fill="#000000" opacity="1.00" d=" M 63.48 51.22 C 67.63 54.88 71.14 60.26 70.25 66.02 C 70.22 67.86 67.25 70.51 66.15 67.98 C 66.02 65.17 66.63 62.35 66.23 59.55 C 65.73 56.65 64.45 53.98 63.48 51.22 Z" />
<path fill="#000000" opacity="1.00" d=" M 40.53 55.52 C 42.20 55.00 43.98 56.85 43.38 58.49 C 43.02 60.09 40.49 61.03 39.43 59.49 C 37.86 58.40 38.94 55.79 40.53 55.52 Z" />
<path fill="#000000" opacity="1.00" d=" M 28.34 55.91 L 28.61 56.33 L 28.20 56.68 L 27.95 56.21 L 28.34 55.91 Z" />
<path fill="#000000" opacity="1.00" d=" M 52.29 66.05 C 53.24 65.14 54.19 64.22 55.14 63.30 C 55.83 64.22 56.50 65.15 57.13 66.11 C 56.51 66.83 55.83 67.50 55.09 68.10 C 54.13 67.45 53.20 66.77 52.29 66.05 Z" />
<path fill="#000000" opacity="1.00" d=" M 43.25 65.30 C 46.21 64.03 46.85 69.55 44.01 69.34 C 41.68 69.51 40.79 65.86 43.25 65.30 Z" />
<path fill="#000000" opacity="1.00" d=" M 39.51 74.17 C 40.45 74.74 42.24 74.61 42.41 76.02 C 43.16 77.88 40.48 78.58 39.24 77.64 C 39.28 76.48 39.37 75.32 39.51 74.17 Z" />
<path fill="#000000" opacity="1.00" d=" M 31.85 97.71 C 32.02 97.42 32.36 96.85 32.53 96.57 C 32.72 96.78 33.11 97.21 33.31 97.43 C 34.18 97.54 35.07 97.57 35.95 97.50 C 36.60 98.07 36.60 98.93 35.94 99.49 C 35.03 99.40 34.15 99.46 33.28 99.69 C 33.19 100.01 33.01 100.67 32.92 101.00 L 32.67 101.00 C 32.61 100.40 32.50 99.19 32.44 98.58 C 26.40 99.28 20.24 99.88 14.24 98.55 C 20.06 97.12 26.01 98.46 31.85 97.71 Z" />
<path fill="#000000" opacity="1.00" d=" M 37.53 98.77 C 40.81 96.91 44.56 97.99 48.09 98.12 C 51.74 98.34 55.40 98.27 59.05 98.45 C 51.89 98.43 44.60 100.29 37.53 98.77 Z" />
</g>
</svg>
