<?xml version="1.0" encoding="UTF-8" ?>
<!DOCTYPE svg PUBLIC "-//W3C//DTD SVG 1.1//EN" "http://www.w3.org/Graphics/SVG/1.1/DTD/svg11.dtd">
<svg width="89pt" height="101pt" viewBox="0 0 89 101" version="1.1" xmlns="http://www.w3.org/2000/svg">
<g id="#000000fc">
<path fill="#000000" opacity="1.00" d=" M 40.71 3.68 C 41.64 2.77 42.58 1.87 43.53 0.98 C 43.65 1.72 43.88 3.19 44.00 3.93 C 44.46 3.40 45.40 2.34 45.87 1.81 C 46.09 2.24 46.52 3.12 46.74 3.55 C 45.05 3.68 43.48 4.39 42.34 5.42 C 41.29 3.24 38.72 3.82 36.76 3.86 C 29.79 4.57 22.83 2.87 15.85 3.62 C 21.17 2.64 26.59 2.81 31.96 2.41 C 34.96 2.21 37.93 3.41 40.91 2.57 L 40.71 3.68 Z" />
<path fill="#000000" opacity="1.00" d=" M 47.70 3.26 C 50.92 1.62 54.54 2.66 57.97 2.69 C 62.05 2.79 66.15 2.69 70.18 3.46 C 64.13 3.23 58.08 3.76 52.05 4.19 C 50.53 4.40 49.11 3.68 47.70 3.26 Z" />
<path fill="#000000" opacity="1.00" d=" M 33.81 11.77 C 43.70 8.83 54.40 10.37 63.85 14.12 C 63.83 19.36 64.78 24.63 64.13 29.86 L 63.06 29.80 C 60.33 24.93 57.03 20.22 51.95 17.55 C 54.89 21.12 56.23 26.49 53.36 30.50 C 50.58 35.13 42.87 36.04 39.89 31.14 C 36.92 26.80 41.04 20.68 46.16 21.38 C 43.97 22.63 40.95 23.52 40.45 26.38 C 39.36 30.60 43.99 34.41 48.02 32.99 C 54.14 31.67 55.59 22.79 51.04 18.91 C 47.22 15.23 41.20 16.75 37.14 19.21 C 30.04 24.17 25.57 32.55 25.10 41.18 C 38.53 32.61 58.18 34.84 68.32 47.49 C 74.49 54.70 75.84 65.43 72.09 74.08 C 69.81 79.12 65.90 83.31 61.32 86.34 C 51.89 92.49 39.39 93.08 29.09 88.84 C 25.24 87.39 22.26 83.85 17.96 83.69 C 14.27 83.17 10.17 86.15 10.36 90.06 C 10.48 92.77 13.30 95.05 15.98 94.14 C 17.05 93.15 17.98 92.02 18.95 90.93 C 19.01 94.60 15.67 97.55 12.01 96.94 C 6.17 96.37 2.95 88.38 6.77 83.90 C 9.56 80.06 15.07 79.55 19.03 81.84 C 11.75 74.21 9.41 63.28 9.52 53.04 C 9.71 44.15 10.72 34.92 15.16 27.04 C 19.19 19.88 25.86 14.10 33.81 11.77 M 21.57 25.54 C 22.17 27.43 24.25 26.16 24.84 25.01 C 23.90 23.84 21.15 23.40 21.57 25.54 M 18.28 31.26 C 16.16 32.10 19.46 35.02 20.33 33.37 C 22.13 32.29 19.22 29.17 18.28 31.26 M 16.47 38.46 C 12.53 38.77 14.64 45.19 17.99 43.12 C 20.65 42.04 19.10 37.87 16.47 38.46 M 37.05 43.08 C 31.41 46.15 28.30 52.35 26.97 58.40 C 28.46 56.16 30.16 53.70 33.21 53.88 C 33.04 54.65 32.69 56.20 32.52 56.98 C 35.24 54.18 40.78 51.87 43.42 56.00 C 41.07 56.96 38.56 57.43 36.17 58.27 C 32.85 59.59 31.15 62.99 28.96 65.57 C 29.98 63.14 29.55 59.30 32.46 58.02 C 31.93 57.48 31.39 56.96 30.83 56.46 C 29.69 58.83 28.76 61.32 28.50 63.96 C 27.74 63.67 26.97 63.38 26.20 63.09 C 26.69 67.21 27.48 71.29 28.50 75.31 C 29.08 71.39 29.84 66.63 33.99 64.90 C 39.03 61.82 46.47 66.03 45.79 72.06 C 45.94 77.13 38.79 80.95 35.35 76.59 C 33.07 74.09 34.92 70.82 37.54 69.59 C 37.78 71.48 38.14 75.01 40.97 74.21 C 45.17 72.91 43.74 66.59 39.89 65.85 C 34.77 64.03 29.83 68.96 30.32 74.03 C 30.01 83.62 43.08 89.08 50.26 83.23 C 60.81 74.95 61.74 57.71 53.66 47.42 C 49.99 42.41 42.69 40.05 37.05 43.08 M 12.28 52.15 C 13.81 53.62 15.35 55.10 16.88 56.58 C 18.37 55.10 19.86 53.62 21.36 52.14 C 19.85 50.68 18.34 49.21 16.85 47.73 C 15.34 49.22 13.79 50.67 12.28 52.15 M 61.13 48.27 C 60.57 49.89 61.11 50.46 62.74 49.98 C 63.30 48.36 62.76 47.79 61.13 48.27 M 63.73 53.86 C 63.71 54.60 63.73 55.34 63.78 56.08 C 64.31 56.30 65.38 56.76 65.91 56.98 C 66.32 56.49 67.15 55.49 67.56 54.99 C 67.15 54.47 66.32 53.42 65.91 52.89 C 65.36 53.13 64.27 53.62 63.73 53.86 M 63.85 62.31 C 64.89 63.51 66.00 64.64 67.05 65.84 C 68.17 64.74 69.29 63.64 70.41 62.55 C 69.31 61.41 68.19 60.30 67.09 59.17 C 66.01 60.22 64.93 61.27 63.85 62.31 M 15.28 61.37 C 12.57 63.18 15.81 67.39 18.32 65.42 C 21.19 63.59 17.80 59.12 15.28 61.37 M 65.09 68.16 C 63.19 69.18 64.56 72.43 66.61 71.50 C 68.96 70.95 67.33 66.91 65.09 68.16 M 18.72 70.50 C 16.82 71.49 17.78 73.41 19.50 73.67 C 21.79 73.30 20.84 69.88 18.72 70.50 M 63.20 74.14 C 61.62 74.53 62.30 77.14 63.86 76.69 C 65.48 76.34 64.79 73.64 63.20 74.14 M 21.56 80.53 C 22.57 80.50 25.68 79.75 23.88 78.26 C 22.50 75.97 21.20 79.34 21.56 80.53 Z" />
<path fill="#000000" opacity="1.00" d=" M 34.18 25.10 C 35.83 24.07 38.62 24.40 38.30 26.88 C 34.98 28.71 31.61 30.59 29.26 33.68 C 31.67 32.53 35.20 29.44 37.16 32.97 C 33.38 33.66 29.73 34.96 26.91 37.68 C 27.94 32.95 29.55 27.51 34.18 25.10 Z" />
<path fill="#000000" opacity="1.00" d=" M 14.35 52.16 C 15.18 51.35 16.01 50.53 16.85 49.72 C 17.65 50.47 18.47 51.22 19.29 51.97 C 18.48 52.86 17.67 53.75 16.86 54.64 C 16.02 53.81 15.18 52.98 14.35 52.16 Z" />
<path fill="#000000" opacity="1.00" d=" M 27.79 67.53 C 31.67 62.57 36.95 56.87 43.92 57.57 C 46.77 57.72 51.26 59.29 50.78 62.84 C 49.11 64.30 46.84 62.51 44.96 62.28 C 38.74 60.02 32.53 63.91 27.79 67.53 Z" />
<path fill="#000000" opacity="1.00" d=" M 5.14 71.27 C 9.53 69.67 12.21 75.28 14.43 78.15 C 10.76 79.38 7.23 81.10 3.36 81.61 C 4.09 79.39 6.06 78.30 8.08 77.53 C 5.40 77.93 2.68 77.89 0.00 77.56 L 0.00 75.39 C 3.53 72.86 7.72 74.92 11.32 76.11 C 9.10 75.10 6.82 74.16 4.81 72.76 C 4.89 72.38 5.06 71.64 5.14 71.27 Z" />
<path fill="#000000" opacity="1.00" d=" M 74.27 75.40 C 76.75 71.88 82.22 71.71 85.14 74.78 C 89.19 78.27 89.43 85.03 86.02 89.04 C 81.60 94.27 73.95 95.93 67.43 95.00 C 73.13 93.60 80.42 93.64 84.46 88.56 C 87.41 84.97 87.42 78.25 82.92 75.91 C 80.03 74.26 75.76 75.61 74.99 79.02 C 73.77 81.91 76.22 85.02 79.14 85.34 C 80.91 84.75 82.01 83.14 83.33 81.92 C 82.58 83.87 81.40 86.04 79.04 86.21 C 73.95 86.17 70.83 79.19 74.27 75.40 Z" />
<path fill="#000000" opacity="1.00" d=" M 57.61 89.80 C 62.82 89.03 67.45 86.57 71.19 82.91 C 73.74 86.65 69.05 88.61 66.49 90.23 C 69.52 89.52 72.27 88.07 75.09 86.81 C 78.13 86.63 77.29 90.47 75.28 91.36 C 69.66 94.75 63.02 92.35 57.61 89.80 Z" />
<path fill="#000000" opacity="1.00" d=" M 40.59 97.52 C 41.73 96.74 42.85 95.92 43.97 95.11 L 43.13 97.28 C 52.15 96.09 61.20 97.50 70.25 97.46 C 65.18 97.71 60.12 97.90 55.07 98.34 C 51.68 98.81 48.32 97.45 44.95 98.30 L 45.25 97.24 C 44.41 98.20 43.59 99.17 42.78 100.16 C 42.82 99.52 42.89 98.23 42.92 97.59 C 41.56 97.85 40.20 98.52 38.79 98.10 C 39.27 97.58 40.24 96.54 40.72 96.02 L 40.59 97.52 Z" />
<path fill="#000000" opacity="1.00" d=" M 16.69 97.48 C 21.86 97.20 27.05 97.34 32.19 96.75 C 34.26 96.42 36.31 96.81 38.27 97.51 C 35.00 99.11 31.39 98.26 27.95 98.07 C 24.20 97.80 20.44 97.74 16.69 97.48 Z" />
</g>
</svg>
