<?xml version="1.0" encoding="UTF-8" ?>
<!DOCTYPE svg PUBLIC "-//W3C//DTD SVG 1.1//EN" "http://www.w3.org/Graphics/SVG/1.1/DTD/svg11.dtd">
<svg width="64pt" height="99pt" viewBox="0 0 64 99" version="1.1" xmlns="http://www.w3.org/2000/svg">
<g id="#000000fc">
<path fill="#000000" opacity="1.00" d=" M 35.51 0.00 L 36.23 0.00 C 36.60 1.86 38.20 1.96 39.42 0.88 C 39.50 1.34 39.65 2.28 39.73 2.75 C 38.26 2.89 36.89 3.36 35.68 4.21 C 34.60 3.21 33.23 1.51 31.58 3.18 C 31.76 0.12 34.20 1.87 35.77 2.64 L 35.51 0.00 Z" />
<path fill="#000000" opacity="1.00" d=" M 18.74 1.55 C 22.26 2.18 25.94 0.51 29.35 1.62 C 29.50 1.91 29.78 2.47 29.93 2.76 C 25.97 4.07 21.76 2.24 17.69 2.82 L 18.74 1.55 Z" />
<path fill="#000000" opacity="1.00" d=" M 41.18 2.47 C 41.43 1.26 43.09 1.69 43.89 1.13 C 48.98 1.88 54.16 1.46 59.20 2.38 C 54.28 2.85 48.94 2.52 43.91 3.41 C 43.23 3.18 41.86 2.71 41.18 2.47 Z" />
<path fill="#000000" opacity="1.00" d=" M 1.99 32.14 C 3.96 24.39 5.67 16.38 7.99 8.83 C 25.39 9.13 42.77 8.73 60.17 9.05 C 48.03 28.79 36.01 49.90 34.22 73.49 C 35.89 70.66 38.38 67.99 41.90 67.91 C 46.58 67.02 51.19 71.33 50.68 76.03 C 50.54 80.62 44.67 84.39 40.86 81.08 C 37.98 78.95 39.17 73.98 42.83 73.63 C 42.35 75.45 42.84 77.85 44.98 78.26 C 47.44 78.12 49.08 75.35 48.25 73.09 C 46.90 68.70 40.29 68.18 37.52 71.49 C 33.31 76.01 35.02 83.71 39.90 87.07 C 41.45 88.87 44.54 88.22 45.85 90.01 C 36.27 90.30 26.63 90.11 17.03 90.12 L 16.33 89.83 C 15.46 85.06 18.60 79.86 15.64 75.53 C 13.89 72.50 8.49 73.03 8.19 76.79 C 8.06 79.16 10.46 79.52 12.25 79.71 C 11.69 79.92 10.58 80.34 10.02 80.55 C 5.33 80.07 4.35 73.59 7.87 71.00 C 11.24 67.98 17.10 70.34 17.67 74.76 C 19.10 74.49 18.33 72.03 19.02 71.01 C 19.17 66.65 17.24 62.39 15.43 58.45 C 14.40 56.61 13.22 53.86 15.05 52.13 C 17.44 51.65 19.27 53.94 19.82 56.01 C 21.08 59.60 20.44 63.42 20.30 67.12 C 21.77 62.01 23.94 57.16 25.45 52.08 C 24.65 49.23 24.79 45.69 22.21 43.75 C 19.90 41.71 15.17 41.78 14.32 45.28 C 13.19 48.11 17.54 51.00 19.45 48.45 C 21.30 47.05 19.36 45.16 18.28 44.03 C 20.69 44.63 21.76 48.04 19.51 49.50 C 16.68 52.51 11.34 48.73 12.76 45.08 C 13.83 40.68 20.11 39.80 22.98 42.97 C 25.45 45.24 25.70 48.73 25.92 51.86 C 27.48 50.74 27.49 48.39 28.78 46.94 C 33.58 37.53 40.47 29.26 44.85 19.68 C 35.87 19.90 26.86 19.34 17.91 20.11 C 11.31 20.44 5.60 25.21 3.37 31.31 C 3.02 31.52 2.33 31.93 1.99 32.14 M 16.92 13.04 C 15.64 16.01 20.78 16.95 21.17 13.89 C 21.15 11.50 17.65 10.50 16.92 13.04 M 26.06 13.56 C 27.82 14.95 30.02 15.75 32.04 16.73 C 34.04 15.75 36.10 14.83 38.00 13.64 C 35.72 12.85 33.71 10.72 31.16 11.10 C 29.42 11.84 27.79 12.81 26.06 13.56 M 43.49 11.70 C 40.88 12.42 42.38 16.82 44.96 15.76 C 47.59 14.90 46.01 10.59 43.49 11.70 M 12.12 12.42 C 10.44 12.84 11.53 15.68 13.07 15.38 C 14.30 14.46 14.08 11.81 12.12 12.42 M 50.19 12.39 C 48.40 12.66 49.39 15.76 51.04 15.32 C 52.15 14.52 52.09 11.77 50.19 12.39 M 32.53 50.27 C 31.16 51.57 33.06 53.91 34.48 52.45 C 35.85 51.35 33.70 48.72 32.53 50.27 M 28.52 57.62 C 27.49 59.42 30.39 60.97 31.26 59.09 C 32.29 57.52 29.45 55.77 28.52 57.62 M 26.61 64.72 C 23.55 65.56 24.95 70.39 27.98 69.57 C 31.43 68.94 29.77 63.41 26.61 64.72 M 26.47 73.05 C 25.37 75.69 23.62 78.12 22.92 80.88 C 24.09 83.33 25.35 85.74 26.51 88.19 C 28.03 85.75 29.58 83.06 30.34 80.32 C 29.01 77.95 28.25 75.06 26.47 73.05 Z" />
<path fill="#000000" opacity="1.00" d=" M 28.46 13.89 C 29.07 12.60 30.89 12.64 31.99 11.90 C 33.07 12.67 34.99 12.58 35.49 13.93 C 34.32 14.46 33.15 15.01 31.98 15.56 C 30.80 15.01 29.63 14.46 28.46 13.89 Z" />
<path fill="#000000" opacity="1.00" d=" M 26.48 21.50 C 29.19 20.54 30.85 25.25 27.94 26.05 C 24.93 27.40 23.34 22.31 26.48 21.50 Z" />
<path fill="#000000" opacity="1.00" d=" M 35.19 21.17 C 38.95 18.89 41.91 25.49 37.78 26.76 C 34.38 28.27 31.93 22.75 35.19 21.17 Z" />
<path fill="#000000" opacity="1.00" d=" M 18.49 22.47 C 20.78 22.19 21.85 25.62 19.56 26.50 C 16.86 27.54 15.66 23.13 18.49 22.47 Z" />
<path fill="#000000" opacity="1.00" d=" M 11.46 25.34 C 13.51 24.98 14.25 28.46 12.00 28.64 C 9.90 29.48 9.27 25.61 11.46 25.34 Z" />
<path fill="#000000" opacity="1.00" d=" M 6.19 31.27 C 7.25 29.46 9.94 32.15 8.16 33.12 C 7.20 34.59 5.14 32.50 6.19 31.27 Z" />
<path fill="#000000" opacity="1.00" d=" M 44.55 51.56 C 46.39 50.45 48.64 49.13 50.82 50.14 C 52.67 50.89 52.20 53.74 50.50 54.35 C 45.69 56.12 41.24 59.45 38.78 63.97 C 41.50 61.53 45.18 58.02 49.09 60.01 C 51.03 61.35 48.53 63.28 47.00 62.84 C 42.67 63.04 38.96 65.73 35.99 68.69 C 36.74 62.27 39.11 55.48 44.55 51.56 Z" />
<path fill="#000000" opacity="1.00" d=" M 2.48 56.00 C 2.95 53.62 5.68 53.66 7.43 54.48 C 12.04 56.83 14.39 61.73 16.67 66.10 C 14.58 65.06 13.20 62.98 11.07 61.95 C 8.31 59.81 4.13 59.39 2.48 56.00 Z" />
<path fill="#000000" opacity="1.00" d=" M 5.20 68.72 C 3.90 66.59 7.03 64.25 8.45 66.39 C 10.09 68.43 6.68 70.79 5.20 68.72 Z" />
<path fill="#000000" opacity="1.00" d=" M 12.20 65.12 C 14.09 64.45 15.19 67.78 13.00 68.03 C 11.00 68.64 10.48 65.73 12.20 65.12 Z" />
<path fill="#000000" opacity="1.00" d=" M 16.12 67.26 C 17.43 67.03 18.17 69.32 16.79 69.73 C 15.13 70.43 14.50 67.58 16.12 67.26 Z" />
<path fill="#000000" opacity="1.00" d=" M 0.00 72.66 C 0.69 69.99 4.94 69.92 4.96 72.94 C 5.05 75.88 1.12 76.15 0.00 73.73 L 0.00 72.66 Z" />
<path fill="#000000" opacity="1.00" d=" M 26.40 75.93 C 27.66 77.20 28.59 79.16 28.87 80.92 C 28.02 82.32 27.71 84.19 26.40 85.22 C 25.80 83.68 25.02 82.22 24.29 80.74 C 24.85 79.08 25.78 77.57 26.40 75.93 Z" />
<path fill="#000000" opacity="1.00" d=" M 28.11 95.28 C 29.47 94.81 32.17 95.79 32.18 93.53 L 32.22 95.51 C 33.63 95.05 36.58 94.28 35.84 96.82 C 34.30 95.91 33.12 97.49 32.00 98.25 C 30.90 97.51 29.73 95.91 28.22 96.84 C 28.20 96.45 28.14 95.67 28.11 95.28 Z" />
<path fill="#000000" opacity="1.00" d=" M 6.08 95.66 C 12.09 95.95 18.12 95.19 24.13 94.92 C 24.75 95.50 26.65 95.08 26.61 96.23 C 22.88 97.70 18.83 96.29 14.94 96.44 C 12.01 96.05 8.88 96.73 6.08 95.66 Z" />
<path fill="#000000" opacity="1.00" d=" M 37.36 96.19 C 37.36 95.05 39.18 95.49 39.84 94.98 C 45.87 95.13 51.91 95.98 57.94 95.65 C 55.11 96.72 51.98 96.04 49.02 96.44 C 45.13 96.31 41.07 97.73 37.36 96.19 Z" />
</g>
</svg>
