<?xml version="1.0" encoding="UTF-8" ?>
<!DOCTYPE svg PUBLIC "-//W3C//DTD SVG 1.1//EN" "http://www.w3.org/Graphics/SVG/1.1/DTD/svg11.dtd">
<svg width="83pt" height="100pt" viewBox="0 0 83 100" version="1.1" xmlns="http://www.w3.org/2000/svg">
<g id="#000000fd">
<path fill="#000000" opacity="1.00" d=" M 41.24 0.00 L 42.47 0.00 L 42.17 2.67 C 43.34 2.10 44.51 1.53 45.68 0.96 L 45.20 2.28 C 50.45 0.90 55.90 1.29 61.17 2.34 C 56.10 3.14 50.96 3.24 45.85 2.87 C 44.39 2.60 43.16 3.56 41.96 4.22 C 40.56 3.22 38.91 2.65 37.29 2.12 C 38.87 1.28 40.47 2.06 42.07 2.33 L 41.24 0.00 Z" />
<path fill="#000000" opacity="1.00" d=" M 14.87 2.59 C 20.86 1.51 26.96 1.70 33.01 1.39 C 34.43 1.28 35.75 1.91 37.06 2.35 C 29.86 4.48 22.26 1.50 14.87 2.59 Z" />
<path fill="#000000" opacity="1.00" d=" M 22.96 16.01 C 33.30 7.34 50.31 7.47 60.15 16.90 C 65.35 21.80 65.94 29.97 63.37 36.33 C 62.12 39.65 59.18 41.82 56.67 44.14 C 60.90 46.83 65.64 49.36 68.13 53.93 C 72.66 62.02 72.38 72.90 66.52 80.29 C 70.65 78.04 77.18 76.19 80.18 81.08 C 78.03 83.68 74.79 81.78 72.03 81.82 C 67.67 81.82 63.54 83.58 59.85 85.80 C 48.85 92.51 34.02 92.79 22.96 86.09 C 19.36 83.59 14.63 80.98 10.28 83.26 C 6.12 84.99 5.27 91.95 10.04 93.47 C 12.88 94.43 14.47 91.75 15.50 89.61 C 16.50 94.62 10.39 97.88 6.26 95.69 C 1.02 93.31 -0.54 85.64 3.54 81.51 C 6.61 78.28 11.93 77.61 15.69 80.01 C 8.41 70.47 9.30 53.83 20.53 47.72 C 18.23 46.33 15.53 47.77 13.04 47.42 C 9.93 47.52 5.91 45.85 3.67 48.86 C 1.65 51.80 5.97 56.09 8.62 53.56 C 10.71 52.38 9.45 50.34 8.22 49.06 C 7.53 49.55 6.15 50.54 5.46 51.03 C 6.36 49.43 8.04 47.18 9.94 49.01 C 13.75 52.12 7.85 57.47 4.55 54.39 C 0.22 52.09 2.90 45.78 7.10 45.24 C 12.11 44.65 17.12 45.81 22.13 45.87 C 23.52 45.97 24.55 44.92 25.71 44.36 C 23.21 42.11 20.59 39.81 19.20 36.67 C 15.99 29.92 17.06 20.96 22.96 16.01 M 33.73 15.63 C 30.46 17.98 29.60 22.25 28.92 25.95 C 30.58 22.94 32.06 18.67 36.12 18.36 C 41.16 16.99 45.64 23.96 41.62 27.67 C 40.97 28.55 37.27 28.78 38.96 29.98 C 41.51 31.34 43.83 33.85 42.16 36.95 C 43.67 35.26 45.19 33.57 46.77 31.94 C 46.63 34.18 46.45 36.42 46.25 38.66 C 48.19 36.86 50.42 35.12 51.34 32.53 C 53.42 27.30 51.71 21.16 47.95 17.15 C 44.36 13.42 38.01 12.71 33.73 15.63 M 26.09 16.02 C 25.63 17.66 26.20 18.20 27.81 17.64 C 28.28 16.00 27.70 15.46 26.09 16.02 M 34.59 20.45 C 32.68 21.20 31.87 23.25 30.71 24.78 C 30.61 26.42 30.49 28.06 30.36 29.70 L 31.41 29.51 C 32.01 33.74 36.27 36.24 39.54 38.35 C 37.37 36.03 35.19 33.69 33.44 31.02 C 34.17 30.80 35.63 30.36 36.37 30.14 C 37.35 28.92 35.11 28.85 34.49 28.41 C 34.34 26.88 34.21 25.35 34.08 23.82 C 34.82 25.38 34.61 28.30 37.03 28.06 C 39.48 28.97 41.65 26.23 41.24 23.91 C 40.93 20.88 37.22 19.28 34.59 20.45 M 22.49 21.63 C 22.61 23.00 22.56 24.64 24.14 25.20 C 25.29 25.01 27.21 23.31 25.74 22.26 C 25.19 20.92 23.53 21.86 22.49 21.63 M 20.53 30.86 C 21.68 31.93 22.81 33.02 23.95 34.10 C 25.00 33.03 26.06 31.96 27.11 30.88 C 26.00 29.77 24.89 28.66 23.79 27.53 C 22.71 28.64 21.62 29.75 20.53 30.86 M 34.87 31.23 C 37.01 33.89 38.97 36.82 42.38 38.08 L 36.21 31.47 C 37.65 32.09 40.53 33.31 41.98 33.93 C 40.61 30.76 37.45 31.42 34.87 31.23 M 26.85 37.44 C 26.62 38.11 26.15 39.43 25.92 40.09 C 26.48 40.39 27.61 40.99 28.17 41.28 C 31.08 40.38 29.36 37.02 26.85 37.44 M 32.24 42.30 C 30.43 45.03 36.24 48.05 37.56 44.96 C 36.67 42.96 34.45 41.49 32.24 42.30 M 41.57 46.56 C 39.08 48.29 42.25 52.62 44.71 50.69 C 47.83 48.89 44.15 43.80 41.57 46.56 M 49.14 50.08 C 47.95 52.92 52.94 55.42 54.39 52.89 C 54.05 50.58 51.27 49.02 49.14 50.08 M 29.12 81.97 C 32.85 86.37 39.21 87.48 44.65 86.58 C 50.70 85.03 54.58 79.24 55.70 73.36 C 55.04 72.67 54.37 71.98 53.70 71.30 L 54.35 73.30 C 52.45 73.75 51.28 72.80 50.61 71.12 C 51.15 70.75 52.23 69.99 52.77 69.61 C 53.73 70.38 54.74 71.10 55.78 71.76 C 55.42 67.00 53.64 62.21 49.99 58.99 C 46.12 55.09 40.40 54.42 35.85 51.61 C 24.27 56.23 21.84 72.73 29.12 81.97 M 57.23 55.20 C 55.10 56.19 57.40 59.62 59.08 58.16 C 61.52 57.28 58.76 53.43 57.23 55.20 M 58.93 65.12 C 60.13 66.22 61.31 67.34 62.49 68.46 C 63.52 67.35 64.56 66.24 65.59 65.14 C 64.52 64.05 63.46 62.98 62.39 61.90 C 61.26 62.99 60.10 64.06 58.93 65.12 M 60.17 72.13 C 59.59 73.54 61.31 74.30 62.02 75.19 C 62.44 74.26 64.00 73.59 63.57 72.42 C 63.41 70.71 60.65 70.50 60.17 72.13 M 58.36 78.33 C 57.87 79.98 58.43 80.52 60.04 79.97 C 60.53 78.32 59.97 77.78 58.36 78.33 Z" />
<path fill="#000000" opacity="1.00" d=" M 11.29 38.86 C 8.34 36.81 5.12 31.99 8.92 29.15 C 12.19 31.72 13.24 35.89 15.36 39.30 C 14.06 36.59 12.99 33.46 15.04 30.76 C 18.77 34.02 16.78 39.69 18.89 43.87 C 15.66 43.52 13.84 40.52 11.29 38.86 Z" />
<path fill="#000000" opacity="1.00" d=" M 5.75 37.85 C 7.29 36.68 8.88 38.00 10.20 38.75 C 12.56 40.23 14.71 42.02 16.78 43.87 C 12.79 43.50 5.99 43.24 5.75 37.85 Z" />
<path fill="#000000" opacity="1.00" d=" M 31.86 70.09 C 28.61 66.56 30.11 59.86 34.96 58.68 C 38.23 57.59 41.90 60.63 41.28 64.06 C 40.60 65.25 39.60 66.20 38.70 67.21 C 38.00 65.62 37.93 63.39 36.00 62.73 C 33.39 62.70 31.76 65.63 32.81 67.92 C 34.57 72.56 41.79 72.08 44.00 68.05 C 46.50 64.36 44.82 59.67 43.49 55.91 C 46.94 59.67 48.09 66.36 44.16 70.21 C 40.93 73.50 34.84 73.94 31.86 70.09 Z" />
<path fill="#000000" opacity="1.00" d=" M 76.12 68.75 C 71.57 68.17 71.95 61.05 76.15 60.19 C 79.17 59.26 81.37 61.75 83.00 63.88 L 83.00 66.63 C 82.02 68.30 80.96 69.93 79.79 71.47 C 80.65 69.56 81.56 67.68 82.55 65.83 C 81.45 63.99 80.55 61.31 78.01 61.17 C 75.61 60.55 73.15 63.77 75.09 65.69 C 76.73 66.29 77.90 64.54 79.27 63.96 C 79.67 66.14 78.92 69.07 76.12 68.75 Z" />
<path fill="#000000" opacity="1.00" d=" M 48.46 60.68 C 50.39 66.64 48.59 73.70 44.02 77.98 C 42.39 79.61 39.13 80.49 37.83 77.98 C 38.28 75.21 41.97 76.40 43.72 74.88 C 48.20 71.62 48.38 65.70 48.46 60.68 Z" />
<path fill="#000000" opacity="1.00" d=" M 51.10 65.18 C 52.44 63.68 54.61 66.08 53.27 67.39 C 51.94 68.85 49.69 66.52 51.10 65.18 Z" />
<path fill="#000000" opacity="1.00" d=" M 0.40 74.19 C -0.23 72.42 1.76 71.37 3.21 71.43 C 7.76 71.38 11.22 75.03 13.95 78.20 C 9.93 75.21 5.11 74.86 0.40 74.19 Z" />
<path fill="#000000" opacity="1.00" d=" M 68.65 77.96 C 72.45 74.68 78.03 70.90 83.00 74.22 L 83.00 76.39 C 78.14 75.67 73.22 76.09 68.65 77.96 Z" />
<path fill="#000000" opacity="1.00" d=" M 48.44 76.43 C 50.41 73.95 54.07 77.65 51.72 79.66 C 49.61 81.63 46.87 78.54 48.44 76.43 Z" />
<path fill="#000000" opacity="1.00" d=" M 33.23 78.11 C 35.19 77.51 37.64 78.78 37.46 81.04 C 37.73 83.56 34.22 85.20 32.44 83.42 C 30.49 82.03 31.09 78.96 33.23 78.11 Z" />
<path fill="#000000" opacity="1.00" d=" M 43.16 80.15 C 46.39 78.59 48.52 84.48 44.92 85.14 C 41.86 86.41 40.00 81.16 43.16 80.15 Z" />
<path fill="#000000" opacity="1.00" d=" M 15.93 96.95 C 22.23 96.58 28.53 96.24 34.83 95.98 C 34.72 96.47 34.49 97.44 34.38 97.93 C 28.22 97.77 22.06 97.46 15.93 96.95 Z" />
<path fill="#000000" opacity="1.00" d=" M 46.85 96.29 C 52.59 95.68 58.32 96.96 64.07 96.55 C 65.33 96.11 65.90 96.47 65.79 97.62 C 60.17 96.87 54.56 97.99 48.94 97.88 C 47.91 97.84 47.22 97.31 46.85 96.29 Z" />
</g>
</svg>
