<?xml version="1.0" encoding="UTF-8" ?>
<!DOCTYPE svg PUBLIC "-//W3C//DTD SVG 1.1//EN" "http://www.w3.org/Graphics/SVG/1.1/DTD/svg11.dtd">
<svg width="100pt" height="100pt" viewBox="0 0 100 100" version="1.1" xmlns="http://www.w3.org/2000/svg">
<g id="#000000fc">
<path fill="#000000" opacity="1.00" d=" M 48.82 3.73 C 49.65 2.76 50.45 1.77 51.26 0.78 C 51.26 1.50 51.26 2.94 51.26 3.65 C 52.22 3.19 53.18 2.73 54.14 2.26 C 54.37 2.51 54.84 3.03 55.08 3.28 C 53.34 3.81 51.71 4.59 50.15 5.52 L 50.87 3.68 C 50.21 3.78 48.89 3.99 48.23 4.09 C 40.44 4.43 32.69 3.30 24.89 3.59 C 30.23 3.05 35.58 2.69 40.93 2.35 C 42.57 2.02 44.07 2.70 45.48 3.45 C 46.62 2.99 47.74 2.52 48.87 2.04 L 48.82 3.73 Z" />
<path fill="#000000" opacity="1.00" d=" M 55.79 3.18 C 62.76 1.45 70.02 3.03 77.07 3.56 C 71.69 3.42 66.33 3.84 60.96 4.11 C 59.18 4.30 57.45 3.75 55.79 3.18 Z" />
<path fill="#000000" opacity="1.00" d=" M 24.82 20.91 C 36.16 7.96 58.07 6.87 71.02 17.99 C 77.42 23.37 81.00 31.43 82.17 39.59 C 83.29 47.68 82.84 55.97 81.23 63.96 C 79.13 74.17 72.70 83.75 63.15 88.31 C 52.40 93.54 39.63 92.19 28.78 87.99 C 27.79 82.54 28.02 76.89 28.29 71.37 C 32.01 76.03 34.78 82.08 40.79 84.24 C 44.48 86.04 48.54 84.78 52.30 84.01 C 50.49 83.60 48.66 83.29 46.84 82.99 C 47.89 82.79 48.94 82.61 50.00 82.45 C 51.36 83.60 53.42 84.28 54.85 82.85 C 58.63 79.67 62.42 76.20 64.49 71.61 C 66.18 68.25 66.74 64.49 67.30 60.82 C 56.86 67.13 42.99 67.78 32.37 61.55 C 27.78 58.64 23.31 55.03 20.99 49.98 C 16.10 40.74 17.58 28.52 24.82 20.91 M 41.89 18.84 C 31.62 27.06 30.64 43.70 38.25 54.03 C 41.46 58.60 47.44 61.40 52.96 59.77 C 58.42 58.16 62.08 53.13 64.02 48.02 C 66.68 41.15 66.02 33.48 63.62 26.64 C 63.27 30.62 62.14 34.55 59.43 37.58 C 57.70 40.17 53.90 43.38 56.31 46.66 C 58.86 49.99 64.72 45.63 61.63 42.37 C 59.20 40.67 58.26 43.41 57.86 45.38 C 57.91 43.91 57.02 41.57 58.88 40.87 C 61.47 39.35 64.61 42.69 63.46 45.29 C 62.48 48.74 57.20 50.04 55.22 46.75 C 52.93 43.85 54.73 40.20 56.54 37.59 C 55.57 37.84 53.63 38.34 52.66 38.59 C 49.61 36.65 46.01 34.10 46.48 29.95 C 46.32 24.95 53.27 21.07 56.82 25.22 C 59.12 27.67 57.47 30.97 54.92 32.39 C 54.22 30.61 54.42 27.81 51.94 27.52 C 49.58 28.00 47.97 30.68 49.03 32.94 C 50.56 37.10 56.74 37.46 59.55 34.43 C 62.17 31.63 62.84 27.18 61.26 23.69 C 58.05 16.68 48.00 13.88 41.89 18.84 M 69.07 21.35 C 67.10 21.73 67.94 24.93 69.84 24.30 C 71.70 23.85 70.92 20.77 69.07 21.35 M 28.35 25.12 C 26.40 25.44 27.21 28.55 29.05 28.02 C 31.12 27.71 30.27 24.56 28.35 25.12 M 72.42 28.57 C 70.80 28.45 71.27 31.77 72.99 31.39 C 75.41 31.49 74.80 27.44 72.42 28.57 M 25.43 30.53 C 24.25 31.14 24.26 32.89 25.39 33.55 C 26.03 34.81 28.67 33.27 27.99 32.07 C 28.36 30.63 26.47 29.92 25.43 30.53 M 21.97 39.32 C 23.03 40.50 24.09 41.68 25.15 42.86 C 26.27 41.70 27.39 40.55 28.50 39.39 C 27.37 38.32 26.24 37.25 25.11 36.18 C 24.07 37.23 23.02 38.28 21.97 39.32 M 74.37 36.39 C 72.50 36.92 72.58 40.04 74.20 40.74 C 75.89 42.05 78.61 40.07 77.87 38.07 C 77.88 36.58 75.52 35.50 74.37 36.39 M 26.26 45.20 C 24.44 46.04 24.77 49.07 27.02 48.74 C 29.66 48.76 28.73 44.39 26.26 45.20 M 70.96 49.70 C 72.44 51.23 73.93 52.74 75.41 54.27 C 76.93 52.78 78.46 51.28 79.98 49.77 C 78.48 48.33 76.99 46.90 75.51 45.46 C 73.99 46.87 72.48 48.29 70.96 49.70 M 29.26 52.00 C 28.13 53.40 30.48 55.31 31.50 53.73 C 32.65 52.33 30.29 50.44 29.26 52.00 M 72.14 61.02 C 73.45 63.57 77.58 64.68 78.21 61.02 C 77.62 57.35 73.41 58.40 72.14 61.02 M 72.12 68.25 C 71.09 69.48 71.33 71.00 72.98 71.52 C 75.57 71.10 74.50 67.25 72.12 68.25 M 69.06 75.20 C 67.12 75.59 67.96 78.74 69.83 78.18 C 71.70 77.75 70.92 74.65 69.06 75.20 Z" />
<path fill="#000000" opacity="1.00" d=" M 12.73 38.98 C 12.95 37.64 14.07 35.51 15.71 36.44 C 16.44 37.88 16.24 39.58 16.49 41.14 C 16.59 44.71 18.62 47.79 19.97 50.99 C 16.27 48.07 12.49 44.05 12.73 38.98 Z" />
<path fill="#000000" opacity="1.00" d=" M 36.22 36.18 C 39.47 33.83 42.88 39.40 39.57 41.39 C 36.25 43.90 32.76 38.06 36.22 36.18 Z" />
<path fill="#000000" opacity="1.00" d=" M 42.17 41.94 C 44.60 40.36 47.21 39.11 49.91 38.06 C 49.69 38.83 49.26 40.39 49.05 41.17 C 50.93 40.38 52.82 39.65 54.74 38.97 C 53.22 41.77 49.89 42.00 47.26 43.04 L 47.59 41.25 C 46.78 41.33 45.18 41.50 44.37 41.59 C 46.02 43.74 48.79 43.70 51.25 43.88 C 47.98 45.84 44.65 44.20 42.17 41.94 Z" />
<path fill="#000000" opacity="1.00" d=" M 0.00 46.08 C 2.58 42.20 7.38 42.07 11.43 43.28 C 7.83 43.75 3.96 43.87 1.05 46.33 C 4.78 47.72 8.75 48.39 12.74 48.22 C 9.45 47.09 6.03 46.40 2.74 45.30 C 6.16 45.05 9.57 45.34 12.97 45.66 C 13.38 46.51 13.79 47.37 14.20 48.22 C 13.45 48.42 11.96 48.82 11.22 49.01 C 11.92 49.40 12.64 49.78 13.36 50.15 C 15.38 50.32 17.39 50.60 19.39 50.98 C 15.78 51.43 11.33 50.62 8.50 53.52 C 5.14 56.55 6.07 63.71 11.07 64.32 C 13.54 64.75 15.37 62.45 15.34 60.15 C 13.80 59.22 12.13 58.51 10.51 57.74 C 12.12 56.69 13.67 54.55 15.84 55.33 C 19.57 56.26 20.51 61.31 18.05 63.99 C 14.92 68.19 7.75 67.01 5.69 62.35 C 3.79 58.31 5.63 53.42 9.26 51.05 C 9.36 50.87 9.56 50.50 9.67 50.32 C 9.31 50.23 8.60 50.04 8.25 49.95 C 5.39 49.36 2.63 48.39 0.00 47.12 L 0.00 46.08 Z" />
<path fill="#000000" opacity="1.00" d=" M 38.44 45.63 C 41.07 43.21 44.59 47.98 41.74 49.87 C 39.06 52.33 35.54 47.49 38.44 45.63 Z" />
<path fill="#000000" opacity="1.00" d=" M 75.42 47.29 C 76.24 48.14 77.09 48.98 77.86 49.90 C 77.21 50.64 76.50 51.33 75.75 51.97 C 74.75 51.40 73.77 50.78 72.82 50.13 C 73.47 49.42 74.77 48.00 75.42 47.29 Z" />
<path fill="#000000" opacity="1.00" d=" M 58.21 50.26 C 59.47 48.71 61.79 50.96 60.45 52.34 C 59.20 53.80 56.76 51.64 58.21 50.26 Z" />
<path fill="#000000" opacity="1.00" d=" M 44.27 52.27 C 45.23 50.93 46.87 52.58 47.54 53.44 C 47.91 54.97 46.69 56.79 45.00 56.37 C 43.01 56.41 42.30 53.02 44.27 52.27 Z" />
<path fill="#000000" opacity="1.00" d=" M 53.48 53.55 C 55.90 52.65 56.51 57.34 54.03 56.97 C 51.99 57.57 51.37 53.76 53.48 53.55 Z" />
<path fill="#000000" opacity="1.00" d=" M 87.30 61.34 C 88.36 60.82 90.81 60.42 90.83 62.22 C 91.19 63.53 89.74 64.39 89.06 65.30 C 86.40 67.85 83.69 70.35 80.97 72.84 C 82.12 68.69 83.33 63.72 87.30 61.34 Z" />
<path fill="#000000" opacity="1.00" d=" M 80.45 73.51 C 85.22 70.25 88.85 64.74 94.94 63.89 C 96.96 63.38 98.41 65.08 99.90 66.09 C 96.78 70.67 90.80 69.42 86.37 71.35 C 88.55 73.25 93.81 69.07 95.58 72.92 C 96.24 75.61 92.54 74.81 91.02 74.77 C 87.54 74.05 83.68 75.12 80.45 73.51 Z" />
<path fill="#000000" opacity="1.00" d=" M 54.89 69.38 C 58.58 68.25 62.27 66.96 65.32 64.50 C 64.19 69.63 62.07 76.59 55.99 77.34 C 54.56 78.11 53.26 75.25 54.69 74.79 C 57.56 73.01 60.46 71.24 62.82 68.78 C 60.26 69.86 57.38 71.63 54.89 69.38 Z" />
<path fill="#000000" opacity="1.00" d=" M 44.79 71.86 C 46.94 69.46 51.30 70.31 52.67 73.11 C 53.19 75.16 52.54 77.22 51.60 79.04 C 51.24 77.02 52.81 74.46 51.34 72.65 C 49.49 70.49 45.66 70.87 44.46 73.52 C 42.63 76.16 45.17 79.14 45.76 81.72 C 43.24 79.29 41.78 74.46 44.79 71.86 Z" />
<path fill="#000000" opacity="1.00" d=" M 39.55 82.35 C 36.99 80.47 36.22 76.12 39.00 74.06 C 41.55 75.26 40.64 78.43 41.55 80.62 C 42.91 82.31 44.90 83.34 46.54 84.74 C 44.17 84.16 41.56 83.88 39.55 82.35 Z" />
<path fill="#000000" opacity="1.00" d=" M 81.10 78.20 C 85.90 75.81 92.50 76.60 95.91 80.96 C 99.97 86.12 95.49 94.84 89.01 94.86 C 85.60 95.10 81.98 92.57 81.84 88.99 C 81.41 85.82 84.37 82.37 87.68 83.32 C 89.87 83.85 90.41 86.27 91.30 88.01 C 89.96 86.77 89.09 84.54 86.98 84.56 C 82.73 85.67 84.03 92.40 88.06 92.76 C 93.39 94.12 97.71 87.70 95.43 83.05 C 93.68 78.96 88.03 78.30 84.63 80.64 C 76.58 85.49 68.72 92.90 58.60 91.79 C 67.00 88.78 73.11 81.93 81.10 78.20 Z" />
<path fill="#000000" opacity="1.00" d=" M 48.64 78.83 C 48.79 77.43 49.45 77.17 50.63 78.03 C 50.49 79.44 49.82 79.71 48.64 78.83 Z" />
<path fill="#000000" opacity="1.00" d=" M 41.43 97.06 C 43.95 97.13 46.88 97.52 48.84 95.58 C 50.15 96.49 51.62 97.13 52.98 97.97 C 51.78 98.63 49.96 98.34 49.56 100.00 L 48.36 100.00 L 48.23 99.41 C 47.52 98.19 46.26 97.38 44.85 97.90 C 40.05 98.90 35.12 98.63 30.31 97.80 C 33.97 97.10 37.71 96.81 41.43 97.06 Z" />
<path fill="#000000" opacity="1.00" d=" M 54.15 97.12 C 59.31 96.53 64.51 97.18 69.64 97.78 C 65.68 98.30 61.68 98.58 57.68 98.67 C 56.28 98.87 55.23 97.81 54.15 97.12 Z" />
</g>
</svg>
