<?xml version="1.0" encoding="UTF-8" standalone="no"?>
<!-- Created with Inkscape (http://www.inkscape.org/) -->

<svg
   xmlns:dc="http://purl.org/dc/elements/1.1/"
   xmlns:cc="http://creativecommons.org/ns#"
   xmlns:rdf="http://www.w3.org/1999/02/22-rdf-syntax-ns#"
   xmlns:svg="http://www.w3.org/2000/svg"
   xmlns="http://www.w3.org/2000/svg"
   version="1.1"
   width="22"
   height="100"
   id="svg2">
  <defs
     id="defs4" />
  <metadata
     id="metadata7">
    <rdf:RDF>
      <cc:Work
         rdf:about="">
        <dc:format>image/svg+xml</dc:format>
        <dc:type
           rdf:resource="http://purl.org/dc/dcmitype/StillImage" />
        <dc:title></dc:title>
      </cc:Work>
    </rdf:RDF>
  </metadata>
  <g
     transform="translate(-2,-950.36218)"
     id="layer1">
    <path
       d="M 291.42857,798.07645 C 451.0234,556.73792 -155.04531,918.16267 133.1465,892.46683 421.33831,866.77098 -239.11259,618.27204 -39.338119,827.56837 160.43636,1036.8647 -57.063749,365.56683 -96.140862,652.25093 -135.21798,938.93503 254.01474,350.33923 5.5118974,498.53212 -242.99094,646.72502 459.87442,584.05593 189.07356,482.16534 -81.727298,380.27476 405.49875,890.72348 316.31845,615.47511 227.13814,340.22673 131.83373,1039.415 291.42857,798.07645 z"
       transform="matrix(0.03585619,0,0,0.03585619,9.0382294,957.28469)"
       id="path2995"
       style="fill:#000000;fill-opacity:1;stroke:none" />
    <path
       d="M 291.42857,798.07645 C 451.0234,556.73792 -155.04531,918.16267 133.1465,892.46683 421.33831,866.77098 -239.11259,618.27204 -39.338119,827.56837 160.43636,1036.8647 -57.063749,365.56683 -96.140862,652.25093 -135.21798,938.93503 254.01474,350.33923 5.5118974,498.53212 -242.99094,646.72502 459.87442,584.05593 189.07356,482.16534 -81.727298,380.27476 405.49875,890.72348 316.31845,615.47511 227.13814,340.22673 131.83373,1039.415 291.42857,798.07645 z"
       transform="matrix(0.03585619,0,0,0.03585619,9.0382294,995.28469)"
       id="path2995-1"
       style="fill:#000000;fill-opacity:1;stroke:none" />
  </g>
</svg>
