<?xml version="1.0" encoding="utf-8"?>
<!-- Generator: Adobe Illustrator 21.1.0, SVG Export Plug-In . SVG Version: 6.00 Build 0)  -->
<svg version="1.1"
	 id="svg3813" xmlns:cc="http://creativecommons.org/ns#" xmlns:dc="http://purl.org/dc/elements/1.1/" xmlns:rdf="http://www.w3.org/1999/02/22-rdf-syntax-ns#" xmlns:svg="http://www.w3.org/2000/svg"
	 xmlns="http://www.w3.org/2000/svg" xmlns:xlink="http://www.w3.org/1999/xlink" x="0px" y="0px" viewBox="0 0 45.6 61.6"
	 style="enable-background:new 0 0 45.6 61.6;" xml:space="preserve">
<style type="text/css">
	.st0{fill:#312C29;}
	.st1{fill:#FFD543;}
	.st2{fill:#453C33;}
</style>
<path id="rect2975" class="st0" d="M0,0h45.6v61.6H0C0,61.6,0,0,0,0z"/>
<path id="path2977" class="st1" d="M9.6,6.8c0,1.5-1.3,2.8-2.8,2.8S4,8.3,4,6.8S5.3,4,6.8,4S9.6,5.3,9.6,6.8z"/>
<path id="path2977-7" class="st1" d="M17.6,6.8c0,1.5-1.3,2.8-2.8,2.8S12,8.3,12,6.8S13.3,4,14.8,4S17.6,5.3,17.6,6.8z"/>
<path id="path2977-4" class="st1" d="M25.6,6.8c0,1.5-1.3,2.8-2.8,2.8c-1.5,0-2.8-1.3-2.8-2.8S21.3,4,22.8,4
	C24.3,4,25.6,5.3,25.6,6.8z"/>
<path id="path2977-7-0" class="st1" d="M33.6,6.8c0,1.5-1.3,2.8-2.8,2.8c-1.5,0-2.8-1.3-2.8-2.8S29.3,4,30.8,4
	C32.3,4,33.6,5.3,33.6,6.8z"/>
<path id="path2977-9" class="st1" d="M41.6,6.8c0,1.5-1.3,2.8-2.8,2.8c-1.5,0-2.8-1.3-2.8-2.8S37.3,4,38.8,4
	C40.3,4,41.6,5.3,41.6,6.8z"/>
<path id="path2977-45" class="st2" d="M9.6,14.8c0,1.5-1.3,2.8-2.8,2.8S4,16.3,4,14.8C4,13.3,5.3,12,6.8,12S9.6,13.3,9.6,14.8z"/>
<path id="path2977-7-5" class="st2" d="M17.6,14.8c0,1.5-1.3,2.8-2.8,2.8S12,16.3,12,14.8c0-1.5,1.3-2.8,2.8-2.8
	S17.6,13.3,17.6,14.8z"/>
<path id="path2977-4-1" class="st2" d="M25.6,14.8c0,1.5-1.3,2.8-2.8,2.8c-1.5,0-2.8-1.3-2.8-2.8c0-1.5,1.3-2.8,2.8-2.8
	C24.3,12,25.6,13.3,25.6,14.8z"/>
<path id="path2977-7-0-7" class="st1" d="M33.6,14.8c0,1.5-1.3,2.8-2.8,2.8c-1.5,0-2.8-1.3-2.8-2.8c0-1.5,1.3-2.8,2.8-2.8
	C32.3,12,33.6,13.3,33.6,14.8z"/>
<path id="path2977-9-1" class="st2" d="M41.6,14.8c0,1.5-1.3,2.8-2.8,2.8c-1.5,0-2.8-1.3-2.8-2.8c0-1.5,1.3-2.8,2.8-2.8
	C40.3,12,41.6,13.3,41.6,14.8z"/>
<path id="path2977-45-7" class="st2" d="M9.6,22.8c0,1.5-1.3,2.8-2.8,2.8S4,24.3,4,22.8C4,21.3,5.3,20,6.8,20S9.6,21.3,9.6,22.8z"/>
<path id="path2977-7-5-6" class="st2" d="M17.6,22.8c0,1.5-1.3,2.8-2.8,2.8S12,24.3,12,22.8c0-1.5,1.3-2.8,2.8-2.8
	S17.6,21.3,17.6,22.8z"/>
<path id="path2977-4-1-1" class="st1" d="M25.6,22.8c0,1.5-1.3,2.8-2.8,2.8c-1.5,0-2.8-1.3-2.8-2.8c0-1.5,1.3-2.8,2.8-2.8
	C24.3,20,25.6,21.3,25.6,22.8z"/>
<path id="path2977-7-0-7-4" class="st2" d="M33.6,22.8c0,1.5-1.3,2.8-2.8,2.8c-1.5,0-2.8-1.3-2.8-2.8c0-1.5,1.3-2.8,2.8-2.8
	C32.3,20,33.6,21.3,33.6,22.8z"/>
<path id="path2977-9-1-2" class="st2" d="M41.6,22.8c0,1.5-1.3,2.8-2.8,2.8c-1.5,0-2.8-1.3-2.8-2.8c0-1.5,1.3-2.8,2.8-2.8
	C40.3,20,41.6,21.3,41.6,22.8z"/>
<path id="path2977-45-7-1" class="st2" d="M9.6,30.8c0,1.5-1.3,2.8-2.8,2.8S4,32.3,4,30.8S5.3,28,6.8,28S9.6,29.3,9.6,30.8z"/>
<path id="path2977-7-5-6-6" class="st2" d="M17.6,30.8c0,1.5-1.3,2.8-2.8,2.8S12,32.3,12,30.8s1.3-2.8,2.8-2.8S17.6,29.3,17.6,30.8z
	"/>
<path id="path2977-4-1-1-8" class="st2" d="M25.6,30.8c0,1.5-1.3,2.8-2.8,2.8c-1.5,0-2.8-1.3-2.8-2.8s1.3-2.8,2.8-2.8
	C24.3,28,25.6,29.3,25.6,30.8z"/>
<path id="path2977-7-0-7-4-5" class="st1" d="M33.6,30.8c0,1.5-1.3,2.8-2.8,2.8c-1.5,0-2.8-1.3-2.8-2.8s1.3-2.8,2.8-2.8
	C32.3,28,33.6,29.3,33.6,30.8z"/>
<path id="path2977-9-1-2-7" class="st2" d="M41.6,30.8c0,1.5-1.3,2.8-2.8,2.8c-1.5,0-2.8-1.3-2.8-2.8s1.3-2.8,2.8-2.8
	C40.3,28,41.6,29.3,41.6,30.8z"/>
<path id="path2977-45-7-1-9" class="st2" d="M9.6,38.8c0,1.5-1.3,2.8-2.8,2.8S4,40.3,4,38.8S5.3,36,6.8,36S9.6,37.3,9.6,38.8z"/>
<path id="path2977-7-5-6-6-2" class="st2" d="M17.6,38.8c0,1.5-1.3,2.8-2.8,2.8S12,40.3,12,38.8s1.3-2.8,2.8-2.8
	S17.6,37.3,17.6,38.8z"/>
<path id="path2977-4-1-1-8-7" class="st2" d="M25.6,38.8c0,1.5-1.3,2.8-2.8,2.8c-1.5,0-2.8-1.3-2.8-2.8s1.3-2.8,2.8-2.8
	C24.3,36,25.6,37.3,25.6,38.8z"/>
<path id="path2977-7-0-7-4-5-9" class="st2" d="M33.6,38.8c0,1.5-1.3,2.8-2.8,2.8c-1.5,0-2.8-1.3-2.8-2.8s1.3-2.8,2.8-2.8
	C32.3,36,33.6,37.3,33.6,38.8z"/>
<path id="path2977-9-1-2-7-5" class="st1" d="M41.6,38.8c0,1.5-1.3,2.8-2.8,2.8c-1.5,0-2.8-1.3-2.8-2.8s1.3-2.8,2.8-2.8
	C40.3,36,41.6,37.3,41.6,38.8z"/>
<path id="path2977-45-7-1-3" class="st1" d="M9.6,46.8c0,1.5-1.3,2.8-2.8,2.8S4,48.3,4,46.8S5.3,44,6.8,44S9.6,45.3,9.6,46.8z"/>
<path id="path2977-7-5-6-6-3" class="st2" d="M17.6,46.8c0,1.5-1.3,2.8-2.8,2.8S12,48.3,12,46.8s1.3-2.8,2.8-2.8
	S17.6,45.3,17.6,46.8z"/>
<path id="path2977-4-1-1-8-4" class="st2" d="M25.6,46.8c0,1.5-1.3,2.8-2.8,2.8c-1.5,0-2.8-1.3-2.8-2.8s1.3-2.8,2.8-2.8
	C24.3,44,25.6,45.3,25.6,46.8z"/>
<path id="path2977-7-0-7-4-5-1" class="st2" d="M33.6,46.8c0,1.5-1.3,2.8-2.8,2.8c-1.5,0-2.8-1.3-2.8-2.8s1.3-2.8,2.8-2.8
	C32.3,44,33.6,45.3,33.6,46.8z"/>
<path id="path2977-9-1-2-7-1" class="st1" d="M41.6,46.8c0,1.5-1.3,2.8-2.8,2.8c-1.5,0-2.8-1.3-2.8-2.8s1.3-2.8,2.8-2.8
	C40.3,44,41.6,45.3,41.6,46.8z"/>
<path id="path2977-45-7-1-2" class="st2" d="M9.6,54.8c0,1.5-1.3,2.8-2.8,2.8S4,56.3,4,54.8S5.3,52,6.8,52S9.6,53.3,9.6,54.8z"/>
<path id="path2977-7-5-6-6-7" class="st1" d="M17.6,54.8c0,1.5-1.3,2.8-2.8,2.8S12,56.3,12,54.8s1.3-2.8,2.8-2.8
	S17.6,53.3,17.6,54.8z"/>
<path id="path2977-4-1-1-8-79" class="st1" d="M25.6,54.8c0,1.5-1.3,2.8-2.8,2.8c-1.5,0-2.8-1.3-2.8-2.8s1.3-2.8,2.8-2.8
	C24.3,52,25.6,53.3,25.6,54.8z"/>
<path id="path2977-7-0-7-4-5-3" class="st1" d="M33.6,54.8c0,1.5-1.3,2.8-2.8,2.8c-1.5,0-2.8-1.3-2.8-2.8s1.3-2.8,2.8-2.8
	C32.3,52,33.6,53.3,33.6,54.8z"/>
<path id="path2977-9-1-2-7-19" class="st2" d="M41.6,54.8c0,1.5-1.3,2.8-2.8,2.8c-1.5,0-2.8-1.3-2.8-2.8s1.3-2.8,2.8-2.8
	C40.3,52,41.6,53.3,41.6,54.8z"/>
</svg>
