<?xml version="1.0" encoding="UTF-8" standalone="no"?>
<!-- Created with Inkscape (http://www.inkscape.org/) -->

<svg
   xmlns:dc="http://purl.org/dc/elements/1.1/"
   xmlns:cc="http://creativecommons.org/ns#"
   xmlns:rdf="http://www.w3.org/1999/02/22-rdf-syntax-ns#"
   xmlns:svg="http://www.w3.org/2000/svg"
   xmlns="http://www.w3.org/2000/svg"
   version="1.1"
   width="75.760002"
   height="100"
   id="svg3614">
  <defs
     id="defs3616" />
  <metadata
     id="metadata3619">
    <rdf:RDF>
      <cc:Work
         rdf:about="">
        <dc:format>image/svg+xml</dc:format>
        <dc:type
           rdf:resource="http://purl.org/dc/dcmitype/StillImage" />
        <dc:title></dc:title>
      </cc:Work>
    </rdf:RDF>
  </metadata>
  <g
     transform="translate(0,-952.36218)"
     id="layer1">
    <g
       transform="matrix(0.88058,0,0,0.88057705,-343.66109,765.64076)"
       id="g3213">
      <path
         d="m 405.72,223.54 c 5.76,-5.78 13.25,-9.89 21.38,-11.01 11.1,-1.44 23.26,0.14 32.3,7.21 8.81,6.73 13.18,17.62 15.22,28.21 2.24,13.11 2.28,26.62 0.03,39.74 -1.94,11.06 -6.35,22.36 -15.22,29.7 -9.16,7.66 -21.97,9.4 -33.46,7.52 -9.62,-1.44 -18.53,-6.77 -24.34,-14.57 -9.02,-12.01 -12.04,-27.6 -11.24,-42.35 0.63,-15.88 4.56,-32.43 15.32,-44.61 -0.05,2.04 -1.32,4.33 -0.24,6.3 1.23,2.01 3.76,2.39 5.77,3.22 0.48,1.03 0.97,2.06 1.47,3.09 -0.34,0.78 -1.02,2.33 -1.37,3.1 1.01,-0.66 2,-1.34 3.01,-2.01 -0.05,-0.57 -0.17,-1.72 -0.23,-2.3 2.54,-0.46 4.95,-1.61 4.85,-4.56 -2.16,1.65 -4.5,3.13 -7.29,3.39 1.38,-1.1 2.81,-2.14 4.22,-3.21 -0.5,-0.67 -1.52,-2.01 -2.02,-2.67 0.81,-2.43 3.55,-0.26 4.98,0.41 -0.22,-0.51 -0.66,-1.52 -0.88,-2.02 0.61,-0.11 1.85,-0.33 2.47,-0.44 -2.16,-1.29 -4.24,-2.74 -6.58,-3.65 -2.8,-1.15 -5.56,0.7 -8.15,1.51 m 21.19,-1.67 c -2.57,2.51 -3.62,6.07 -4.44,9.46 -3.12,13.19 -4.71,26.72 -4.99,40.27 -1.53,-1.77 -3.53,-7.64 -6.5,-4.62 -2.52,3.66 -1.57,8.47 -2.3,12.64 -2.28,-6.2 -0.26,-12.87 2.88,-18.36 -3.19,2.2 -4.84,5.96 -4.9,9.77 -0.16,5.65 0.59,11.44 2.9,16.64 0.28,-0.65 0.85,-1.95 1.13,-2.6 -0.09,0.7 -0.26,2.11 -0.35,2.82 1.35,2.45 2.62,4.95 4.06,7.36 2.91,-4.7 -0.48,-9.93 -2.38,-14.32 -2.43,-4.41 -2.28,-10.12 0.79,-14.18 2.53,2.6 4.83,5.65 4.89,9.45 -1.04,0.8 -2.06,1.61 -3.07,2.43 0.74,-0.41 2.22,-1.24 2.96,-1.66 0.19,9.3 0.33,18.74 2.64,27.81 1.16,4.06 2.72,8.24 5.8,11.24 3.28,3.19 8.36,3.32 12.56,2.33 5.6,-1.58 8.56,-7.86 8.23,-13.35 0.75,0.04 1.51,0.08 2.28,0.13 0.8,3.51 5.58,3.67 6.74,6.93 0.93,3.32 -2.71,6.14 -5.81,5.43 -2.07,-0.32 -2.89,-2.58 -4.16,-3.92 -0.59,2.39 -1.16,6.05 2.08,6.74 3.8,0.4 7.97,-0.92 10.49,-3.89 1.69,-1.91 1.41,-4.58 1.38,-6.94 -0.35,0.96 -1.04,2.87 -1.38,3.83 -0.75,-1.61 -1.49,-3.21 -2.28,-4.79 1.34,-1.08 2.59,-2.28 3.71,-3.58 -1.57,-0.85 -3.19,-1.58 -4.87,-2.16 0.71,0.66 2.13,1.99 2.84,2.65 -2.2,1.41 -5.31,2.78 -7.39,0.4 -1.85,-2.6 0.87,-5.17 2.28,-7.21 -1.55,1.08 -3.49,2.03 -3.65,4.19 -0.38,0.12 -1.13,0.36 -1.5,0.48 1.84,-15.35 1.71,-30.85 1.57,-46.28 -0.37,-9.05 -0.83,-18.23 -3.46,-26.96 -1.12,-3.44 -2.58,-6.99 -5.39,-9.39 -3.86,-3.24 -10.02,-2.28 -13.39,1.21 m 21.82,3.6 c 0.56,0.17 1.67,0.51 2.22,0.68 -0.07,0.53 -0.22,1.6 -0.29,2.13 0.86,-0.66 1.73,-1.33 2.6,-1.99 0.46,0.25 1.39,0.73 1.86,0.98 0.08,-0.78 0.24,-2.34 0.32,-3.12 2.98,-1.28 8.27,0.88 7.32,4.69 -1.12,3.12 -5,2.47 -7.55,2.16 1.19,-2.72 3.64,-1.68 5.84,-1.03 -1,-0.88 -1.73,-2.43 -3.27,-2.36 -1.93,-0.15 -3.29,1.58 -4.83,2.43 1.47,1.18 2.99,2.3 4.46,3.49 -2.7,-0.34 -5.07,-1.65 -7.33,-3.08 0.18,2.69 2.47,3.69 4.69,4.38 0.42,1.64 1.25,3.12 2.29,4.46 0.01,-2.15 0.14,-4.28 0.44,-6.4 1.57,-0.47 3.12,-0.99 4.66,-1.58 -0.72,1.26 -1.53,2.47 -2.11,3.81 0.18,3.52 5.65,3.88 7.72,1.68 0.61,-1.4 -0.71,-2.05 -1.59,-2.79 -0.43,2.14 -2.18,2.78 -4.09,1.96 -0.35,-2.39 2.15,-3.71 3.26,-5.51 -0.59,0.26 -1.78,0.8 -2.38,1.07 1.85,-2.9 1.7,-7.07 -1.62,-8.82 -4.3,-2.85 -8.82,0.83 -12.62,2.76 m -43.84,5.19 c 0.57,1.09 1.71,3.28 2.28,4.37 -0.22,2.54 -3.76,1.19 -4.2,-0.77 -0.79,0.42 -1.56,0.84 -2.32,1.28 1.6,2.8 5.74,3.59 8.02,1.18 2.36,-2.61 -2.47,-4.67 -3.78,-6.06 m 11.17,4.35 c -1.1,0.23 -1.44,3.02 0.07,2.84 1.47,0.82 2.83,0.07 3.88,-1.02 0.08,-1.86 -2.66,-2.75 -3.95,-1.82 m 32.43,1.18 c 1.61,1.62 3.7,2.02 5.93,1.63 -0.24,-0.61 -0.72,-1.85 -0.95,-2.46 -1.48,-1.79 -3.39,0.38 -4.98,0.83 m -46.68,8.11 c -0.46,0.12 -1.39,0.35 -1.85,0.46 -0.3,1.15 -0.6,2.3 -0.9,3.45 -1.08,-1.11 -2.18,-2.23 -3.28,-3.32 -2.95,3.35 -2.12,7.78 -0.24,11.44 0.54,-1.96 1.07,-3.93 1.77,-5.84 -0.22,1.65 -0.54,3.29 -0.87,4.92 2.6,4.95 8.94,7.37 9.12,13.58 0.72,-5.61 5.63,-8.68 9.01,-12.65 -0.12,-1.89 -0.25,-3.79 -0.3,-5.68 0.48,1.85 0.86,3.72 1.31,5.59 1.59,-3.53 2.83,-7.83 0.26,-11.25 -1.65,0.09 -2.54,1.59 -3.64,2.58 -0.56,-1.62 -1.34,-3.15 -2.88,-4.03 -1.01,-1.75 -1.71,-4.64 -4.37,-4 -2.22,0.49 -2.35,3.05 -3.14,4.75 m 56.44,-0.33 c -1.61,0.88 -2.36,2.51 -3.04,4.12 -0.95,-1.06 -1.92,-2.12 -2.88,-3.15 -3.24,3.26 -2.3,8.03 -0.17,11.64 0.34,-2 0.68,-3.99 1.13,-5.97 0.06,2.16 0.08,4.32 0.13,6.47 3.41,3.3 7.52,6.26 8.75,11.12 0.74,-3.64 2.96,-6.7 6.15,-8.6 -1.34,2.22 -3.12,4.17 -4.2,6.54 -1.33,3.28 -0.81,6.88 -0.88,10.33 -0.26,1.34 -1.55,1.99 -2.48,2.84 0.55,-5.98 1.24,-13.28 -3.94,-17.57 1.51,4.16 2.93,8.43 3.02,12.91 -2.53,-2.46 -1.42,-8.23 -5.74,-8.83 -1.89,0.86 -2.71,2.88 -3.67,4.57 1.47,-1.22 2.91,-2.48 4.38,-3.7 2.65,4.11 3.35,9.57 0.95,13.97 -1.93,4.39 -5.19,9.78 -2.12,14.41 2.6,-4.81 6.48,-9.17 6.88,-14.86 l 1.17,-0.03 c -0.54,2.53 -1.05,5.07 -1.62,7.6 0.57,0.52 1.69,1.58 2.26,2.11 0.61,-0.84 1.23,-1.68 1.86,-2.51 -0.74,-2.77 -1.32,-5.59 -1.54,-8.45 0.27,0.09 0.81,0.27 1.07,0.35 0.13,6.28 4.49,11.01 7.47,16.16 2.33,-6 -1.67,-11.58 -3.79,-16.94 -1.04,-3.66 -1.07,-8.23 1.58,-11.23 2.26,0.65 3.26,3.08 3.93,5.13 0.49,1.97 1.13,5 -1.55,5.58 0.34,0.18 1.02,0.54 1.36,0.72 1.7,-3.95 0.8,-9.02 -2.25,-12.05 -1.18,-1.35 -3.12,-0.24 -3.68,1.13 -1.31,3.24 -0.96,6.9 -2.18,10.18 -0.48,-2.99 -0.65,-6.09 0.09,-9.05 0.75,-3.39 3.18,-6.11 3.82,-9.54 1.84,-2.57 4.71,-4.68 5.15,-8.02 0.54,-2.47 -0.81,-4.76 -1.75,-6.95 -1.24,1.16 -2.44,2.35 -3.62,3.56 -0.24,-1.14 -0.48,-2.27 -0.72,-3.4 -0.51,-0.2 -1.53,-0.61 -2.04,-0.81 -0.83,-1.63 -1.08,-4.43 -3.51,-4.2 -2.53,-0.39 -2.93,2.77 -3.78,4.42 m -58.73,16.97 c 3.73,6.19 4.66,13.66 3.15,20.68 -1.15,-5.51 0.76,-12.69 -4.65,-16.38 -3.98,2.94 -6.17,9.46 -2.33,13.36 -0.4,-0.68 -1.21,-2.04 -1.61,-2.72 0.03,-3.28 0.54,-7.51 4.1,-8.81 2.77,2.63 3.05,7.08 2.35,10.64 -1.94,5.59 -6.42,11.32 -3.67,17.47 3.12,-4.67 6.89,-9.38 7.26,-15.22 0.96,-6.52 1.49,-14.72 -4.6,-19.02 m 51.67,16.36 c 0.63,0.4 0.63,0.4 0,0 m -45.59,0.36 c -0.23,3.95 -2.87,8.36 -0.34,11.98 -4.57,-1.59 -4.85,7.12 -0.92,6.55 0.43,-2.01 -0.67,-3.81 -1.27,-5.64 0.87,0.76 1.73,1.53 2.59,2.31 0.91,-0.78 1.83,-1.55 2.77,-2.31 -0.62,2.16 -3.12,4.89 0.21,6.25 l 0.19,-2.44 c 0.61,0.64 1.22,1.3 1.82,1.96 -0.59,0.49 -1.79,1.46 -2.39,1.95 -0.79,-0.72 -1.59,-1.42 -2.41,-2.08 -0.91,0.62 -1.75,1.32 -2.61,2 -0.78,-0.49 -2.35,-1.47 -3.13,-1.96 0.97,1.64 2.14,3.17 3.49,4.54 0.5,-0.31 1.49,-0.92 1.99,-1.23 1.29,0.18 2.99,1.52 4.13,0.21 1.55,-1.76 1.65,-4.26 2.07,-6.44 -0.69,0.33 -1.36,0.67 -2.02,1.03 0.1,-2.24 0.11,-5.4 -3.09,-4.92 1.98,-3.74 -0.59,-7.91 -1.08,-11.76 m 53.48,19.17 c 2.72,-1.01 2.12,-3.41 0.66,-5.18 0.68,-0.69 1.34,-1.4 1.99,-2.12 -5,-0.95 -3.54,4.69 -2.65,7.3 m 3.26,-4.9 2.72,-1.08 c -1.16,1.88 -2.02,3.95 -1.12,6.17 2.81,-2.02 3.49,-6.63 -0.29,-8.03 -0.33,0.74 -0.98,2.2 -1.31,2.94 m 2.74,6.2 c -0.94,-0.5 -1.85,-1.04 -2.73,-1.61 -1.03,0.31 -1.94,0.94 -2.94,1.32 -0.99,-0.55 -1.97,-1.13 -2.92,-1.74 0.94,1.45 1.91,2.89 2.91,4.31 2.08,-0.91 4.29,-0.19 6.43,-0.46 1.79,-1.41 1.71,-4.03 2.37,-6.03 -1,1.43 -1.93,2.92 -3.12,4.21 m -50.76,0.62 c 1.51,1.71 4.02,3.54 3.16,6.16 -1.36,3.21 -6.01,2.81 -7.71,0.12 0.79,-0.53 2.37,-1.6 3.16,-2.13 -1.58,0.6 -4.26,0.12 -4.55,2.3 -0.29,1.82 1.86,2.22 2.93,3.16 -0.87,1.71 -1.42,3.55 -1.73,5.44 -0.62,-0.69 -1.87,-2.09 -2.5,-2.79 0.15,6.36 7.05,10.39 12.8,9.13 3.52,-1.35 1.9,-5.51 1.13,-8.17 -0.51,1.99 -0.55,4.86 -3.07,5.39 -3.28,1.19 -7.3,-1.84 -6.44,-5.39 1.5,-2.96 5.41,-3.57 7.16,-6.34 1.15,-3.21 -1.44,-6 -4.34,-6.88 z"
         id="path83"
         style="fill:#000000" />
      <path
         d="m 406.44,229.02 c -0.97,-4.54 5.15,-6.32 8.38,-4.31 -0.52,0.51 -1.56,1.53 -2.08,2.05 -1.63,0.89 -3.23,1.82 -4.68,2.98 2.11,-0.31 4.32,-0.87 6.32,0.3 -2.48,1.64 -6.36,2.03 -7.94,-1.02 z"
         id="path87"
         style="fill:#000000" />
      <path
         d="m 462.64,231.12 0.33,0.41 -0.52,0.25 -0.29,-0.47 0.48,-0.19 z"
         id="path89"
         style="fill:#000000" />
      <path
         d="m 404.91,250.96 c 0.29,-1.69 0.45,-3.39 0.63,-5.09 0.35,3.21 0.74,6.5 2.38,9.36 2.62,-1.74 1.83,-4.76 1.63,-7.38 0.77,1.94 2.35,3.9 1.54,6.08 -0.64,1.67 -2.46,2.4 -3.68,3.58 -1.81,1.29 0.09,4.81 -2.33,5.52 -0.27,-1.57 -0.36,-3.16 -0.62,-4.72 -1.4,-1.88 -4.4,-2.63 -4.65,-5.27 0.04,-1.85 0.97,-3.5 1.59,-5.2 0.38,2.16 -1.41,5.83 1.49,6.61 1.92,0.25 1.49,-2.33 2.02,-3.49 z"
         id="path93"
         style="fill:#000000" />
      <path
         d="m 461.88,246.04 c 0.47,2.86 0.74,5.81 1.96,8.48 3.34,0.19 2.08,-3.89 2.79,-5.98 0.42,1.45 1.08,2.87 1.12,4.41 -0.09,2.1 -2.17,3.07 -3.53,4.3 -2.22,1.27 -0.45,4.66 -2.79,5.92 -0.15,-1.69 -0.34,-3.36 -0.59,-5.03 -1.32,-1.35 -3.2,-2.14 -4.24,-3.75 -1.03,-1.95 0.24,-4.05 0.74,-5.95 0.7,1.92 -0.57,5.26 1.78,6.17 3.05,-1.46 1.98,-5.79 2.76,-8.57 z"
         id="path95"
         style="fill:#000000" />
    </g>
  </g>
</svg>
