<?xml version="1.0" encoding="UTF-8" standalone="no"?>
<!-- Created with Inkscape (http://www.inkscape.org/) -->

<svg
   xmlns:dc="http://purl.org/dc/elements/1.1/"
   xmlns:cc="http://creativecommons.org/ns#"
   xmlns:rdf="http://www.w3.org/1999/02/22-rdf-syntax-ns#"
   xmlns:svg="http://www.w3.org/2000/svg"
   xmlns="http://www.w3.org/2000/svg"
   version="1.1"
   width="65.43"
   height="100"
   id="svg3220">
  <defs
     id="defs3222" />
  <metadata
     id="metadata3225">
    <rdf:RDF>
      <cc:Work
         rdf:about="">
        <dc:format>image/svg+xml</dc:format>
        <dc:type
           rdf:resource="http://purl.org/dc/dcmitype/StillImage" />
        <dc:title></dc:title>
      </cc:Work>
    </rdf:RDF>
  </metadata>
  <g
     transform="translate(0,-952.36218)"
     id="layer1">
    <g
       transform="matrix(0.89579461,0,0,0.89579461,-3.3592298,911.31652)"
       id="g3142">
      <path
         d="m 50.6,47.42 c 2.11,-0.75 4.3,-1.99 6.6,-1.48 0.84,3.28 0.37,6.7 0.37,10.05 -0.43,15.32 -0.18,30.66 -0.68,45.98 0.59,13.65 0.17,27.32 0.51,40.97 0.21,2.63 0.32,6.38 3.47,7.18 5.2,1.1 10.58,0.28 15.85,0.78 0.05,2.08 0.07,4.16 0.07,6.24 -21.24,0.64 -42.52,0.06 -63.78,0.3 -1.43,-0.29 -3.47,0.52 -4.48,-0.76 -0.21,-1.9 -0.47,-3.98 0.34,-5.78 5.66,-0.67 11.52,0.52 17.07,-1.02 4.13,-1.31 4.06,-6.43 4.24,-9.95 C 30.36,121.96 30.16,103.98 30.24,86 30.14,81.66 30.52,77.29 29.98,72.97 29.77,70.87 28.45,68.31 26,68.44 19.12,68.36 12.6,70.95 5.9,72.15 5.17,70.42 4.45,68.68 3.75,66.94 19.25,60.17 35.01,53.99 50.6,47.42 m -3.04,3.3 c -3.84,0.73 -7.93,2.48 -9.71,6.21 3.56,-1.92 6.54,-6.47 11.07,-5.39 3.66,0.55 4.82,5.41 2.56,8.04 -1.65,2.41 -5.04,2.39 -7.29,0.87 0.32,-1.66 0.98,-3.23 1.52,-4.82 -1.18,1.3 -3.09,2.41 -2.91,4.44 0.17,2.02 2.41,3.07 4.21,3.17 4.73,0.49 9.1,-4.59 7.59,-9.19 C 53.62,51.3 50.25,50.2 47.56,50.72 M 32,70.01 c 2.9,3.28 7.41,0.88 11.08,1 2.12,-0.29 2.9,2.19 4.16,3.36 -5.14,-1.75 -11.97,-0.86 -14.61,4.44 -1.85,5.52 0.52,13.25 6.32,15.31 6.14,0.7 7.7,-9.33 2.7,-11.83 -0.99,0.23 -1.94,0.59 -2.89,0.92 0.93,0.14 2.81,0.42 3.74,0.56 -0.14,1.89 0.86,4.65 -1.62,5.41 -1.26,1.04 -2.92,-0.32 -3.75,-1.29 -2.54,-3.39 -2.23,-8.93 1.04,-11.73 3.68,-2.69 9.09,0.13 10.38,4.12 0.72,4.74 -0.06,9.74 -2.33,13.98 -3.35,6.06 -9.46,10.03 -12.67,16.18 -3.81,7.78 -3.04,19.33 5.05,24.12 -2.25,-4.23 -5.45,-8.63 -4.51,-13.7 1.09,-6.92 6.75,-11.68 11.08,-16.72 3.33,-3.5 5.8,-7.66 8.4,-11.7 0.3,4.08 0.81,8.75 -1.93,12.17 -1.78,2.31 -5,2.19 -7.45,3.36 -4.21,1.97 -6.53,6.36 -8.24,10.46 3,-2.46 5.83,-5.75 9.94,-6.17 2.64,-0.71 5.95,-0.23 7.93,-2.48 2.97,-3.09 2.96,-7.72 2.53,-11.71 C 56,94.6 53.51,91.48 54.41,87.89 55.42,80.31 54.67,70.95 48.05,65.99 44.3,62.94 39.33,65.21 35.08,64.08 32.45,62.62 31.98,59.37 30.86,56.85 29.83,61.14 28.77,66.37 32,70.01 m 7.15,47.12 c -4.73,2.99 -3.4,9.55 -1.1,13.69 2.65,5.45 9.4,6.57 12.78,11.37 3.25,3.69 4,8.64 4.78,13.31 2.85,-7.71 -0.72,-15.47 -2.72,-22.86 1.47,1.34 2.85,2.78 4.27,4.18 -0.61,-5.9 -3.71,-13.3 -10.55,-13.69 1.47,3.58 2.3,7.36 2.57,11.22 -2.7,-2.31 -5.86,-3.95 -8.79,-5.91 -2.94,-2.01 -3.99,-7.2 -1.33,-9.7 2.05,-1.72 2.17,2.2 2.31,3.38 -0.51,-0.2 -1.51,-0.6 -2.02,-0.8 0.04,0.45 0.12,1.35 0.15,1.79 1.86,-0.66 4.27,-1.59 4.27,-3.95 0.15,-2.37 -2.96,-3.88 -4.62,-2.03 m 3.26,22.24 c -2.26,-0.03 -4.51,0.2 -6.71,0.73 -0.44,-0.35 -1.32,-1.07 -1.76,-1.43 -0.02,0.56 -0.06,1.66 -0.08,2.22 -0.46,-0.05 -1.37,-0.16 -1.83,-0.21 0.6,3.09 0.89,6.21 0.94,9.35 3.49,0.47 3.76,6.04 7.85,5.34 4.26,-1.92 7.72,-5.26 9.18,-9.78 -0.38,-0.03 -1.14,-0.08 -1.53,-0.11 -1.91,-2.24 -4.19,-4.26 -5.26,-7.09 -0.2,0.25 -0.6,0.73 -0.8,0.98 z"
         id="path11"
         style="fill:#000000" />
      <path
         d="m 36.25,146.06 c 1.87,-2.24 3.61,-4.93 6.63,-5.7 -0.36,0.64 -1.08,1.92 -1.43,2.56 2.24,0.82 5.55,1.14 6.01,4.04 0.64,3.79 -3.25,6.31 -6.68,5.99 -1.18,-1.96 -2.4,-3.95 -2.68,-6.28 -0.46,-0.15 -1.39,-0.45 -1.85,-0.61 z"
         id="path61"
         style="fill:#000000" />
    </g>
  </g>
</svg>
