<?xml version="1.0" encoding="UTF-8" standalone="no"?>
<!-- Created with Inkscape (http://www.inkscape.org/) -->

<svg
   xmlns:dc="http://purl.org/dc/elements/1.1/"
   xmlns:cc="http://creativecommons.org/ns#"
   xmlns:rdf="http://www.w3.org/1999/02/22-rdf-syntax-ns#"
   xmlns:svg="http://www.w3.org/2000/svg"
   xmlns="http://www.w3.org/2000/svg"
   version="1.1"
   width="80.120003"
   height="100"
   id="svg3252">
  <defs
     id="defs3254" />
  <metadata
     id="metadata3257">
    <rdf:RDF>
      <cc:Work
         rdf:about="">
        <dc:format>image/svg+xml</dc:format>
        <dc:type
           rdf:resource="http://purl.org/dc/dcmitype/StillImage" />
        <dc:title></dc:title>
      </cc:Work>
    </rdf:RDF>
  </metadata>
  <g
     transform="translate(0,-952.36218)"
     id="layer1">
    <g
       transform="matrix(0.86903357,0,0,0.86903357,-81.249552,915.56051)"
       id="g3146">
      <path
         d="m 119.12,47.49 c 16.8,-7.93 39.03,-7.33 52.75,6.33 -1.7,-0.11 -3.39,-0.21 -5.08,-0.29 1.6,0.4 3.21,0.76 4.84,1.06 1.54,2.08 3.12,4.3 2.79,7.05 -1.67,1.61 -3.13,3.44 -4.12,5.55 -0.51,-0.62 -1.54,-1.85 -2.05,-2.47 0.03,0.96 0.1,2.88 0.13,3.83 -0.74,-0.32 -2.24,-0.97 -2.98,-1.3 0.34,-0.84 1.03,-2.52 1.38,-3.36 -1.04,1.12 -2.07,2.24 -3.1,3.37 -0.11,-2.47 1.11,-4.35 3.17,-5.62 -0.66,0.04 -2,0.11 -2.66,0.14 0.77,-0.89 1.54,-1.8 2.31,-2.71 -1.12,-2.87 -2.34,-5.73 -4.24,-8.19 0.71,2.01 1.57,3.98 1.91,6.1 -0.25,3.34 -2.66,6.66 -1.06,9.97 1.02,2.11 3.16,4.25 5.7,3.84 0.87,-0.68 1.7,-1.4 2.49,-2.17 0.23,2.72 0.55,5.44 0.78,8.16 -2.42,-0.15 -4.42,-1.57 -6.31,-2.96 1.75,2.95 3.15,6.09 4.15,9.38 0.36,-1.87 0.83,-3.77 2.12,-5.24 1.59,-1.74 1.06,-4.27 1.45,-6.41 3.95,3.16 -1.45,7.02 -1.7,10.43 -0.39,2.5 2.12,1.49 3.63,1.56 0.7,-0.38 1.26,-0.9 1.68,-1.56 0.14,-0.56 0.42,-1.68 0.56,-2.24 -1.58,0.45 -3.14,0.96 -4.69,1.45 2.38,-3.58 3.21,-7.83 2.68,-12.09 0.14,-1.72 -1.53,-2.52 -2.83,-3.12 1.62,-2.13 2.48,-4.67 2.87,-7.29 4.38,7.9 4.13,17.25 1.76,25.73 -1.92,2.88 -3.17,6.14 -5.14,8.99 -2.49,3.89 -5.82,7.13 -8.43,10.93 -0.41,-0.45 -0.82,-0.91 -1.22,-1.37 2.16,-3.37 3.38,-7.3 2.91,-11.32 -0.68,-0.51 -2.04,-1.52 -2.71,-2.03 4.56,0.7 9.27,-0.28 12.79,-3.37 -0.53,-0.55 -1.07,-1.09 -1.61,-1.62 -2.65,2.98 -6.67,3.81 -10.37,4.65 1.43,-1.91 4.69,-3.28 4.19,-6.17 -0.32,-2.19 -2.53,-3.32 -3.9,-4.83 0.75,0.12 2.23,0.37 2.97,0.49 l -0.04,0.13 0.13,0.08 c -0.02,-0.05 -0.06,-0.16 -0.09,-0.21 -0.79,-1.86 -1.64,-3.69 -2.5,-5.52 -0.12,0.7 -0.36,2.11 -0.47,2.81 -1.45,0.1 -2.9,0.22 -4.35,0.35 2.07,2.74 6.53,4.58 6,8.53 -1.63,1.65 -3.72,2.7 -5.68,3.88 0.7,-0.04 2.1,-0.13 2.8,-0.18 l 0.11,1.04 c -6.54,2.26 -11.27,8.39 -12.33,15.14 -0.6,1.83 1.85,3.72 3.35,2.38 3.19,-1.83 4.31,-5.61 4.65,-9.04 -4.51,0.58 -4.91,5.31 -6.06,8.75 -1.86,-2.44 -0.47,-5.4 0.85,-7.7 2.16,-3.86 5.81,-7.5 10.55,-7.29 1.66,6.01 -2.25,11.53 -6.12,15.72 -2.05,1.97 -4.65,4.45 -7.73,3.88 -2.25,-1.36 -4.2,-3.19 -6.59,-4.33 0.97,1.75 2.03,3.49 2.4,5.5 2.36,1.63 5.17,1.2 7.81,0.61 -9.73,7.91 -20.22,14.86 -29.88,22.85 10.74,0.2 21.48,0.04 32.22,0.12 5.1,0.08 10.43,-0.61 14.81,-3.42 4.28,-2.68 7.07,-7.01 10.22,-10.83 1.58,0.81 3.15,1.64 4.69,2.51 -4.56,9.84 -9.01,19.72 -13.51,29.58 -0.66,1.06 -0.99,2.53 -2.23,3.07 -2.94,1.25 -4.24,-2.81 -6.9,-3.17 -5.97,-0.89 -12.03,-0.42 -18.04,-0.55 -15.33,0.42 -30.69,-0.49 -46.01,0.56 -1.63,0.05 -3.31,0.27 -4.88,-0.24 -0.99,-1.28 -0.76,-3.1 0.5,-4.11 2.8,-2.52 5.97,-4.6 8.61,-7.31 1.9,3.31 1.93,7.97 5.9,9.73 3.39,0.36 5.98,-2.87 7.55,-5.56 -1.62,-1.58 -3.19,-3.21 -4.71,-4.89 -1.88,0.23 -3.76,0.49 -5.64,0.78 -0.6,-0.43 -1.2,-0.86 -1.79,-1.3 7.12,-4.54 12.92,-10.81 19.19,-16.41 8.95,-8.81 18.06,-17.94 23.63,-29.36 3.64,-7.31 5.14,-15.73 3.61,-23.8 1.57,1.82 3.51,3.25 5.89,3.77 0.29,-0.45 0.87,-1.35 1.16,-1.8 -0.78,-0.19 -2.33,-0.56 -3.11,-0.75 -1.13,-2.31 -3.2,-5.81 -0.11,-7.59 2.73,1.1 5.1,2.87 7.56,4.45 -2.04,-3.27 -4.3,-7.15 -8.33,-8.12 -3.72,0.22 -3.77,4.64 -3.88,7.39 -2.31,-4.47 -5.71,-8.62 -10.52,-10.48 -6.59,-2.89 -14.19,-2.23 -20.75,0.39 -0.39,-0.09 -1.18,-0.28 -1.58,-0.38 -1.79,0.77 -3.71,1.44 -5.69,0.98 -1.33,-2.48 1.89,-4.71 2.41,-6.99 -1.75,1.8 -3.89,3.76 -3.87,6.5 0.48,2.85 4.22,1.06 5.9,1.39 -4.35,2.64 -7.7,6.47 -10.89,10.37 -1.71,-0.74 -3.42,-1.49 -5.12,-2.27 3.63,-8.06 9.7,-14.68 16.84,-19.77 0.54,0.41 1.07,0.83 1.6,1.26 l -2.88,1.54 c 2.13,-0.52 4.19,-1.37 6.39,-1.62 1.88,0.64 3.27,2.17 4.85,3.32 -0.33,-0.7 -0.98,-2.09 -1.3,-2.78 3.61,0.18 7.13,-0.71 10.46,-2.04 -3.53,0.8 -7.22,2.29 -10.83,1.01 -2.15,-0.87 -4.42,-0.75 -6.57,0.13 0.14,-0.5 0.4,-1.48 0.53,-1.97 m 36.4,-1.87 c 0.42,1.42 0.83,2.85 1.22,4.29 l 1.03,0.04 c -1.54,1.72 -1.56,4.14 -1.06,6.26 1.52,0.68 3.15,1.08 4.75,1.55 -0.43,-4.64 -3.31,-8.49 -5.94,-12.14 m -15.39,1.88 c -0.24,0.36 -0.72,1.1 -0.96,1.46 0.17,1.79 0.33,3.57 0.46,5.36 1.81,1.44 3.15,3.86 5.56,4.3 3.34,-0.88 5.95,-3.5 7.39,-6.59 -1.8,-1.48 -3.54,-3.02 -5.16,-4.69 -2.43,0.06 -4.86,0.16 -7.29,0.16 m -24.9,9.09 c 2.59,0.11 3.96,-1.93 5.18,-3.84 0.5,0.76 1.01,1.51 1.52,2.26 -0.11,-0.74 -0.31,-2.22 -0.41,-2.96 -3.14,-0.42 -5.17,1.89 -6.29,4.54 m 14.13,66.6 c -3.72,2.8 -5.49,7.11 -6.57,11.5 -0.9,-1.76 1,-7.28 -2.66,-5.85 -2.17,2.09 -2.78,8.91 1.31,8.37 4.58,-2.44 3.81,-9.07 7.75,-12.18 1.65,-0.67 3.49,-0.46 5.22,-0.68 -1.68,-0.4 -3.37,-0.78 -5.05,-1.16 m 43.06,11.04 c -1.09,1.04 -2.17,2.08 -3.26,3.11 0.28,0.93 0.55,1.85 0.82,2.78 1.59,0.69 3.11,1.81 4.92,1.75 2.52,-1.59 3.15,-4.47 3.22,-7.25 -1.9,-0.16 -3.8,-0.3 -5.7,-0.39 m -47.92,5.02 c 0.37,2.02 0.7,4.05 0.94,6.09 1.61,1.37 3.2,2.79 5.05,3.83 -0.62,0.44 -1.23,0.87 -1.85,1.31 -2.97,-1.24 -6.15,-2.31 -8.54,-4.56 -1.96,-1.99 -2.58,-4.8 -3.72,-7.26 -0.23,2.51 -0.46,5.38 1.5,7.33 5.99,6.45 15.82,7.43 24.02,5.72 6.87,-2.03 10.53,-9.23 17.16,-11.73 2.6,-0.95 6.62,-0.09 7.18,3.04 -1.03,3.45 -4.95,4.23 -8.06,4.46 -0.85,-0.8 -1.71,-1.58 -2.58,-2.35 2.3,4.64 9.59,2.71 11.67,-1.23 1.4,-2.78 -2.05,-5.01 -4.42,-5.35 -5,-0.59 -8.98,3.18 -12.57,6.07 0.03,-1.96 0.24,-3.92 0.09,-5.87 -3.04,-0.8 -6.26,-0.57 -8.16,2.24 -0.05,1.03 -0.1,2.06 -0.15,3.09 0.86,-2.17 2.49,-3.81 4.21,-5.32 1.3,1.44 1.55,3.21 1.11,5.04 -0.91,0.78 -1.82,1.58 -2.72,2.38 1.31,-0.24 3.92,-0.72 5.23,-0.97 -2.57,2.09 -5.06,4.62 -8.41,5.39 -3.38,0.78 -6.87,0.51 -10.31,0.7 -0.14,-0.44 -0.44,-1.33 -0.59,-1.77 1.68,-0.64 3.42,-1.15 5.04,-1.93 1.19,-1.26 1.6,-3.09 2.46,-4.58 -1.58,-1.57 -3.18,-3.13 -4.68,-4.77 -3,-0.08 -6.05,-0.03 -8.9,1 z"
         id="path7"
         style="fill:#000000" />
      <path
         d="m 142.59,51.19 c 1.17,-1.05 2.32,-2.11 3.47,-3.18 0.5,2.95 5.55,2.64 4.62,5.98 -0.73,2.14 -2.95,2.76 -4.87,3.35 -1.09,-2.04 -2.14,-4.1 -3.22,-6.15 z"
         id="path15"
         style="fill:#000000" />
      <path
         d="m 158.04,53.23 c 1.32,-0.8 2.84,1.41 1.68,2.39 -1.33,0.83 -2.84,-1.41 -1.68,-2.39 z"
         id="path19"
         style="fill:#000000" />
      <path
         d="m 153.18,62.98 c 3.01,-1.53 0.12,3.32 0,0 z"
         id="path25"
         style="fill:#000000" />
      <path
         d="m 151.09,65.28 c 3.33,-0.1 -1.37,3.06 0,0 z"
         id="path29"
         style="fill:#000000" />
      <path
         d="m 161.52,105.25 c 0.24,0.27 0.24,0.27 0,0 z"
         id="path43"
         style="fill:#000000" />
      <path
         d="m 121.01,131.74 c 0.52,0.64 0.52,0.64 0,0 z"
         id="path53"
         style="fill:#000000" />
      <path
         d="m 169.82,137.73 c 1.29,-0.88 2.59,-1.77 3.89,-2.66 0.5,0.45 1.49,1.34 1.99,1.79 -0.58,1.37 -1.16,2.75 -1.73,4.13 -2.23,0.02 -3.62,-1.17 -4.15,-3.26 z"
         id="path55"
         style="fill:#000000" />
      <path
         d="m 128.21,142.1 c 1.4,-1.17 2.79,-2.34 4.2,-3.5 -0.04,0.51 -0.1,1.51 -0.14,2.01 1.48,0.64 3.04,1.2 4.28,2.26 0.45,1.63 -0.88,2.83 -1.74,4 -0.75,0.25 -2.25,0.74 -3,0.99 -1.46,-1.75 -2.51,-3.78 -3.6,-5.76 z"
         id="path59"
         style="fill:#000000" />
      <path
         d="m 107.89,145.21 c 0.88,-0.83 1.77,-1.65 2.65,-2.48 0.9,1.09 1.99,1.97 3.2,2.69 0.47,0.44 1.43,1.33 1.9,1.77 -0.84,1.14 -1.68,2.28 -2.51,3.43 -0.81,0 -2.42,0.01 -3.22,0.01 -0.66,-1.82 -1.34,-3.62 -2.02,-5.42 z"
         id="path65"
         style="fill:#000000" />
    </g>
  </g>
</svg>
