<?xml version="1.0" encoding="UTF-8" standalone="no"?>
<!-- Created with Inkscape (http://www.inkscape.org/) -->

<svg
   xmlns:dc="http://purl.org/dc/elements/1.1/"
   xmlns:cc="http://creativecommons.org/ns#"
   xmlns:rdf="http://www.w3.org/1999/02/22-rdf-syntax-ns#"
   xmlns:svg="http://www.w3.org/2000/svg"
   xmlns="http://www.w3.org/2000/svg"
   version="1.1"
   width="74.43"
   height="100"
   id="svg3308">
  <defs
     id="defs3310" />
  <metadata
     id="metadata3313">
    <rdf:RDF>
      <cc:Work
         rdf:about="">
        <dc:format>image/svg+xml</dc:format>
        <dc:type
           rdf:resource="http://purl.org/dc/dcmitype/StillImage" />
        <dc:title></dc:title>
      </cc:Work>
    </rdf:RDF>
  </metadata>
  <g
     transform="translate(0,-952.36218)"
     id="layer1">
    <g
       transform="matrix(0.88015105,0,0,0.88015105,-171.00569,913.81094)"
       id="g3158">
      <path
         d="m 227.71,44.9 c 9.44,-1.85 19.49,-1.48 28.53,1.98 6.88,2.65 13.1,7.99 15.34,15.19 1.95,6.02 -0.33,12.62 -4.12,17.42 -5.15,6.52 -12.64,10.45 -19.89,14.17 2.91,0.64 5.96,1.07 8.54,2.69 -3.28,0.45 -7.5,-1 -10.01,1.9 -0.25,3.78 3.98,5.68 6.97,6.76 0.2,0.43 0.6,1.28 0.8,1.7 -1.52,0.13 -3.03,-0.25 -4.53,-0.37 -1.59,1.9 -2.92,4 -4.17,6.14 -4.77,-7.5 -13.85,-10.26 -22.05,-12.09 -1.79,-0.65 -5.05,-0.68 -4.73,-3.35 -0.35,-2.39 1.91,-2.84 3.78,-2.88 1.09,0.74 2.11,1.59 3.14,2.42 0.73,2.22 1.48,5.67 4.62,5.01 3.06,-1.14 5.57,-3.35 8.23,-5.19 2.47,3.77 2.51,8.95 6.69,11.6 -2.13,-4.43 -4.59,-9.95 -1.42,-14.53 5.04,-7.08 13.97,-9.96 19.3,-16.79 4.69,-5.55 5.31,-13.68 2.81,-20.31 -1.35,-3.74 -4.63,-6.75 -8.57,-7.51 -4.35,-0.3 -8.59,2.04 -12.94,1.12 -2.3,-0.53 -3.29,-2.85 -4.42,-4.66 -0.05,1.64 -0.6,3.16 -1.48,4.53 -1.57,-0.91 -3.47,-4.17 -5.11,-3.67 -0.48,2.6 3.81,2.43 3.83,4.87 -0.46,2.03 -2.59,2.74 -4.1,3.8 -1.27,-1.8 -2.48,-3.66 -3.63,-5.55 0.82,-1.06 2.65,-1.61 2.69,-3.11 -1.89,-0.66 -3.87,0.16 -5.77,0.39 0.17,1.78 0.3,3.57 0.49,5.35 1.02,1.25 3.74,1.96 3.27,3.89 -3.45,0.95 -7.2,0.87 -10.46,2.51 -4.22,1.86 -7.28,5.43 -10.34,8.75 -1.34,1 -2.68,2.01 -4.11,2.88 -1.83,-1.61 -0.84,-4.5 -1.46,-6.63 -0.25,2.71 -0.71,5.69 0.99,8.06 0.95,-0.59 2.85,-1.75 3.81,-2.34 -0.95,1.65 -1.91,3.29 -2.9,4.91 -1.9,-0.57 -3.84,-1.05 -5.66,-1.86 0.37,-5.58 3.57,-10.36 6.63,-14.84 2.54,0.53 5.09,1.03 7.62,1.67 -0.5,-0.43 -1.49,-1.31 -1.98,-1.75 1.39,-1.02 2.8,-2.05 4.14,-3.14 -1.29,0.75 -2.55,1.55 -3.81,2.35 -1.36,0.06 -4.09,0.18 -5.45,0.24 5.66,-5.85 12.91,-10.05 20.89,-11.73 m -20.93,15.92 c -0.13,1.85 -0.23,3.69 -0.16,5.54 1.18,-1.37 1.84,-3.04 2.04,-4.83 0.34,-0.39 1.02,-1.19 1.36,-1.58 -1.08,0.29 -2.16,0.58 -3.24,0.87 z"
         id="path9"
         style="fill:#000000" />
      <path
         d="m 237.74,50.15 c 0.82,-0.13 1.64,-0.26 2.46,-0.39 -0.34,2.71 0.7,6.38 3.85,6.79 5.43,0.51 11.31,-1.26 16.19,2.04 -3.16,-0.42 -6.65,-1.6 -9.62,0.17 -5.5,2.98 -5.44,11.91 -0.53,15.38 3.66,2.13 7.53,-2.43 6.65,-6.01 -0.13,-2.01 -2.08,-2.84 -3.58,-3.69 0.77,1.44 2.41,2.75 2,4.57 -0.57,2.14 -3.68,2.26 -4.84,0.6 -2.49,-3.27 -1.19,-9.02 2.89,-10.34 3.41,-0.96 6.86,1.56 8.09,4.65 0.53,6.7 -3.73,12.87 -9.32,16.22 -5.59,3.58 -12.21,8.34 -11.83,15.81 -0.4,0.1 -1.2,0.3 -1.6,0.39 -0.18,-1.05 -0.36,-2.11 -0.54,-3.16 -0.32,1.28 -0.85,2.47 -1.56,3.57 -1.06,-0.77 -2.09,-1.57 -3.1,-2.4 0.3,0.74 0.9,2.22 1.2,2.96 -1.56,-0.74 -3.1,-2.53 -4.91,-1.29 -1.5,-0.7 -3.05,-0.66 -4.53,0.07 -0.54,-0.53 -1.63,-1.58 -2.17,-2.11 6.86,-1.48 14.08,-3.76 18.84,-9.23 5.79,-6.57 6.21,-17.91 -0.55,-23.95 -2.5,-2.53 -6.12,-3.51 -9.34,-4.33 1.87,-2.25 5.36,-3.04 5.85,-6.32 z"
         id="path17"
         style="fill:#000000" />
      <path
         d="m 256.15,95.99 c 8.21,2.7 15.85,8.12 20.19,15.7 6.17,11.23 0.29,26.11 -10.26,32.4 -6.4,6.59 -15.5,9.45 -24.21,11.53 0.88,-1.06 1.76,-2.12 2.67,-3.16 0.02,-1.15 0.05,-2.31 0.08,-3.46 -1.71,-0.37 -4.43,-0.15 -4.65,-2.47 4.12,-1.85 6.43,-5.88 8.54,-9.64 0.24,0.44 0.71,1.31 0.94,1.75 1.14,0.15 2.29,0.31 3.43,0.47 -2.78,-2.36 -0.32,-6.4 3.02,-5.84 1.4,1.13 2.61,2.47 3.82,3.79 -0.25,-1.56 -0.51,-3.11 -0.78,-4.66 1.51,0.22 3.67,1.12 4.59,-0.7 0.79,-1.38 -0.18,-3.02 -0.3,-4.48 -1.16,0.06 -3.46,0.18 -4.61,0.25 2.19,-1.66 4.51,-3.14 6.8,-4.67 0.34,-1.35 0.71,-2.7 1.09,-4.04 -0.04,-2.25 0.01,-4.49 0.08,-6.74 -0.33,2.65 -0.44,5.4 -1.65,7.84 -1.64,2.38 -4.59,3.45 -6.21,5.85 -1.1,1.77 -0.23,3.88 -0.06,5.77 -3.88,-1.13 -6.95,1.22 -9.53,3.77 1.91,-7.22 1.06,-15.13 -2.77,-21.59 0.56,0.1 1.68,0.31 2.24,0.41 1.04,0.5 2.11,0.89 3.22,1.19 1.21,-1.09 2.3,-2.32 3.41,-3.51 0.15,-1.41 0.32,-2.82 0.5,-4.22 l -1.62,-0.65 c 2.06,-1.14 4.46,-1.33 6.61,-2.25 0.27,-4.2 -5.16,-4.33 -8.12,-3.72 1.68,2.82 4.74,2.67 7.64,2.28 -0.35,0.52 -1.05,1.57 -1.4,2.09 -3.46,-0.1 -6.91,-1.33 -9.72,-3.34 -1.5,-1.05 -2.7,-3.92 0.01,-4.34 5.1,-1.04 10.94,1.11 14.25,5.11 0.63,2.41 0.05,4.98 0.44,7.45 0.24,-0.84 0.73,-2.52 0.97,-3.36 2.05,2.75 4.28,5.4 7.04,7.47 -1.4,-1.64 -2.95,-3.15 -4.29,-4.84 -1.78,-2 -1.38,-4.96 -2.71,-7.17 -2.38,-2.74 -6.04,-3.85 -8.69,-6.27 m 4.2,11.75 c 0.36,1.58 0.76,3.15 1.15,4.73 -1.44,-0.03 -2.86,-0.06 -4.3,-0.12 1.03,0.52 3.08,1.56 4.1,2.08 -2.07,-0.05 -4.12,0.11 -4.42,2.44 -1.45,0.56 -2.12,1.86 -2.59,3.25 -1.1,0.43 -2.19,0.85 -3.28,1.28 1.95,-0.25 3.91,-0.22 5.86,0.05 0.74,-1.66 1.51,-3.31 2.36,-4.91 1.89,3.27 -1.69,4.84 -3.53,6.85 1.82,-0.09 4.66,-0.05 5.03,-2.44 0.66,-3.42 1.34,-6.87 1.54,-10.34 -0.55,-1.02 -1.25,-1.93 -1.92,-2.87 m 7.73,7.17 c 1.12,1.04 2.28,2.05 3.44,3.07 -0.4,0.47 -1.2,1.43 -1.6,1.91 1.16,0.33 2.32,0.66 3.49,1 -0.83,-2.79 -2.11,-5.55 -5.33,-5.98 m 2.08,6.94 c -0.45,2.24 -0.66,4.52 -0.61,6.8 -0.56,1.03 -1.11,2.07 -1.66,3.1 0.53,-0.57 1.59,-1.71 2.12,-2.28 1.82,-0.48 4.52,0.92 5.57,-1.2 0.69,-2.48 -1.03,-4.74 -1.77,-6.99 -1.22,0.16 -2.44,0.35 -3.65,0.57 m -6.98,19.72 c -1.11,-1.02 -2.21,-2.04 -3.3,-3.07 -0.08,1.7 -0.17,3.4 -0.28,5.1 1.84,-0.85 3.72,-1.61 5.61,-2.34 0.9,-1.24 1.81,-2.48 2.73,-3.7 0.18,0.6 0.55,1.8 0.73,2.4 1.06,-1.71 3.18,-3.12 2.94,-5.36 -0.63,-0.13 -1.87,-0.38 -2.49,-0.51 -2.01,2.47 -3.73,5.17 -5.94,7.48 m -3.58,2.03 c -0.56,0.51 -0.56,0.51 0,0 m 2.5,-0.12 c -2.17,1.2 1.33,2.96 2.28,1.39 0.65,-1.26 -1.43,-1.82 -2.28,-1.39 z"
         id="path37"
         style="fill:#000000" />
      <path
         d="m 228.5,98.19 c 0.76,-0.92 2.9,-0.97 3.09,0.48 -0.12,1.98 -4.14,1.51 -3.09,-0.48 z"
         id="path39"
         style="fill:#000000" />
      <path
         d="m 245.38,112.47 c 1.7,-1.86 3.53,-3.58 5.37,-5.28 0.54,0.51 1.63,1.52 2.17,2.03 -0.62,1.62 -1.23,3.24 -1.82,4.87 -1.93,-0.48 -3.84,-1 -5.72,-1.62 z"
         id="path47"
         style="fill:#000000" />
      <path
         d="m 272.13,124.19 c 2.05,-1.05 2.86,3.26 0.79,3.54 -1.42,-0.36 -1.65,-2.54 -0.79,-3.54 z"
         id="path49"
         style="fill:#000000" />
      <path
         d="m 261.23,128.29 c 1.45,0.16 1.7,0.81 0.73,1.93 -1.46,-0.16 -1.7,-0.81 -0.73,-1.93 z"
         id="path51"
         style="fill:#000000" />
      <path
         d="m 197.36,138.28 c 3.19,-2.97 8.22,-2.37 11.74,-0.32 3.87,2.19 5.61,6.5 8.35,9.79 -2.92,1 -5.16,3 -6.14,5.96 1.44,0.38 2.37,1.14 2.79,2.28 l 0.4,0.8 c -6.65,-0.79 -14.06,-2.4 -18.58,-7.76 -2.83,-3.17 -1.73,-8.24 1.44,-10.75 m 2.83,1.49 c -0.41,0.46 -1.22,1.38 -1.62,1.83 0.3,1.7 0.58,3.41 0.84,5.12 1.82,1.42 3.15,3.74 5.54,4.26 3.09,-1.21 5.91,-3.31 7.13,-6.51 -1.71,-1.59 -3.38,-3.22 -4.97,-4.93 -2.31,0.1 -4.61,0.21 -6.92,0.23 z"
         id="path57"
         style="fill:#000000" />
      <path
         d="m 202.09,143.79 c 1.35,-1.28 2.72,-2.55 4.09,-3.8 0.05,0.54 0.14,1.63 0.18,2.18 1.73,0.95 4.68,1.28 4.17,3.93 -0.82,1.93 -2.75,2.97 -4.66,3.54 -1.5,-1.79 -2.62,-3.84 -3.78,-5.85 z"
         id="path63"
         style="fill:#000000" />
      <path
         d="m 231.02,150.17 c 2.5,-0.13 4.65,-1.49 7,-2.18 0.36,0.35 1.08,1.05 1.44,1.4 -1.07,0.68 -2.13,1.36 -3.19,2.04 1.29,1.59 2.68,3.1 4.11,4.57 -3.84,0.6 -7.71,1.07 -11.58,1.36 0.84,-0.98 1.69,-1.95 2.54,-2.92 0.06,-0.92 0.12,-1.84 0.19,-2.76 -1.19,-0.16 -2.38,-0.33 -3.56,-0.5 2.41,1.66 0.96,4.08 0.32,6.23 -3.63,0 -7.28,0.08 -10.9,-0.28 -0.05,-0.22 -0.17,-0.66 -0.23,-0.88 0.92,-0.92 2.14,-1.41 3.28,-2.01 0.21,-1.11 0.43,-2.22 0.65,-3.32 -0.97,2.94 -4.59,5.02 -7.05,2.33 1.02,-1.29 2.04,-2.58 3.04,-3.88 4.68,-0.15 9.25,1.6 13.94,0.8 z"
         id="path69"
         style="fill:#000000" />
      <path
         d="m 237.02,152.14 c 1.34,-1.05 2.7,-2.08 4.04,-3.12 2.11,1.6 1.03,3.71 -0.12,5.5 -1.82,0.33 -2.76,-1.36 -3.92,-2.38 z"
         id="path71"
         style="fill:#000000" />
    </g>
  </g>
</svg>
