<?xml version="1.0" encoding="UTF-8" standalone="no"?>
<!-- Created with Inkscape (http://www.inkscape.org/) -->

<svg
   xmlns:dc="http://purl.org/dc/elements/1.1/"
   xmlns:cc="http://creativecommons.org/ns#"
   xmlns:rdf="http://www.w3.org/1999/02/22-rdf-syntax-ns#"
   xmlns:svg="http://www.w3.org/2000/svg"
   xmlns="http://www.w3.org/2000/svg"
   version="1.1"
   width="85.290001"
   height="100"
   id="svg3367">
  <defs
     id="defs3369" />
  <metadata
     id="metadata3372">
    <rdf:RDF>
      <cc:Work
         rdf:about="">
        <dc:format>image/svg+xml</dc:format>
        <dc:type
           rdf:resource="http://purl.org/dc/dcmitype/StillImage" />
        <dc:title></dc:title>
      </cc:Work>
    </rdf:RDF>
  </metadata>
  <g
     transform="translate(0,-952.36218)"
     id="layer1">
    <g
       transform="matrix(0.89792542,0,0,0.89792542,-256.68915,910.86709)"
       id="g3171">
      <path
         d="m 358.7,48.71 c 1.57,-1.8 5.09,-3.8 6.93,-1.38 1.15,4.04 0.67,8.33 0.37,12.46 -1.42,-3.61 -1.49,-8.45 -5.12,-10.68 -1.84,-0.46 -2.02,1.55 -2.25,2.85 -0.2,2.32 0.5,4.57 0.98,6.81 -3.81,-1.84 -9.2,-1.54 -11.4,2.54 -2.14,4.22 0.52,9.1 4.56,10.94 0.05,0.27 0.16,0.8 0.21,1.06 -2.45,0.84 -4.97,1.43 -7.51,1.96 -3.88,-2.96 -8.35,0.09 -11.2,2.99 -2.8,2.58 -4.34,6.14 -5.36,9.74 -0.53,-0.32 -1.6,-0.97 -2.13,-1.29 -3.19,1.5 -6.1,3.68 -7.67,6.91 2.53,-1.8 4.54,-4.82 7.88,-5.12 2.59,2.03 0.58,5.64 -0.57,7.98 -2.18,3.39 -4.99,7.5 -9.38,7.83 -1.82,-1.03 -3.39,-2.42 -5.05,-3.67 0.59,1.57 1.17,3.14 1.71,4.73 2.85,1.72 5.71,-0.14 8.37,-1.26 -3.29,3.4 -6.64,6.75 -9.62,10.43 -0.93,-0.51 -1.84,-1.04 -2.74,-1.58 -3.81,-0.13 -7.2,1.65 -10.57,3.15 0.63,-0.97 1.88,-2.9 2.51,-3.86 -4.4,1.03 -7.39,4.72 -8.03,9.09 2.09,-0.76 4.2,-1.51 6.32,-2.19 -1.65,3.24 -2.1,7.47 -5.03,9.83 -2.66,1.36 -4.23,-1.28 -3.2,-3.58 0.78,0.88 1.55,1.78 2.32,2.68 -0.07,-0.76 -0.22,-2.27 -0.3,-3.03 -0.44,-0.24 -1.33,-0.71 -1.77,-0.95 -1.01,1.5 -2.81,3.28 -1.1,4.99 1.9,2.81 5.73,1.43 7.67,-0.56 2.7,-2.92 3.18,-7.18 5.62,-10.28 1.36,-1.88 3.46,-2.97 5.44,-4.06 0.89,0.85 1.75,1.74 2.6,2.64 2.21,0.26 4.43,0.66 6.67,0.53 7.59,-0.56 15.2,-0.15 22.8,-0.25 -0.04,-8.68 0.18,-17.37 -0.11,-26.04 1.01,2.76 2.29,5.49 4.6,7.42 -1.26,-3.61 -3.71,-7.86 -1.11,-11.48 4.66,-6.15 12.91,-8.12 17.72,-14.15 1.42,-1.84 2.37,-3.98 3.47,-6.01 0.07,6.7 0.12,13.4 -0.05,20.1 -1.82,-1.69 -3.61,-3.41 -5.3,-5.23 -2.26,0.18 -4.52,0.45 -6.78,0.6 -0.42,0.28 -1.24,0.83 -1.66,1.1 0.31,2 0.58,4 0.82,6.01 0.35,0.06 1.06,0.19 1.42,0.25 0.8,1.11 1.58,2.25 2.55,3.24 4.06,0.54 7.09,-2.95 9.03,-6.04 0.03,5.73 -0.02,11.47 0.07,17.2 -0.63,-0.71 -1.89,-2.14 -2.52,-2.85 -1.16,0.9 -2.21,1.9 -3.29,2.89 -0.19,-0.85 -0.58,-2.55 -0.77,-3.4 -0.5,-0.07 -1.49,-0.2 -1.99,-0.26 -0.73,-1.95 -1.09,-4.75 -3.77,-4.73 -2.3,0.31 -2.68,2.81 -3.57,4.5 -1.52,1.02 -2.45,2.56 -3.02,4.27 -0.92,-1.1 -1.87,-2.2 -2.81,-3.28 -3.18,3.25 -2.41,7.94 -0.39,11.6 0.41,-2.01 0.83,-4.02 1.32,-6.02 0,2.14 -0.05,4.28 -0.09,6.42 1.48,1.51 3.05,2.96 4.95,3.96 -0.63,0.47 -1.27,0.91 -1.9,1.37 2.39,3.41 3.34,7.55 3.53,11.67 -2.42,-2.26 -1.73,-7.76 -5.87,-8.08 -3.5,2.1 -3.63,6.59 -4.13,10.18 -13.26,-1.07 -26.61,-0.19 -39.91,-0.48 -4.92,-0.29 -10.15,0.91 -14.86,-0.88 -3.03,-2.07 -0.36,-5.98 1.52,-7.91 23.31,-24.79 46.61,-49.58 69.94,-74.34 m -40.17,51.7 c -0.45,-1.23 -0.91,-2.46 -1.37,-3.69 0.08,1.42 0.18,2.83 0.28,4.24 4.18,0.48 5.58,-3.89 6.43,-7.1 -3.73,-0.15 -4.06,4 -5.34,6.55 m -0.11,19.62 c -0.92,1.72 2.91,3.08 3.24,1.19 -0.35,-1.23 -2.18,-2.1 -3.24,-1.19 m 8.56,10.14 c -3.37,0.61 -3.37,-3.43 -4.26,-5.65 -0.16,0.73 -0.48,2.19 -0.64,2.93 -2.93,-1.25 -6.03,-2.02 -9.19,-2.39 2.77,0.75 5.54,1.5 8.21,2.55 0.85,1.2 1.26,3.11 3.01,3.26 4.8,0.68 9.77,-1.26 13.48,-4.27 1.54,-1.34 3.66,-3.82 1.22,-5.69 0.35,6.37 -6.78,8.52 -11.83,9.26 m -1.13,-2.78 c 3.21,1.44 6.36,-0.35 8.04,-3.16 -2.89,0.46 -5.44,1.92 -8.04,3.16 z"
         id="path13"
         style="fill:#000000" />
      <path
         d="m 352.37,59.39 c 3.89,-2.08 9.88,1.82 8.39,6.4 -0.95,6.8 -7.63,9.85 -12.73,13.19 -3.53,2.09 -5.55,5.83 -6.18,9.79 -0.25,-1.57 -0.67,-3.11 -1.71,-4.36 0.32,-2.02 0.79,-4.08 0.36,-6.11 -3.65,0.16 -5.36,3.9 -5.72,7.07 3.11,-0.79 4.09,-3.82 5.17,-6.47 1.23,5.27 -4.12,11.23 -9.39,10.28 -1.04,-3.5 1.29,-6.71 3.48,-9.19 1.88,-2 4.1,-4.1 6.97,-4.35 2.07,0.88 3.94,2.15 5.94,3.17 -0.71,-0.97 -1.43,-1.94 -2.14,-2.9 3.52,-0.83 7.59,-1.21 10.3,-3.84 0.28,-0.52 0.84,-1.55 1.12,-2.06 0.17,-1.7 1.32,-3.73 -0.06,-5.19 -0.71,-0.92 -1.99,-0.92 -2.96,-1.4 0.55,0.62 1.66,1.87 2.21,2.5 0.57,1.88 -2.03,3.13 -3.4,2.14 -3.27,-1.76 -2.74,-7 0.35,-8.67 z"
         id="path21"
         style="fill:#000000" />
      <path
         d="m 356.09,85.94 c 1.35,-1.29 2.71,-2.57 4.07,-3.84 0.03,0.69 0.08,2.08 0.1,2.77 0.6,0.08 1.8,0.23 2.39,0.3 0.55,0.49 1.64,1.45 2.19,1.93 -0.99,2.56 -2.79,4.85 -5.81,4.68 -0.94,-1.97 -1.93,-3.91 -2.94,-5.84 z"
         id="path31"
         style="fill:#000000" />
      <path
         d="m 329.46,90.16 c 0.79,0.28 1.59,0.56 2.39,0.84 1.24,-0.52 2.5,-1.04 3.76,-1.54 -2.94,3.34 -5.96,6.61 -9.15,9.71 1.16,-2.95 2.24,-5.93 3,-9.01 z"
         id="path33"
         style="fill:#000000" />
      <path
         d="m 351.93,110.98 c 1.97,-2.52 1.72,-6.01 2.35,-9.01 0.46,2.88 -0.06,6.51 2.05,8.77 3.18,0.28 1.81,-4.23 2.23,-6.17 0.61,1.95 2.09,4.09 0.97,6.14 -1.02,1.55 -2.82,2.33 -4.08,3.66 -0.39,1.79 -0.52,3.63 -0.82,5.44 -1.34,-1.55 -1.3,-3.64 -1.81,-5.51 -1.45,-1.57 -4.02,-2.4 -4.36,-4.75 -0.41,-2.06 1.21,-3.76 1.98,-5.54 -0.22,2.29 -1.93,6.45 1.49,6.97 z"
         id="path41"
         style="fill:#000000" />
      <path
         d="m 362.59,106.82 c 0.6,1.72 1.06,3.47 1.57,5.22 0.47,-0.89 1.42,-2.68 1.89,-3.58 0.21,2.83 0.24,5.67 0.26,8.51 4.6,0.23 9.22,-0.12 13.82,0.33 1.14,2.24 0.41,4.94 0.71,7.34 -1.6,-1.7 -3.04,-3.54 -4.75,-5.12 -1.63,0.64 -3.16,1.49 -4.73,2.26 -0.64,1.74 -1.72,3.4 -1.8,5.3 1.76,1.02 3.64,1.78 5.5,2.61 1.66,-1.22 3.32,-2.42 4.96,-3.68 -2.06,0.58 -4.07,1.2 -6.09,1.87 -0.46,-0.96 -0.92,-1.92 -1.38,-2.87 1.17,-1.26 2.31,-2.55 3.56,-3.73 1.91,0.59 3.19,2.31 4.74,3.5 -0.09,2.29 -0.15,4.57 -0.26,6.86 -4.84,0.29 -9.68,0.22 -14.52,0.18 -0.72,-3.29 -0.93,-7.44 -4.18,-9.36 -1.78,-0.47 -2.96,1.46 -3.42,2.88 -1.06,4.28 -0.6,8.74 -0.77,13.11 -0.55,-1.49 -0.48,-3.31 -1.56,-4.54 -1.22,6.73 3.89,11.9 6.8,17.36 1.93,-1.04 1.21,-3.55 1.05,-5.29 -0.93,-5.92 -6.03,-10.77 -4.95,-17.04 0.42,-1.93 0.41,-5.03 2.94,-5.23 2.84,2.19 3.26,5.95 3.95,9.22 -0.57,0.49 -1.71,1.49 -2.29,1.99 0.68,-0.45 2.04,-1.34 2.72,-1.79 -0.25,8.04 0.12,16.08 -0.26,24.11 -3.04,0.14 -6.09,0.19 -9.12,0.34 1.64,-1.86 2.86,-4.03 3.37,-6.48 -1.16,1.24 -2.29,2.5 -3.43,3.75 -0.82,-0.92 -1.63,-1.85 -2.43,-2.78 -0.82,0.9 -1.64,1.8 -2.46,2.69 -0.82,-0.68 -2.47,-2.06 -3.29,-2.75 0.92,1.83 2,3.55 3.12,5.28 -3.41,0.14 -6.82,0.17 -10.23,0.03 -0.22,-8.17 -0.03,-16.34 -0.13,-24.5 0.69,0.44 2.09,1.33 2.78,1.77 -0.53,-0.41 -1.58,-1.24 -2.11,-1.65 0.62,-3.28 0.83,-7.19 3.8,-9.33 2.28,-0.08 2.73,2.65 3.12,4.34 2.57,8.36 -7.74,15.3 -3.45,23.58 1.99,-3.23 4.15,-6.39 5.85,-9.79 1.41,-4.43 1.94,-9.14 1.82,-13.78 0,-3.59 -1.93,-6.73 -2.86,-10.1 2.21,1.85 3.08,4.6 3.94,7.23 0.27,-5.97 6.28,-8.4 8.93,-13.05 -0.16,-1.75 -0.51,-3.47 -0.73,-5.22 m -7.32,24.76 c 0.13,0.05 0.37,0.14 0.5,0.19 1.08,-2.62 0.65,-5.6 1.64,-8.26 0.84,-2.2 2.09,-4.21 3.09,-6.34 -4.73,3.15 -5.63,9.16 -5.23,14.41 m -2.56,10.36 c -0.08,1.44 -1.33,3.89 1.89,3.38 -1.26,0.47 -2.59,0.84 -3.88,1.19 -0.74,2.47 -0.2,4.9 1.29,6.99 1.93,-2.05 0.61,-4.37 -0.17,-6.54 0.92,0.85 1.85,1.72 2.77,2.59 0.51,-0.71 1.53,-2.12 2.04,-2.82 -0.34,2.06 -1.11,4.11 -0.7,6.23 3.88,-0.87 3.42,-9.08 -1.59,-6.65 0.64,-0.81 1.3,-1.61 1.97,-2.4 -0.67,-3.1 -1.24,-6.22 -1.83,-9.33 -0.72,2.42 -1.34,4.87 -1.79,7.36 z"
         id="path45"
         style="fill:#000000" />
      <path
         d="m 353.51,157.13 c -0.74,-1.66 2.57,-1.81 2.03,-0.09 -0.51,0.02 -1.52,0.07 -2.03,0.09 z"
         id="path73"
         style="fill:#000000" />
    </g>
  </g>
</svg>
