<?xml version="1.0" encoding="UTF-8" standalone="no"?>
<!-- Created with Inkscape (http://www.inkscape.org/) -->

<svg
   xmlns:dc="http://purl.org/dc/elements/1.1/"
   xmlns:cc="http://creativecommons.org/ns#"
   xmlns:rdf="http://www.w3.org/1999/02/22-rdf-syntax-ns#"
   xmlns:svg="http://www.w3.org/2000/svg"
   xmlns="http://www.w3.org/2000/svg"
   version="1.1"
   width="69.139999"
   height="100"
   id="svg3430">
  <defs
     id="defs3432" />
  <metadata
     id="metadata3435">
    <rdf:RDF>
      <cc:Work
         rdf:about="">
        <dc:format>image/svg+xml</dc:format>
        <dc:type
           rdf:resource="http://purl.org/dc/dcmitype/StillImage" />
        <dc:title></dc:title>
      </cc:Work>
    </rdf:RDF>
  </metadata>
  <g
     transform="translate(0,-952.36218)"
     id="layer1">
    <g
       transform="matrix(0.83146254,0,0,0.83146254,-324.97089,921.50661)"
       id="g3180">
      <path
         d="m 469.16,37.11 c 1.64,0.19 3.23,0.66 4.83,1.09 -1.31,6.27 -3.91,12.17 -5.77,18.29 -0.95,2.57 -1.45,5.41 -3.1,7.65 -2.07,1.39 -4.74,1.07 -7.1,1.21 -13.45,0.01 -26.9,-0.01 -40.35,-0.03 -1.04,5.95 -2.17,11.88 -3.23,17.82 12.25,0.71 25.01,1.68 36.17,7.25 8.03,3.99 14.78,11.13 16.82,20.03 2.18,8.58 0.34,17.96 -4.76,25.16 -5.28,7.85 -13.45,13.07 -21.85,17.04 0.95,-2.19 0.52,-4.26 -1.09,-5.95 -0.03,-0.73 -0.08,-2.19 -0.1,-2.92 -0.15,0.65 -0.43,1.94 -0.57,2.59 -0.64,0.11 -1.93,0.34 -2.57,0.46 0.03,0.82 0.1,2.46 0.14,3.28 1.07,-0.35 2.15,-0.7 3.23,-1.04 -0.18,0.56 -0.54,1.67 -0.73,2.23 -0.72,0.12 -1.43,0.25 -2.14,0.38 -0.67,-1.23 -0.83,-3.3 -2.73,-2.82 -0.02,1.13 -0.08,3.4 -0.1,4.53 -0.61,-1.32 -1.2,-2.65 -1.77,-3.98 -0.34,1.32 -0.73,2.63 -1.1,3.94 -1.23,-0.66 -2.44,-1.33 -3.67,-1.97 0.76,0.85 1.5,1.73 2.39,2.47 2.38,-0.2 4.77,-0.44 7.17,-0.69 -6.65,3.87 -14.72,3.92 -22.15,2.91 -2.22,-0.51 -4.72,-1.14 -6.13,-3.08 -0.22,-1.88 -0.15,-3.77 -0.18,-5.65 4.8,1.94 10.23,1.81 14.91,3.92 2.73,1.04 0.17,3.64 -0.42,5.21 1.2,-1.19 3.47,-1.94 3.34,-3.98 -1.16,-1.52 -2.95,-2.36 -4.5,-3.39 6.92,-0.52 14.11,-2.82 18.88,-8.11 4.8,-5.36 5.9,-13.22 4.21,-20.04 -1.42,-5.53 -5.4,-10.02 -10.15,-13 3.06,-0.39 5.17,-2.51 6.75,-5 0.56,3.28 -0.06,7.92 3.41,9.78 3.9,1.17 8.08,0.17 12.09,0.6 -3.1,1.22 -7.49,1.4 -8.82,5.05 -1.81,4 1.17,11.07 6.36,9.43 3.71,-1.68 2.91,-6.73 -0.44,-8.33 0.51,1.62 2.14,3.25 1.11,4.99 -3.91,2.1 -6.63,-3.51 -4.59,-6.5 2.35,-4.48 9.43,-2.4 10.57,1.99 0.04,4.54 -2.49,8.88 -6.3,11.3 -4.42,3.13 -10.23,5.42 -12.33,10.82 -0.99,2.89 2.26,4.36 4.05,5.88 -0.33,-2.2 -1.92,-4.96 0.38,-6.59 4.76,-4.05 11.16,-5.91 15.29,-10.78 5.84,-6.08 5.03,-17.28 -1.87,-22.22 -4.6,-2.49 -10.14,1.04 -14.84,-1.13 -3.22,-2.14 -4.76,-5.86 -7.22,-8.69 -1.94,-1.87 -4.83,-1.1 -7.23,-1.18 1.37,-2.47 2.6,-5.34 5.24,-6.72 1.88,-0.77 3.94,-0.92 5.91,-1.35 -3.1,-0.94 -6.69,-2.47 -9.72,-0.55 -1.99,1.55 -2.96,4 -4.31,6.05 0.23,-2.57 0.84,-5.86 -1.69,-7.56 -1.95,-1.73 -6.48,-2.65 -7.17,0.75 -0.3,3.2 3.13,4.19 5.61,3.29 -1.8,-0.41 -4.56,-0.58 -3.36,-3.23 2.93,-1.48 6.92,1.87 5.42,4.97 -2.63,3.87 -7.96,1.97 -11.04,-0.24 -5.77,-4.31 -6.18,-12 -7.83,-18.41 -0.7,5.72 -1.25,11.64 0.21,17.29 1.31,4.8 5.29,9.07 10.37,9.74 4.89,0.75 9.4,-1.73 14.04,-2.77 2.55,-0.66 5.63,0.72 6.39,3.35 -0.05,2.98 -4.7,5.75 -6.23,2.29 0.82,-1.25 1.75,-2.44 2.63,-3.66 -1.22,0.87 -2.46,1.72 -3.5,2.8 0.1,0.89 0.31,2.65 0.41,3.53 -7.71,-3.64 -16.32,-4.58 -24.74,-4.97 -1.49,-0.18 -3.2,0.05 -4.43,-0.97 -0.27,-1.67 0.08,-3.34 0.28,-4.99 1.53,-10.39 2.88,-20.79 4.48,-31.17 0.85,1.67 1.51,3.76 3.54,4.31 4.44,-1.8 3.06,-7.42 4.17,-11.11 0.61,-3.28 4.49,-3.03 7,-3.76 -2.12,0.07 -4.23,0.15 -6.34,0.21 -3.04,3.54 -3.44,8.12 -3.17,12.59 -0.48,-1.43 -0.89,-2.88 -1.3,-4.34 -0.33,-0.38 -0.99,-1.16 -1.32,-1.55 -0.59,0.33 -1.76,0.99 -2.35,1.33 1.21,-5.24 0.71,-11.05 2.96,-15.94 15.8,-0.9 31.7,0.23 47.52,-0.46 5.14,-0.32 7.18,-5.6 10.12,-8.98 m -7.7,11.23 c -0.93,3.5 -1.66,7.14 -4.04,10.02 -0.31,-2.39 0.12,-5.16 -1.55,-7.14 -3.25,-4.05 -10.02,-3.27 -13.28,0.36 -1.62,1.76 -0.62,4.37 1.48,5.15 2.65,1.66 7.98,-0.22 6.01,-3.92 -0.13,0.7 -0.39,2.11 -0.51,2.82 -2.03,0.29 -4.68,0.13 -4.27,-2.67 2.3,-3.41 8.42,-3.4 10.38,0.33 1.09,2.82 -0.93,5.98 -3.62,6.93 -3.79,0.43 -7.8,-0.22 -11.07,-2.26 -4.68,-2.85 -7.85,-7.9 -13.2,-9.69 -5.56,-1.68 -12.88,-0.91 -16.07,4.55 3.67,-2.01 7.91,-4.67 12.22,-2.86 6.52,2.71 10.6,9 16.73,12.36 6.89,3.97 16.44,2.95 22.25,-2.5 3.11,-3.83 4.47,-8.72 6.91,-12.97 -2.01,1.9 -3.47,4.25 -4.86,6.62 -0.04,-2.28 -0.39,-4.7 0.58,-6.85 1.22,-3 4.05,-4.79 6.39,-6.85 -4.16,1.83 -8.2,4.56 -10.48,8.57 m -43.04,9.28 c 1.9,2.05 3.31,4.63 5.58,6.3 2.79,1.46 5.66,-0.03 8.07,-1.48 1.65,0.04 3.31,0.12 4.97,0.19 -3.04,-0.41 -6.01,-1.19 -8.94,-2.09 -2.1,-1.26 -4.29,-0.96 -6.33,0.24 0.23,-0.55 0.7,-1.66 0.93,-2.22 -0.7,-0.1 -2.08,-0.3 -2.77,-0.4 0.25,-0.56 0.74,-1.67 0.98,-2.23 -0.83,0.56 -1.67,1.12 -2.49,1.69 m 26.71,36.77 c -0.25,0.38 -0.75,1.14 -0.99,1.52 0.19,1.76 0.34,3.51 0.47,5.28 1.78,1.42 3.12,3.68 5.43,4.27 1.57,-0.48 3.14,-1.06 4.59,-1.86 1.23,-1.36 1.89,-3.14 2.87,-4.68 -1.73,-1.5 -3.44,-3.02 -5.04,-4.65 -2.45,0.01 -4.89,0.1 -7.33,0.12 m -25.2,58.45 c -2.12,-2.53 -5.47,-0.95 -8.24,-1.31 1.28,3.65 5.5,2.09 8.24,1.31 z"
         id="path5"
         style="fill:#000000" />
      <path
         d="m 423.58,60.95 c 1.93,0.4 3.86,0.93 5.74,1.56 -2.15,0.16 -4.89,1.22 -5.74,-1.56 z"
         id="path23"
         style="fill:#000000" />
      <path
         d="m 410.52,63.27 c 1.23,-0.94 2.35,1.29 1.38,2.13 -1.23,0.91 -2.35,-1.29 -1.38,-2.13 z"
         id="path27"
         style="fill:#000000" />
      <path
         d="m 447.51,98.07 c 1.15,-1.02 2.3,-2.03 3.45,-3.05 1.21,1.73 3.14,2.7 4.73,4.03 0.57,1.63 -1.01,2.71 -1.88,3.81 -0.78,0.3 -2.33,0.89 -3.11,1.19 -1.08,-1.99 -2.11,-4 -3.19,-5.98 z"
         id="path35"
         style="fill:#000000" />
      <path
         d="m 392.45,151.5 c -3.09,-2.49 -1.43,-8.17 2.47,-8.66 4.87,-0.26 9.47,2.07 13.5,4.58 -0.22,0.74 -0.67,2.23 -0.9,2.97 -2.62,-2.57 -5.65,-4.85 -9.39,-5.38 3.16,1.08 5.98,2.88 8.42,5.16 0.06,1.05 0.13,2.11 0.21,3.17 2.2,1.45 4.52,2.7 6.8,4.04 -7.28,-0.28 -15.25,-1.15 -21.11,-5.88 z"
         id="path67"
         style="fill:#000000" />
    </g>
  </g>
</svg>
