<?xml version="1.0" encoding="UTF-8" standalone="no"?>
<!-- Created with Inkscape (http://www.inkscape.org/) -->

<svg
   xmlns:dc="http://purl.org/dc/elements/1.1/"
   xmlns:cc="http://creativecommons.org/ns#"
   xmlns:rdf="http://www.w3.org/1999/02/22-rdf-syntax-ns#"
   xmlns:svg="http://www.w3.org/2000/svg"
   xmlns="http://www.w3.org/2000/svg"
   version="1.1"
   width="74.870003"
   height="100"
   id="svg3471">
  <defs
     id="defs3473" />
  <metadata
     id="metadata3476">
    <rdf:RDF>
      <cc:Work
         rdf:about="">
        <dc:format>image/svg+xml</dc:format>
        <dc:type
           rdf:resource="http://purl.org/dc/dcmitype/StillImage" />
        <dc:title></dc:title>
      </cc:Work>
    </rdf:RDF>
  </metadata>
  <g
     transform="translate(0,-952.36218)"
     id="layer1">
    <g
       transform="matrix(0.8811727,0,0,0.8811727,-3.5481268,765.43102)"
       id="g3187">
      <path
         d="m 66.74,213.22 c 4.21,-0.32 9.22,-2.62 12.85,0.66 -2.67,4.16 -7.93,4.53 -11.91,6.8 -11.54,6.23 -21.37,15.57 -28.36,26.64 -2.92,4.62 -5.2,9.67 -6.42,15.01 8.48,-4.86 18.32,-7.69 28.13,-6.21 8.74,0.72 16.85,5.12 22.5,11.78 -0.52,0.52 -1.05,1.04 -1.59,1.56 l -1.17,-1.78 c 2.39,4.41 3.84,9.48 1.9,14.37 -2.71,-3.34 -6.86,-4.44 -10.64,-6.06 -3.84,-1.77 -2.93,-8.13 0.97,-9.29 3.45,0.47 3.76,4.4 2.5,6.98 -1.17,-0.54 -2.34,-1.07 -3.51,-1.58 0.99,0.99 1.66,2.53 3.08,2.98 5.75,-1.72 1.76,-12.43 -3.7,-9.66 -4.04,2.35 -3.64,7.95 -1.37,11.44 -6.23,1.72 -10.37,10.58 -4.96,15.39 4.71,1.37 6.99,-4.69 5.98,-8.44 -0.93,2.16 -1.32,6.72 -4.63,5.78 -2.54,-2.47 -2.01,-7.39 1.06,-9.23 4.77,-2.8 11.97,0.91 11.91,6.61 0.2,2.71 -1.49,4.95 -2.9,7.09 0.98,-3.26 1.64,-6.85 -1.13,-9.44 0.18,2.69 1.11,5.66 -0.67,8.06 -2.79,4.29 -4.64,9.11 -5.55,14.14 1.28,-2.65 2.18,-5.86 4.87,-7.46 4.34,-1.47 8.38,4.73 5.54,8.16 -1.68,2.21 -3.44,-0.63 -5.05,-1.46 0.84,1.64 1.3,4.08 3.58,4.21 3.62,-0.45 5.39,-5.03 3.64,-8.05 -1.05,-2.64 -4.01,-3.37 -6.48,-4.01 3.51,-2.41 7.41,-4.99 8.9,-9.21 2,-5.72 2,-12.27 -0.42,-17.87 0.4,-0.55 0.81,-1.1 1.23,-1.64 1.4,4.07 3.34,8.02 3.82,12.36 1.14,11.03 -1.5,23.17 -9.79,31.03 -7.14,6.47 -16.08,11.46 -25.84,12.22 -11.44,1.27 -24.25,0.67 -33.65,-6.78 -8.35,-7.03 -13.97,-17.35 -15.1,-28.23 -0.62,-6.1 -0.35,-12.26 0.6,-18.3 1.11,1.76 2.33,3.45 3.84,4.89 0.82,-1.17 1.64,-2.33 2.42,-3.52 -1.08,0.64 -2.15,1.3 -3.22,1.96 -1.59,-2.49 -2.06,-7.34 2.02,-7.33 4.19,1.75 5.15,8.09 2.52,11.58 -4.66,6.08 -2.79,15.49 2.86,20.29 4.31,3.93 10.4,5.32 14.4,9.64 2.55,2.78 1.76,6.77 1.79,10.19 2.97,-4.89 1.1,-11.35 -2.96,-15.01 -3.3,-2.91 -7.81,-4.03 -10.99,-7.1 -2.09,-2.07 -3.04,-4.92 -4.23,-7.53 1.1,-2.27 3.34,-5.67 6.2,-3.53 2.85,1.36 3.68,8.67 -0.57,7.37 -0.42,-1.35 -0.74,-2.73 -0.94,-4.13 -1.89,2.88 0.31,8.22 4.14,6.84 2.85,-3.11 1.77,-8.72 -1.66,-10.98 -1.87,-0.79 -3.96,-0.76 -5.93,-1.1 3.15,-0.83 6.61,-0.67 9.54,-2.15 1.42,-2.85 0.35,-6.14 0.24,-9.15 -0.73,2.02 -0.89,4.44 -2.56,5.96 -2.49,0 -4.96,-0.42 -7.43,-0.65 0.7,-4.09 0.82,-9.18 -3.23,-11.63 -1.85,-1.61 -3.81,0.28 -5.48,1.14 2.97,-9.76 7.83,-18.93 14.46,-26.69 0.82,-0.69 1.34,-2.23 2.62,-1.96 -3.43,10.21 -5.88,21.53 -2.36,32.08 -0.11,-5.86 -0.25,-12.95 4.93,-16.89 2.98,-2.34 5.75,0.98 7.93,2.74 -0.26,-3 -1.47,-5.75 -3.83,-7.68 4.85,-4.49 9.4,-9.3 14.75,-13.22 -7.71,2.8 -12.5,10.1 -19.66,13.85 1.45,-2.97 4.58,-4.35 6.71,-6.68 1.42,-2.89 1.5,-6.79 4.53,-8.62 4,-2.35 8.63,-3.27 12.88,-5.04 l -0.12,-0.34 c -3.11,0.81 -6.26,1.45 -9.47,1.74 1.53,-2.16 3.22,-4.2 4.84,-6.28 -4.63,3.3 -9.1,7.13 -12.05,12.05 -1.57,2.56 -1.94,6.21 -5,7.54 -1.72,0.94 -4.4,0.08 -3.4,-2.29 0.49,-1.75 1.22,-3.41 1.91,-5.08 l -0.15,-0.22 c 0.16,-0.89 0.58,-1.62 1.25,-2.21 10.95,-10.1 24.6,-16.87 38.88,-20.86 -0.51,2.64 1.34,4.36 3.3,5.71 -0.61,-1.52 -1.22,-3.05 -1.83,-4.57 1.59,0.56 3.19,1.12 4.78,1.68 -1.6,-1.17 -3.25,-2.27 -4.89,-3.38 m -7.47,5.55 c -0.8,0.72 -1.59,1.46 -2.38,2.2 -0.55,1.3 -1.09,2.6 -1.62,3.91 -0.49,-0.65 -1.48,-1.94 -1.97,-2.58 0.4,1.1 0.8,2.2 1.2,3.32 -0.94,0.3 -2.82,0.92 -3.76,1.23 2.22,0 4.38,-0.58 6.26,-1.78 2.41,-0.92 4.91,-1.92 6.26,-4.27 -1.62,-0.94 -3.53,-1.73 -4.06,-3.72 0.02,0.42 0.05,1.26 0.07,1.69 m -32.11,40.3 c 3.5,1.5 5.75,5.06 4.77,8.91 -0.26,3.32 -3.62,4.61 -6.05,6.16 1.64,-0.42 3.25,-0.95 4.76,-1.71 0.45,-0.22 1.33,-0.66 1.78,-0.88 -2.45,8.24 -1.87,17 -1.42,25.47 0.95,7.72 2.68,16.92 9.93,21.23 4.28,2.68 9.27,0.72 13.76,-0.07 0.12,1.2 0.06,2.43 0.36,3.61 1.54,2.11 4.56,1.16 6.72,1.48 -1.76,-1.55 -3.74,-2.81 -5.61,-4.21 0.98,-0.4 2.95,-1.21 3.93,-1.61 -1.27,-0.25 -2.55,-0.4 -3.83,-0.46 6.08,-7.56 6.71,-17.71 6.1,-27.01 -0.58,-6.68 -1.92,-13.74 -6.4,-18.99 -2.64,-3.18 -6.79,-4.85 -10.89,-4.64 -3.98,0.15 -8.93,0.18 -11.27,4.03 -0.39,-0.54 -0.78,-1.07 -1.15,-1.6 1,-3.99 -0.51,-7.67 -3.22,-10.56 -0.76,0.28 -1.51,0.56 -2.27,0.85 m 23.91,4.09 c -3.18,0.77 -6.11,-0.9 -9.04,-1.82 2.37,1.04 4.77,1.99 7.12,3.06 1.87,0.05 3.74,0.12 5.6,0.25 0.46,-0.26 1.37,-0.79 1.83,-1.06 0.21,-0.72 0.65,-2.16 0.86,-2.88 0.07,0.7 0.21,2.11 0.28,2.81 l 0.73,-0.01 c 0.51,-2.48 2.33,-3.99 4.59,-4.93 -0.57,1.65 -2.32,3.16 -1.79,5.08 0.88,2.76 5.67,3.31 6.57,0.29 1.11,-3.36 -2.74,-6.31 -5.85,-5.97 -4.29,0.14 -6.67,4.83 -10.9,5.18 m -34.55,44.76 c 0.01,1.92 0.18,3.84 0.33,5.76 1.52,1.3 2.73,3.08 4.6,3.91 2.02,-0.22 3.64,-1.8 5.43,-2.65 0.52,-1.13 1.05,-2.24 1.6,-3.34 -1.54,-1.41 -2.97,-2.98 -4.68,-4.18 -2.41,-0.41 -4.95,-0.21 -7.28,0.5 m 45.74,8.63 -1.23,-0.45 c 0.57,1.89 0.92,3.89 1.79,5.69 0.97,-2.67 1.61,-5.49 2.92,-8.03 1.66,-2.42 4.57,-3.39 7.09,-4.62 -4.14,1.24 -9.69,2.37 -10.57,7.41 m -28.6,0.86 c 1.38,1.61 2.89,3.1 4.52,4.46 0,-0.53 -0.01,-1.59 -0.02,-2.12 -1.5,-0.79 -2.99,-1.57 -4.5,-2.34 m 11.77,6.85 c 0.59,-3.69 -3.08,-4.96 -6.09,-5.11 -2.1,3.16 3.65,7.48 6.09,5.11 z"
         id="path77"
         style="fill:#000000" />
      <path
         d="m 59.3,221.02 c 1.58,-1.01 2.01,1.59 0.52,1.93 -1.62,0.96 -2.02,-1.56 -0.52,-1.93 z"
         id="path85"
         style="fill:#000000" />
      <path
         d="m 63.05,261.26 c 1.63,-0.47 2.74,2.37 0.86,2.73 -1.68,0.5 -2.7,-2.33 -0.86,-2.73 z"
         id="path99"
         style="fill:#000000" />
      <path
         d="m 19.43,310.89 c 1.01,-0.93 2.01,-1.85 3.02,-2.77 1.52,1.84 5.51,2.87 4.12,5.82 -0.19,2.16 -2.99,1.46 -4.43,2.18 -0.87,-1.77 -1.76,-3.51 -2.71,-5.23 z"
         id="path105"
         style="fill:#000000" />
      <path
         d="m 41.13,321.65 c 0.86,-0.89 2.94,0.22 2.37,1.46 -0.88,0.99 -2.94,-0.22 -2.37,-1.46 z"
         id="path107"
         style="fill:#000000" />
    </g>
  </g>
</svg>
