<?xml version="1.0" encoding="UTF-8" standalone="no"?>
<!-- Created with Inkscape (http://www.inkscape.org/) -->

<svg
   xmlns:dc="http://purl.org/dc/elements/1.1/"
   xmlns:cc="http://creativecommons.org/ns#"
   xmlns:rdf="http://www.w3.org/1999/02/22-rdf-syntax-ns#"
   xmlns:svg="http://www.w3.org/2000/svg"
   xmlns="http://www.w3.org/2000/svg"
   version="1.1"
   width="76.260002"
   height="100"
   id="svg3509">
  <defs
     id="defs3511" />
  <metadata
     id="metadata3514">
    <rdf:RDF>
      <cc:Work
         rdf:about="">
        <dc:format>image/svg+xml</dc:format>
        <dc:type
           rdf:resource="http://purl.org/dc/dcmitype/StillImage" />
        <dc:title></dc:title>
      </cc:Work>
    </rdf:RDF>
  </metadata>
  <g
     transform="translate(0,-952.36218)"
     id="layer1">
    <g
       transform="matrix(0.85349865,0,0,0.85349865,-86.638648,774.43204)"
       id="g3194">
      <path
         d="m 115.29,208.48 c 1.49,-0.05 2.98,0.13 4.46,0.29 0,1.5 0,3.01 0,4.51 5.93,1.7 12.14,1.08 18.21,1.17 7.45,-0.09 14.9,0.18 22.34,-0.21 -2.13,1.13 -4.22,2.42 -5.78,4.31 3.29,2.11 7.32,2.72 11.01,1.3 -3.37,0.42 -7.03,0.9 -9.69,-1.75 2.92,-2.15 6.66,-2.94 10.18,-2.03 2.08,0.56 4.77,1.43 5.14,3.91 -2.61,2.7 -6.76,2.63 -10.02,4.13 3.91,0.08 8.22,-0.19 11.49,-2.58 1.51,-0.84 1.25,-3.07 -0.08,-3.96 -2.08,-1.53 -4.62,-2.17 -6.95,-3.2 7.14,0.11 14.27,0.04 21.41,0.07 1.38,0.23 3.79,-0.44 3.85,1.64 -0.36,1.92 -1.58,3.51 -2.64,5.1 -15.58,21.81 -27.97,45.86 -36.79,71.17 -2.95,7.91 -4.73,16.24 -8.15,23.96 -3.45,7.49 -13.05,11.56 -20.67,8.05 -4.32,-1.83 -6.74,-6.96 -5.47,-11.47 1.67,-6.72 5.44,-12.72 9.44,-18.29 -0.12,2.41 -0.3,4.83 -0.8,7.19 1.44,1.75 3.67,2.29 5.75,2.89 l 0.2,-2.35 c -0.59,0.1 -1.77,0.31 -2.36,0.41 0.15,-0.39 0.44,-1.19 0.59,-1.59 -0.43,-0.54 -1.29,-1.63 -1.72,-2.17 0.71,-2.19 1.09,-5.35 3.77,-5.96 1.58,-0.46 2.26,1.29 3.27,2.1 -0.17,-1.84 0.67,-4.15 -1.03,-5.49 -1.75,-1.26 -3.57,0.82 -5.25,1.15 14.12,-19.21 27.94,-38.63 42.22,-57.72 -13.73,-0.21 -27.47,-0.03 -41.21,-0.11 -4.99,0.1 -10.31,-0.19 -14.88,2.18 -3.69,1.86 -5.96,5.48 -9.23,7.88 -1.56,-0.27 -2.97,-1 -4.39,-1.64 4.01,-9.9 8,-19.81 11.96,-29.73 0.51,-1.11 0.92,-2.31 1.82,-3.16 m -0.47,14.01 c 5.66,-4.23 13.35,-6.52 20.17,-3.77 0.63,0.33 1.28,0.46 1.94,0.39 l 0.97,-0.12 c 0.74,-0.08 2.22,-0.25 2.96,-0.34 -8.15,-4.2 -19.68,-3.23 -26.04,3.84 m 4.35,-0.59 c 0.68,2.42 0.38,5.38 2.4,7.24 1.73,2.24 4.18,3.05 6.9,2.2 -2.52,-1.45 -4.21,-3.8 -5.51,-6.34 1.1,-1.15 2.21,-2.29 3.29,-3.45 1.43,1.92 3.57,3.04 5.51,4.36 -0.8,1.47 -1.61,2.95 -2.36,4.46 1.41,-1.44 2.52,-3.12 3.54,-4.84 -1.79,-1.53 -3.49,-3.17 -5.09,-4.89 -2.93,0.13 -5.83,0.61 -8.68,1.26 m 17.76,-2.79 c 1.72,1.75 3.53,3.41 5.3,5.12 -2.5,1.13 -5.03,2.22 -7.39,3.64 3.07,1.33 8.05,2.53 10.1,-0.98 -0.71,-3.97 -4.37,-6.62 -8.01,-7.78 m 5.96,1.2 c 6.69,4.2 14.27,7.07 22.02,8.56 5.16,0.75 11.9,0.9 15.21,-3.88 1.38,-2.15 -1.43,-3.38 -2.78,-4.48 0.49,1.35 1.95,2.65 1.45,4.2 -2.09,2.58 -5.62,3.49 -8.81,3.58 -6.93,-0.21 -13.27,-3.31 -19.64,-5.7 -2.43,-0.88 -4.77,-2.52 -7.45,-2.28 m 2.86,8.23 c 2.82,4.37 8.27,3.55 12.36,1.91 -1.07,0.16 -2.14,0.33 -3.2,0.52 -3.08,-0.71 -6.13,-1.56 -9.16,-2.43 m 23.13,12.42 c -4.73,7.52 -8.37,15.72 -10.72,24.29 -0.47,2.66 -3.12,4.1 -4,6.48 0.17,0.26 0.5,0.77 0.67,1.03 -2.97,1.42 -6.18,0.68 -9.31,0.58 -4.66,1.25 -6.85,6.2 -8.77,10.16 3.78,-3.34 8.7,-1.91 13.18,-2.47 5.32,-2.24 8.05,-7.9 10.27,-12.89 4.85,-12.41 6.6,-27.22 17.48,-36.21 -3.59,2.28 -6.56,5.42 -8.8,9.03 m -16.97,20.01 c -1.77,2.96 -3.57,6.52 -2.57,10.04 0.43,1.28 1.36,1.72 2.79,1.29 2.97,-0.11 -1.41,-1.02 -1.62,-2.25 -0.39,-3.99 1.84,-7.68 4.84,-10.13 1.11,2.62 -0.69,4.68 -2.11,6.67 3.12,-1.96 5.13,-5.83 3.79,-9.46 -2.49,-0.33 -3.9,2.09 -5.12,3.84 m -6.16,24.71 c -1.07,3.61 -0.63,8.33 -3.69,10.96 -1.67,-0.34 -3.22,-1.08 -4.84,-1.56 -0.08,2.8 0.24,5.75 -1.89,7.98 1.92,-0.55 3.84,-1.09 5.76,-1.62 -0.85,-0.97 -1.69,-1.93 -2.52,-2.89 1.4,0.21 3.01,1.51 4.36,0.48 1.53,-2.04 2.29,-4.53 3.51,-6.74 0.33,5.35 -1.12,10.57 -1.3,15.9 2.49,-5.6 3.52,-12.19 1.66,-18.13 -0.36,-1.47 -0.69,-2.92 -1.05,-4.38 m -9.74,18.54 c 1.24,1.12 2.85,2.08 3.27,3.84 -0.39,1.91 -1.88,3.25 -3.55,4.11 0.45,0.42 0.91,0.84 1.37,1.26 1.04,-1.13 2.08,-2.24 3.14,-3.36 -0.41,-3.61 1.52,-6.58 3.77,-9.18 -2.47,1.54 -5.11,2.84 -8,3.33 m 5.99,2.66 c 0.69,2.49 0.17,5.01 -0.29,7.49 1.12,-1.82 2.2,-3.66 3.25,-5.51 -0.31,-1.92 -0.61,-3.85 -0.96,-5.75 -0.65,1.19 -2.55,2.18 -2,3.77 m -20.46,0.76 c -0.24,2.11 -0.27,4.23 -0.29,6.36 1.41,1.21 2.73,2.55 4.25,3.63 1.83,0.55 3.48,-1.21 5.28,-1.29 0.97,1.41 1.3,3.18 2.06,4.71 1.23,-0.93 2.45,-1.86 3.66,-2.8 0.11,-1.12 0.23,-2.24 0.35,-3.36 l -1.52,0.73 c -0.15,-0.59 -0.44,-1.76 -0.59,-2.35 l -1.71,2.4 c -0.47,-0.6 -0.93,-1.21 -1.38,-1.81 2.44,-2.22 -1.06,-3.9 -2.04,-5.68 0.19,1.17 0.39,2.34 0.61,3.51 l 1.61,-0.19 c 0.07,2 -0.72,3.08 -2.38,3.24 -0.21,0.53 -0.64,1.59 -0.86,2.12 -2.56,-0.96 -3.52,-3.52 -4.62,-5.76 1.14,-1.07 2.28,-2.16 3.41,-3.23 l 0.62,2.93 c 0.15,-1.36 0.51,-2.69 0.6,-4.05 -2.3,0.62 -4.68,0.94 -7.06,0.89 z"
         id="path75"
         style="fill:#000000" />
      <path
         d="m 131.52,291.05 c 1.21,-0.89 1.86,-0.63 1.97,0.78 -1.21,0.88 -1.87,0.62 -1.97,-0.78 z"
         id="path103"
         style="fill:#000000" />
    </g>
  </g>
</svg>
