<?xml version="1.0" encoding="UTF-8" standalone="no"?>
<!-- Created with Inkscape (http://www.inkscape.org/) -->

<svg
   xmlns:dc="http://purl.org/dc/elements/1.1/"
   xmlns:cc="http://creativecommons.org/ns#"
   xmlns:rdf="http://www.w3.org/1999/02/22-rdf-syntax-ns#"
   xmlns:svg="http://www.w3.org/2000/svg"
   xmlns="http://www.w3.org/2000/svg"
   version="1.1"
   width="72"
   height="100"
   id="svg3541">
  <defs
     id="defs3543" />
  <metadata
     id="metadata3546">
    <rdf:RDF>
      <cc:Work
         rdf:about="">
        <dc:format>image/svg+xml</dc:format>
        <dc:type
           rdf:resource="http://purl.org/dc/dcmitype/StillImage" />
        <dc:title></dc:title>
      </cc:Work>
    </rdf:RDF>
  </metadata>
  <g
     transform="translate(0,-952.36218)"
     id="layer1">
    <g
       transform="matrix(0.8802812,0,0,0.8802812,-176.32293,765.71036)"
       id="g3198">
      <path
         d="m 209.36,224.09 c 9.08,-7.67 20.76,-11.86 32.63,-12 12.12,-0.51 25.66,2.56 33.7,12.33 4.76,5.57 4.44,13.7 1.83,20.16 -4.29,9.34 -14.05,14.21 -22.75,18.66 7.39,3.53 14.94,7.35 20.44,13.6 0.67,0.86 1.75,1.75 1.57,2.98 l -0.3,0.49 c -0.22,2.36 -0.09,4.74 0.08,7.1 -1.08,1.31 -1.63,3.39 -3.33,4 -1.41,-0.41 -2.76,-0.97 -4.16,-1.37 0.04,1.78 0.23,3.55 0.44,5.33 -0.85,0.94 -1.7,1.88 -2.54,2.83 0.85,-0.44 2.53,-1.34 3.38,-1.79 -0.17,1.04 -0.34,2.08 -0.51,3.13 l -2.32,-0.44 c 1.35,0.85 2.85,2.47 4.58,1.63 0.91,-1.7 1.85,-3.38 2.78,-5.06 -0.61,0.48 -1.83,1.44 -2.45,1.92 -0.58,-1.32 -1.21,-2.61 -1.89,-3.88 4.47,2.46 5.08,-3.84 6.85,-6.33 -0.05,3.26 -0.01,6.61 -0.97,9.77 -1.1,1.75 -3.47,2.54 -3.86,4.79 -1.29,3.97 -3.01,7.8 -5.48,11.19 1.28,-3.39 4.14,-6.46 3.64,-10.29 -2.52,3.06 -4.92,6.35 -6.27,10.11 0.3,0.64 0.89,1.92 1.19,2.56 1.44,0.95 2.39,-0.72 3.25,-1.63 2.91,-3.62 4.12,-8.18 5.95,-12.36 0,2.32 -0.12,4.64 -0.19,6.96 5.07,-7.78 5.23,-17.44 3.53,-26.26 0.21,-0.03 0.62,-0.08 0.83,-0.1 2.66,5.61 3.76,12.1 2.52,18.22 -2.21,8.67 -9.06,15.44 -16.81,19.48 -11.22,5.97 -24.45,6.75 -36.84,4.99 -2.29,-0.17 -4.25,-1.52 -5.9,-3.01 -0.17,-2.18 2.5,-2.3 4.05,-1.91 2.89,0.89 4.59,3.77 7.36,4.9 1.99,0.57 4.09,0.58 6.14,0.79 -0.48,-0.79 -1.43,-2.35 -1.91,-3.14 2.11,-1.05 4.45,-1.36 6.79,-1.41 -0.16,0.87 0.41,2.05 -0.47,2.69 -1.58,-0.09 -3.14,-0.36 -4.7,-0.53 1.61,0.91 3.53,2.83 5.52,1.78 1.76,-0.6 2.93,-3.34 0.86,-4.34 -3.62,-2.32 -8.36,-0.34 -10.4,3.15 -0.07,-2.09 -0.19,-4.23 -1.93,-5.63 6.71,2.04 14.85,1.2 20.1,-3.78 4.4,-4.4 5.34,-11.08 4.64,-17.01 1.83,0.97 3.71,1.84 5.64,2.63 l -0.1,-2.71 c -0.55,0.11 -1.66,0.32 -2.21,0.43 0.16,-0.37 0.48,-1.13 0.64,-1.5 -0.37,-0.57 -1.12,-1.7 -1.49,-2.27 0.98,-2.23 1.72,-5.78 4.78,-5.77 0.49,0.53 1.48,1.61 1.97,2.15 -0.13,-1.88 -0.18,-3.83 -1.06,-5.53 -1.24,-0.5 -2.64,-0.2 -3.56,0.78 -2.88,2.79 -4.06,6.84 -4.58,10.72 -1.5,-3.23 -3.5,-6.21 -6.08,-8.67 1.97,0.06 6.01,1.42 6.41,-1.61 -0.12,-4.52 -6.8,-4.66 -7.17,-8.66 1.42,-5.96 -2.74,-11.97 -7.82,-14.78 -5.59,-3.22 -12.23,-1.64 -18.33,-2.16 -4.5,-0.24 -8.75,-2.45 -11.75,-5.77 -3.78,-3.44 -0.59,-11.3 4.67,-10.62 4.03,0.29 8.1,5.52 5.17,9.13 -1.95,1.72 -3.6,-0.34 -4.82,-1.81 0.37,-0.72 1.11,-2.18 1.48,-2.91 -5,2.42 -0.29,9.39 4.13,8.37 3.51,-0.49 4.24,-4.98 2.98,-7.73 -1.27,-3.76 -4.71,-7.23 -8.95,-6.79 -3.73,0 -5.97,3.3 -8.29,5.7 1.86,-6.04 8.47,-7.68 12.46,-11.81 2.31,-3.7 -1.25,-7.54 -2.67,-10.89 -0.54,2.31 -0.27,5.24 -2.38,6.85 -3.02,2.57 -7.19,3.21 -10.27,5.69 -2.63,2.59 -3.69,6.58 -2.92,10.17 1.46,7.57 7.32,14.46 15,16.13 7.53,1.98 15.46,-0.06 23,1.75 5.38,1.13 9.07,7.03 8.02,12.35 l -0.32,1.32 c 0.62,0.18 1.86,0.53 2.49,0.71 -0.66,0.17 -1.96,0.5 -2.61,0.66 -3.44,-5.5 -10.47,-4.99 -15.53,-7.98 -2.2,-1.05 -2.5,-4.7 0.11,-5.45 3.23,-1.06 5.95,1.41 7.68,3.84 -1.27,0.18 -2.54,0.36 -3.81,0.55 1.75,0.03 4.17,1.13 5.23,-0.91 -1.94,-4.15 -8.35,-6.11 -11.71,-2.59 -1.87,2.37 0.64,5.27 2.85,6.27 4.48,2.4 11.39,1.17 13.6,6.78 -5.89,0.93 -10.61,-3.11 -15.72,-5.21 -5.73,4.43 -10.62,10.41 -11.98,17.69 -1.69,7.25 0.32,15.7 6.39,20.37 2.35,1.94 5.97,3.82 5.19,7.47 -3.26,-2.85 -7.42,-4.61 -11.72,-3.08 0.47,1.74 1.04,3.45 1.64,5.16 -6.27,-2.3 -12.94,-4.91 -17.01,-10.51 -5.14,-6.59 -4.3,-16.1 -0.41,-23.08 4.7,-8.31 13.14,-13.41 21.24,-17.92 -6.86,-4.27 -14.21,-8.12 -19.71,-14.17 -5.46,-5.86 -6.95,-14.88 -4.1,-22.31 1.42,-3.94 4.05,-7.25 6.47,-10.61 0.93,1.55 1.29,3.31 1.53,5.09 1.29,1.32 2.68,2.57 4.43,3.27 -1.19,-2.6 -4.11,-5.59 -1.18,-8.15 1.81,1.6 3.26,3.52 4.23,5.74 -0.04,-3.18 -2.08,-7.28 -5.96,-5.96 -0.64,-0.37 -1.26,-0.74 -1.88,-1.12 m 23.4,-5.28 c -0.32,-0.31 -0.97,-0.93 -1.29,-1.24 -0.25,0.71 -0.5,1.43 -0.77,2.14 -1.15,-0.61 -2.19,-1.45 -3.27,-2.15 -0.77,0.77 -3.47,2.67 -1.51,3.42 0.95,-0.08 2.85,-0.23 3.81,-0.3 0.04,2.4 -2.83,2.9 -4.67,3.32 -1.81,0.5 -3.91,-0.23 -4.74,-1.97 0.56,-2.58 3,-4.03 4.52,-6 -2.49,1.37 -6.46,3.72 -5.19,7.15 2.15,3.14 6.43,1.77 9.3,0.52 0.45,0.37 0.9,0.74 1.35,1.12 -3.85,3.18 -5.04,8.39 -5.42,13.14 -0.4,4.31 1.31,8.69 4.55,11.57 5.15,4.65 11.63,7.39 17.72,10.56 3.91,-2.64 7.68,-5.74 10.01,-9.92 4.08,-6.98 4.13,-16.18 0.02,-23.15 -5.04,-8.7 -18.48,-10.05 -25.74,-3.48 -0.31,-1.16 -0.24,-2.43 0.76,-3.25 l 0.61,-0.34 c 4.62,-3.89 10.79,-3.35 16.43,-3.35 -4.54,-1.37 -9.48,-1.91 -13.99,-0.11 0.11,-0.72 0.34,-2.15 0.46,-2.87 -0.96,1.74 -1.87,3.51 -2.95,5.19 m 21.21,-2.89 c 1.07,2.52 2.44,4.9 4.02,7.14 1.4,-0.15 2.8,-0.27 4.21,-0.39 -4.17,-0.16 -6.12,-3.76 -8.23,-6.75 m 5.02,-0.14 c 3.81,3.09 7.64,7.03 8.02,12.19 0.4,3.24 -2.54,5.09 -4.44,7.17 2.43,-0.35 4.79,-1.04 7.1,-1.87 -0.61,2.97 -0.93,6.13 -2.62,8.74 -2,3.35 -5.28,5.59 -8.13,8.16 7.7,-3.38 13.1,-11.25 13.01,-19.72 4.21,8.5 -0.93,18.2 -7.8,23.55 5.38,-2.4 9.13,-7.4 11.18,-12.8 1.26,-3.09 -0.39,-6.31 -0.56,-9.44 1.84,-0.69 2.43,1.98 3.67,2.76 -1.48,-9.83 -10.18,-16.6 -19.43,-18.74 m 2.05,9.62 c 0.31,3.36 2.88,-1.7 0,0 m -3.3,45.43 c -0.35,0.32 -1.05,0.96 -1.41,1.28 0.24,2.04 0.42,4.09 0.55,6.14 0.44,0.12 1.31,0.35 1.75,0.46 0.96,1.18 1.59,3.22 3.46,3.18 1.08,-0.19 2.15,-0.46 3.22,-0.73 -2.99,-0.95 -4.23,-3.75 -5.41,-6.36 1.06,-1.11 2.12,-2.22 3.18,-3.32 1.53,2.07 3.88,3.27 5.67,5.11 -0.9,1.23 -1.77,2.47 -2.59,3.75 1.67,-1.22 2.71,-3.01 3.62,-4.82 -1.82,-1.6 -3.6,-3.25 -5.33,-4.95 -2.24,0.14 -4.47,0.23 -6.71,0.26 m -33.29,4 c -1.05,1.73 -1.94,3.64 -3.55,4.94 -5.77,4.89 -12.79,8.87 -16.46,15.77 -2.34,4.33 -1.47,10.53 3.01,13.13 3.27,2.51 8.09,1.13 11.21,3.61 3.03,3.83 -3.77,7.67 -6.18,4.21 -1.22,-1.79 1.77,-2.69 2.69,-3.65 -1.75,0.51 -4.59,0.61 -4.33,3.16 1.35,4.73 9.36,3.64 9.82,-1.13 0.62,-3.67 -3.57,-4.83 -5.8,-6.7 2.06,-1.75 4.48,-0.61 6.48,0.61 -1.05,-1.52 -2.1,-3.02 -3.17,-4.52 -2.2,0.8 -4.4,1.64 -6.6,2.45 -0.1,-0.24 -0.29,-0.72 -0.39,-0.96 2.89,-0.8 6.74,-2.24 6.85,-5.8 0.04,-4.73 -8.31,-6.14 -8.72,-0.92 0.4,2.37 2.91,2.17 4.69,1.96 -0.92,-0.26 -2.74,-0.77 -3.65,-1.03 1.18,-2.19 4.14,-3.39 5.63,-0.8 2.01,4.44 -5.68,7.24 -8.16,3.95 -1.18,-2.52 -0.88,-5.6 0.37,-8.03 2.91,-5.5 7.73,-9.59 12.62,-13.27 2,-1.73 5.23,-3.97 3.64,-6.98 m 35.79,27.44 c -2.09,3.04 0.46,6.2 2.13,8.72 -1.17,-0.63 -2.33,-1.26 -3.48,-1.9 -0.77,0.58 -2.32,1.75 -3.09,2.33 1.37,0.28 2.75,0.57 4.13,0.87 -2.12,1.74 -5.09,3.6 -4.46,6.83 0.85,2.62 3.78,1.41 5.66,0.93 -0.48,-1.58 -0.92,-3.16 -1.4,-4.73 -0.3,1.5 1.29,3.99 -0.91,4.62 -3.4,-1.27 -1.03,-5.03 1.41,-5.78 2.73,-0.95 3.76,-3.62 4.52,-6.17 -0.85,-0.08 -2.57,-0.26 -3.43,-0.35 -0.82,-1.93 -0.98,-5.38 2.06,-4.87 -0.22,1.59 -0.54,3.16 -0.89,4.73 0.91,-1.11 2.34,-2.01 2.53,-3.55 -0.27,-2.18 -3.42,-4.11 -4.78,-1.68 m -34.05,19.96 c 0.53,0.57 0.53,0.57 0,0 z"
         id="path79"
         style="fill:#000000" />
      <path
         d="m 256.95,286.07 c -3.15,3.09 -11.07,-2.41 -5.77,-5.29 0.24,0.56 0.72,1.67 0.96,2.22 0.01,-0.71 0.03,-2.14 0.04,-2.85 1.76,1.77 4.5,3.15 4.77,5.92 z"
         id="path101"
         style="fill:#000000" />
    </g>
  </g>
</svg>
