<?xml version="1.0" encoding="UTF-8" standalone="no"?>
<!-- Created with Inkscape (http://www.inkscape.org/) -->

<svg
   xmlns:dc="http://purl.org/dc/elements/1.1/"
   xmlns:cc="http://creativecommons.org/ns#"
   xmlns:rdf="http://www.w3.org/1999/02/22-rdf-syntax-ns#"
   xmlns:svg="http://www.w3.org/2000/svg"
   xmlns="http://www.w3.org/2000/svg"
   version="1.1"
   width="75"
   height="100"
   id="svg3575">
  <defs
     id="defs3577" />
  <metadata
     id="metadata3580">
    <rdf:RDF>
      <cc:Work
         rdf:about="">
        <dc:format>image/svg+xml</dc:format>
        <dc:type
           rdf:resource="http://purl.org/dc/dcmitype/StillImage" />
        <dc:title></dc:title>
      </cc:Work>
    </rdf:RDF>
  </metadata>
  <g
     transform="translate(0,-952.36218)"
     id="layer1">
    <g
       transform="matrix(0.88092335,0,0,0.88092335,-259.35713,765.59795)"
       id="g3207">
      <g
         id="g3202">
        <path
           d="m 312.39,218.3 c 10.89,-6.79 24.38,-7.27 36.72,-5.23 7.61,1.26 14.68,5.25 19.68,11.14 6.62,7.61 11.18,17.53 10.65,27.78 -0.78,20.19 -9.83,40.01 -24.9,53.53 -11.44,10.07 -25.53,17.36 -40.63,19.88 -1.99,0.36 -3.98,-0.12 -5.91,-0.52 0.29,-1.7 0.41,-3.77 2.42,-4.27 10.29,-3.73 19.37,-10.43 26.21,-18.95 0.02,2.01 -0.61,4.1 -0.1,6.09 0.43,-2.2 0.68,-4.42 0.96,-6.64 1.47,0.42 4.35,-0.33 4.32,2.03 0.01,1.12 -0.12,2.23 -0.38,3.32 -1.38,-0.57 -2.76,-1.16 -4.12,-1.76 0.41,1.45 0.93,3.16 2.66,3.47 2.16,-1.24 2.55,-3.73 2.89,-5.97 -1.64,-1.23 -3.54,-1.88 -5.63,-1.46 6.1,-7.47 10.26,-16.55 11.89,-26.06 -9.08,4.6 -19.59,5.97 -29.61,4.47 -8.02,-1.32 -15.68,-5.76 -20.13,-12.65 -4.21,-6.21 -5.89,-14.06 -4.47,-21.45 1.87,-10.72 7.59,-21.47 17.48,-26.75 m 4.09,-0.4 c -0.08,0.73 -0.25,2.18 -0.33,2.91 -2.8,2.4 -6.08,4.31 -8.14,7.47 -0.67,0.45 -1.33,0.9 -1.99,1.35 0.75,-0.31 2.26,-0.91 3.01,-1.22 -0.13,0.9 -0.4,2.68 -0.53,3.57 0.95,-2.61 1.69,-5.6 4.08,-7.3 1.84,-1.37 3.68,-2.73 5.4,-4.24 -1.95,4.78 -1.4,10 0.61,14.64 -0.84,-4.21 -1.08,-8.5 -0.58,-12.77 0.38,0.2 1.13,0.61 1.5,0.81 0.42,-1.65 0.26,-3.71 1.74,-4.86 2.03,-1.66 4.69,-2.18 7.07,-3.13 -4.13,-0.09 -8.11,1.09 -11.84,2.77 m 7.69,6.28 c -5.33,7.51 -4.52,17.15 -4.58,25.87 2.3,5.57 3.66,11.9 8.41,16.05 5.12,5.16 13.7,5.32 19.71,1.67 2.95,-1.85 3.14,-5.72 3.58,-8.82 0.48,-6.3 0.47,-12.63 0.1,-18.93 -0.55,-6.23 -1.33,-12.99 -5.48,-17.97 -5.64,-6.47 -17.11,-4.71 -21.74,2.13 m 31.19,-1.98 c 0.12,2.12 0.34,4.24 0.49,6.36 l 1.92,0.27 c -0.06,-0.79 -0.17,-2.36 -0.23,-3.14 0.31,1.33 0.6,2.67 0.89,4.02 l 3.04,0.25 c -0.9,-1.65 -1.74,-3.31 -2.62,-4.95 1.07,-1.05 2.14,-2.1 3.21,-3.14 1.64,2.27 4.27,3.43 6.5,4.99 -1.29,-2.16 -2.98,-3.99 -4.73,-5.77 -2.8,0.26 -5.96,-0.4 -8.47,1.11 m -1.15,19.83 c 4.26,1.53 9.78,-1.75 13.34,2.32 -2.08,-0.37 -4.3,-1.71 -6.35,-0.55 -4.52,2.1 -5.7,7.82 -4.81,12.31 0.88,3.7 2.08,7.43 4.42,10.5 -0.55,0.31 -1.65,0.95 -2.2,1.27 -0.82,-1.25 -1.52,-2.56 -2.24,-3.86 0,2.22 1.48,5.05 -0.49,6.82 -2.78,3.2 -5.79,6.71 -6.1,11.13 -0.02,2.42 2.16,3.84 3.67,5.37 -0.4,-1.77 -0.68,-3.56 -0.85,-5.35 0.44,-2.34 2.2,-4.1 3.47,-6.01 1.32,1.76 2.39,4.35 4.91,4.54 2.08,0.35 4.07,-1.26 3.98,-3.39 -0.87,-0.94 -1.84,-1.76 -2.8,-2.58 0.41,0.77 1.23,2.32 1.64,3.09 -2.23,1.63 -5.8,0.37 -5.28,-2.71 1.17,-3.62 6.46,-3.4 8.65,-0.94 1.12,2.45 0.02,5.47 -1.58,7.49 -4.26,4.88 -10.33,7.59 -16.29,9.79 -2.63,1.13 -6.36,2.36 -6.09,5.88 4.95,-5.23 12.49,-5.98 18.55,-9.36 4.96,-2.4 10.23,-6.72 9.94,-12.77 0.09,-3.65 -2.81,-6.22 -5.38,-8.34 4.83,-6.45 7.14,-14.75 5.71,-22.74 -0.66,-3.41 -1.67,-7.31 -4.75,-9.3 -3.62,-1.01 -7.21,1.69 -10.86,0.9 -2.79,-0.91 -3.26,-4.21 -4.22,-6.56 0.17,4.29 -1.05,9.55 2.01,13.05 m 4.71,-11.59 c -0.32,1.58 3.43,2.25 3.72,0.67 -0.87,-0.97 -2.57,-1.21 -3.72,-0.67 m -61.3,10.3 c -1.12,7.7 0.07,15.65 2.63,22.96 1.17,3.84 3.66,7.56 7.73,8.68 3.58,-0.12 5.66,-4.19 9.45,-3.93 -0.03,0.98 -0.08,2.94 -0.1,3.92 0.63,-0.96 1.27,-1.92 1.91,-2.88 3.71,-1.33 2.4,-5.45 2.45,-8.49 -0.29,1.87 -0.47,3.78 -0.99,5.61 -1.96,2 -3.07,-1.08 -3.66,-2.62 -1.31,-3.97 1.3,-7.65 3.04,-11 -0.76,0.48 -2.28,1.43 -3.04,1.9 -0.66,-0.88 -1.28,-1.79 -1.87,-2.71 0.38,-0.67 1.12,-2.03 1.49,-2.7 -3.16,1.39 -2.23,4.97 -0.33,7.02 -0.38,2.32 -0.74,4.67 -1.44,6.92 0.72,1.27 1.47,2.52 2.23,3.78 -3.93,-0.46 -6.03,5.03 -9.98,3.36 -3.83,-1.93 -3.61,-6.91 -3.72,-10.55 -0.47,0.02 -1.42,0.05 -1.89,0.07 l 0.62,1.49 -1.18,0.47 c 0.5,-3.28 0.7,-6.58 0.59,-9.89 -0.63,0.2 -1.89,0.6 -2.52,0.8 -0.82,-5.42 -1.74,-11.63 1.59,-16.42 1.27,-2.17 3.87,-0.58 5.06,0.85 2.14,2.57 3.55,6.74 1.41,9.72 -1.25,1.58 -3.17,0.98 -4.78,0.48 3.33,-1.73 3.63,-6.28 0.43,-8.26 -2.56,-0.9 -2.88,2.94 -2.85,4.67 -0.12,3.42 4.65,7.92 7.47,4.44 2.94,-4.62 1.14,-12.6 -4.43,-14.35 -3.48,-0.19 -4.79,3.89 -5.32,6.66 m 4.77,16.67 c 0.51,0.75 1.03,1.5 1.56,2.25 l 0.41,-2.43 c 3.04,-2.94 4.29,3.16 4.08,5.35 -0.9,0.06 -2.69,0.18 -3.58,0.24 1.33,0.28 2.94,1.43 3.95,-0.08 0.13,-2.56 0.67,-6.15 -2.11,-7.53 -1.76,-1.1 -3.11,1.36 -4.31,2.2 m 24.34,10.7 c 1.73,2.67 4.16,4.73 6.71,6.58 -4.2,0.46 -8.39,0.02 -12.48,-0.95 3.6,2.48 8.03,1.57 12.11,1.6 4,2.84 9.09,-0.44 13.13,-1.86 -3.75,0.48 -8.79,2.78 -11.33,-1.23 -0.2,0.43 -0.59,1.29 -0.78,1.72 -2.55,-1.84 -4.93,-3.88 -7.36,-5.86 m 17.98,36.11 c -0.29,2.07 2.05,3.26 2.89,4.91 -0.99,-0.39 -2.98,-1.16 -3.97,-1.55 -0.23,0.59 -0.69,1.77 -0.92,2.36 -1.51,-0.24 -3.01,-0.57 -4.53,-0.71 -0.23,1.4 1.82,1.12 2.68,1.52 4.23,0.95 8.41,-1.22 10.79,-4.69 -1.25,0.36 -3.74,1.07 -4.98,1.43 -0.62,-1.67 -2.76,-4.24 0.38,-5.18 0.71,0.71 0.04,2.27 1,2.61 1.26,-0.61 0.69,-2.5 1.12,-3.62 -1.3,1.03 -4.71,0.56 -4.46,2.92 z"
           id="path81"
           style="fill:#000000" />
        <path
           d="m 359.35,247.52 c 1.03,-2.62 4.65,-3.81 6.64,-1.51 3.55,3.35 1.35,8.6 0.17,12.54 -3.17,-1.93 -0.95,-7.36 -5.24,-7.94 0.75,0.85 1.51,1.7 2.29,2.54 -0.48,1.56 -0.58,3.51 -2.31,4.27 -3.86,-1.56 -3.03,-6.9 -1.55,-9.9 z"
           id="path91"
           style="fill:#000000" />
        <path
           d="m 359.22,262.28 c 1.65,-1.27 3.26,-2.57 4.8,-3.97 0.49,0.24 1.46,0.73 1.95,0.98 -1.29,1.99 -2.58,3.99 -4.13,5.79 -0.93,-0.89 -1.78,-1.86 -2.62,-2.8 z"
           id="path97"
           style="fill:#000000" />
      </g>
    </g>
  </g>
</svg>
