<?xml version="1.0" encoding="UTF-8" ?>
<!DOCTYPE svg PUBLIC "-//W3C//DTD SVG 1.1//EN" "http://www.w3.org/Graphics/SVG/1.1/DTD/svg11.dtd">
<svg width="100pt" height="57pt" viewBox="0 0 100 57" version="1.1" xmlns="http://www.w3.org/2000/svg">
<g id="#000000fe">
<path fill="#000000" opacity="1.00" d=" M 35.94 4.87 C 39.37 1.30 44.74 2.20 49.16 2.62 C 48.39 4.88 46.08 4.22 44.36 4.55 C 44.45 16.12 44.34 27.69 44.42 39.26 C 45.90 39.26 47.38 39.25 48.86 39.24 C 48.83 39.77 48.77 40.83 48.74 41.37 C 44.21 41.20 39.65 41.62 35.12 41.17 C 34.81 40.73 34.18 39.85 33.87 39.41 C 35.69 39.31 37.52 39.24 39.35 39.19 C 39.32 35.35 39.70 31.36 38.28 27.71 C 36.93 24.02 33.74 21.19 30.00 20.07 C 27.94 27.57 26.38 35.25 23.42 42.46 C 24.95 42.82 26.48 43.19 28.00 43.56 C 27.87 44.05 27.62 45.04 27.50 45.53 C 25.96 45.15 24.41 44.79 22.87 44.43 C 20.96 48.04 19.03 52.11 15.22 54.04 C 11.57 55.80 7.30 55.01 3.86 53.15 C 2.26 50.60 1.38 47.40 2.68 44.51 C 3.76 42.61 6.09 42.25 7.94 41.49 C 9.05 41.99 10.16 42.49 11.28 42.97 C 11.58 44.56 11.77 46.18 11.84 47.80 C 8.87 48.25 7.09 46.28 5.90 43.82 C 4.40 45.66 3.78 48.11 4.71 50.37 C 6.85 53.10 10.99 53.41 14.03 52.13 C 17.45 50.57 18.92 46.82 20.84 43.83 C 15.67 40.85 11.78 35.15 12.50 28.99 C 12.90 21.25 20.97 15.80 28.38 16.94 C 30.87 12.91 32.13 8.00 35.94 4.87 M 30.69 17.77 C 34.22 19.12 37.12 21.58 39.33 24.62 C 39.12 18.06 39.35 11.50 39.17 4.94 C 34.79 8.01 32.34 12.83 30.69 17.77 M 19.91 20.79 C 14.89 23.47 13.14 30.35 15.60 35.34 C 16.77 38.07 19.10 40.01 21.28 41.92 C 24.36 34.56 26.11 26.70 27.87 18.95 C 25.18 19.32 22.25 19.22 19.91 20.79 Z" />
<path fill="#000000" opacity="1.00" d=" M 52.14 2.26 C 55.57 2.25 59.00 2.26 62.43 2.31 C 66.26 8.93 70.51 15.29 74.39 21.87 C 78.90 15.52 83.00 8.88 87.51 2.53 C 90.80 2.00 94.19 2.15 97.50 2.45 L 97.88 4.42 C 96.19 4.46 94.50 4.50 92.81 4.52 C 92.83 14.33 92.85 24.15 92.79 33.97 C 92.77 35.77 93.04 37.56 93.41 39.31 C 94.85 39.28 96.29 39.25 97.74 39.22 C 97.68 39.76 97.58 40.83 97.52 41.36 C 92.70 41.35 87.87 41.36 83.05 41.34 C 83.07 40.81 83.12 39.74 83.14 39.21 C 84.64 39.22 86.14 39.24 87.65 39.26 C 87.70 28.07 87.69 16.89 87.65 5.71 C 84.08 12.04 79.73 17.89 75.65 23.90 C 78.45 29.12 80.20 35.71 77.15 41.22 C 74.79 42.45 72.20 42.51 69.85 41.22 C 66.81 36.54 68.29 30.77 71.27 26.49 C 67.11 20.01 63.27 13.32 58.86 7.00 C 58.77 17.40 58.70 27.81 58.86 38.21 C 60.10 39.79 62.40 39.07 64.12 39.54 C 63.80 39.95 63.15 40.77 62.83 41.19 C 59.28 41.60 55.69 41.28 52.12 41.35 C 52.13 40.82 52.16 39.75 52.17 39.22 C 53.63 39.23 55.09 39.24 56.55 39.24 C 56.62 27.63 56.53 16.01 56.59 4.39 C 55.12 4.42 53.64 4.46 52.17 4.50 C 52.16 3.94 52.15 2.82 52.14 2.26 M 70.72 38.93 C 71.36 39.26 72.64 39.93 73.27 40.26 C 73.81 40.01 74.88 39.50 75.41 39.25 C 75.87 35.53 74.33 32.07 72.84 28.78 C 69.94 31.37 70.11 35.42 70.72 38.93 Z" />
</g>
</svg>
