<?xml version="1.0" encoding="UTF-8" ?>
<!DOCTYPE svg PUBLIC "-//W3C//DTD SVG 1.1//EN" "http://www.w3.org/Graphics/SVG/1.1/DTD/svg11.dtd">
<svg width="83pt" height="50pt" viewBox="0 0 83 50" version="1.1" xmlns="http://www.w3.org/2000/svg">
<g id="#000000fe">
<path fill="#000000" opacity="1.00" d=" M 17.62 7.30 C 19.75 5.31 21.51 2.47 24.66 2.08 C 24.47 4.37 22.67 5.93 21.31 7.60 C 26.51 7.75 32.14 10.91 33.43 16.23 C 33.88 19.97 34.36 24.52 31.47 27.46 C 28.11 30.99 22.94 31.65 18.31 31.30 C 18.34 33.16 18.35 35.03 18.37 36.89 C 20.52 36.46 22.61 35.77 24.67 35.04 C 24.73 35.63 24.86 36.80 24.92 37.38 C 22.83 38.20 20.63 38.69 18.41 38.93 C 18.37 41.41 18.37 43.88 18.36 46.35 C 19.82 46.33 21.28 46.31 22.73 46.29 C 22.74 46.83 22.76 47.91 22.77 48.45 C 17.91 48.43 13.06 48.43 8.20 48.45 C 8.19 47.92 8.16 46.86 8.15 46.33 C 9.67 46.33 11.18 46.33 12.70 46.35 C 12.69 43.57 12.75 40.79 13.09 38.03 C 8.18 36.09 4.01 32.00 2.63 26.84 C 1.82 22.29 2.14 17.05 5.36 13.45 C 8.27 9.67 12.82 7.27 17.62 7.30 M 7.35 14.53 C 1.84 20.90 4.60 32.89 13.16 34.92 C 13.06 26.35 12.37 17.49 15.78 9.38 C 12.53 10.22 9.34 11.71 7.35 14.53 M 18.38 28.43 C 20.87 28.34 23.65 28.51 25.65 26.74 C 30.92 21.45 27.90 10.16 19.83 9.98 C 17.51 15.86 18.52 22.28 18.38 28.43 Z" />
<path fill="#000000" opacity="1.00" d=" M 36.14 9.27 C 39.59 9.25 43.04 9.25 46.49 9.34 C 50.24 15.98 54.54 22.28 58.38 28.86 C 62.91 22.54 66.99 15.89 71.49 9.56 C 74.81 8.89 78.26 9.39 81.63 9.28 C 81.64 9.84 81.65 10.96 81.65 11.52 C 80.20 11.47 78.75 11.41 77.30 11.36 C 77.34 22.99 77.27 34.63 77.33 46.26 C 78.78 46.24 80.23 46.23 81.69 46.23 L 81.59 48.34 C 76.74 48.36 71.90 48.36 67.06 48.34 C 67.08 47.81 67.12 46.74 67.14 46.21 C 68.64 46.22 70.14 46.24 71.64 46.26 C 71.70 35.07 71.72 23.88 71.63 12.68 C 68.12 19.05 63.72 24.89 59.64 30.90 C 62.43 36.09 64.26 42.72 61.12 48.18 C 58.81 49.52 56.20 49.55 53.89 48.19 C 50.75 43.57 52.30 37.74 55.29 33.50 C 51.12 26.76 46.79 20.13 42.73 13.34 C 42.91 23.96 42.65 34.60 42.85 45.22 C 44.04 46.83 46.33 46.09 48.03 46.44 C 47.51 47.27 47.16 48.58 45.88 48.34 C 42.65 48.47 39.40 48.31 36.17 48.37 C 36.16 47.83 36.14 46.77 36.14 46.23 C 37.61 46.23 39.08 46.23 40.55 46.24 C 40.63 34.62 40.53 23.01 40.59 11.39 C 39.12 11.43 37.64 11.46 36.17 11.49 C 36.16 10.93 36.15 9.82 36.14 9.27 M 56.10 35.81 C 54.35 38.92 53.94 42.52 54.78 45.97 C 55.42 46.30 56.69 46.94 57.32 47.27 C 57.83 47.01 58.86 46.50 59.37 46.25 C 59.77 42.52 58.76 38.54 56.10 35.81 Z" />
</g>
</svg>
