<?xml version="1.0" encoding="UTF-8" ?>
<!DOCTYPE svg PUBLIC "-//W3C//DTD SVG 1.1//EN" "http://www.w3.org/Graphics/SVG/1.1/DTD/svg11.dtd">
<svg width="79pt" height="107pt" viewBox="0 0 79 107" version="1.1" xmlns="http://www.w3.org/2000/svg">
<g id="#000000f8">
<path fill="#000000" opacity="0.97" d=" M 38.98 0.00 L 39.53 0.00 C 42.19 1.38 45.35 2.20 47.45 4.44 C 49.03 7.98 49.61 11.91 51.63 15.28 C 51.51 14.01 51.26 11.48 51.14 10.22 C 52.06 11.31 52.98 12.42 54.03 13.39 C 55.29 13.32 56.54 13.19 57.79 13.00 C 54.43 11.88 52.90 8.88 51.93 5.74 C 53.63 7.71 55.37 9.67 57.25 11.48 C 56.78 8.82 56.48 6.15 56.30 3.46 C 60.01 5.51 65.50 7.08 65.28 12.32 C 65.72 11.99 66.62 11.32 67.07 10.99 C 68.11 11.78 69.15 12.57 70.20 13.36 C 67.83 13.24 65.45 13.30 63.09 13.67 C 65.11 14.44 67.77 14.00 69.47 15.47 C 70.96 18.01 71.67 21.45 75.46 21.22 C 73.02 22.67 69.57 24.27 67.13 21.91 C 66.50 19.55 66.39 16.89 64.32 15.22 C 64.48 17.40 65.05 19.59 64.75 21.77 C 63.41 25.18 59.61 26.78 57.97 30.00 C 57.05 32.30 57.21 34.84 56.96 37.26 C 57.75 35.33 58.16 33.17 59.45 31.49 C 61.88 29.68 65.02 29.21 67.56 27.58 C 68.63 26.17 67.32 24.75 66.82 23.42 C 66.33 24.47 65.34 26.57 64.85 27.62 C 64.24 25.91 64.91 24.31 65.78 22.84 C 66.88 23.36 67.99 23.89 69.09 24.41 C 69.48 31.15 60.42 31.23 59.03 37.04 C 58.17 40.82 60.76 44.14 62.73 47.08 C 62.86 43.66 62.44 40.22 62.87 36.82 C 63.28 33.72 66.44 32.39 68.57 30.59 C 70.56 29.30 71.17 26.90 72.14 24.89 C 71.84 27.70 71.42 30.51 70.70 33.25 C 72.74 31.50 74.57 29.53 76.13 27.34 C 76.19 29.19 76.54 31.08 76.18 32.92 C 74.70 35.50 71.40 35.93 68.96 37.19 C 71.30 37.71 74.05 37.30 76.08 38.78 C 76.83 39.77 78.32 41.74 79.07 42.73 C 77.32 41.81 75.58 40.89 73.85 39.95 C 76.16 41.59 79.01 43.16 78.67 46.48 C 76.31 44.81 74.05 42.99 71.73 41.25 C 72.37 41.90 73.03 42.54 73.68 43.18 C 73.86 43.93 74.21 45.42 74.38 46.17 C 70.95 44.47 70.66 40.64 69.74 37.42 C 67.75 38.73 64.96 39.56 64.17 42.05 C 63.20 44.68 65.02 47.17 65.95 49.51 C 65.81 46.58 66.35 42.41 70.37 43.30 C 69.59 44.55 68.69 45.74 67.98 47.04 C 67.75 48.84 68.83 50.49 69.27 52.19 C 70.00 49.78 71.43 47.79 73.59 46.48 C 72.83 48.65 70.67 51.18 72.73 53.33 C 75.61 57.19 77.91 61.45 79.00 66.17 L 79.00 71.63 C 77.93 74.74 76.90 78.15 74.29 80.35 C 68.89 85.11 58.66 81.29 57.98 74.04 C 57.54 69.78 60.39 64.75 65.03 64.55 C 68.46 64.09 71.60 67.68 70.29 71.00 C 69.60 74.12 64.37 74.87 63.42 71.58 C 62.79 69.96 64.83 68.98 65.38 67.72 C 65.30 69.08 65.21 70.44 65.11 71.80 C 66.13 71.60 67.15 71.43 68.15 71.13 C 70.02 69.34 68.25 66.16 65.88 66.15 C 61.91 65.98 58.79 70.13 59.43 73.92 C 60.23 79.43 67.26 82.61 72.09 80.15 C 76.13 77.81 76.94 72.05 74.88 68.14 C 72.66 64.43 68.14 63.40 64.65 61.30 C 62.15 60.05 60.98 57.38 59.56 55.15 C 60.04 55.15 61.00 55.16 61.48 55.17 C 59.86 52.72 57.59 48.73 61.29 46.96 C 58.43 44.42 56.40 40.93 56.05 37.08 C 55.30 32.72 57.14 28.50 57.16 24.17 C 56.20 23.12 55.09 22.20 54.02 21.26 C 54.81 21.26 56.40 21.24 57.19 21.23 C 51.41 18.50 49.78 11.61 44.34 8.50 C 41.42 8.68 38.48 8.22 35.58 8.58 C 34.71 9.53 34.03 10.62 33.30 11.67 C 33.12 11.55 32.75 11.30 32.56 11.18 C 30.98 14.47 26.61 14.73 24.44 11.88 C 23.56 13.02 22.68 14.16 21.79 15.30 C 23.50 15.17 25.21 15.12 26.92 15.15 C 27.98 16.81 28.02 18.86 28.45 20.72 C 25.74 19.55 23.07 18.29 20.29 17.29 C 19.45 14.77 20.09 12.29 21.68 10.22 C 22.34 10.57 23.66 11.28 24.31 11.63 C 24.56 9.82 24.82 8.02 25.08 6.21 C 25.57 7.23 26.04 8.26 26.49 9.30 C 27.84 8.77 29.21 8.27 30.58 7.79 C 28.85 9.07 27.12 10.34 25.42 11.64 C 26.56 11.35 28.85 10.77 30.00 10.48 C 29.31 10.94 27.94 11.87 27.26 12.34 C 26.85 14.11 29.81 13.28 30.17 12.29 C 31.91 9.39 33.49 6.39 35.64 3.75 C 32.99 4.26 30.32 4.83 27.94 6.14 C 27.46 5.75 26.98 5.36 26.50 4.96 C 29.73 4.12 33.08 3.02 36.44 3.70 C 40.78 4.44 44.37 7.14 48.08 9.29 C 46.75 4.81 42.81 2.18 38.98 0.00 M 53.20 16.21 C 53.15 18.00 55.60 18.52 56.87 19.25 C 59.31 20.65 61.37 18.16 63.44 17.24 L 63.15 14.60 C 61.34 15.41 59.61 16.37 57.81 17.19 C 56.24 17.03 54.76 16.43 53.20 16.21 M 57.13 20.78 C 58.27 22.33 59.00 24.10 59.54 25.93 C 62.29 24.05 64.10 21.27 63.93 17.81 C 61.99 19.49 59.93 21.31 57.13 20.78 M 63.56 40.07 C 65.94 37.86 68.00 35.33 69.95 32.74 C 66.91 34.22 63.75 36.28 63.56 40.07 M 60.20 49.22 C 59.65 50.48 60.22 51.91 61.53 52.38 C 65.10 53.72 68.90 54.35 72.54 55.53 C 69.71 52.59 65.93 50.86 62.83 48.24 C 62.81 48.92 62.75 50.26 62.73 50.94 C 61.89 50.40 61.27 49.32 60.20 49.22 M 61.17 57.34 C 64.47 59.07 68.29 59.49 71.52 61.35 C 74.32 62.93 75.64 66.00 77.55 68.41 C 77.04 65.21 76.19 61.63 73.37 59.64 C 70.27 57.62 66.45 57.20 63.15 55.57 C 62.47 56.14 61.82 56.73 61.17 57.34 Z" />
<path fill="#000000" opacity="0.97" d=" M 11.60 16.72 C 12.71 13.94 15.23 11.49 18.06 10.63 C 19.14 12.19 19.29 14.16 19.76 15.94 C 18.92 15.36 17.26 14.21 16.43 13.63 C 16.29 14.82 16.39 16.01 16.53 17.19 C 14.89 17.04 13.24 16.89 11.60 16.72 Z" />
<path fill="#000000" opacity="0.97" d=" M 17.91 16.20 C 21.28 16.36 16.37 19.19 17.91 16.20 Z" />
<path fill="#000000" opacity="0.97" d=" M 12.11 23.15 C 11.59 21.16 12.72 19.43 13.93 18.00 C 13.85 20.77 13.76 23.58 14.42 26.30 C 14.94 23.20 14.83 19.65 17.76 17.64 C 15.33 22.52 16.85 27.72 19.27 32.21 C 16.62 29.45 12.64 27.31 12.11 23.15 Z" />
<path fill="#000000" opacity="0.97" d=" M 19.77 17.58 C 21.95 18.81 24.53 19.90 25.82 22.20 C 26.61 24.43 24.76 26.10 23.35 27.51 C 23.47 23.79 22.10 20.43 19.77 17.58 Z" />
<path fill="#000000" opacity="0.97" d=" M 10.10 28.89 C 8.02 26.57 8.26 22.70 10.34 20.46 C 10.89 22.81 10.61 25.64 12.51 27.45 C 14.66 29.80 17.01 31.95 19.16 34.30 C 18.87 35.40 18.61 36.52 18.30 37.63 C 14.50 35.27 9.96 34.78 6.00 32.82 C 5.97 31.52 6.59 30.79 7.87 30.65 C 11.84 31.30 14.84 34.27 18.41 35.87 C 16.24 32.85 12.62 31.53 10.10 28.89 Z" />
<path fill="#000000" opacity="0.97" d=" M 23.68 29.40 C 24.88 27.13 26.83 25.37 28.48 23.43 C 28.42 24.32 28.31 26.09 28.25 26.98 C 28.35 30.95 22.43 32.67 24.02 36.94 C 26.91 45.77 27.58 55.31 25.42 64.38 C 23.99 69.83 20.15 74.22 18.42 79.55 C 17.41 82.69 17.90 86.02 18.07 89.24 C 19.07 82.50 24.46 77.47 24.88 70.54 C 25.25 73.29 25.76 76.07 25.41 78.84 C 24.83 82.22 21.79 84.37 20.53 87.43 C 20.14 89.32 20.13 91.26 20.00 93.17 C 20.64 91.15 20.96 88.99 22.00 87.12 C 23.72 84.88 25.79 82.94 27.63 80.81 C 27.65 83.06 28.03 85.38 27.48 87.60 C 25.65 90.03 21.87 91.17 22.17 94.81 C 21.86 95.34 21.54 95.87 21.21 96.39 C 18.68 94.88 15.87 93.99 13.11 93.00 C 9.48 91.79 7.57 88.22 5.51 85.28 C 9.85 87.91 14.66 89.58 19.32 91.52 C 16.27 87.95 11.82 86.35 7.82 84.18 C 5.21 82.87 3.87 80.19 2.59 77.74 C 5.34 80.28 8.12 82.87 11.64 84.34 C 8.16 80.21 3.26 76.92 1.51 71.58 C 0.61 69.17 1.20 66.03 3.53 64.66 C 4.89 64.22 6.20 65.34 7.50 65.66 C 9.75 62.90 13.22 61.89 16.48 60.90 C 13.50 63.91 9.61 67.05 10.99 71.93 C 12.32 69.32 12.58 65.99 15.29 64.33 C 17.98 62.48 19.84 59.81 21.05 56.81 C 20.95 59.01 21.12 61.28 20.50 63.42 C 19.42 66.59 16.27 68.17 13.79 70.09 C 16.36 69.61 18.92 69.07 21.44 68.40 C 21.39 67.52 21.29 65.76 21.24 64.89 C 21.74 65.95 22.23 67.02 22.73 68.09 C 25.36 61.22 26.00 53.21 22.50 46.53 C 20.17 41.69 14.37 38.34 9.03 39.94 C 2.70 41.82 -0.18 49.85 2.37 55.68 C 3.76 59.38 8.18 61.80 11.98 60.19 C 16.35 58.91 17.79 53.10 15.56 49.42 C 13.89 48.35 11.91 47.89 10.15 46.96 C 11.34 47.04 13.72 47.20 14.91 47.28 C 19.75 49.72 19.50 57.34 15.60 60.57 C 12.35 62.76 7.63 63.16 4.42 60.68 C 2.37 59.19 1.48 56.73 0.47 54.52 L 0.00 54.44 L 0.00 48.53 C 1.15 45.72 2.12 42.66 4.39 40.52 C 7.04 38.23 10.71 37.47 14.14 37.56 C 19.11 38.78 22.34 43.07 25.25 46.97 C 24.08 43.85 22.29 40.96 19.56 38.97 C 20.11 38.43 20.66 37.89 21.21 37.36 C 21.62 38.05 22.44 39.45 22.85 40.14 C 22.57 39.00 22.29 37.86 22.00 36.72 C 22.55 34.28 22.89 31.78 23.68 29.40 M 1.41 68.80 C 2.65 72.42 4.37 75.90 7.30 78.47 C 7.00 77.01 6.40 74.07 6.09 72.60 C 8.61 73.89 8.87 77.01 10.12 79.25 C 10.29 77.31 10.75 75.39 10.68 73.43 C 9.84 71.99 8.83 70.66 7.89 69.29 C 6.40 70.11 4.67 71.50 3.27 69.71 C 2.42 67.95 4.50 67.34 5.52 66.44 C 5.26 67.33 4.73 69.11 4.46 70.00 C 7.68 69.70 7.20 64.87 4.08 65.32 C 2.96 66.28 2.25 67.61 1.41 68.80 M 13.97 72.61 C 9.04 76.59 13.21 83.25 16.09 87.20 C 15.75 81.80 17.16 76.45 20.29 72.03 C 18.25 72.59 15.99 74.42 13.97 72.61 Z" />
<path fill="#000000" opacity="0.97" d=" M 2.01 39.30 C 4.18 34.58 10.13 35.52 14.28 36.25 C 10.14 37.07 5.92 37.60 2.01 39.30 Z" />
<path fill="#000000" opacity="0.97" d=" M 9.21 43.15 C 10.24 41.64 12.65 43.41 11.48 44.83 C 10.48 46.37 7.99 44.57 9.21 43.15 Z" />
<path fill="#000000" opacity="0.97" d=" M 14.18 42.97 C 15.85 42.50 16.40 43.06 15.83 44.64 C 14.17 45.11 13.62 44.55 14.18 42.97 Z" />
<path fill="#000000" opacity="0.97" d=" M 5.48 45.57 C 7.01 44.02 8.82 47.26 7.07 48.03 C 5.70 49.66 3.23 46.31 5.48 45.57 Z" />
<path fill="#000000" opacity="0.97" d=" M 17.30 45.10 C 20.40 43.85 17.11 48.45 17.30 45.10 Z" />
<path fill="#000000" opacity="0.97" d=" M 20.30 48.19 C 20.73 48.80 20.73 48.80 20.30 48.19 Z" />
<path fill="#000000" opacity="0.97" d=" M 9.65 48.15 C 10.11 50.15 10.21 52.28 11.33 54.06 C 11.50 53.17 11.84 51.39 12.02 50.49 C 14.30 51.60 15.05 54.61 12.01 55.28 C 8.16 55.32 9.25 50.55 9.65 48.15 Z" />
<path fill="#000000" opacity="0.97" d=" M 77.13 48.53 C 77.60 49.10 78.53 50.23 79.00 50.79 L 79.00 51.53 C 77.97 53.69 75.94 54.15 73.73 53.69 C 76.80 53.37 77.55 51.21 77.13 48.53 Z" />
<path fill="#000000" opacity="0.97" d=" M 4.20 50.40 C 5.82 49.85 6.38 50.40 5.88 52.02 C 4.25 52.57 3.69 52.02 4.20 50.40 Z" />
<path fill="#000000" opacity="0.97" d=" M 75.38 50.31 C 76.01 50.78 76.01 50.78 75.38 50.31 Z" />
<path fill="#000000" opacity="0.97" d=" M 56.97 51.37 C 60.33 51.47 55.46 54.32 56.97 51.37 Z" />
<path fill="#000000" opacity="0.97" d=" M 5.05 54.12 C 7.94 52.44 5.34 57.46 5.05 54.12 Z" />
<path fill="#000000" opacity="0.97" d=" M 57.16 54.91 C 60.51 55.09 55.57 57.87 57.16 54.91 Z" />
<path fill="#000000" opacity="0.97" d=" M 7.37 56.27 C 7.92 56.83 7.92 56.83 7.37 56.27 Z" />
<path fill="#000000" opacity="0.97" d=" M 57.33 58.36 C 58.95 57.82 59.51 58.37 59.02 60.01 C 57.40 60.54 56.83 59.99 57.33 58.36 Z" />
<path fill="#000000" opacity="0.97" d=" M 59.35 61.38 C 60.51 60.82 62.47 63.12 60.63 63.64 C 59.26 65.54 57.29 62.15 59.35 61.38 Z" />
<path fill="#000000" opacity="0.97" d=" M 55.13 84.63 C 55.64 83.60 56.66 82.13 58.01 82.75 C 61.70 83.29 61.97 87.80 62.42 90.70 C 60.03 88.62 57.55 86.66 55.13 84.63 Z" />
<path fill="#000000" opacity="0.97" d=" M 62.60 91.73 C 62.53 89.10 61.98 85.30 65.00 84.03 C 67.33 82.91 69.56 84.50 71.23 85.98 C 68.67 88.34 65.63 90.05 62.60 91.73 Z" />
<path fill="#000000" opacity="0.97" d=" M 55.74 89.83 C 56.96 88.29 58.87 89.76 60.35 89.88 C 58.12 91.20 56.14 92.85 54.47 94.82 C 54.80 93.15 54.56 91.19 55.74 89.83 Z" />
<path fill="#000000" opacity="0.97" d=" M 26.43 91.41 C 28.56 90.48 29.49 93.11 30.54 94.35 C 29.71 94.17 28.05 93.80 27.23 93.62 C 26.19 94.17 24.73 96.82 23.57 95.04 C 24.17 93.65 24.64 91.68 26.43 91.41 Z" />
<path fill="#000000" opacity="0.97" d=" M 60.26 91.09 C 61.86 90.55 62.41 91.11 61.91 92.77 C 60.29 93.29 59.74 92.73 60.26 91.09 Z" />
<path fill="#000000" opacity="0.97" d=" M 62.97 92.09 C 65.21 91.25 69.12 89.29 70.45 92.30 C 70.06 93.77 68.88 94.85 68.01 96.05 C 66.34 94.71 64.66 93.38 62.97 92.09 Z" />
<path fill="#000000" opacity="0.97" d=" M 51.68 101.74 C 55.13 99.58 57.10 95.91 59.75 92.94 C 59.10 96.07 57.13 98.62 54.97 100.88 C 57.59 101.23 60.19 101.67 62.79 102.09 C 60.87 99.23 60.85 95.57 62.92 92.79 C 64.06 94.32 66.22 95.76 65.39 97.96 C 64.47 100.28 63.25 102.81 61.01 104.12 C 57.86 105.73 54.41 103.15 51.19 104.27 C 46.94 105.42 42.57 106.78 38.12 106.20 C 34.16 105.66 30.33 104.45 26.48 103.38 C 21.27 101.89 17.07 98.28 12.74 95.19 C 16.78 95.71 20.58 97.19 24.12 99.17 L 22.18 97.70 C 24.38 96.14 26.12 98.39 27.52 99.87 C 27.24 97.88 27.48 95.37 30.19 96.01 C 30.41 98.07 28.81 100.77 30.95 102.21 C 37.05 106.43 45.68 105.91 51.68 101.74 Z" />
</g>
</svg>
