<?xml version="1.0" encoding="UTF-8" ?>
<!DOCTYPE svg PUBLIC "-//W3C//DTD SVG 1.1//EN" "http://www.w3.org/Graphics/SVG/1.1/DTD/svg11.dtd">
<svg width="62pt" height="105pt" viewBox="0 0 62 105" version="1.1" xmlns="http://www.w3.org/2000/svg">
<g id="#000000f9">
<path fill="#000000" opacity="0.98" d=" M 38.69 5.29 C 39.60 3.36 40.73 1.37 42.87 0.61 C 43.96 1.12 45.20 2.25 44.46 3.55 C 43.45 5.74 41.91 7.63 40.57 9.62 C 42.05 9.34 43.54 9.07 45.02 8.81 C 43.99 9.82 42.96 10.81 41.93 11.81 C 42.78 14.76 43.91 17.86 43.06 20.96 C 42.25 25.45 38.60 28.50 35.50 31.52 C 37.70 30.84 40.36 30.74 42.02 28.94 C 42.90 27.61 43.42 26.08 44.08 24.63 C 44.06 27.28 44.86 30.56 42.42 32.46 C 40.22 34.83 36.69 33.73 33.90 33.82 C 38.94 35.36 43.81 40.24 41.90 45.90 C 40.82 50.33 36.02 51.23 32.26 52.19 C 31.72 53.62 33.99 53.73 34.67 54.55 C 35.14 55.71 35.59 56.87 36.05 58.03 C 36.05 57.48 36.06 56.38 36.07 55.83 C 37.29 53.01 39.82 51.26 42.30 49.65 C 42.20 53.48 41.83 57.41 39.57 60.65 C 41.41 60.15 43.15 59.37 44.67 58.21 C 44.44 60.04 43.98 61.85 42.87 63.35 C 41.30 62.62 39.65 62.12 37.96 61.79 C 38.86 62.41 39.78 63.01 40.71 63.59 C 41.52 65.60 42.07 67.69 42.52 69.81 C 41.77 70.05 41.02 70.29 40.27 70.53 C 40.43 69.63 40.66 68.74 40.86 67.85 C 39.20 66.84 37.82 65.49 36.94 63.73 C 36.04 65.46 34.39 67.00 34.36 69.04 C 34.83 71.90 36.94 74.08 38.64 76.30 C 41.34 80.30 43.58 85.10 42.58 90.05 C 42.08 93.50 39.49 96.05 37.07 98.32 C 40.71 98.32 44.35 98.45 47.99 98.32 C 46.44 99.69 45.08 101.53 42.95 101.99 C 38.71 103.23 34.24 101.92 29.97 102.91 C 25.71 103.83 21.31 104.39 16.96 103.82 C 13.81 103.22 11.59 100.59 8.64 99.50 C 6.78 98.93 4.86 98.64 2.96 98.21 C 6.03 98.18 9.31 98.07 11.98 99.86 C 14.79 101.67 17.99 102.67 21.36 102.40 C 21.53 100.53 21.59 98.64 21.56 96.76 C 22.36 98.37 23.18 99.97 24.01 101.57 C 24.03 100.66 24.06 98.85 24.07 97.94 C 23.45 97.21 22.84 96.49 22.22 95.76 C 22.38 95.47 22.70 94.89 22.86 94.60 C 19.47 89.86 21.20 84.07 21.49 78.75 C 22.64 80.92 24.49 83.17 23.61 85.78 C 22.74 88.91 22.38 92.14 24.27 95.03 C 24.51 92.61 24.52 90.04 25.82 87.89 C 26.51 86.10 28.18 84.16 27.13 82.19 C 26.11 81.32 25.05 80.51 23.95 79.74 C 24.74 79.50 26.32 79.01 27.12 78.76 C 29.32 79.29 29.28 82.04 30.28 83.64 C 30.66 80.66 30.52 76.59 26.94 75.69 C 24.48 74.67 22.96 77.12 21.63 78.69 C 21.37 76.30 20.38 73.31 22.52 71.46 C 24.97 69.66 27.69 71.90 30.01 72.75 C 27.54 67.97 20.86 65.99 20.68 60.05 C 20.11 55.87 22.98 52.24 22.89 48.09 L 24.83 48.24 C 24.76 49.28 24.60 51.35 24.52 52.39 C 25.57 50.29 26.38 48.08 27.02 45.82 C 27.54 48.64 28.96 51.76 27.37 54.48 C 25.77 56.67 23.43 58.18 21.43 59.98 C 24.85 59.00 28.32 58.16 31.87 57.74 C 31.42 55.58 31.23 53.38 30.91 51.20 C 30.08 49.19 28.41 47.27 28.92 44.97 C 29.07 43.04 30.99 42.35 32.56 41.89 C 31.65 41.24 30.74 40.60 29.88 39.89 C 30.38 39.04 30.91 38.21 31.47 37.40 C 32.95 40.11 34.78 42.60 36.44 45.20 C 35.18 44.47 33.93 43.72 32.68 42.97 C 31.01 44.40 29.08 46.64 31.01 48.73 C 34.73 52.79 41.83 47.99 40.97 42.97 C 40.68 35.94 30.52 32.82 26.08 38.08 C 23.68 40.57 24.25 44.22 24.59 47.33 C 23.62 47.08 22.66 46.81 21.72 46.50 C 20.86 44.45 21.27 42.18 21.33 40.03 C 21.55 41.50 22.00 44.43 22.22 45.90 C 23.24 42.93 23.65 39.76 25.04 36.91 C 25.64 35.15 27.17 33.12 25.74 31.35 C 24.42 29.69 22.00 29.98 20.18 29.32 C 21.44 28.74 22.67 28.05 24.02 27.71 C 26.44 28.07 27.57 30.58 29.22 32.08 C 28.67 30.59 29.16 28.38 27.63 27.38 C 25.29 25.63 21.42 24.46 22.48 20.73 C 22.94 21.50 23.39 22.28 23.84 23.06 C 25.23 23.53 26.63 23.99 28.02 24.46 C 29.01 25.36 30.02 26.23 31.10 27.02 C 29.04 23.49 28.03 18.81 24.19 16.73 C 23.37 17.14 21.72 17.97 20.90 18.38 C 22.15 15.90 24.65 14.92 27.17 14.26 C 23.06 13.55 18.33 12.50 14.61 15.04 C 13.53 17.16 16.84 17.99 18.18 18.75 C 18.44 17.40 18.71 16.06 18.99 14.72 C 19.13 16.20 19.20 17.69 19.18 19.17 C 16.77 18.93 14.66 17.89 13.32 15.82 C 10.09 19.24 4.69 24.41 0.00 20.55 L 0.00 18.43 C 1.03 18.14 2.06 17.85 3.08 17.54 C 2.43 18.57 2.16 19.65 2.26 20.79 C 5.07 21.91 7.69 19.82 9.93 18.40 C 8.56 18.31 5.82 18.14 4.45 18.06 C 4.51 17.62 4.57 17.17 4.64 16.73 C 9.11 16.94 12.95 14.71 15.62 11.25 C 15.79 11.53 16.14 12.07 16.31 12.35 C 20.83 11.67 25.36 12.41 29.52 14.30 C 26.62 11.33 22.79 9.32 18.54 10.17 C 18.52 9.70 18.51 9.24 18.50 8.77 C 22.43 9.61 26.97 10.00 29.55 13.57 C 29.68 12.28 29.76 10.98 29.82 9.68 C 31.58 7.97 33.93 8.10 36.13 8.74 C 34.77 7.01 32.58 4.60 34.73 2.52 C 36.84 1.39 37.93 3.75 38.69 5.29 M 30.56 14.99 C 34.40 20.01 33.13 26.97 30.37 32.19 C 37.06 28.38 43.96 20.55 40.11 12.42 C 38.76 13.17 37.47 14.05 36.80 15.50 L 35.64 15.46 C 35.70 13.19 37.38 11.86 39.19 10.86 C 35.83 10.98 32.75 12.45 30.56 14.99 M 26.28 60.33 L 28.02 63.07 C 25.97 60.17 23.68 61.62 22.66 63.79 C 25.33 66.29 28.44 68.24 31.48 70.23 C 31.28 69.42 30.88 67.79 30.68 66.98 C 30.23 64.18 32.97 62.58 33.78 60.31 C 31.36 59.38 28.78 60.36 26.28 60.33 M 29.82 70.28 C 31.35 73.62 33.06 77.20 32.35 80.98 C 32.12 83.93 29.41 85.54 27.62 87.53 C 25.67 89.37 25.29 92.31 25.67 94.84 C 26.86 97.35 29.37 98.73 31.68 100.05 C 32.81 97.61 32.95 94.74 30.23 93.37 C 29.20 93.91 28.16 94.44 27.12 94.97 C 28.04 93.01 29.36 90.47 32.00 91.10 C 34.79 91.52 34.25 95.19 34.94 97.21 C 36.32 93.71 34.32 90.35 33.71 86.94 C 33.19 84.44 34.39 82.07 35.17 79.77 C 36.12 82.78 37.68 85.55 38.76 88.51 C 39.21 90.77 38.50 93.06 38.29 95.31 C 41.67 90.94 41.68 84.70 39.25 79.89 C 37.07 75.88 33.51 72.86 29.82 70.28 M 25.54 97.30 C 25.93 99.35 25.50 101.38 24.87 103.32 C 26.50 102.75 28.14 102.21 29.71 101.49 C 29.41 99.54 26.68 98.81 25.54 97.30 Z" />
<path fill="#000000" opacity="0.98" d=" M 35.03 38.87 C 36.67 38.41 37.18 38.98 36.58 40.60 C 34.93 41.05 34.41 40.47 35.03 38.87 Z" />
<path fill="#000000" opacity="0.98" d=" M 37.96 41.35 C 41.30 41.58 36.33 44.25 37.96 41.35 Z" />
<path fill="#000000" opacity="0.98" d=" M 16.27 99.20 C 16.80 99.79 16.80 99.79 16.27 99.20 Z" />
<path fill="#000000" opacity="0.98" d=" M 18.20 99.19 C 19.83 98.68 20.37 99.24 19.83 100.86 C 18.20 101.36 17.66 100.81 18.20 99.19 Z" />
<path fill="#000000" opacity="0.98" d=" M 50.98 98.25 C 53.33 98.09 55.02 99.63 56.44 101.20 C 57.72 100.87 59.37 99.19 60.55 100.44 C 60.77 101.00 61.19 102.14 61.40 102.70 C 58.86 101.88 56.17 101.84 54.09 103.82 C 56.85 100.84 52.91 99.79 50.98 98.25 Z" />
<path fill="#000000" opacity="0.98" d=" M 2.94 102.65 C 1.35 103.12 1.39 99.77 2.98 100.46 C 2.97 101.01 2.95 102.10 2.94 102.65 Z" />
<path fill="#000000" opacity="0.98" d=" M 4.57 103.25 C 4.56 101.62 5.36 100.53 6.97 99.97 C 7.49 100.78 8.41 101.43 8.51 102.45 C 7.66 103.26 6.78 104.03 5.87 104.76 C 6.25 103.78 7.00 101.83 7.38 100.86 C 6.68 101.45 5.27 102.65 4.57 103.25 Z" />
<path fill="#000000" opacity="0.98" d=" M 52.01 101.46 C 52.56 102.03 52.56 102.03 52.01 101.46 Z" />
</g>
</svg>
