<?xml version="1.0" encoding="UTF-8" ?>
<!DOCTYPE svg PUBLIC "-//W3C//DTD SVG 1.1//EN" "http://www.w3.org/Graphics/SVG/1.1/DTD/svg11.dtd">
<svg width="76pt" height="105pt" viewBox="0 0 76 105" version="1.1" xmlns="http://www.w3.org/2000/svg">
<g id="#000000fa">
<path fill="#000000" opacity="0.98" d=" M 34.31 0.76 C 36.57 2.14 38.53 3.91 40.45 5.71 C 39.96 4.48 38.98 2.03 38.49 0.80 C 40.55 0.65 42.82 0.98 43.37 3.34 C 44.83 2.97 46.29 2.64 47.77 2.33 C 47.36 2.96 46.56 4.23 46.15 4.86 C 48.36 4.48 51.03 3.31 53.13 4.75 C 55.80 6.31 54.59 10.21 56.65 12.27 C 58.10 13.81 59.69 15.21 61.29 16.61 L 61.65 14.47 C 62.39 15.17 64.77 18.35 62.04 17.89 C 60.69 17.86 59.34 17.82 58.00 17.77 C 59.34 18.79 60.67 19.82 61.99 20.87 C 63.62 18.09 68.48 18.94 69.17 22.02 C 68.65 24.45 67.10 26.53 66.24 28.85 C 64.84 26.10 65.81 22.61 63.46 20.30 C 63.04 22.38 61.96 24.12 60.12 25.20 C 60.41 23.54 60.75 21.89 61.04 20.23 C 59.75 21.49 57.85 22.48 57.51 24.41 C 56.76 27.57 58.47 30.55 59.44 33.46 C 59.62 29.83 62.43 27.51 64.08 24.55 C 64.28 26.00 64.53 27.45 64.58 28.92 C 63.59 29.83 62.50 30.63 61.49 31.53 C 59.91 32.66 61.03 34.84 60.96 36.40 C 62.06 34.14 62.80 31.33 65.31 30.20 C 69.15 28.06 74.33 32.13 73.10 36.36 C 72.30 34.40 70.39 30.32 67.87 32.84 C 66.67 35.91 66.37 39.88 62.50 40.76 C 62.70 41.18 63.10 42.01 63.31 42.43 C 64.81 40.80 66.59 39.44 68.79 38.87 C 67.06 40.70 64.40 42.12 63.91 44.83 C 62.99 49.12 63.50 54.11 60.25 57.54 C 56.46 61.99 50.12 63.19 44.74 61.17 C 46.99 62.84 49.50 64.66 52.49 63.47 C 49.68 67.26 45.27 72.52 39.98 69.92 C 39.77 70.51 39.36 71.69 39.15 72.27 C 38.35 70.80 37.60 69.30 36.81 67.82 C 34.70 68.38 32.62 69.00 30.53 69.62 C 32.74 67.35 36.32 66.19 37.30 62.91 C 37.57 63.07 38.11 63.39 38.39 63.54 C 38.84 59.95 42.37 59.21 45.21 60.85 C 41.18 57.48 43.30 49.98 48.57 49.47 C 52.03 48.92 54.85 53.76 52.10 56.21 C 50.57 56.79 47.05 57.60 47.28 55.00 C 47.26 53.06 49.00 52.84 50.58 53.05 C 49.91 53.77 48.57 55.21 47.91 55.93 C 49.84 57.10 53.14 55.58 51.84 53.13 C 50.79 50.05 46.52 50.79 45.01 53.09 C 42.67 55.77 44.60 60.27 48.11 60.61 C 53.37 61.22 58.57 57.88 60.50 52.99 C 59.01 52.65 57.52 52.30 56.04 51.94 C 55.48 52.35 54.37 53.18 53.81 53.60 C 54.15 52.31 52.85 49.23 55.12 49.28 C 57.36 49.17 59.77 49.43 61.50 47.70 C 60.00 48.01 58.52 48.40 57.01 48.61 C 54.77 47.65 53.12 45.71 51.08 44.40 C 50.80 45.07 50.23 46.40 49.95 47.06 C 51.39 47.49 53.31 47.97 50.96 48.98 C 48.03 47.80 48.07 43.22 50.73 41.74 C 53.23 40.08 56.27 41.15 58.95 41.62 C 56.26 39.54 53.01 38.76 49.63 39.52 C 52.39 37.45 55.76 37.77 58.80 38.85 C 56.22 35.23 52.40 32.62 50.35 28.60 C 47.42 23.09 45.44 16.74 40.49 12.60 C 37.81 10.53 34.20 11.87 31.13 11.85 C 33.04 9.13 36.57 8.99 39.23 7.40 L 38.45 10.38 C 38.98 9.68 39.53 9.00 40.10 8.34 C 40.46 9.19 41.17 10.90 41.52 11.75 C 42.88 9.17 44.53 6.77 46.27 4.45 C 44.75 5.58 43.26 6.73 41.78 7.92 C 42.08 6.80 42.67 4.57 42.97 3.45 C 42.11 4.87 41.30 6.31 40.50 7.76 C 38.05 5.80 35.23 3.96 34.31 0.76 M 46.17 7.15 C 43.49 9.50 45.03 13.36 45.41 16.30 C 47.51 14.22 46.49 11.38 46.09 8.87 L 46.72 10.63 C 47.88 9.60 49.00 8.51 50.26 7.60 C 53.11 7.89 50.93 10.53 49.96 11.67 C 51.91 11.44 55.02 10.65 54.15 7.96 C 53.26 4.17 48.29 4.91 46.17 7.15 M 47.26 20.30 C 49.50 18.85 50.45 16.43 50.78 13.89 C 51.09 15.08 51.41 16.27 51.73 17.46 C 53.14 17.64 55.95 17.99 57.36 18.17 C 55.13 16.88 53.32 14.97 53.75 12.27 C 51.81 13.04 49.01 13.05 48.75 10.22 C 47.04 13.27 47.35 16.92 47.26 20.30 M 52.22 18.16 C 51.45 21.16 50.29 24.05 49.80 27.12 C 51.12 24.70 52.21 22.01 54.64 20.46 C 52.04 24.39 56.36 28.19 54.58 32.34 C 56.07 33.79 57.69 35.12 59.33 36.41 C 57.35 31.37 53.77 25.30 57.74 20.25 C 57.11 20.28 55.84 20.34 55.20 20.37 C 54.21 19.63 53.21 18.89 52.22 18.16 M 38.04 66.63 C 41.86 65.26 45.94 68.36 49.51 66.06 C 46.45 66.11 44.43 63.91 42.05 62.44 C 39.77 62.46 39.23 65.21 38.04 66.63 Z" />
<path fill="#000000" opacity="0.98" d=" M 7.28 15.26 C 11.77 8.24 19.79 4.06 27.98 3.38 C 31.91 2.99 35.44 4.94 38.59 7.02 C 37.99 7.46 37.37 7.86 36.72 8.24 C 32.56 7.61 26.38 7.70 25.14 12.79 C 24.73 11.59 23.89 10.45 24.03 9.12 C 24.90 7.73 26.02 6.51 27.04 5.23 C 24.24 6.33 22.10 8.44 20.77 11.12 C 21.35 11.67 22.53 12.76 23.11 13.30 C 21.98 12.74 19.88 12.64 20.00 10.89 C 19.74 8.58 21.84 6.96 22.84 5.11 C 16.78 7.60 14.18 13.94 12.22 19.70 C 11.74 19.80 10.78 20.01 10.30 20.12 L 10.53 21.63 C 8.95 21.99 7.37 22.38 5.79 22.76 C 5.21 23.53 4.61 24.30 4.01 25.06 C 3.80 22.49 6.00 21.64 8.05 20.95 C 9.75 20.54 7.52 19.52 7.14 19.17 L 8.71 16.72 C 6.01 17.21 5.37 20.02 3.77 21.77 C 3.76 18.78 5.83 15.68 9.11 16.48 C 9.39 17.03 9.96 18.14 10.25 18.69 C 11.28 18.33 11.60 16.93 12.41 16.23 C 12.74 15.37 13.39 13.64 13.72 12.78 C 11.83 14.21 9.67 15.15 7.28 15.26 Z" />
<path fill="#000000" opacity="0.98" d=" M 56.84 6.15 C 61.09 6.17 64.30 11.05 61.06 14.47 C 57.95 12.80 56.31 9.67 56.84 6.15 Z" />
<path fill="#000000" opacity="0.98" d=" M 63.14 7.60 C 64.52 8.66 66.03 9.62 67.11 11.01 C 67.53 13.31 65.53 14.57 63.89 15.62 C 63.82 12.93 63.67 10.24 63.14 7.60 Z" />
<path fill="#000000" opacity="0.98" d=" M 63.59 17.90 C 64.76 15.84 68.23 13.62 70.08 15.91 C 71.85 17.50 71.63 20.04 71.85 22.19 C 70.75 20.97 69.82 19.56 68.48 18.57 C 66.94 17.96 65.21 18.14 63.59 17.90 Z" />
<path fill="#000000" opacity="0.98" d=" M 30.43 69.82 C 30.44 70.22 30.47 71.03 30.48 71.43 C 32.55 71.75 35.18 71.84 36.12 74.12 C 37.17 76.34 35.04 78.60 32.98 79.18 C 30.75 80.23 28.17 76.92 30.28 75.22 C 31.53 73.21 33.86 75.33 33.44 77.14 C 32.59 76.96 30.88 76.60 30.03 76.42 C 31.37 78.84 34.79 78.93 35.64 76.12 C 35.96 72.56 30.89 71.74 28.67 73.63 C 24.74 76.81 23.81 82.19 23.10 86.91 C 21.96 94.81 29.11 103.84 37.45 102.53 C 38.51 101.29 39.93 98.57 37.37 97.86 C 38.59 97.11 39.80 96.16 41.37 96.39 C 41.46 98.47 41.03 100.45 40.09 102.34 C 41.96 101.49 43.90 100.77 45.70 99.77 C 50.52 96.95 52.54 90.98 57.66 88.57 C 61.61 86.52 66.42 87.38 70.33 85.36 C 72.12 83.19 73.35 80.62 75.26 78.53 C 74.76 81.72 76.85 86.27 73.55 88.45 C 69.14 89.96 64.35 87.09 59.93 88.75 C 57.06 89.85 54.98 92.22 52.78 94.25 C 55.95 93.79 59.21 94.39 61.06 97.25 C 58.27 96.21 55.31 95.92 52.37 96.27 C 56.26 96.64 59.35 98.95 62.04 101.59 C 62.81 101.55 64.34 101.49 65.10 101.46 C 63.63 102.54 62.02 104.10 60.02 103.40 C 55.84 102.16 51.63 98.13 47.20 101.05 C 40.75 104.73 32.14 105.93 25.90 101.17 C 26.39 98.58 24.03 98.01 22.12 97.38 C 22.04 96.99 21.89 96.20 21.81 95.81 C 19.64 96.68 17.88 94.61 17.05 92.90 C 15.93 90.41 14.80 87.93 13.23 85.70 C 16.49 85.89 19.01 87.92 21.26 90.07 C 22.03 85.80 22.75 81.45 24.60 77.49 C 25.93 74.51 28.34 72.25 30.43 69.82 Z" />
<path fill="#000000" opacity="0.98" d=" M 25.54 89.18 C 27.95 88.41 30.61 88.11 33.06 88.87 C 35.53 89.77 35.19 92.83 35.42 94.92 C 32.78 91.97 29.30 90.24 25.54 89.18 Z" />
<path fill="#000000" opacity="0.98" d=" M 37.45 89.55 C 40.55 88.58 43.79 90.08 46.88 90.48 C 44.47 92.00 41.67 92.51 38.88 92.77 C 37.77 93.44 36.65 94.10 35.53 94.76 C 35.80 92.97 35.36 90.40 37.45 89.55 Z" />
<path fill="#000000" opacity="0.98" d=" M 9.67 89.18 C 11.98 90.17 13.99 91.70 15.40 93.80 C 16.93 96.43 20.67 96.36 21.93 99.23 C 22.40 99.52 23.33 100.11 23.80 100.40 C 22.45 102.65 19.82 103.40 17.67 104.61 C 18.79 102.73 19.93 100.86 21.07 99.00 C 18.70 99.93 16.20 100.65 14.03 102.04 C 9.98 105.32 3.40 105.04 0.00 100.93 L 0.00 98.27 C 1.83 96.50 3.45 93.96 6.22 93.67 C 9.12 93.25 11.76 96.71 10.41 99.36 C 9.13 101.88 4.74 102.28 3.54 99.46 C 3.53 97.38 6.05 97.23 7.46 96.50 C 6.73 97.25 5.27 98.76 4.54 99.51 C 6.43 99.88 9.67 100.85 9.87 97.87 C 9.31 92.66 1.55 94.55 1.56 98.96 C 1.12 101.53 4.01 102.72 6.02 103.25 C 10.21 104.03 13.32 100.38 16.95 98.99 C 13.82 96.28 12.03 92.49 9.67 89.18 Z" />
<path fill="#000000" opacity="0.98" d=" M 62.10 90.44 C 62.69 90.95 62.69 90.95 62.10 90.44 Z" />
<path fill="#000000" opacity="0.98" d=" M 64.44 89.86 C 66.07 89.33 66.62 89.89 66.09 91.52 C 64.46 92.04 63.92 91.48 64.44 89.86 Z" />
<path fill="#000000" opacity="0.98" d=" M 46.78 93.69 C 48.03 93.04 49.12 92.15 50.26 91.34 C 48.62 93.64 46.88 96.32 43.95 97.03 C 41.74 96.72 39.70 95.71 37.61 94.99 C 40.22 92.50 43.63 93.60 46.78 93.69 Z" />
<path fill="#000000" opacity="0.98" d=" M 59.35 91.22 C 59.81 91.85 59.81 91.85 59.35 91.22 Z" />
<path fill="#000000" opacity="0.98" d=" M 68.59 88.90 C 71.20 91.03 72.84 95.46 70.26 98.23 C 68.62 100.45 65.56 99.80 63.22 100.02 C 65.25 98.43 68.52 99.31 69.99 96.91 C 71.51 94.28 69.31 91.36 68.59 88.90 Z" />
<path fill="#000000" opacity="0.98" d=" M 26.53 92.52 C 28.88 90.68 31.38 92.96 33.32 94.25 C 30.80 94.85 28.50 95.96 28.26 98.93 C 26.90 97.13 24.76 94.80 26.53 92.52 Z" />
<path fill="#000000" opacity="0.98" d=" M 61.94 98.78 C 62.29 97.13 61.40 93.45 64.15 93.46 C 66.05 92.95 67.13 94.69 67.48 96.30 C 66.14 95.87 64.81 95.43 63.48 94.98 C 63.14 96.31 62.78 97.66 61.94 98.78 Z" />
<path fill="#000000" opacity="0.98" d=" M 36.42 97.37 C 33.61 98.24 35.03 93.85 37.01 95.57 C 36.86 96.02 36.57 96.92 36.42 97.37 Z" />
<path fill="#000000" opacity="0.98" d=" M 30.36 99.59 C 29.76 97.69 31.37 96.48 32.82 95.68 C 33.14 97.13 33.43 98.58 33.70 100.04 C 34.85 99.82 37.16 99.38 38.31 99.17 C 36.66 101.95 32.18 102.35 30.36 99.59 Z" />
</g>
</svg>
