<?xml version="1.0" encoding="UTF-8" ?>
<!DOCTYPE svg PUBLIC "-//W3C//DTD SVG 1.1//EN" "http://www.w3.org/Graphics/SVG/1.1/DTD/svg11.dtd">
<svg width="77pt" height="107pt" viewBox="0 0 77 107" version="1.1" xmlns="http://www.w3.org/2000/svg">
<g id="#000000f8">
<path fill="#000000" opacity="0.97" d=" M 33.86 1.39 C 35.48 0.96 37.25 0.11 38.84 1.16 C 39.62 2.55 39.68 4.40 38.78 5.75 C 36.42 6.55 35.49 2.52 33.86 1.39 Z" />
<path fill="#000000" opacity="0.97" d=" M 41.89 1.96 C 43.61 1.23 45.49 1.08 47.30 0.71 L 47.38 3.07 L 45.38 2.89 C 45.94 3.36 46.50 3.82 47.08 4.27 C 49.44 2.86 52.28 2.13 54.96 3.08 C 54.96 3.55 54.95 4.48 54.95 4.94 C 51.35 5.68 47.63 5.57 44.05 6.43 C 44.05 5.92 44.04 4.91 44.03 4.40 C 43.23 4.91 41.63 5.93 40.83 6.44 C 41.16 6.90 41.82 7.80 42.15 8.25 C 41.85 8.73 41.25 9.67 40.94 10.15 C 43.62 14.20 48.62 14.58 52.93 15.60 C 51.55 13.70 49.08 11.64 50.02 8.99 C 50.29 6.98 52.42 7.59 53.84 7.35 C 53.39 8.88 52.86 10.39 52.54 11.96 C 52.91 13.73 54.59 14.83 55.56 16.26 C 55.08 14.84 54.67 13.40 54.32 11.94 C 55.50 9.48 57.45 7.32 57.15 4.36 C 58.02 5.18 58.85 6.03 59.64 6.92 C 60.35 9.25 58.42 11.26 57.63 13.30 C 58.48 14.40 59.33 15.48 60.19 16.57 C 60.46 14.07 59.52 10.68 62.07 9.04 C 64.94 8.25 68.17 9.86 69.35 12.56 C 70.09 14.62 68.52 16.33 67.39 17.85 C 67.43 18.57 67.52 20.01 67.57 20.73 C 67.91 21.22 68.58 22.20 68.92 22.69 C 67.11 21.55 65.97 19.91 66.20 17.70 C 64.67 16.65 61.80 14.83 63.76 12.78 C 64.67 10.92 66.60 12.39 67.63 13.26 C 66.65 13.67 64.70 14.48 63.72 14.89 C 65.49 15.89 67.64 18.11 68.89 15.23 C 69.44 11.47 64.21 8.30 61.63 11.51 C 59.68 14.76 62.99 17.80 64.67 20.34 C 68.34 24.68 67.56 31.64 63.42 35.39 C 58.02 40.30 50.91 42.70 44.02 44.65 C 41.57 45.44 38.77 46.09 37.15 48.28 C 35.69 50.20 36.35 53.34 38.59 54.36 C 41.39 55.77 44.99 56.38 47.87 54.88 C 49.55 53.59 48.59 51.47 48.22 49.83 L 47.40 50.81 C 47.15 50.10 46.64 48.69 46.39 47.98 C 50.47 49.58 54.50 51.93 55.60 56.52 C 57.39 55.32 59.05 55.54 60.56 57.18 C 59.00 57.41 57.43 57.58 55.86 57.71 C 53.87 57.91 51.89 57.69 50.09 56.79 C 50.46 54.99 50.85 53.19 51.17 51.39 C 50.06 53.11 49.92 55.83 47.81 56.73 C 42.84 58.49 35.98 56.67 34.70 50.96 C 32.08 52.79 29.00 54.28 25.71 53.68 C 25.21 51.27 25.21 47.95 28.13 47.13 C 30.63 46.35 31.77 48.94 32.11 50.91 L 32.44 51.68 C 35.10 48.99 37.46 45.67 41.14 44.30 C 45.10 42.78 49.81 42.65 52.86 39.33 C 52.32 38.66 51.23 37.33 50.69 36.66 C 48.31 36.55 46.08 37.16 45.28 39.64 C 46.34 39.66 48.47 39.71 49.53 39.73 C 47.83 40.53 44.94 41.76 44.31 39.00 C 45.36 36.54 48.30 35.09 50.86 36.04 C 52.73 36.75 53.27 38.88 54.28 40.39 C 55.35 39.11 57.16 37.96 56.29 36.05 C 53.24 34.69 48.38 34.82 48.61 30.25 C 49.12 30.80 50.14 31.91 50.66 32.47 C 54.00 32.30 57.70 32.52 59.32 35.98 C 58.72 33.60 57.30 31.63 55.71 29.80 C 58.47 30.10 60.70 31.54 62.25 33.78 C 61.93 31.67 62.60 28.56 59.93 27.76 C 56.68 26.07 54.41 30.98 51.06 29.95 C 50.37 29.17 48.98 27.63 48.28 26.86 C 50.29 27.59 52.30 28.39 54.44 28.63 C 53.14 27.76 51.80 26.95 50.44 26.18 C 49.45 23.60 49.23 20.85 49.46 18.13 C 53.25 19.74 57.25 21.12 60.18 24.17 C 59.40 22.36 58.61 20.56 57.84 18.75 C 59.01 20.09 61.29 20.91 61.33 22.99 C 60.99 24.16 60.47 25.26 59.99 26.37 C 61.72 27.56 63.17 29.08 64.55 30.66 C 64.69 27.50 65.49 23.57 62.69 21.25 C 57.20 16.24 49.35 16.27 42.57 14.40 C 39.60 13.79 38.58 10.70 38.88 7.99 C 39.66 5.90 40.41 3.67 41.89 1.96 M 49.92 20.24 C 51.16 23.66 54.03 25.91 57.49 26.80 C 57.11 25.46 56.63 24.17 56.05 22.92 C 54.13 21.77 51.96 21.14 49.92 20.24 M 27.25 52.79 C 28.64 53.79 29.47 53.63 29.73 52.32 C 28.94 51.47 28.17 50.62 27.40 49.76 C 28.08 50.04 29.45 50.60 30.13 50.88 C 30.32 50.35 30.69 49.29 30.88 48.76 C 28.28 47.17 24.64 50.37 27.25 52.79 Z" />
<path fill="#000000" opacity="0.97" d=" M 28.82 3.02 C 29.79 2.24 31.13 1.94 32.18 2.78 C 34.55 4.26 36.65 6.12 38.89 7.80 C 35.47 10.10 31.41 11.04 27.42 11.79 C 28.72 8.27 32.79 9.19 35.65 8.47 C 35.59 8.04 35.45 7.17 35.39 6.74 C 33.11 5.73 30.15 5.41 28.82 3.02 Z" />
<path fill="#000000" opacity="0.97" d=" M 25.20 8.50 C 23.28 7.64 24.09 5.94 24.57 4.45 C 28.17 5.53 31.82 6.44 35.41 7.54 C 32.07 8.06 28.60 9.31 25.20 8.50 Z" />
<path fill="#000000" opacity="0.97" d=" M 16.02 7.01 C 19.71 6.41 21.41 9.68 23.34 12.13 C 19.53 12.14 15.21 11.56 11.85 13.79 C 9.39 15.37 8.98 19.53 12.11 20.60 C 13.31 19.75 14.36 18.74 15.27 17.56 C 14.46 17.46 12.83 17.26 12.01 17.16 C 12.38 16.74 13.11 15.91 13.48 15.49 C 14.00 15.57 15.05 15.72 15.58 15.80 C 15.63 18.09 14.73 20.78 12.03 20.91 C 8.99 22.15 7.23 17.97 8.85 15.75 C 10.34 11.87 14.94 11.44 18.50 11.18 C 17.65 9.80 16.81 8.42 16.02 7.01 Z" />
<path fill="#000000" opacity="0.97" d=" M 68.27 23.26 C 68.78 23.82 68.78 23.82 68.27 23.26 Z" />
<path fill="#000000" opacity="0.97" d=" M 40.93 48.01 C 41.92 47.79 43.89 47.34 44.88 47.12 L 45.03 46.01 C 45.08 47.33 45.12 48.66 45.16 49.99 L 43.82 47.90 C 42.56 49.35 41.93 51.06 41.95 53.02 C 41.00 51.48 39.38 49.75 40.93 48.01 Z" />
<path fill="#000000" opacity="0.97" d=" M 50.03 47.56 C 53.84 47.64 58.01 48.33 60.14 51.90 C 59.05 53.09 57.96 54.29 56.86 55.49 C 56.66 51.39 52.64 49.94 50.03 47.56 Z" />
<path fill="#000000" opacity="0.97" d=" M 43.13 49.83 C 43.96 50.00 45.60 50.34 46.42 50.51 C 45.61 52.63 43.71 53.21 41.59 53.26 L 41.95 53.02 C 42.41 52.72 43.35 52.12 43.82 51.81 C 43.65 51.32 43.30 50.32 43.13 49.83 Z" />
<path fill="#000000" opacity="0.97" d=" M 61.12 50.58 C 62.62 51.61 64.10 52.68 65.55 53.79 C 63.24 54.30 60.94 54.85 58.65 55.44 C 59.45 53.81 60.28 52.19 61.12 50.58 Z" />
<path fill="#000000" opacity="0.97" d=" M 66.25 55.94 C 66.69 55.46 67.56 54.51 67.99 54.04 C 69.45 55.93 70.09 58.12 69.35 60.45 C 67.70 60.25 66.00 60.22 64.40 59.74 C 62.75 58.51 61.48 56.88 60.10 55.39 C 62.15 55.52 64.21 55.70 66.25 55.94 Z" />
<path fill="#000000" opacity="0.97" d=" M 55.89 64.15 C 53.02 61.83 47.67 61.57 48.01 56.76 C 50.39 59.23 53.47 59.99 56.71 58.83 C 56.31 59.29 55.51 60.22 55.11 60.68 C 57.05 61.75 58.25 63.45 58.31 65.71 C 59.92 66.58 59.81 63.99 60.00 63.04 C 59.77 61.36 59.24 59.75 58.82 58.11 C 60.11 59.76 62.53 61.59 61.29 63.97 C 59.88 67.93 54.02 67.92 52.94 72.03 C 52.11 75.18 55.77 76.67 57.56 78.46 C 56.27 75.38 55.34 70.89 58.70 68.72 C 62.45 66.66 66.36 69.66 70.08 70.33 C 71.12 69.05 71.46 67.40 71.97 65.88 C 73.07 68.58 74.76 72.54 71.44 74.39 C 68.04 76.55 64.94 73.43 62.02 72.03 C 59.59 72.55 59.13 75.12 58.51 77.13 C 59.64 76.22 60.75 75.27 61.96 74.46 C 64.95 75.37 67.61 78.27 70.95 76.76 C 70.93 77.17 70.89 77.99 70.87 78.40 C 71.78 78.40 73.60 78.40 74.52 78.40 C 72.65 79.22 70.48 79.68 69.11 81.30 C 67.69 85.41 69.41 90.19 67.12 94.02 C 62.70 99.20 55.82 102.24 48.97 101.51 C 44.63 100.99 41.94 105.17 37.98 106.06 C 34.92 107.08 31.69 106.49 28.68 105.64 C 33.50 105.20 37.33 102.27 40.88 99.26 C 44.21 99.26 47.54 99.48 50.83 100.02 C 48.03 97.21 47.00 92.70 49.23 89.23 C 50.66 86.46 54.20 87.36 56.68 86.33 L 53.24 84.80 C 57.38 84.09 61.66 83.08 65.64 85.08 C 64.52 84.24 63.43 83.35 62.21 82.68 C 59.22 82.05 55.85 83.79 53.14 81.93 C 51.98 80.58 51.60 78.76 50.83 77.19 C 53.81 79.65 57.48 80.70 61.31 80.52 C 57.83 78.50 52.22 77.92 51.59 73.07 C 51.76 70.91 53.04 69.05 53.59 66.99 C 52.77 65.73 51.72 64.65 50.80 63.47 C 53.27 63.96 54.85 65.85 56.30 67.74 C 56.19 66.84 55.99 65.05 55.89 64.15 M 61.98 78.73 C 63.95 80.62 65.79 82.67 67.13 85.08 C 67.64 83.23 67.39 80.77 69.38 79.70 C 68.83 79.41 68.29 79.13 67.73 78.85 C 65.81 78.88 63.90 78.83 61.98 78.73 M 50.69 89.71 C 48.04 92.58 49.45 97.82 53.26 98.85 C 57.30 99.99 62.98 98.44 64.20 93.96 C 64.59 91.18 61.24 90.86 59.53 89.80 C 62.24 88.42 64.85 89.59 67.33 90.78 C 66.23 89.68 65.23 88.44 63.91 87.57 C 61.74 87.51 59.56 87.87 57.50 88.55 C 59.98 90.38 59.27 94.94 56.02 95.21 C 53.83 95.52 53.61 93.08 52.88 91.65 C 54.15 92.53 55.41 93.42 56.66 94.34 C 56.84 93.51 57.19 91.87 57.36 91.04 C 56.68 88.17 52.48 87.50 50.69 89.71 Z" />
<path fill="#000000" opacity="0.97" d=" M 60.40 57.91 C 62.90 60.42 65.94 62.36 69.60 61.53 C 68.48 62.55 67.45 63.73 66.07 64.41 C 62.56 64.30 61.90 60.25 60.40 57.91 Z" />
<path fill="#000000" opacity="0.97" d=" M 75.52 80.51 C 75.89 80.66 76.63 80.94 77.00 81.08 L 77.00 82.68 C 75.85 83.75 74.77 84.90 73.55 85.90 C 72.07 85.62 70.69 85.00 69.27 84.52 C 69.98 83.13 70.67 81.37 72.42 81.09 C 72.28 82.02 70.64 83.61 72.12 84.12 C 74.54 84.93 75.19 82.27 75.52 80.51 Z" />
<path fill="#000000" opacity="0.97" d=" M 5.52 87.87 C 6.36 87.93 8.06 88.07 8.90 88.13 C 9.15 88.92 9.65 90.51 9.90 91.30 C 8.68 92.13 7.46 92.97 6.25 93.82 C 6.59 94.40 7.27 95.56 7.62 96.14 C 5.30 96.82 1.58 99.28 0.15 96.06 C -0.04 93.31 2.75 93.77 4.62 93.45 C 3.48 92.60 0.96 92.06 2.48 90.28 C 3.62 90.15 4.77 90.13 5.92 90.08 C 5.82 89.53 5.62 88.42 5.52 87.87 Z" />
<path fill="#000000" opacity="0.97" d=" M 11.24 88.06 C 12.29 88.79 13.33 89.53 14.37 90.28 L 12.41 90.86 C 12.96 91.35 13.52 91.83 14.10 92.30 C 16.53 91.63 17.67 93.70 18.86 95.31 C 16.60 94.96 14.37 94.44 12.18 93.80 C 12.99 94.48 13.81 95.16 14.62 95.84 C 16.77 96.10 18.84 96.73 20.71 97.84 C 19.49 98.73 18.36 99.77 16.98 100.41 C 15.19 100.09 13.85 98.80 12.45 97.74 C 12.10 96.55 11.74 95.37 11.31 94.21 C 10.64 98.02 8.01 94.76 6.75 93.83 C 8.01 93.37 9.27 92.91 10.53 92.46 C 10.74 90.99 10.98 89.52 11.24 88.06 Z" />
<path fill="#000000" opacity="0.97" d=" M 10.26 102.69 C 8.68 101.05 9.56 98.73 9.67 96.75 C 10.39 99.26 10.65 102.58 13.67 103.37 C 21.27 105.86 28.28 100.34 35.78 99.97 C 31.33 101.99 26.77 103.81 22.07 105.14 C 18.10 106.11 13.15 105.97 10.26 102.69 Z" />
</g>
</svg>
