<?xml version="1.0" encoding="UTF-8" ?>
<!DOCTYPE svg PUBLIC "-//W3C//DTD SVG 1.1//EN" "http://www.w3.org/Graphics/SVG/1.1/DTD/svg11.dtd">
<svg width="87pt" height="104pt" viewBox="0 0 87 104" version="1.1" xmlns="http://www.w3.org/2000/svg">
<g id="#000000f7">
<path fill="#000000" opacity="0.97" d=" M 70.68 0.00 L 72.69 0.00 C 72.52 3.69 70.91 7.06 69.62 10.45 C 71.55 9.10 73.13 7.36 74.08 5.19 C 74.17 8.24 73.46 11.11 70.88 12.99 C 70.67 14.92 73.20 13.03 74.18 13.25 C 74.00 14.00 73.63 15.50 73.45 16.25 C 71.90 15.29 70.37 14.29 68.85 13.29 C 66.13 14.39 64.20 17.07 64.88 20.09 C 65.59 21.29 66.67 19.75 67.34 19.42 C 69.24 17.52 72.05 17.48 74.52 16.97 C 72.06 20.35 69.23 23.50 67.39 27.30 C 68.31 27.59 69.22 27.88 70.13 28.18 C 71.90 34.66 74.79 41.17 73.50 48.05 C 72.96 53.16 69.54 57.18 66.09 60.71 C 68.95 60.27 71.79 59.72 74.61 59.09 C 72.92 60.44 71.56 63.15 69.05 62.64 C 65.64 62.29 61.94 61.85 58.95 63.95 C 52.46 67.76 51.48 76.87 54.91 83.09 C 55.57 82.18 56.22 81.27 56.88 80.36 C 57.82 85.59 65.09 88.49 69.07 84.87 C 71.16 82.85 68.61 81.16 67.07 79.98 C 67.35 80.95 67.90 82.90 68.17 83.88 C 67.22 83.23 66.28 82.57 65.34 81.91 C 65.94 80.93 66.67 80.04 67.38 79.13 C 66.95 78.11 66.55 77.08 66.18 76.04 C 66.69 74.58 68.20 73.76 69.14 72.60 C 66.04 72.56 62.10 71.20 59.79 74.08 C 59.23 75.70 60.14 77.28 60.53 78.82 C 61.40 78.59 63.15 78.12 64.02 77.89 C 63.11 79.14 62.17 80.38 61.19 81.59 C 60.12 80.81 59.05 80.02 57.99 79.22 C 57.19 79.22 55.59 79.22 54.79 79.22 C 55.59 76.57 56.27 73.43 58.96 72.02 C 62.75 69.31 67.37 71.49 71.33 72.55 C 72.48 73.34 73.64 74.13 74.81 74.90 C 74.08 73.45 73.33 72.01 72.58 70.58 C 73.40 70.54 75.04 70.47 75.86 70.43 C 75.54 70.98 74.90 72.08 74.57 72.63 C 76.63 74.57 78.39 76.78 79.79 79.23 C 78.39 79.14 77.00 79.04 75.60 78.92 C 75.21 78.00 74.43 76.16 74.04 75.24 C 73.17 76.96 74.75 80.65 72.09 81.16 C 70.85 78.98 71.25 76.41 71.16 74.03 C 70.29 75.77 69.44 77.52 68.60 79.27 C 70.14 82.12 72.88 84.93 72.24 88.44 C 71.82 90.25 69.65 90.59 68.30 91.48 C 69.71 92.76 71.57 93.80 72.29 95.66 C 72.77 97.48 72.60 99.39 72.65 101.25 C 71.14 96.25 67.22 92.82 62.77 90.41 C 65.46 88.90 70.50 89.14 70.78 85.27 C 68.90 86.22 67.10 87.32 65.29 88.39 C 62.90 87.98 60.51 87.58 58.13 87.16 C 59.52 88.41 60.92 89.65 62.32 90.90 C 61.96 91.36 61.60 91.82 61.24 92.28 C 59.67 89.69 57.45 87.63 55.36 85.48 C 52.84 82.88 51.72 79.31 49.41 76.56 C 47.87 74.59 45.14 74.92 42.93 74.62 C 42.76 76.12 42.59 77.62 42.41 79.12 C 41.69 78.05 40.94 77.00 40.33 75.86 C 41.29 74.35 42.62 73.13 43.76 71.77 C 40.44 72.35 37.59 74.03 35.66 76.78 C 34.22 79.00 31.35 78.81 29.08 79.33 C 31.67 75.72 34.23 71.97 38.27 69.80 C 34.40 70.21 30.09 70.39 27.07 73.22 C 23.26 76.51 18.26 79.14 13.09 77.72 C 9.82 76.23 7.18 73.62 3.82 72.26 C 3.06 73.62 1.39 74.85 2.00 76.61 C 2.61 76.95 3.83 77.65 4.44 77.99 C 4.13 77.21 3.50 75.64 3.18 74.86 C 4.02 75.01 5.71 75.32 6.55 75.47 C 5.71 76.61 5.26 78.50 3.51 78.44 C 2.18 78.20 1.16 77.17 0.00 76.55 L 0.00 75.49 C 0.59 74.26 1.34 73.14 2.23 72.12 C 3.93 71.51 5.73 72.32 7.44 72.49 C 7.77 71.15 8.00 69.78 8.56 68.52 C 9.77 66.86 11.93 67.65 13.63 67.69 C 12.36 69.31 8.96 71.34 11.11 73.65 C 12.89 76.81 16.90 76.61 20.01 76.91 C 18.73 75.03 16.18 73.53 16.26 71.00 C 16.78 69.38 17.73 67.94 18.51 66.44 L 16.13 66.17 C 17.52 65.05 18.92 63.94 20.35 62.88 C 19.88 62.45 19.40 62.03 18.92 61.61 C 17.60 63.23 16.28 64.86 14.98 66.49 C 14.85 64.21 14.70 61.93 14.44 59.67 C 13.65 62.14 13.64 64.74 13.65 67.32 C 12.74 65.36 10.72 63.20 11.92 60.93 C 12.93 59.28 14.74 58.37 16.22 57.20 C 16.61 57.59 17.39 58.38 17.78 58.78 C 20.27 57.02 22.20 54.68 23.63 52.00 C 23.47 54.93 22.97 57.92 20.81 60.10 C 21.18 60.55 21.56 61.00 21.93 61.44 C 22.30 60.90 23.03 59.81 23.40 59.26 C 23.61 59.60 24.02 60.28 24.23 60.62 C 24.45 60.75 24.90 61.02 25.12 61.15 C 26.23 56.96 26.76 52.65 27.59 48.40 C 28.61 43.19 33.60 40.49 37.12 37.08 C 37.01 36.14 36.78 34.27 36.67 33.33 C 37.82 34.45 38.95 35.59 40.07 36.74 C 39.35 37.95 38.63 39.16 37.91 40.37 C 41.38 39.12 45.98 38.04 47.03 33.92 C 48.71 30.54 42.83 28.21 40.98 31.08 C 39.50 32.36 41.26 33.96 41.62 35.33 C 42.24 34.35 43.48 32.39 44.10 31.41 C 44.39 32.30 44.64 33.20 44.86 34.11 C 43.78 37.28 38.05 35.26 39.33 32.14 C 40.10 29.43 43.45 28.60 45.90 29.27 C 49.03 30.81 48.96 35.38 46.67 37.64 C 43.13 41.53 37.37 41.00 32.87 42.99 C 30.63 44.04 29.78 46.56 28.60 48.56 C 31.97 45.67 36.28 44.54 40.44 43.33 C 37.77 47.76 32.73 49.07 28.60 51.58 C 27.80 54.09 27.89 56.80 27.08 59.31 C 26.20 60.65 24.93 61.65 23.82 62.77 C 22.39 64.02 20.91 65.20 19.39 66.32 C 20.85 66.96 22.34 67.54 23.83 68.13 C 24.31 70.26 23.09 74.31 20.30 72.59 C 18.89 72.35 20.20 70.77 20.19 70.00 C 20.46 70.38 21.01 71.13 21.29 71.51 C 22.47 72.04 23.04 71.55 23.00 70.05 C 23.11 66.37 17.01 68.15 17.34 71.02 C 17.36 72.93 19.00 74.32 19.82 75.94 C 23.56 74.62 26.49 71.94 29.72 69.77 C 34.37 67.10 39.86 69.06 44.40 70.98 C 43.22 68.83 42.09 66.67 41.01 64.48 C 43.13 65.71 45.68 66.70 46.89 68.99 C 48.33 71.74 49.33 74.68 50.65 77.48 C 50.91 73.66 51.17 69.80 52.31 66.13 C 56.76 63.10 61.30 58.32 60.72 52.53 C 60.58 49.29 57.23 48.18 54.90 46.79 C 56.82 45.85 58.66 44.16 60.94 44.36 C 63.71 44.50 65.12 47.50 65.24 49.95 C 65.55 53.87 62.95 57.09 61.19 60.33 C 63.36 58.39 65.83 56.42 66.56 53.45 C 67.70 50.23 65.71 47.09 64.81 44.10 C 68.16 46.55 68.62 50.52 68.66 54.32 C 71.62 47.82 72.26 38.73 66.17 33.77 C 62.79 30.26 55.53 29.92 53.51 35.04 C 51.56 39.07 56.44 44.54 60.37 41.33 C 62.50 39.78 60.36 37.69 59.21 36.34 C 58.85 37.37 58.13 39.44 57.76 40.47 C 57.08 39.10 55.56 37.44 56.83 35.90 C 60.41 33.06 65.08 39.97 61.71 42.80 C 58.51 46.49 52.23 43.47 51.76 39.00 C 50.44 34.40 53.96 29.05 58.93 29.23 C 64.40 28.66 68.25 33.03 71.22 36.96 C 68.80 30.83 63.12 24.93 55.99 25.81 C 52.67 25.86 50.75 28.81 48.77 31.02 C 49.31 28.64 50.12 26.18 52.65 25.25 C 53.06 23.82 53.43 22.38 53.83 20.96 C 54.49 22.12 55.15 23.29 55.86 24.43 C 57.11 24.40 59.61 24.33 60.87 24.29 C 58.54 22.59 55.26 21.19 54.75 18.00 C 54.21 15.09 56.66 13.05 58.39 11.12 C 58.62 14.25 57.88 17.64 59.26 20.57 C 60.22 21.55 62.15 23.51 63.12 24.49 C 60.55 21.25 59.09 17.31 60.61 13.29 C 62.26 16.44 62.91 19.95 64.05 23.29 C 64.68 24.52 65.33 25.75 65.98 26.98 C 65.91 25.55 65.84 24.11 65.73 22.68 C 62.01 20.55 63.25 15.53 64.90 12.45 C 63.45 12.14 61.99 11.90 60.59 11.43 C 59.39 9.80 61.04 8.25 61.59 6.72 C 62.60 9.08 63.75 11.42 66.03 12.82 C 65.45 10.58 64.35 8.44 64.14 6.11 C 64.47 4.11 66.36 2.91 67.61 1.49 C 67.21 2.64 66.80 3.78 66.39 4.93 C 67.30 6.76 68.20 8.59 69.14 10.40 C 69.88 6.97 70.34 3.49 70.68 0.00 Z" />
<path fill="#000000" opacity="0.97" d=" M 51.26 22.08 C 51.81 22.66 51.81 22.66 51.26 22.08 Z" />
<path fill="#000000" opacity="0.97" d=" M 69.20 25.66 C 70.32 24.34 71.44 22.96 73.05 22.22 C 75.37 24.12 73.62 26.81 71.31 27.59 C 70.59 26.96 69.89 26.32 69.20 25.66 Z" />
<path fill="#000000" opacity="0.97" d=" M 63.83 43.09 C 63.78 40.37 66.05 37.98 68.68 39.87 C 68.74 40.13 68.87 40.65 68.94 40.91 C 67.00 40.26 64.94 39.78 64.44 42.51 C 65.42 42.46 67.38 42.35 68.36 42.30 C 67.09 43.58 65.46 43.61 63.83 43.09 Z" />
<path fill="#000000" opacity="0.97" d=" M 53.45 48.47 C 57.00 48.52 59.57 52.63 58.77 55.94 C 57.94 59.43 55.32 62.10 53.18 64.84 C 54.65 60.39 57.76 53.85 52.92 50.35 C 52.67 51.12 52.17 52.65 51.92 53.41 C 51.65 51.66 51.26 49.18 53.45 48.47 Z" />
<path fill="#000000" opacity="0.97" d=" M 69.45 63.41 C 73.01 62.96 77.06 68.27 72.98 70.49 C 71.55 68.34 68.78 66.33 69.45 63.41 Z" />
<path fill="#000000" opacity="0.97" d=" M 75.36 65.68 C 77.49 65.32 79.68 64.96 81.80 65.58 C 80.74 68.11 77.90 68.93 75.87 70.46 C 75.65 68.87 75.48 67.28 75.36 65.68 Z" />
<path fill="#000000" opacity="0.97" d=" M 61.70 67.21 C 63.11 66.66 64.40 65.31 66.03 65.66 C 68.90 66.52 70.91 68.94 72.60 71.27 C 68.74 70.75 64.48 70.26 61.70 67.21 Z" />
<path fill="#000000" opacity="0.97" d=" M 78.25 70.61 C 80.05 67.33 84.84 67.19 87.00 70.21 L 87.00 71.79 C 84.01 72.23 81.00 71.90 78.25 70.61 Z" />
<path fill="#000000" opacity="0.97" d=" M 75.77 71.95 C 79.83 71.37 83.92 73.53 86.89 76.20 C 83.28 80.51 77.96 75.24 75.77 71.95 Z" />
<path fill="#000000" opacity="0.97" d=" M 57.61 81.50 C 59.89 82.33 62.21 82.10 64.40 81.18 C 64.00 82.42 63.59 83.66 63.17 84.89 C 61.21 83.94 59.36 82.79 57.61 81.50 Z" />
<path fill="#000000" opacity="0.97" d=" M 52.60 86.89 C 55.62 85.45 52.63 90.23 52.60 86.89 Z" />
<path fill="#000000" opacity="0.97" d=" M 53.41 88.88 C 54.04 88.90 55.29 88.95 55.92 88.98 C 55.45 90.10 54.99 91.23 54.51 92.36 C 57.44 91.84 61.45 94.13 60.29 97.49 C 60.11 99.53 57.99 97.89 56.85 97.79 C 57.62 96.77 58.43 95.76 59.25 94.78 C 57.97 94.23 56.64 93.15 55.17 93.81 C 51.64 94.62 51.64 99.77 54.40 101.52 C 57.01 103.35 60.10 101.66 62.76 100.90 C 63.00 98.73 62.77 96.48 63.36 94.38 C 64.72 95.46 64.02 98.30 64.09 100.03 C 64.16 102.35 61.63 102.97 60.08 104.00 L 57.45 104.00 C 55.35 103.35 52.83 102.57 51.89 100.34 C 50.46 97.84 52.01 95.06 52.87 92.66 L 54.30 93.85 C 54.02 92.19 53.72 90.53 53.41 88.88 Z" />
<path fill="#000000" opacity="0.97" d=" M 64.72 92.61 C 66.42 94.10 68.64 95.60 68.80 98.08 C 68.97 100.32 66.51 101.05 65.06 102.14 C 66.45 99.00 66.32 95.67 64.72 92.61 Z" />
</g>
</svg>
