<?xml version="1.0" encoding="UTF-8" ?>
<!DOCTYPE svg PUBLIC "-//W3C//DTD SVG 1.1//EN" "http://www.w3.org/Graphics/SVG/1.1/DTD/svg11.dtd">
<svg width="76pt" height="110pt" viewBox="0 0 76 110" version="1.1" xmlns="http://www.w3.org/2000/svg">
<g id="#000000f7">
<path fill="#000000" opacity="0.97" d=" M 74.59 0.00 L 76.00 0.00 L 76.00 0.05 C 74.26 2.19 73.40 6.74 70.30 6.74 C 69.58 3.64 72.33 1.49 74.59 0.00 Z" />
<path fill="#000000" opacity="0.97" d=" M 67.04 9.15 C 66.74 6.05 67.79 3.19 70.61 1.61 C 70.10 3.63 69.44 5.65 69.32 7.75 C 70.93 7.60 72.51 7.31 74.07 6.88 C 73.33 7.58 71.83 8.96 71.09 9.65 C 69.82 8.12 68.51 9.35 67.36 9.93 L 70.41 10.72 C 69.17 11.69 67.77 11.94 66.21 11.45 C 66.28 14.98 63.82 17.57 61.97 20.29 C 64.86 18.82 67.47 16.87 70.11 14.99 C 68.74 18.14 67.06 22.34 63.07 22.68 C 57.82 22.99 52.41 24.23 47.24 22.72 C 40.71 21.05 34.94 16.54 27.91 17.06 C 32.56 17.97 35.29 21.98 38.99 24.51 C 36.65 24.32 34.06 24.39 32.17 22.75 C 29.56 20.74 27.13 18.31 23.77 17.60 C 26.27 19.59 28.44 21.94 30.10 24.68 C 25.60 24.89 23.32 21.09 20.44 18.41 C 21.37 20.29 22.58 22.17 22.20 24.36 C 21.61 23.63 20.42 22.16 19.83 21.42 C 16.28 22.17 15.57 26.27 14.60 29.13 C 15.46 28.54 17.18 27.37 18.03 26.79 C 16.26 28.79 15.12 31.19 14.67 33.85 C 17.30 31.44 19.93 28.97 21.89 25.96 C 21.86 28.48 22.26 31.30 20.47 33.37 C 18.87 35.82 15.78 38.75 17.95 41.81 C 20.91 45.81 26.27 46.85 30.89 47.59 C 28.83 45.55 26.49 43.84 24.06 42.25 C 29.51 43.30 33.48 48.02 39.20 48.07 C 35.62 46.44 32.38 44.20 29.21 41.88 C 36.06 41.71 41.49 46.05 47.65 48.24 C 47.70 48.37 47.81 48.64 47.87 48.77 C 42.98 51.90 37.67 54.64 33.67 58.92 C 35.21 59.29 37.10 59.81 38.22 58.27 C 41.52 55.01 44.56 50.66 49.69 50.48 C 49.79 50.16 50.00 49.52 50.11 49.20 L 50.57 48.58 C 54.69 49.39 58.73 51.15 61.83 54.02 C 65.82 58.28 66.76 65.89 62.46 70.28 C 63.44 70.75 64.42 71.19 65.41 71.64 C 65.76 72.05 66.48 72.85 66.84 73.26 C 67.12 72.93 67.68 72.27 67.96 71.95 C 72.30 73.86 71.65 79.91 68.86 82.89 C 67.26 84.62 64.82 83.04 62.84 83.13 C 63.03 82.54 63.40 81.36 63.59 80.77 C 65.16 80.41 67.15 80.71 68.34 79.39 C 69.83 77.82 69.27 75.53 69.35 73.59 C 68.08 74.37 66.63 74.62 65.16 74.58 C 65.00 75.28 64.67 76.68 64.51 77.38 C 64.04 77.75 63.10 78.47 62.63 78.83 C 62.66 79.53 62.72 80.93 62.75 81.62 C 60.27 81.56 57.79 81.81 55.32 81.60 C 53.18 81.28 51.56 78.59 52.59 76.61 C 53.83 76.38 55.09 76.28 56.35 76.19 C 55.43 76.66 53.59 77.62 52.68 78.09 C 55.68 78.32 58.66 77.67 61.64 77.47 C 59.89 76.91 58.13 76.39 56.39 75.79 C 58.94 74.32 61.42 75.59 63.18 77.68 C 62.55 75.60 62.16 73.45 61.35 71.43 C 55.94 75.23 47.33 73.40 44.87 66.99 C 42.33 62.27 45.22 55.07 51.04 55.14 C 55.40 54.51 59.49 60.74 55.71 63.84 C 53.69 65.32 53.11 62.85 52.44 61.42 C 53.40 61.54 55.30 61.77 56.25 61.89 C 55.94 59.10 54.38 55.75 51.02 56.21 C 45.90 56.45 44.37 62.81 46.31 66.76 C 48.82 72.54 57.98 73.69 61.90 68.82 C 66.16 62.66 62.02 51.97 54.06 51.81 C 47.04 51.69 42.38 57.68 36.60 60.59 C 34.76 61.52 33.43 59.91 32.38 58.63 C 33.18 57.60 33.97 56.57 34.73 55.52 C 32.80 55.36 30.88 55.18 28.95 55.00 C 32.84 53.75 36.08 51.23 39.45 49.02 C 36.39 49.46 33.06 49.45 30.39 51.23 C 28.39 52.35 27.26 54.39 25.82 56.08 C 22.98 57.24 20.18 54.98 17.46 54.46 C 19.87 56.14 22.69 56.99 25.39 58.07 C 22.75 59.08 18.80 59.88 17.12 56.88 C 16.90 55.73 16.47 53.42 16.25 52.26 C 15.80 54.98 14.70 57.55 12.14 58.78 C 11.75 58.39 10.96 57.60 10.57 57.20 C 12.47 55.33 14.37 53.46 16.27 51.59 C 15.02 51.98 12.54 52.77 11.30 53.16 C 11.23 52.45 11.08 51.03 11.01 50.31 C 12.53 50.50 15.55 50.88 17.07 51.07 C 15.83 50.47 13.35 49.26 12.10 48.66 C 11.08 46.80 12.52 45.07 13.46 43.55 C 13.73 45.41 13.95 47.28 14.19 49.14 C 14.73 47.37 14.45 45.14 16.04 43.85 C 18.56 43.67 18.32 46.38 18.46 48.12 C 19.92 47.66 21.38 47.24 22.85 46.83 C 15.10 44.00 12.48 34.57 14.41 27.17 C 14.99 21.25 21.32 18.47 22.77 12.97 C 22.37 10.24 19.30 10.45 17.51 11.65 C 17.52 12.63 17.55 14.59 17.57 15.57 C 14.85 12.61 18.68 7.64 22.13 9.86 C 24.75 11.22 23.60 14.31 23.19 16.54 C 25.23 14.59 26.64 12.17 27.45 9.47 C 28.27 7.15 31.08 7.35 33.06 6.96 C 30.42 8.10 28.67 10.30 27.58 12.92 C 33.22 9.93 39.33 6.93 45.91 7.59 C 50.19 7.84 55.28 9.90 56.12 14.64 C 56.57 13.97 57.01 13.29 57.46 12.62 C 58.59 12.16 59.71 11.66 60.78 11.08 C 61.39 10.85 62.61 10.40 63.22 10.17 C 61.74 11.74 60.24 13.29 58.77 14.87 C 58.17 14.85 56.98 14.80 56.38 14.78 C 56.95 19.92 49.27 22.65 46.77 18.01 C 44.57 14.64 50.47 11.17 52.65 14.36 C 54.14 16.23 51.61 17.72 49.89 17.71 C 50.49 16.99 51.68 15.56 52.28 14.85 C 50.39 13.79 47.20 14.21 47.49 17.01 C 48.62 20.33 54.69 19.47 54.93 15.97 C 55.14 13.00 52.36 10.96 49.81 10.15 C 45.25 8.37 40.29 9.33 35.63 10.05 C 38.54 11.41 41.43 13.02 44.70 13.31 C 44.07 12.58 42.81 11.14 42.18 10.42 C 43.53 10.26 45.09 9.94 45.78 11.49 C 46.06 14.09 43.50 16.29 41.02 16.39 C 37.65 16.54 35.49 12.49 32.03 13.33 C 30.09 13.61 28.27 14.39 26.44 15.04 C 30.00 15.36 33.78 15.24 37.04 16.95 C 41.80 19.30 46.43 22.90 52.05 22.48 C 59.70 22.68 64.71 15.09 66.09 8.38 C 65.49 8.10 64.29 7.55 63.70 7.28 C 64.09 6.91 64.89 6.18 65.28 5.82 C 65.72 6.65 66.60 8.31 67.04 9.15 M 23.56 48.32 C 20.37 49.11 15.27 49.07 16.54 54.40 C 16.92 48.76 26.82 48.09 24.54 54.25 C 27.81 53.07 29.61 49.84 32.63 48.22 C 29.61 48.32 26.57 48.01 23.56 48.32 Z" />
<path fill="#000000" opacity="0.97" d=" M 71.18 10.98 C 71.70 11.61 71.70 11.61 71.18 10.98 Z" />
<path fill="#000000" opacity="0.97" d=" M 19.03 12.06 C 20.42 11.64 20.99 12.12 20.73 13.51 C 19.34 13.91 18.77 13.42 19.03 12.06 Z" />
<path fill="#000000" opacity="0.97" d=" M 61.23 61.21 C 61.81 61.71 61.81 61.71 61.23 61.21 Z" />
<path fill="#000000" opacity="0.97" d=" M 46.55 64.04 C 47.56 63.40 48.56 62.74 49.64 62.20 C 50.86 64.25 51.78 66.49 52.79 68.65 C 52.13 68.79 50.82 69.06 50.16 69.19 C 50.09 68.48 49.93 67.04 49.85 66.33 C 48.50 65.96 47.51 64.98 46.55 64.04 Z" />
<path fill="#000000" opacity="0.97" d=" M 60.91 64.12 C 64.25 64.07 59.55 67.15 60.91 64.12 Z" />
<path fill="#000000" opacity="0.97" d=" M 60.22 67.09 C 60.79 67.68 60.79 67.68 60.22 67.09 Z" />
<path fill="#000000" opacity="0.97" d=" M 58.32 68.23 C 59.63 68.93 59.61 69.60 58.27 70.22 C 56.96 69.53 56.98 68.86 58.32 68.23 Z" />
<path fill="#000000" opacity="0.97" d=" M 66.35 68.22 C 67.64 68.92 67.62 69.60 66.29 70.24 C 65.00 69.53 65.02 68.86 66.35 68.22 Z" />
<path fill="#000000" opacity="0.97" d=" M 53.84 69.06 C 55.47 68.53 56.03 69.08 55.54 70.71 C 53.91 71.24 53.34 70.69 53.84 69.06 Z" />
<path fill="#000000" opacity="0.97" d=" M 64.85 79.37 C 64.81 78.00 66.60 76.45 67.94 76.54 C 68.25 78.04 66.30 79.70 64.85 79.37 Z" />
<path fill="#000000" opacity="0.97" d=" M 58.55 88.37 C 60.45 88.10 61.07 85.70 62.80 85.15 C 63.96 89.33 58.68 91.52 55.28 90.79 C 56.43 92.05 58.09 93.14 58.38 94.97 C 58.68 98.13 54.67 101.03 51.88 99.08 C 51.42 98.07 51.10 97.00 50.75 95.95 C 51.88 96.83 52.64 98.37 54.07 98.81 C 56.58 98.76 58.55 95.44 56.64 93.48 C 54.63 90.55 49.77 91.35 48.19 94.29 C 47.51 96.07 47.17 97.96 46.71 99.80 C 49.22 100.48 51.71 101.23 54.20 101.97 C 51.28 103.08 48.13 103.06 45.08 102.57 C 43.28 104.21 41.40 105.77 39.42 107.20 C 39.70 106.40 40.25 104.79 40.52 103.99 C 39.23 107.34 35.09 104.69 32.57 104.40 C 36.20 103.02 40.10 102.80 43.85 101.96 C 47.57 99.25 45.83 93.25 49.67 90.59 C 52.11 88.40 55.58 89.00 58.55 88.37 Z" />
<path fill="#000000" opacity="0.97" d=" M 54.10 95.41 C 57.46 95.59 52.47 98.37 54.10 95.41 Z" />
<path fill="#000000" opacity="0.97" d=" M 0.00 101.25 C 1.98 100.15 4.12 98.15 6.51 99.46 C 11.01 101.74 14.61 105.51 19.29 107.55 C 17.84 105.51 16.36 103.49 14.92 101.45 C 20.22 103.00 24.55 106.53 29.24 109.28 C 27.15 107.14 25.08 104.98 23.03 102.81 C 28.77 103.14 33.16 107.41 38.93 107.69 C 36.29 108.51 33.64 109.34 30.95 110.00 L 25.34 110.00 C 21.95 109.39 18.49 109.35 15.11 110.00 L 11.68 110.00 C 9.28 109.43 6.95 108.64 4.63 107.81 C 7.73 107.15 10.85 106.52 14.00 106.15 C 11.75 104.40 9.54 102.57 7.43 100.64 C 7.87 102.88 7.55 105.01 6.48 107.03 C 6.51 105.01 6.33 103.00 5.77 101.05 C 5.23 102.83 4.73 104.62 4.25 106.42 C 2.84 105.54 1.43 104.64 0.00 103.78 L 0.00 101.25 M 3.55 100.43 C 2.40 100.85 1.10 102.40 1.99 103.59 C 3.48 103.82 4.08 101.71 5.22 101.02 C 6.30 99.92 4.02 100.00 3.55 100.43 Z" />
</g>
</svg>
