<?xml version="1.0" encoding="UTF-8" ?>
<!DOCTYPE svg PUBLIC "-//W3C//DTD SVG 1.1//EN" "http://www.w3.org/Graphics/SVG/1.1/DTD/svg11.dtd">
<svg width="79pt" height="107pt" viewBox="0 0 79 107" version="1.1" xmlns="http://www.w3.org/2000/svg">
<g id="#000000fa">
<path fill="#000000" opacity="0.98" d=" M 60.51 0.01 C 61.09 0.61 62.24 1.81 62.82 2.41 C 63.03 3.74 61.66 4.94 60.53 5.40 C 56.24 6.33 51.82 5.94 47.48 6.26 C 49.55 7.45 51.92 7.87 54.26 8.24 C 51.62 10.10 48.69 9.39 46.09 7.96 C 43.53 6.40 40.96 8.52 38.89 9.91 C 41.23 9.63 43.59 8.42 45.94 9.04 C 47.27 10.75 46.32 12.77 45.07 14.18 C 44.14 13.18 43.84 10.93 42.07 11.04 C 38.74 11.40 35.92 13.77 34.88 16.93 C 36.78 15.43 38.67 12.35 41.49 13.34 C 43.19 15.01 41.44 17.06 40.97 18.86 C 40.41 18.32 39.27 17.24 38.70 16.70 C 34.75 17.78 33.97 21.94 32.92 25.33 C 33.35 20.15 29.73 14.48 33.28 9.82 C 33.30 11.66 33.47 13.49 34.17 15.20 C 36.32 11.08 39.21 6.56 44.11 5.52 C 48.95 4.67 53.89 5.42 58.76 5.23 L 58.66 4.14 C 58.13 3.60 57.08 2.50 56.55 1.95 C 58.14 2.67 59.63 3.59 60.91 4.78 C 60.76 3.19 60.62 1.60 60.51 0.01 Z" />
<path fill="#000000" opacity="0.98" d=" M 25.04 20.92 C 23.77 19.09 26.19 17.88 27.09 16.66 C 29.43 20.08 29.59 24.31 28.84 28.25 C 27.43 25.88 26.09 23.47 25.04 20.92 Z" />
<path fill="#000000" opacity="0.98" d=" M 18.86 22.90 C 19.94 21.91 21.03 20.93 22.13 19.95 C 24.12 22.78 27.07 25.40 27.79 28.83 C 24.00 29.27 21.20 25.46 18.86 22.90 Z" />
<path fill="#000000" opacity="0.98" d=" M 15.44 28.65 C 14.80 27.04 16.35 25.00 17.94 24.78 C 20.73 26.67 23.13 29.17 26.47 30.14 C 22.93 32.09 18.50 30.98 15.44 28.65 Z" />
<path fill="#000000" opacity="0.98" d=" M 27.57 35.66 C 28.52 33.90 25.86 30.10 28.77 30.03 C 29.53 30.89 30.21 31.80 30.82 32.78 C 29.54 35.06 28.48 37.57 26.55 39.41 C 24.43 41.39 21.66 42.41 19.04 43.56 C 20.19 44.44 21.32 45.35 22.42 46.28 C 20.49 46.24 18.62 45.72 16.91 44.83 C 16.06 44.90 14.37 45.02 13.52 45.09 C 15.01 46.33 16.50 47.56 17.98 48.79 C 18.80 48.81 20.44 48.83 21.26 48.84 C 16.26 52.37 8.36 46.15 4.90 52.39 C 4.49 51.93 4.08 51.48 3.67 51.02 C 5.54 49.57 4.90 47.04 5.39 45.03 C 5.59 41.72 8.35 39.59 10.20 37.13 C 11.69 35.38 11.52 32.94 11.98 30.81 C 13.11 33.04 14.00 35.48 13.67 38.03 C 13.55 40.80 11.41 42.81 9.90 44.93 C 12.05 43.52 14.45 42.07 15.37 39.52 C 16.39 37.32 15.59 34.87 15.49 32.58 C 16.60 34.38 18.21 36.04 18.60 38.20 C 19.00 40.20 17.33 41.65 16.36 43.16 C 20.48 41.49 25.64 40.13 27.57 35.66 Z" />
<path fill="#000000" opacity="0.98" d=" M 38.52 38.30 C 42.70 37.94 47.30 37.60 51.06 39.80 C 53.27 41.41 54.38 44.02 56.00 46.15 C 55.31 43.75 53.03 41.33 54.66 38.84 C 58.43 44.00 58.63 50.41 59.70 56.45 C 60.00 52.67 58.92 48.80 59.87 45.10 C 61.08 42.64 63.87 43.27 65.93 44.05 C 64.63 44.69 63.13 45.01 62.03 46.00 C 61.65 48.99 63.33 52.00 62.35 54.95 C 61.07 58.45 58.92 61.56 57.13 64.81 C 57.77 60.94 59.15 56.65 57.28 52.88 C 56.18 50.22 52.61 47.97 49.96 49.93 C 47.88 51.48 49.17 54.28 50.51 55.85 C 50.09 53.63 51.47 52.23 53.02 51.02 C 54.31 52.30 56.74 54.05 55.05 56.02 C 51.60 59.39 45.02 53.18 48.63 49.66 C 50.54 47.33 53.68 48.41 56.16 48.85 C 54.44 47.23 52.64 45.11 50.01 45.36 C 47.38 45.26 45.79 47.56 44.04 49.12 C 43.89 45.72 46.19 43.63 48.96 42.17 C 45.30 42.35 41.98 44.58 41.73 48.50 C 40.05 46.10 41.50 43.59 42.89 41.49 C 39.31 42.87 36.51 45.55 34.03 48.39 C 33.58 47.97 33.13 47.55 32.69 47.13 C 34.97 45.72 36.79 43.72 38.98 42.20 C 41.29 40.62 44.22 40.59 46.85 39.97 C 44.11 39.21 41.30 38.86 38.52 38.30 M 51.63 55.63 C 53.10 56.64 55.37 54.42 53.91 53.07 C 52.48 51.89 50.54 54.37 51.63 55.63 Z" />
<path fill="#000000" opacity="0.98" d=" M 25.87 47.64 C 26.31 44.71 28.81 43.78 31.49 44.20 C 31.60 44.87 31.82 46.21 31.93 46.88 L 31.41 46.85 C 31.03 46.31 30.28 45.24 29.90 44.70 C 27.91 44.47 27.43 46.40 26.80 47.84 L 25.87 47.64 Z" />
<path fill="#000000" opacity="0.98" d=" M 64.33 46.08 C 65.82 44.91 67.48 47.53 65.88 48.45 C 64.41 49.53 62.80 47.03 64.33 46.08 Z" />
<path fill="#000000" opacity="0.98" d=" M 67.28 47.99 C 68.90 47.44 69.47 47.98 68.98 49.61 C 67.36 50.16 66.80 49.62 67.28 47.99 Z" />
<path fill="#000000" opacity="0.98" d=" M 28.47 49.02 C 29.20 48.96 30.68 48.84 31.41 48.78 C 31.40 49.10 31.37 49.74 31.35 50.06 C 29.88 50.38 28.92 50.04 28.47 49.02 Z" />
<path fill="#000000" opacity="0.98" d=" M 15.98 51.97 C 16.58 49.88 19.56 52.04 20.67 52.84 C 19.22 53.90 18.07 55.97 16.02 55.72 C 12.40 55.75 8.51 54.34 5.06 56.01 C 2.90 56.97 2.34 59.48 1.36 61.39 C 4.29 59.46 7.22 56.89 10.94 56.96 C 14.49 56.71 17.37 59.07 19.80 61.32 C 16.31 59.98 12.66 57.43 8.78 58.81 C 4.47 60.01 2.35 64.97 3.43 69.11 C 4.14 73.53 8.46 77.07 13.00 76.25 C 18.34 75.86 21.57 69.08 18.28 64.75 C 16.69 61.46 10.82 60.89 10.14 65.12 C 9.71 68.17 12.85 67.25 14.69 66.76 C 14.53 68.78 13.14 70.21 11.12 69.10 C 6.98 67.49 8.82 60.80 12.97 60.70 C 19.55 60.04 23.92 69.07 19.85 74.06 C 20.23 74.53 20.62 75.00 21.01 75.48 L 21.87 72.26 C 22.76 77.09 22.55 83.67 16.70 85.13 C 15.68 82.01 16.29 78.61 19.21 76.77 C 18.86 76.46 18.51 76.16 18.15 75.85 C 15.33 78.10 11.39 78.82 8.05 77.33 C 3.41 75.79 0.76 71.25 0.00 66.65 L 0.00 59.97 C 0.49 58.06 1.04 56.17 1.54 54.27 C 3.63 53.53 5.70 52.55 7.93 52.32 C 10.77 52.80 13.37 54.14 16.18 54.73 C 17.51 55.05 19.54 53.55 17.60 52.54 L 16.85 52.25 L 15.98 51.97 Z" />
<path fill="#000000" opacity="0.98" d=" M 70.13 54.54 C 73.42 57.02 72.58 61.48 70.08 64.21 C 70.74 61.00 70.82 57.75 70.13 54.54 Z" />
<path fill="#000000" opacity="0.98" d=" M 68.40 56.41 C 70.14 58.75 68.21 62.81 68.44 65.68 C 70.56 66.58 73.00 65.86 75.13 65.28 L 72.29 64.82 C 72.78 62.74 73.26 60.66 73.60 58.54 C 74.66 58.30 76.52 57.50 76.97 59.03 C 77.29 60.76 75.47 61.59 74.48 62.64 C 75.62 63.45 76.95 64.12 77.75 65.33 C 78.21 66.72 76.41 67.19 75.64 67.95 C 76.79 69.02 77.90 70.11 78.99 71.23 C 76.01 69.35 72.92 67.60 69.44 66.80 C 73.28 69.38 78.08 72.64 77.59 77.96 C 77.88 82.92 71.26 87.17 67.64 82.73 C 67.41 83.21 67.18 83.69 66.96 84.17 C 67.37 86.56 66.50 88.77 65.17 90.70 C 64.91 88.45 64.74 86.20 64.57 83.96 C 64.10 83.89 63.15 83.75 62.68 83.69 C 63.75 86.20 64.38 88.88 64.55 91.61 C 61.64 90.52 60.15 87.79 58.88 85.16 C 59.56 83.08 60.18 80.98 60.79 78.88 C 61.21 80.15 61.63 81.42 62.04 82.70 C 62.68 81.73 63.32 80.76 63.95 79.79 C 64.23 80.49 64.80 81.89 65.09 82.58 C 65.44 81.99 65.78 81.39 66.09 80.77 C 65.95 78.80 66.02 76.75 67.51 75.28 C 68.11 73.93 68.42 72.32 69.83 71.55 C 69.82 72.33 69.81 73.90 69.81 74.68 C 71.02 75.22 72.86 75.37 72.85 77.10 C 73.31 79.14 71.01 79.26 69.72 79.97 C 70.09 78.51 70.45 77.04 70.80 75.58 C 67.51 76.42 66.17 80.77 69.35 82.70 C 74.04 84.41 77.61 78.62 75.50 74.62 C 73.28 67.70 63.24 68.20 59.45 73.42 C 56.32 78.13 55.97 84.01 54.18 89.27 C 56.94 89.04 59.85 88.92 62.13 90.79 C 59.40 90.41 56.67 90.04 53.92 89.91 C 56.74 91.04 59.68 92.01 62.12 93.89 C 59.82 94.93 57.64 96.66 55.03 96.78 C 53.20 95.94 53.54 93.55 52.92 91.98 C 51.84 94.52 48.37 97.19 50.81 99.99 C 51.39 99.40 52.56 98.21 53.15 97.61 C 53.24 98.91 53.33 100.20 53.41 101.50 C 51.01 101.31 48.61 100.94 46.21 101.17 C 46.59 104.27 50.50 105.18 53.13 105.59 C 53.36 104.60 53.84 102.60 54.07 101.60 C 54.36 102.58 54.64 103.56 54.84 104.56 C 53.69 105.54 52.36 106.27 51.05 107.00 L 48.35 107.00 C 44.95 106.11 41.62 104.31 38.00 104.91 C 32.58 105.45 26.67 106.11 21.74 103.21 C 16.30 100.50 12.88 94.41 13.80 88.32 C 16.99 89.94 15.97 93.94 17.19 96.74 C 18.57 100.94 22.94 102.84 26.82 104.07 C 25.28 101.39 23.58 98.80 21.61 96.42 C 23.01 96.09 24.41 95.73 25.79 95.32 C 23.25 94.79 19.95 95.16 18.15 92.86 C 17.12 91.25 16.97 89.27 16.45 87.48 C 21.58 88.14 24.38 92.78 27.60 96.23 C 26.95 96.77 26.30 97.31 25.65 97.86 C 28.03 100.12 30.19 102.64 32.96 104.46 C 31.81 102.60 30.56 100.79 29.33 98.98 C 32.74 101.52 36.97 103.75 41.33 102.34 C 47.78 100.26 51.66 93.80 53.77 87.73 C 56.13 81.38 53.60 74.77 53.30 68.32 L 54.81 68.07 C 54.98 69.21 55.32 71.49 55.50 72.63 C 55.89 70.11 56.32 67.58 57.30 65.21 C 57.37 66.83 57.40 68.44 57.40 70.06 C 57.84 64.26 63.57 61.59 65.74 56.65 C 66.32 61.08 65.60 65.75 62.25 68.96 C 64.79 68.34 67.36 67.85 69.94 67.38 C 69.03 67.02 67.22 66.31 66.31 65.95 C 67.18 62.81 67.50 59.53 68.40 56.41 Z" />
<path fill="#000000" opacity="0.98" d=" M 65.30 70.90 C 65.94 71.82 68.09 73.51 66.39 74.41 C 65.41 75.62 63.89 74.35 63.70 73.18 C 64.10 72.61 64.90 71.47 65.30 70.90 Z" />
<path fill="#000000" opacity="0.98" d=" M 60.90 74.07 C 63.82 72.42 61.16 77.42 60.90 74.07 Z" />
<path fill="#000000" opacity="0.98" d=" M 8.13 87.04 C 4.15 85.48 2.88 80.80 3.25 76.89 C 4.15 78.58 4.84 80.42 6.04 81.93 C 7.84 83.64 10.42 84.07 12.66 84.92 C 12.37 84.33 11.79 83.16 11.51 82.58 C 9.19 81.50 7.61 79.45 6.19 77.40 C 10.35 78.10 15.42 79.20 16.35 84.14 L 13.73 83.49 C 14.07 84.85 14.57 86.17 14.81 87.55 C 12.61 87.11 10.36 87.22 8.13 87.04 Z" />
<path fill="#000000" opacity="0.98" d=" M 18.23 85.32 C 19.26 84.82 20.28 84.30 21.30 83.78 C 24.29 85.81 24.83 89.60 26.08 92.70 C 23.40 90.34 20.46 88.09 18.23 85.32 Z" />
<path fill="#000000" opacity="0.98" d=" M 64.73 92.64 C 66.99 90.72 69.08 88.56 70.05 85.68 C 70.87 85.84 72.50 86.15 73.31 86.30 C 72.21 90.14 68.31 91.88 64.73 92.64 Z" />
<path fill="#000000" opacity="0.98" d=" M 8.28 89.24 C 9.48 87.94 11.43 88.23 13.00 87.85 C 11.86 90.48 11.75 93.22 13.19 95.78 C 11.06 94.19 7.53 92.47 8.28 89.24 Z" />
<path fill="#000000" opacity="0.98" d=" M 63.01 93.87 C 66.39 92.96 69.61 91.42 73.13 91.11 C 71.59 93.51 69.02 97.02 65.82 94.91 C 68.69 97.74 64.39 100.85 61.53 100.20 C 61.81 98.05 62.49 95.97 63.01 93.87 Z" />
<path fill="#000000" opacity="0.98" d=" M 62.35 92.27 C 62.94 92.82 62.94 92.82 62.35 92.27 Z" />
<path fill="#000000" opacity="0.98" d=" M 61.10 95.43 C 61.81 94.99 61.81 94.99 61.10 95.43 Z" />
<path fill="#000000" opacity="0.98" d=" M 56.19 101.74 C 54.30 98.52 58.64 96.33 61.10 95.43 L 61.93 95.86 C 59.84 97.72 59.71 100.47 59.52 103.04 C 58.45 102.58 56.54 103.15 56.19 101.74 Z" />
</g>
</svg>
