<?xml version="1.0" encoding="UTF-8" ?>
<!DOCTYPE svg PUBLIC "-//W3C//DTD SVG 1.1//EN" "http://www.w3.org/Graphics/SVG/1.1/DTD/svg11.dtd">
<svg width="80pt" height="107pt" viewBox="0 0 80 107" version="1.1" xmlns="http://www.w3.org/2000/svg">
<g id="#000000fa">
<path fill="#000000" opacity="0.98" d=" M 11.62 0.00 L 12.41 0.00 C 15.22 1.98 15.67 5.49 16.57 8.55 C 16.89 6.93 16.11 3.26 19.00 3.79 C 20.95 3.95 22.62 5.06 24.33 5.89 C 22.39 6.43 20.45 6.94 18.49 7.42 C 18.24 8.02 17.74 9.22 17.50 9.82 C 21.47 7.85 28.18 4.08 31.24 9.17 C 28.53 11.38 24.41 10.57 21.17 11.40 C 24.36 11.94 27.63 11.84 30.80 12.50 C 31.41 14.08 30.98 16.44 28.97 16.67 C 24.39 17.83 20.62 14.24 17.08 12.05 C 19.42 14.42 21.52 17.69 25.10 18.26 C 29.83 19.55 34.65 18.07 39.27 17.06 C 36.12 15.68 33.23 13.26 31.89 10.05 C 35.75 11.03 38.27 14.75 42.31 15.52 C 38.42 12.06 36.21 6.41 30.44 5.68 C 38.10 4.81 43.58 12.18 51.23 11.43 C 46.95 10.53 42.88 8.83 39.63 5.85 C 44.75 7.17 49.95 6.04 55.13 6.11 C 59.88 6.35 62.87 10.56 66.18 13.42 C 66.86 10.71 67.06 7.31 69.77 5.75 C 72.67 3.72 77.97 4.35 79.11 8.09 C 80.40 12.39 72.90 17.25 70.75 12.24 C 69.66 9.18 73.35 7.90 75.62 7.38 C 75.36 9.01 75.11 10.64 74.79 12.26 C 74.68 11.21 74.46 9.10 74.35 8.04 C 72.51 9.09 70.68 10.40 71.88 12.72 C 74.38 14.19 77.43 12.65 78.34 10.07 C 78.05 8.22 76.92 6.34 74.95 5.97 C 71.74 4.91 68.14 7.65 68.11 10.99 C 68.10 15.84 71.36 20.69 69.26 25.47 C 65.38 33.36 57.09 37.32 50.90 43.06 C 54.96 42.54 58.45 40.46 60.91 37.25 C 60.02 39.98 60.11 43.65 57.34 45.29 C 54.29 46.44 50.93 46.03 47.74 46.29 C 49.67 47.19 52.05 47.65 53.42 49.42 C 55.08 52.39 53.89 56.65 50.85 58.24 C 48.08 59.64 44.62 56.42 45.60 53.53 C 46.27 51.25 49.01 51.52 50.81 50.84 C 50.52 52.13 50.22 53.41 49.90 54.70 C 49.91 53.90 49.92 52.32 49.93 51.52 C 48.71 51.82 47.58 52.33 46.57 53.05 C 46.19 54.60 47.19 55.92 47.95 57.14 C 53.61 58.74 54.78 48.15 49.01 48.34 C 43.29 48.62 41.62 55.25 39.44 59.42 C 41.49 58.90 43.67 56.48 45.82 58.08 C 48.85 59.56 48.42 64.09 45.81 65.76 C 44.70 65.42 43.63 64.99 42.60 64.45 C 43.64 63.99 45.71 63.06 46.75 62.60 C 44.95 59.99 41.39 60.00 40.14 63.08 C 37.87 69.25 39.01 76.18 39.76 82.55 C 41.25 76.21 39.86 69.66 40.97 63.27 C 41.85 66.50 43.13 69.64 43.72 72.96 C 44.36 76.28 42.05 79.07 40.71 81.88 C 38.49 85.87 38.34 90.57 36.69 94.77 C 34.59 100.03 30.75 104.83 25.39 107.00 L 21.23 107.00 C 12.20 102.96 18.77 87.43 27.76 89.26 C 33.11 91.43 30.48 100.46 25.15 100.65 C 22.58 100.86 20.97 96.77 23.70 95.72 C 24.93 94.66 25.86 96.38 26.82 96.96 C 25.32 97.30 23.83 97.64 22.34 97.99 C 23.89 98.70 25.99 100.37 27.53 98.63 C 29.54 96.61 29.72 93.11 27.94 90.88 C 21.85 89.57 16.96 96.91 18.79 102.33 C 20.21 105.88 25.12 106.02 27.83 103.90 C 32.24 100.64 34.87 93.57 31.17 88.88 C 28.61 85.69 24.21 87.13 20.72 87.19 C 23.73 86.64 26.80 85.75 29.88 86.21 C 32.44 86.94 34.16 89.14 36.13 90.79 C 34.66 87.71 32.41 85.14 29.46 83.40 C 26.07 81.59 26.35 76.69 29.04 74.37 C 29.87 75.22 30.64 76.13 31.37 77.07 C 30.35 77.15 28.30 77.30 27.28 77.37 C 31.68 79.69 35.99 82.42 38.42 86.93 C 37.93 82.43 35.42 78.73 32.81 75.20 C 31.28 73.40 32.29 71.10 32.81 69.14 C 32.64 72.75 35.36 75.07 37.85 77.19 C 37.37 69.98 36.67 62.37 39.65 55.57 C 42.01 50.00 46.51 45.81 50.77 41.69 C 53.63 39.08 52.84 34.36 55.98 31.96 C 58.73 29.81 61.48 27.49 62.48 24.00 C 62.69 25.97 62.94 27.94 63.22 29.90 C 64.52 25.87 64.27 21.64 62.80 17.72 C 65.37 20.25 66.53 23.65 67.04 27.15 C 67.50 24.23 68.48 20.97 66.73 18.28 C 64.70 14.18 59.85 12.45 55.52 12.62 C 51.16 13.32 49.80 18.18 46.56 20.52 C 44.02 21.08 41.38 20.96 38.80 21.12 C 43.19 19.29 46.71 16.06 50.16 12.88 C 42.55 15.49 35.46 21.04 27.01 19.87 C 22.50 19.56 19.06 16.25 16.74 12.61 C 16.59 15.01 19.54 18.13 17.43 20.40 C 14.92 21.49 12.14 21.69 9.50 22.33 C 11.15 20.72 14.46 17.50 16.11 15.89 C 12.22 18.39 8.36 20.99 4.92 24.11 L 6.79 24.81 C 5.11 25.01 3.42 25.22 1.73 25.44 C 1.86 24.01 2.29 22.64 2.78 21.30 L 4.09 23.84 C 5.27 21.77 6.15 19.51 7.61 17.60 C 10.06 14.77 14.11 14.30 17.63 14.57 L 14.92 12.55 C 10.65 14.31 6.18 16.02 3.06 19.61 C 3.75 17.53 4.09 15.27 5.32 13.42 C 7.29 11.36 10.36 11.07 12.91 10.13 C 10.68 9.86 8.46 9.56 6.24 9.21 C 7.11 7.84 7.96 6.45 8.98 5.18 C 11.09 5.78 12.92 7.04 14.82 8.08 C 13.22 6.08 11.61 4.08 10.18 1.95 C 10.54 1.46 11.26 0.49 11.62 0.00 M 15.40 9.40 C 15.66 9.66 15.66 9.66 15.40 9.40 Z" />
<path fill="#000000" opacity="0.98" d=" M 59.89 17.32 C 63.24 17.30 58.51 20.35 59.89 17.32 Z" />
<path fill="#000000" opacity="0.98" d=" M 0.00 26.31 C 2.68 24.74 2.70 29.51 0.00 28.06 L 0.00 26.31 Z" />
</g>
</svg>
