<?xml version="1.0" encoding="UTF-8" ?>
<!DOCTYPE svg PUBLIC "-//W3C//DTD SVG 1.1//EN" "http://www.w3.org/Graphics/SVG/1.1/DTD/svg11.dtd">
<svg width="73pt" height="109pt" viewBox="0 0 73 109" version="1.1" xmlns="http://www.w3.org/2000/svg">
<g id="#000000f9">
<path fill="#000000" opacity="0.98" d=" M 31.33 2.37 C 36.46 0.15 42.23 0.76 47.44 2.34 C 49.93 5.83 51.87 9.69 52.95 13.86 C 49.79 11.32 48.16 7.45 45.19 4.76 C 41.76 1.92 37.09 2.77 33.02 3.02 C 35.81 4.25 38.36 5.93 41.09 7.28 C 41.64 6.72 42.74 5.60 43.29 5.04 C 43.22 6.01 43.84 7.20 43.07 8.01 C 37.68 11.07 31.41 4.41 26.38 8.35 C 21.32 12.30 20.59 19.42 21.50 25.36 C 22.46 31.60 22.21 37.99 23.48 44.19 C 24.30 47.80 26.06 52.02 30.01 53.04 C 33.29 54.08 36.21 51.74 39.07 50.50 C 39.14 51.03 39.27 52.10 39.34 52.63 C 35.60 54.13 31.58 54.87 27.63 53.65 C 34.21 60.95 45.45 63.79 54.36 59.24 C 56.97 58.11 55.66 54.90 55.94 52.77 C 57.30 54.83 59.84 57.20 58.37 59.88 C 56.88 61.77 54.50 62.66 52.54 63.96 C 55.18 63.46 58.75 63.92 60.40 61.28 C 61.34 59.12 59.96 56.86 59.48 54.75 C 61.44 56.80 64.08 58.33 65.39 60.91 C 65.51 63.68 62.51 64.72 60.87 66.39 C 63.60 66.03 65.90 64.64 67.73 62.62 C 67.04 63.88 66.42 65.17 65.90 66.50 C 67.09 67.83 68.26 69.20 69.37 70.61 C 68.29 70.06 66.12 68.97 65.04 68.42 C 67.93 71.89 71.31 75.40 72.10 80.04 C 73.50 85.68 71.86 92.65 66.50 95.63 C 63.92 97.12 60.89 96.21 58.18 95.67 C 59.11 103.11 51.29 107.44 44.85 107.57 C 45.73 105.58 48.22 105.68 49.96 104.87 C 53.21 103.94 56.14 101.29 56.70 97.86 C 57.10 95.69 54.94 93.60 52.80 94.48 C 52.27 95.68 51.84 96.93 51.51 98.21 C 52.84 97.32 54.14 96.39 55.43 95.44 C 54.83 96.90 55.08 99.34 53.01 99.65 C 50.19 99.92 48.98 95.87 51.02 94.20 C 52.10 93.55 53.26 93.07 54.40 92.55 C 53.98 90.04 53.14 87.18 54.91 84.98 C 56.61 82.19 60.35 81.25 63.08 83.17 C 63.87 82.45 64.63 81.71 65.40 80.97 C 66.09 81.15 67.48 81.51 68.18 81.69 C 67.03 82.62 65.93 83.61 64.85 84.63 C 64.85 86.30 65.12 88.04 64.64 89.68 C 63.33 90.74 61.58 90.31 60.06 90.29 C 61.44 89.38 64.28 88.34 62.92 86.14 C 61.32 82.89 56.17 83.80 55.37 87.20 C 52.93 94.06 64.01 98.30 68.00 93.12 C 71.89 88.25 72.06 81.06 69.37 75.59 C 66.93 70.77 61.69 68.56 57.15 66.21 C 60.60 70.23 64.19 77.08 59.55 81.56 C 59.52 79.00 60.97 75.43 57.42 74.63 C 57.73 75.91 58.34 78.46 58.65 79.73 C 57.23 78.67 56.24 77.28 55.68 75.56 C 55.25 77.91 54.79 80.26 54.27 82.60 C 53.47 80.27 52.38 77.73 53.35 75.27 C 54.91 73.24 57.78 74.56 59.89 74.35 C 59.16 70.59 56.82 67.58 53.92 65.20 C 53.77 67.39 53.58 69.57 53.37 71.76 C 52.42 69.66 51.59 67.51 50.42 65.53 C 49.01 63.85 46.64 63.53 44.73 62.71 C 46.34 64.27 48.20 65.61 49.57 67.42 C 50.74 69.71 50.54 72.40 50.79 74.89 C 48.68 72.56 47.85 69.45 46.05 66.93 C 43.44 64.02 39.66 62.61 36.16 61.07 L 35.79 61.87 C 38.93 63.18 42.08 64.66 44.31 67.36 C 40.03 66.38 35.04 65.43 32.38 61.53 C 28.47 55.01 21.71 49.95 20.98 41.87 C 19.89 43.19 18.87 44.59 17.59 45.74 C 13.40 49.39 5.54 47.78 3.85 42.23 C 2.59 39.27 3.85 36.14 5.38 33.56 C 5.93 31.61 6.41 29.65 6.85 27.68 C 4.87 28.99 3.13 30.61 1.66 32.47 C 1.03 29.20 1.64 24.38 6.08 24.81 C 8.01 24.81 8.54 26.97 9.19 28.34 C 9.00 26.55 8.80 24.76 8.54 22.98 L 9.66 22.97 C 9.63 23.47 9.58 24.47 9.55 24.96 C 12.84 25.03 14.57 27.68 15.30 30.58 C 13.37 29.65 12.06 27.97 11.03 26.15 C 11.04 29.17 8.98 31.11 6.49 32.40 C 8.86 32.44 11.73 31.41 13.78 33.12 C 16.18 34.89 16.72 39.26 13.93 40.93 C 12.51 41.90 10.72 41.25 9.51 40.28 C 9.34 38.87 10.46 37.80 11.04 36.63 C 11.20 37.67 11.51 39.75 11.67 40.79 C 14.06 40.11 15.44 37.49 14.00 35.29 C 11.60 31.82 5.37 33.87 5.08 37.99 C 4.32 41.68 6.99 45.98 10.99 45.91 C 16.55 45.93 20.29 40.04 20.18 34.93 C 19.64 30.79 16.56 27.65 14.48 24.23 C 17.85 26.09 19.58 29.52 21.38 32.72 C 20.90 27.86 20.78 22.47 17.62 18.46 C 16.33 16.47 14.22 14.60 14.46 12.02 C 14.61 9.21 17.04 7.34 18.66 5.32 C 17.45 9.77 17.35 14.55 19.76 18.63 C 19.87 15.44 19.38 12.24 19.76 9.06 C 20.11 6.13 22.72 4.39 24.71 2.55 C 23.19 5.10 21.89 7.79 21.26 10.71 C 24.33 7.63 27.09 3.91 31.33 2.37 Z" />
<path fill="#000000" opacity="0.98" d=" M 47.67 2.25 C 50.68 2.51 53.92 2.67 56.38 4.64 C 58.61 6.38 61.27 7.32 64.00 7.95 C 61.01 9.19 57.89 8.27 55.08 7.02 C 57.04 10.27 58.65 13.76 61.19 16.62 C 61.29 14.51 60.01 11.71 62.00 10.07 C 63.73 9.49 63.68 11.87 63.73 12.90 C 63.78 14.42 63.72 15.94 63.67 17.46 C 63.09 17.53 61.94 17.69 61.37 17.76 C 59.88 16.31 58.41 14.85 56.85 13.48 C 57.59 16.07 59.17 18.20 61.17 19.92 C 60.64 20.72 60.07 21.50 59.48 22.26 L 62.49 21.89 C 60.51 24.30 58.78 26.88 57.24 29.58 C 55.28 27.12 55.87 23.10 59.55 22.68 C 58.40 22.20 57.23 21.79 56.05 21.40 C 55.86 19.71 55.23 17.62 57.51 17.07 C 55.32 15.32 54.49 12.68 53.79 10.09 C 52.93 6.72 49.88 4.69 47.67 2.25 Z" />
<path fill="#000000" opacity="0.98" d=" M 66.39 12.59 C 68.18 10.98 71.12 14.69 69.21 16.09 C 68.11 17.19 66.60 19.61 64.83 18.29 C 64.77 16.37 64.74 13.90 66.39 12.59 Z" />
<path fill="#000000" opacity="0.98" d=" M 10.61 14.38 C 10.95 14.35 11.63 14.30 11.97 14.28 C 12.54 16.67 12.69 19.12 12.47 21.57 C 13.09 20.66 14.32 18.83 14.93 17.92 C 16.20 20.71 13.80 22.75 13.22 25.32 C 12.29 24.30 11.34 23.30 10.38 22.31 C 9.70 22.34 8.34 22.38 7.66 22.41 C 7.15 19.12 10.87 17.46 10.61 14.38 Z" />
<path fill="#000000" opacity="0.98" d=" M 3.03 21.07 C 3.22 17.98 5.81 15.84 8.16 14.19 C 7.19 17.32 5.31 20.61 7.28 23.79 L 6.80 24.02 C 4.99 24.26 3.02 23.03 3.03 21.07 Z" />
<path fill="#000000" opacity="0.98" d=" M 66.30 19.79 C 68.07 19.20 69.74 17.18 71.70 18.35 C 72.87 20.30 72.63 22.67 72.75 24.85 C 70.43 24.23 68.46 22.88 66.50 21.56 C 65.27 21.70 64.07 22.14 62.86 22.37 C 62.78 21.40 62.63 19.45 62.56 18.48 C 63.80 18.94 65.02 19.46 66.30 19.79 Z" />
<path fill="#000000" opacity="0.98" d=" M 59.03 30.02 C 59.70 26.96 61.90 24.59 64.06 22.46 C 65.57 27.09 66.86 31.98 66.29 36.89 C 65.91 40.50 63.67 43.91 60.42 45.56 C 58.16 46.63 55.66 45.49 53.38 45.12 C 53.93 44.65 54.48 44.18 55.03 43.73 C 57.61 45.75 61.13 44.19 62.79 41.78 C 64.96 38.92 65.11 35.21 65.31 31.77 C 64.70 32.26 63.47 33.25 62.86 33.75 C 61.28 32.88 58.48 32.46 59.03 30.02 Z" />
<path fill="#000000" opacity="0.98" d=" M 65.42 21.80 C 68.18 23.34 70.75 25.74 71.29 29.00 C 71.93 30.97 69.61 32.11 68.72 33.48 C 66.61 29.97 65.01 25.98 65.42 21.80 Z" />
<path fill="#000000" opacity="0.98" d=" M 52.65 37.66 C 54.01 35.42 57.67 34.34 59.40 36.79 C 61.44 39.11 58.41 43.36 55.70 41.07 C 55.79 39.18 57.93 38.87 59.11 37.85 C 57.67 37.70 55.73 36.12 54.48 37.52 C 52.72 39.14 53.44 41.94 52.02 43.79 C 52.13 41.81 51.27 39.41 52.65 37.66 Z" />
<path fill="#000000" opacity="0.98" d=" M 26.98 40.16 C 30.27 37.35 33.66 41.24 35.91 43.45 C 38.25 43.08 40.33 44.23 41.70 46.08 C 41.25 47.35 40.69 48.57 40.15 49.81 C 34.41 50.18 27.06 48.07 25.51 41.78 C 29.04 43.68 32.47 45.79 35.64 48.26 C 35.99 47.62 36.33 46.97 36.65 46.32 C 33.30 44.54 29.37 43.28 26.98 40.16 Z" />
<path fill="#000000" opacity="0.98" d=" M 42.66 47.68 C 45.25 45.21 49.27 44.83 51.95 47.36 C 47.90 47.84 44.42 49.97 40.77 51.60 C 38.93 49.98 41.82 48.80 42.66 47.68 Z" />
<path fill="#000000" opacity="0.98" d=" M 41.74 51.50 C 44.70 50.51 47.88 49.33 51.04 50.05 C 53.10 50.46 54.08 52.49 55.29 53.97 C 50.56 55.45 46.24 52.44 41.74 51.50 Z" />
<path fill="#000000" opacity="0.98" d=" M 40.88 55.86 C 41.05 54.53 41.21 53.19 41.37 51.86 C 45.98 53.20 50.09 56.32 55.09 56.09 C 51.38 58.23 46.43 58.62 42.96 55.78 C 42.50 56.16 42.05 56.55 41.61 56.94 L 43.87 58.25 C 40.82 58.30 38.41 56.45 38.50 53.26 C 39.09 53.91 40.28 55.21 40.88 55.86 Z" />
<path fill="#000000" opacity="0.98" d=" M 17.27 66.02 C 18.50 63.81 18.54 58.58 22.19 59.91 C 23.29 62.49 20.14 64.67 18.88 66.78 C 20.52 65.86 22.18 64.97 23.89 64.18 C 22.72 66.02 21.09 67.46 19.30 68.69 C 19.91 69.41 20.52 70.14 21.13 70.87 C 20.04 71.33 18.91 71.67 17.75 71.89 C 17.71 70.16 17.69 68.43 17.73 66.70 C 16.33 69.35 12.09 70.50 12.75 74.02 C 13.52 78.22 15.75 81.98 16.72 86.14 C 17.95 91.23 19.86 96.56 24.12 99.91 C 27.06 102.40 31.14 101.27 34.64 101.38 C 32.75 102.32 30.86 103.22 28.97 104.15 C 32.52 103.62 35.90 102.42 39.17 100.98 C 36.85 102.71 34.51 104.42 32.18 106.15 C 34.12 106.19 36.07 106.37 38.00 106.12 C 39.78 104.20 41.20 101.99 42.96 100.05 C 41.93 102.47 40.78 104.85 39.69 107.25 C 41.96 105.72 43.70 103.55 45.97 102.03 C 46.79 102.24 48.45 102.65 49.28 102.86 C 47.61 103.40 45.96 103.96 44.30 104.52 C 44.22 105.82 44.15 107.12 44.07 108.43 C 38.36 108.21 32.74 107.26 27.45 105.05 C 29.20 106.58 31.07 108.02 33.20 109.00 L 29.11 109.00 C 24.42 108.13 22.28 103.86 21.04 99.72 C 18.13 101.28 17.55 104.13 18.03 107.21 C 16.42 105.40 13.54 103.84 14.03 100.99 C 13.96 98.32 16.86 97.31 18.52 95.83 C 16.65 95.91 14.30 95.12 12.85 96.72 C 10.46 99.09 12.56 102.46 12.85 105.25 C 10.58 102.62 7.44 99.08 9.37 95.41 C 10.63 92.94 13.55 93.18 15.88 93.30 C 13.38 89.90 11.97 85.91 10.07 82.18 C 11.89 83.35 13.72 84.52 15.58 85.63 C 13.93 82.87 12.46 79.22 8.94 78.48 C 7.04 78.02 5.47 79.45 3.89 80.22 C 3.41 79.76 2.94 79.31 2.47 78.85 C 5.76 77.11 9.59 76.46 12.94 78.49 C 12.67 77.43 12.14 75.31 11.87 74.26 C 10.78 74.52 9.70 74.79 8.61 75.05 C 8.03 73.59 7.44 72.15 6.85 70.69 C 8.16 71.79 9.48 72.89 10.80 73.98 C 11.55 71.37 13.23 69.28 15.46 67.78 C 14.40 65.39 14.31 63.01 16.54 61.26 C 16.72 62.45 17.09 64.83 17.27 66.02 Z" />
<path fill="#000000" opacity="0.98" d=" M 12.52 65.85 C 13.94 65.45 14.46 65.96 14.11 67.36 C 12.71 67.74 12.18 67.24 12.52 65.85 Z" />
<path fill="#000000" opacity="0.98" d=" M 69.37 70.61 C 70.52 69.46 71.78 68.43 73.00 67.36 L 73.00 70.42 C 71.94 71.16 70.48 71.31 69.37 70.61 Z" />
<path fill="#000000" opacity="0.98" d=" M 65.08 74.17 C 66.69 73.61 67.26 74.16 66.77 75.79 C 65.17 76.35 64.60 75.81 65.08 74.17 Z" />
<path fill="#000000" opacity="0.98" d=" M 66.00 77.33 C 67.39 76.25 69.32 78.60 67.70 79.59 C 66.28 80.71 64.39 78.35 66.00 77.33 Z" />
<path fill="#000000" opacity="0.98" d=" M 1.48 81.16 C 1.94 80.99 2.88 80.65 3.34 80.48 C 0.09 84.08 0.91 90.94 6.03 92.22 C 8.62 93.11 9.64 90.24 10.57 88.48 C 8.99 88.66 6.42 90.64 6.01 87.96 C 5.08 86.52 7.27 84.76 8.69 85.24 C 12.67 86.98 11.57 94.42 6.94 94.35 C 3.22 94.61 1.25 91.00 0.00 88.10 L 0.00 84.37 C 0.37 83.57 1.11 81.96 1.48 81.16 Z" />
</g>
</svg>
