<?xml version="1.0" encoding="UTF-8" ?>
<!DOCTYPE svg PUBLIC "-//W3C//DTD SVG 1.1//EN" "http://www.w3.org/Graphics/SVG/1.1/DTD/svg11.dtd">
<svg width="77pt" height="106pt" viewBox="0 0 77 106" version="1.1" xmlns="http://www.w3.org/2000/svg">
<g id="#000000f8">
<path fill="#000000" opacity="0.97" d=" M 31.57 4.17 C 30.02 6.58 28.05 2.06 30.00 1.07 C 30.85 1.70 31.40 3.09 31.57 4.17 Z" />
<path fill="#000000" opacity="0.97" d=" M 41.44 3.08 C 42.18 -1.14 46.80 2.58 48.88 3.63 C 48.97 3.07 49.16 1.95 49.26 1.39 C 51.55 1.84 54.26 1.45 56.21 2.94 C 57.30 4.55 57.86 6.45 58.68 8.20 C 58.85 6.98 59.20 4.53 59.38 3.30 C 61.03 4.33 62.67 5.39 64.28 6.49 C 62.75 7.75 61.22 9.01 59.69 10.27 C 61.81 9.62 63.84 8.66 66.02 8.23 C 68.53 9.54 69.92 12.16 71.53 14.35 C 68.85 13.15 66.15 11.92 63.29 11.20 C 64.66 13.69 68.51 14.38 70.69 16.42 C 71.32 16.85 72.33 18.78 70.76 18.58 C 66.74 18.04 63.92 14.49 60.80 12.16 C 59.78 12.18 57.74 12.20 56.71 12.22 C 58.79 17.27 65.02 17.82 68.07 21.99 C 69.61 24.08 70.33 26.62 71.20 29.04 C 71.59 24.88 72.55 20.81 73.75 16.81 C 75.24 20.34 76.70 24.13 76.09 28.03 C 75.42 33.42 71.61 37.62 69.43 42.41 C 71.06 40.85 72.65 39.24 74.25 37.65 C 72.49 41.06 71.21 44.76 68.88 47.84 C 66.66 50.72 63.02 51.76 59.66 52.59 C 63.27 49.90 67.16 47.41 69.58 43.47 C 65.09 47.14 60.47 50.77 54.97 52.82 C 57.22 53.69 59.55 54.55 62.02 54.31 C 64.20 54.06 65.66 55.99 67.20 57.19 C 67.56 56.82 67.91 56.45 68.27 56.08 C 67.58 55.27 66.19 53.65 65.50 52.85 C 67.24 53.51 68.99 54.19 70.70 54.94 C 70.70 54.77 70.70 54.41 70.70 54.23 C 69.11 53.57 67.93 52.36 66.99 50.96 C 70.20 48.48 72.41 45.06 74.86 41.89 C 73.84 45.25 72.61 48.81 69.37 50.70 C 71.92 50.93 74.52 50.20 77.00 51.11 L 77.00 52.68 C 74.50 53.99 73.44 57.08 70.73 57.86 C 71.21 58.98 72.16 61.22 72.64 62.35 C 71.70 61.08 70.84 59.77 70.04 58.42 C 69.25 58.09 68.46 57.78 67.67 57.46 C 70.56 60.37 70.46 64.47 69.92 68.23 C 69.01 62.57 65.82 57.55 60.85 54.59 C 65.59 59.10 68.89 66.07 66.30 72.53 C 64.16 76.44 61.70 80.32 58.24 83.19 C 54.92 85.82 53.14 89.78 50.24 92.80 C 50.18 90.00 50.92 87.29 52.57 85.01 C 48.16 86.47 42.28 87.01 40.37 92.00 C 40.36 95.46 45.99 96.03 47.20 92.98 C 47.34 91.63 46.57 90.69 45.40 90.18 C 45.39 91.41 45.48 92.63 45.69 93.85 C 43.74 93.10 42.78 91.36 43.70 89.39 C 45.24 89.22 46.77 89.49 48.26 89.86 C 47.60 91.54 48.18 94.18 46.20 95.05 C 44.09 96.12 40.64 96.07 39.67 93.49 C 38.80 91.05 41.58 89.06 42.11 86.91 C 41.04 87.67 38.90 89.19 37.83 89.95 C 36.31 93.36 37.41 97.77 34.66 100.65 C 32.07 103.14 27.96 104.72 24.48 103.30 C 22.42 102.61 22.46 100.21 21.90 98.49 C 23.15 100.63 24.79 102.49 26.92 103.79 C 29.28 102.56 31.50 101.11 33.51 99.37 C 31.56 99.96 29.61 100.57 27.67 101.20 C 29.45 99.17 31.66 97.61 34.10 96.48 C 32.00 96.67 29.82 96.64 28.37 94.88 C 30.19 94.55 32.04 94.35 33.83 93.88 C 35.85 91.74 35.94 88.27 38.37 86.44 C 40.68 84.89 43.49 84.43 46.12 83.68 C 45.53 83.26 44.33 82.41 43.73 81.98 C 44.74 79.76 45.75 77.55 46.71 75.31 C 47.40 77.98 46.53 82.91 50.37 83.41 C 54.11 83.43 57.38 81.48 60.39 79.48 C 57.31 79.30 53.57 79.83 51.65 76.75 C 51.42 77.18 51.20 77.61 50.97 78.04 C 51.31 79.28 51.59 80.54 51.81 81.81 C 51.56 81.87 51.06 81.99 50.81 82.05 C 47.53 79.98 46.99 75.65 47.39 72.12 L 49.14 76.48 C 49.47 75.95 49.81 75.41 50.14 74.88 C 49.39 72.43 49.02 69.67 50.41 67.37 C 52.33 63.31 59.05 62.33 61.51 66.34 C 63.58 69.02 60.57 73.08 57.47 72.38 C 55.62 71.93 56.26 69.57 55.71 68.26 C 56.90 69.53 58.05 70.83 59.21 72.13 C 59.49 70.25 61.03 68.03 59.57 66.28 C 57.98 64.48 55.24 65.08 53.43 66.18 C 49.29 68.97 49.64 76.83 55.01 77.95 C 60.90 79.41 64.75 73.08 65.15 68.02 C 65.99 63.56 63.05 59.88 60.66 56.48 C 60.69 59.38 59.49 61.77 56.81 63.04 C 57.30 61.36 58.44 59.79 58.39 57.99 C 57.84 55.19 54.86 54.20 52.73 52.85 C 54.33 55.15 57.62 57.66 55.82 60.76 C 54.95 63.03 52.37 62.23 50.54 62.11 C 51.56 61.84 53.61 61.29 54.64 61.02 C 53.50 59.39 52.65 57.24 50.62 56.54 C 46.31 54.89 41.63 56.27 37.42 57.55 C 41.45 57.35 45.47 56.81 49.51 56.98 C 43.55 58.80 37.48 63.03 31.05 60.92 C 27.72 59.90 24.23 59.75 20.77 59.75 C 20.01 58.00 19.26 56.26 18.52 54.51 C 22.42 56.67 26.42 59.48 31.12 58.26 C 26.40 57.37 22.57 53.78 17.59 54.04 C 18.42 53.68 20.09 52.96 20.92 52.60 C 19.54 51.66 17.16 51.40 16.77 49.44 C 16.04 47.05 18.43 44.95 20.72 45.10 C 21.23 46.15 21.53 47.28 21.81 48.41 C 21.19 47.66 19.93 46.16 19.31 45.41 C 18.03 46.79 16.84 49.01 19.16 50.08 C 20.98 51.65 22.68 49.80 23.83 48.44 C 24.29 48.25 25.22 47.88 25.68 47.69 C 24.78 49.02 23.84 50.33 22.87 51.62 C 25.69 52.33 28.02 54.05 30.47 55.50 C 33.48 57.30 36.99 55.73 40.10 55.08 C 45.04 53.76 50.49 53.48 54.85 50.62 C 56.82 47.18 54.25 43.07 54.64 39.29 C 56.46 42.78 58.24 46.29 59.88 49.87 C 60.18 48.30 60.63 46.73 60.58 45.11 C 59.80 43.54 58.22 42.55 57.08 41.27 C 58.56 41.34 60.12 41.05 61.55 41.55 C 63.42 43.26 62.33 46.09 62.75 48.27 C 63.30 45.94 64.67 43.17 62.99 40.98 C 60.91 38.32 57.50 37.28 55.07 35.02 C 52.61 32.40 52.97 27.86 55.41 25.34 C 58.78 22.06 66.10 24.87 65.05 29.96 C 64.45 33.55 59.00 34.54 57.64 30.91 C 58.10 28.53 60.37 28.17 62.36 28.55 C 61.61 29.19 60.10 30.46 59.35 31.09 C 61.76 35.02 65.44 29.50 63.37 26.88 C 60.98 22.90 54.42 25.63 54.68 30.03 C 53.92 34.59 59.00 36.17 62.01 38.13 C 64.38 39.19 65.10 41.77 66.03 43.97 C 70.94 38.59 71.50 29.83 66.78 24.18 C 63.20 21.01 57.46 24.20 53.84 21.01 C 51.22 18.70 52.13 14.92 52.07 11.85 C 52.80 13.47 53.35 15.19 54.35 16.67 C 56.39 18.33 59.28 18.37 61.61 19.40 C 59.19 17.51 56.65 15.65 55.14 12.90 C 55.61 12.51 56.55 11.72 57.02 11.33 C 57.62 10.68 58.82 9.37 59.43 8.72 C 56.13 8.10 53.67 5.70 51.12 3.73 C 50.61 4.09 50.10 4.45 49.59 4.81 C 52.53 5.90 55.10 7.80 56.71 10.52 C 51.18 9.17 46.04 6.36 41.44 3.08 Z" />
<path fill="#000000" opacity="0.97" d=" M 25.54 1.70 C 26.85 3.36 27.73 5.26 27.45 7.43 C 28.45 7.39 30.43 7.31 31.43 7.27 C 28.26 8.41 24.88 8.55 21.55 8.64 C 22.32 10.01 23.05 11.42 24.01 12.66 C 25.13 12.33 26.23 11.96 27.32 11.55 C 26.35 12.51 25.62 14.29 23.97 14.00 C 20.16 13.96 18.81 8.91 14.98 8.92 C 11.47 9.21 10.01 12.84 8.01 15.20 C 8.60 12.72 9.65 10.19 11.97 8.85 C 15.12 6.51 21.07 8.75 21.96 3.75 C 22.54 4.91 23.13 6.06 23.72 7.22 C 24.45 5.42 25.03 3.57 25.54 1.70 Z" />
<path fill="#000000" opacity="0.97" d=" M 16.33 18.53 C 15.00 16.68 14.49 14.50 15.24 12.30 C 16.77 14.71 19.22 16.47 20.47 19.03 C 21.44 21.70 18.79 23.40 16.82 24.46 C 16.80 22.48 17.68 20.26 16.33 18.53 Z" />
<path fill="#000000" opacity="0.97" d=" M 11.35 13.27 C 12.79 14.93 14.41 16.50 15.48 18.44 C 16.54 20.03 15.29 21.75 14.82 23.30 C 13.28 21.88 11.18 20.88 10.20 18.96 C 10.30 17.02 10.94 15.15 11.35 13.27 Z" />
<path fill="#000000" opacity="0.97" d=" M 7.03 23.84 C 5.61 21.79 7.00 19.60 8.01 17.75 C 8.72 20.56 11.15 22.07 13.45 23.49 C 11.80 25.19 8.51 26.39 7.03 23.84 Z" />
<path fill="#000000" opacity="0.97" d=" M 22.10 17.64 C 23.23 20.13 24.01 23.10 22.64 25.67 C 21.56 27.43 19.28 26.78 17.60 26.95 C 18.25 23.33 22.59 21.72 22.10 17.64 Z" />
<path fill="#000000" opacity="0.97" d=" M 3.40 24.45 C 5.33 23.76 7.04 25.72 7.51 27.41 C 7.66 29.15 7.13 30.85 6.84 32.55 C 8.69 30.11 10.98 28.01 13.75 26.66 C 13.82 25.83 13.96 24.19 14.03 23.37 C 15.21 23.70 16.19 24.30 16.98 25.17 C 16.86 26.53 15.57 26.88 14.49 27.29 C 12.38 29.56 10.03 31.58 8.05 33.96 C 5.89 36.49 5.44 39.88 4.62 42.98 C 5.11 42.93 6.08 42.82 6.56 42.77 C 6.58 43.66 6.61 45.43 6.63 46.32 C 7.68 42.01 10.81 38.84 14.81 37.08 C 13.93 41.52 8.25 43.24 8.58 48.06 C 8.46 50.29 10.11 51.97 11.34 53.63 C 11.04 50.59 9.76 47.28 11.26 44.35 C 13.09 41.18 17.14 39.49 20.68 40.31 C 22.88 40.90 24.13 42.96 25.53 44.57 C 25.02 45.28 24.51 45.99 23.99 46.69 C 24.91 42.66 20.19 40.95 17.07 41.70 C 12.26 42.33 10.69 48.49 12.63 52.35 C 14.05 55.86 17.88 57.22 20.48 59.63 C 12.57 58.31 5.98 51.88 4.30 44.08 C 3.56 39.57 0.09 35.76 0.60 31.04 C 0.99 28.72 1.38 25.94 3.40 24.45 M 4.06 25.04 C 2.34 25.54 2.31 27.40 2.30 28.85 C 3.07 28.31 4.63 27.23 5.40 26.70 C 5.49 29.14 3.46 29.35 1.54 29.50 C 2.54 30.85 3.53 32.21 4.54 33.56 C 5.44 30.99 8.10 25.94 4.06 25.04 Z" />
<path fill="#000000" opacity="0.97" d=" M 16.70 27.26 C 18.94 27.44 21.19 27.58 23.44 27.62 C 23.53 29.30 23.66 30.99 23.54 32.67 C 20.28 33.98 17.62 29.93 16.70 27.26 Z" />
<path fill="#000000" opacity="0.97" d=" M 5.51 40.55 C 7.73 36.31 12.36 34.43 15.43 30.95 C 14.94 32.59 15.06 34.53 13.97 35.95 C 11.79 38.40 8.11 39.32 6.84 42.59 C 6.39 41.91 5.95 41.23 5.51 40.55 Z" />
<path fill="#000000" opacity="0.97" d=" M 64.76 35.85 C 65.36 34.37 65.36 30.95 67.85 32.28 C 69.40 35.21 68.45 38.79 67.00 41.56 C 66.42 39.74 65.90 37.92 65.40 36.08 C 63.16 38.12 61.02 36.25 59.96 34.11 C 61.74 34.07 63.19 35.22 64.76 35.85 Z" />
<path fill="#000000" opacity="0.97" d=" M 15.91 35.08 C 18.22 34.67 20.24 36.27 22.41 36.70 C 21.20 38.99 19.14 37.73 17.59 36.59 L 17.16 38.44 C 16.54 37.39 16.13 36.27 15.91 35.08 Z" />
<path fill="#000000" opacity="0.97" d=" M 23.24 38.28 C 23.60 38.61 23.60 38.61 23.24 38.28 Z" />
<path fill="#000000" opacity="0.97" d=" M 27.11 45.52 C 30.01 49.81 33.53 53.94 38.89 55.02 C 35.28 55.07 30.76 55.98 28.05 52.87 C 26.05 50.92 27.04 47.96 27.11 45.52 Z" />
<path fill="#000000" opacity="0.97" d=" M 72.88 49.30 C 72.30 47.95 74.51 46.54 75.58 47.47 C 76.24 48.86 73.95 50.17 72.88 49.30 Z" />
<path fill="#000000" opacity="0.97" d=" M 23.33 97.07 C 25.19 97.06 29.42 97.73 27.43 100.39 C 26.43 103.07 22.45 97.71 27.23 98.98 C 26.26 98.51 24.31 97.55 23.33 97.07 Z" />
<path fill="#000000" opacity="0.97" d=" M 16.55 105.31 C 17.42 103.15 20.86 100.08 22.37 103.37 C 20.39 103.91 18.50 104.70 16.55 105.31 Z" />
<path fill="#000000" opacity="0.97" d=" M 14.20 104.23 C 17.09 102.56 14.51 107.55 14.20 104.23 Z" />
</g>
</svg>
