<?xml version="1.0" encoding="UTF-8" standalone="no"?>
<!-- Created with Inkscape (http://www.inkscape.org/) -->

<svg
   xmlns:dc="http://purl.org/dc/elements/1.1/"
   xmlns:cc="http://creativecommons.org/ns#"
   xmlns:rdf="http://www.w3.org/1999/02/22-rdf-syntax-ns#"
   xmlns:svg="http://www.w3.org/2000/svg"
   xmlns="http://www.w3.org/2000/svg"
   version="1.1"
   width="66.239998"
   height="100"
   id="svg3444">
  <defs
     id="defs3446" />
  <metadata
     id="metadata3449">
    <rdf:RDF>
      <cc:Work
         rdf:about="">
        <dc:format>image/svg+xml</dc:format>
        <dc:type
           rdf:resource="http://purl.org/dc/dcmitype/StillImage" />
        <dc:title></dc:title>
      </cc:Work>
    </rdf:RDF>
  </metadata>
  <g
     transform="translate(0,-952.36218)"
     id="layer1">
    <g
       transform="matrix(0.77372503,0,0,0.77372503,-88.558374,743.08503)"
       id="g3140">
      <path
         d="m 140.71,281.73 c 6.95,-4.31 13.26,-10.95 21.92,-11.25 5.27,1.92 11.03,2.85 15.65,6.25 5.92,3.34 9.99,9.04 13.22,14.88 2.96,5.34 3.56,11.51 4.96,17.36 0.95,4 1.82,8.02 2.38,12.1 0.8,5.45 -0.1,10.98 0.71,16.43 1.1,7.1 0.16,14.26 -0.24,21.37 -0.29,5.99 -3.03,11.49 -5.73,16.72 -3.3,4.58 -6.58,9.53 -11.65,12.34 -8.44,4.73 -17.24,9.05 -26.7,11.27 -7.08,1.2 -14.33,0.24 -21.15,-1.84 -6.28,-1.48 -12.17,-5.56 -14.72,-11.62 -3.76,-10.52 -2.98,-21.81 -3.9,-32.76 -0.12,-11.07 -2.27,-22.27 0.12,-33.24 1.04,-6.17 1.72,-12.66 5.08,-18.11 4.9,-8.19 11.99,-14.87 20.05,-19.9 m 17.13,-5.99 c -3.19,2.68 -6.72,4.91 -9.97,7.51 5.64,-2.47 11.38,-5.53 15.29,-10.43 -1.95,0.62 -3.77,1.58 -5.32,2.92 m -4.31,7.61 c 4.81,-1.63 8.42,-6.14 13.29,-7.18 0.01,0.24 0.03,0.71 0.04,0.95 -3.07,2.56 -6.92,4.17 -9.35,7.46 4.5,-2.45 8.3,-5.96 12.62,-8.7 -1.66,-0.58 -3.31,-1.22 -5.01,-1.63 -3.81,3.09 -7.83,5.94 -11.59,9.1 m 7.41,2.47 c 4.72,-2.41 9.07,-5.57 13.04,-9.08 -5.06,1.74 -9.52,5.1 -13.04,9.08 m 2.97,1.52 c 5.42,-1.29 9.86,-5.07 14.05,-8.55 -5.68,0.5 -9.94,5.02 -14.05,8.55 m 4.41,1.14 c 0.33,0.51 0.99,1.54 1.32,2.05 3.9,-2.97 8.1,-5.49 12.4,-7.84 -0.96,-0.53 -1.95,-0.99 -2.97,-1.36 -3.92,1.78 -7.53,4.29 -10.75,7.15 m 2.93,3.22 c 0.97,0.32 1.99,1.27 3.01,0.51 3.5,-1.6 7.01,-3.55 10.96,-3.62 -3.18,2.86 -7.54,3.77 -10.9,6.37 0.38,1.07 0.8,2.12 1.26,3.17 3.95,-2.53 7.96,-4.95 12.02,-7.29 -1.56,-2.18 -3.12,-4.36 -4.64,-6.55 -3.99,2.34 -7.85,4.87 -11.71,7.41 m -35.38,-2.96 c -9.5,6.28 -16.98,16.69 -17.53,28.34 -2.13,9.15 -1.75,18.6 -0.87,27.89 0.31,7.99 1.01,15.96 1.18,23.96 0.56,7.44 1.75,15.7 7.26,21.21 7.79,5.39 17.7,7.06 27.02,6.34 8.65,-1.02 14.52,-8.19 21.76,-12.23 2.04,-3.93 3.54,-8.18 3.21,-12.67 -2.36,5.36 -4.28,11.54 -9.4,14.96 4.07,-6.53 7.16,-13.66 8.29,-21.32 0.45,0.4 1.35,1.2 1.8,1.59 0.37,-6.26 1.91,-12.9 -0.56,-18.92 0.29,-0.44 0.86,-1.34 1.14,-1.78 -0.43,-6.72 0.01,-13.48 -1.16,-20.14 -0.61,-7.05 0.46,-14.4 -2.57,-21.07 -2.08,-4.71 -3.11,-10.6 -7.93,-13.38 -5.07,-2.94 -10.45,-6.08 -16.52,-5.85 -5.1,0.23 -10.8,-0.12 -15.12,3.07 m 40.51,11.85 c 0.38,0.76 1.14,2.29 1.52,3.05 3.9,-2.68 8.1,-4.89 12.59,-6.41 -0.55,-1.58 -1.08,-3.15 -1.61,-4.72 -4.33,2.42 -8.73,4.81 -12.5,8.08 m 2.3,5.32 c 0.09,1.01 0.26,3.03 0.34,4.04 3.51,-3.39 7.03,-7.29 11.98,-8.46 -3.15,3.94 -7.6,6.52 -11.57,9.55 0.15,0.45 0.43,1.37 0.57,1.82 3.89,-2.95 8.19,-5.26 12.49,-7.54 -0.46,-2.12 -0.93,-4.24 -1.42,-6.35 -4.47,1.64 -8.69,3.92 -12.39,6.94 m 1.33,9.29 c 0.11,0.82 0.34,2.45 0.46,3.27 4.52,-3.31 8.66,-7.16 13.56,-9.95 -0.52,-0.12 -1.57,-0.37 -2.1,-0.5 -4.36,1.64 -7.97,4.78 -11.92,7.18 m 2.04,4.76 c -1.18,0.85 -1.81,2.17 -2.47,3.42 5.26,-2.48 9.57,-6.58 14.9,-8.92 -0.17,-1.27 -0.34,-2.53 -0.51,-3.79 -4.15,2.86 -8.05,6.06 -11.92,9.29 m -1.48,6.02 c 0.11,0.78 0.33,2.35 0.43,3.13 4.71,-3.19 9.87,-5.65 14.61,-8.78 -0.21,-1.71 -0.42,-3.41 -0.61,-5.11 -4.2,4.36 -9.82,6.9 -14.43,10.76 m 0.92,5.7 c -0.09,1.18 -0.18,2.36 -0.26,3.55 4.9,-3.07 10.01,-5.83 14.65,-9.3 0.02,-0.92 0.05,-2.76 0.07,-3.68 -4.91,3.01 -9.87,5.95 -14.46,9.43 m 14.32,-3.64 c -4.66,3.43 -9.55,6.52 -14.34,9.76 -0.09,2.66 -0.17,5.32 -0.22,7.98 4.65,-2.54 9.12,-5.4 13.89,-7.73 1.76,-0.75 0.99,-2.89 1.03,-4.33 -5.13,2.69 -9.78,6.17 -14.83,8.99 2.67,-5.91 9.48,-7.75 14.59,-10.94 -0.05,-1.25 -0.08,-2.49 -0.12,-3.73 m -0.17,10.86 c -4.31,3.64 -9.19,6.54 -14.16,9.18 0,0.95 -0.01,2.85 -0.01,3.81 4.88,-2.91 9.86,-5.7 15.28,-7.45 0.18,-1.83 0.36,-3.67 0.59,-5.48 -0.43,-0.01 -1.27,-0.04 -1.7,-0.06 m -14.88,18.01 c 5.58,-1.55 10.16,-5.46 15.85,-6.72 0.14,-1.28 0.29,-2.55 0.44,-3.82 -5.98,2.42 -12.74,4.71 -16.29,10.54 m 2.96,1.86 c -1.57,0.76 -2.34,2.3 -2.79,3.92 5.04,-2.62 10.26,-4.97 15.02,-8.07 0.3,-0.89 0.9,-2.66 1.2,-3.54 -4.49,2.52 -9.02,5.01 -13.43,7.69 m 9.48,-0.61 c 0.35,0.45 1.04,1.35 1.38,1.8 -4.42,3.82 -8.35,8.39 -13.71,10.94 0.01,0.53 0.04,1.57 0.05,2.09 5.05,-3.59 9.99,-7.32 14.92,-11.08 0.14,-1.71 0.28,-3.41 0.43,-5.11 -1.02,0.45 -2.05,0.9 -3.07,1.36 m -12.56,10.64 c 3.98,-2.57 7.62,-5.66 10.85,-9.13 -3.92,2.47 -10.06,3.79 -10.85,9.13 m 0.1,7.31 c 5.3,-2.82 11.11,-5.48 14.6,-10.6 -5.16,3.09 -9.9,6.86 -14.6,10.6 m -3.2,8.72 c 3.92,-1.56 7.73,-3.59 10.61,-6.72 -3.77,1.82 -7.31,4.13 -10.61,6.72 z"
         id="path35"
         style="opacity:0.86000001;fill:#020000" />
      <path
         d="m 142.38,310.38 c 0.98,-2.19 3.08,-4.11 5.57,-4.18 3.35,-0.08 6.46,1.41 9.46,2.71 3,9.73 3.35,20.01 3.3,30.11 0.41,7.98 1.08,16 0.42,23.98 -0.56,4.99 -3.5,9.83 -8.26,11.79 -3.85,1.34 -9.45,0.69 -10.92,-3.73 -2.82,-8.37 -3.64,-17.3 -3.33,-26.1 0.19,-6.71 -1.78,-13.41 -0.47,-20.08 0.83,-4.97 2.21,-9.88 4.23,-14.5 m 1.41,7.37 c 1.3,-0.81 2.57,-1.67 3.84,-2.53 l 0.78,1.26 c -2.5,2.41 -5.54,4.15 -8.05,6.56 4.92,-2.09 8.97,-5.65 13,-9.05 -0.69,-0.08 -2.08,-0.23 -2.77,-0.31 1.15,-1.31 2.32,-2.62 3.42,-3.98 -3.64,2.36 -7.16,4.96 -10.22,8.05 m 9.57,-3.76 c 0.97,0.93 2.79,-0.61 2.05,-1.72 -0.97,-0.95 -2.8,0.59 -2.05,1.72 m 3.08,-0.27 c -5.33,4.5 -11.1,8.47 -16.4,13.01 4.69,-2.32 8.78,-5.61 13.07,-8.55 1.46,-1.16 3.85,-2.18 3.33,-4.46 m 0.21,5.22 c -2.67,6.87 -0.44,14.35 -0.25,21.45 0.86,5.9 -0.02,12.29 2.66,17.78 1.21,-8.06 -0.31,-16.18 -0.38,-24.27 -0.52,-4.97 -0.22,-10.24 -2.03,-14.96 m -16.46,9.96 c 0.03,1.1 0.06,2.21 0.1,3.32 3.45,-2.22 6.77,-4.66 9.57,-7.67 0.52,0.44 1.03,0.9 1.53,1.36 -1.79,1.19 -3.42,2.62 -4.88,4.2 2.15,-1.06 4.23,-2.27 6.37,-3.37 0.19,-0.67 0.58,-2.02 0.77,-2.69 -0.59,0.04 -1.78,0.13 -2.37,0.17 0.69,-1.1 2.07,-3.31 2.76,-4.41 -4.79,2.76 -8.74,6.83 -13.85,9.09 m 0.71,7.96 c 0.22,-1.36 0.42,-2.72 0.6,-4.08 -1.48,3.59 -0.6,7.52 -0.33,11.25 3.34,-2.65 6.87,-5.05 10.28,-7.59 1.38,-0.86 1.9,-2.43 2.37,-3.88 -4.2,2.58 -7.87,6.06 -12.57,7.77 2.87,-5.44 11.19,-6.04 12.35,-12.66 -4.39,2.84 -8.56,6 -12.7,9.19 m 4.22,6.23 c -1.79,1.26 -3.83,2.42 -4.64,4.6 4.06,-2.31 8.15,-4.62 11.93,-7.38 1.38,-0.72 1.4,-2.41 1.91,-3.67 -3.28,1.83 -6.08,4.37 -9.2,6.45 m -3.89,6.47 c -0.06,0.61 -0.18,1.81 -0.24,2.41 3.32,-2.33 6.57,-4.75 9.99,-6.95 1.54,-1.02 3.28,-1.95 3.83,-3.91 -4.78,2.41 -8.88,5.9 -13.58,8.45 m 2.69,2.32 c -1.55,1.01 -2.57,2.58 -3.14,4.33 4.91,-2.15 8.63,-6.32 13.7,-8.14 -0.05,-1 -0.17,-3 -0.23,-4 -3.16,2.96 -6.81,5.3 -10.33,7.81 m -2.35,6 c 0.17,0.88 0.51,2.64 0.68,3.52 3.45,-3.01 7.01,-5.9 10.94,-8.27 1.93,-0.72 1.3,-3.05 1.68,-4.61 -4.18,3.47 -8.4,6.94 -13.3,9.36 m 0.36,6.82 c 4.95,-2.66 11.29,-4.83 13.6,-10.42 -5.52,1.93 -9.55,6.42 -13.6,10.42 m 1.06,3.42 c 3.48,-1.83 6.64,-4.2 9.96,-6.31 1.56,-0.92 2.69,-2.36 3.53,-3.94 -4.62,3.23 -9.8,5.88 -13.49,10.25 m 5.01,2.77 c 3.75,-2.39 7.31,-5.13 10.35,-8.39 -3.88,2.2 -7.41,5.03 -10.35,8.39 m -0.72,-3.46 c -1.2,0.31 -2.33,1.4 -2.46,2.67 0.95,2.01 4.34,-1.93 2.46,-2.67 z"
         id="path43"
         style="opacity:0.86000001;fill:#020000" />
      <path
         d="m 148.41,316.48 c -0.64,-1.42 0.74,-2.9 2.18,-2.8 0.21,1.34 -0.89,2.58 -2.18,2.8 z"
         id="path45"
         style="opacity:0.86000001;fill:#020000" />
    </g>
  </g>
</svg>
