<?xml version="1.0" encoding="UTF-8" standalone="no"?>
<!-- Created with Inkscape (http://www.inkscape.org/) -->

<svg
   xmlns:dc="http://purl.org/dc/elements/1.1/"
   xmlns:cc="http://creativecommons.org/ns#"
   xmlns:rdf="http://www.w3.org/1999/02/22-rdf-syntax-ns#"
   xmlns:svg="http://www.w3.org/2000/svg"
   xmlns="http://www.w3.org/2000/svg"
   version="1.1"
   width="50.049999"
   height="100"
   id="svg3157">
  <defs
     id="defs3159" />
  <metadata
     id="metadata3162">
    <rdf:RDF>
      <cc:Work
         rdf:about="">
        <dc:format>image/svg+xml</dc:format>
        <dc:type
           rdf:resource="http://purl.org/dc/dcmitype/StillImage" />
        <dc:title></dc:title>
      </cc:Work>
    </rdf:RDF>
  </metadata>
  <g
     transform="translate(0,-952.36218)"
     id="layer1">
    <g
       transform="matrix(0.77633724,0,0,0.77633724,-1.397959,950.79398)"
       id="g3105">
      <path
         d="m 28.71,10.93 c 4.51,-2.02 7.75,-5.78 11.44,-8.91 6.28,0.74 12.59,-0.2 18.87,0.44 2.45,-0.04 3.96,2.13 5.67,3.54 -0.38,10 0.56,20 0.11,30 -0.65,19.3 0,38.61 0.93,57.89 -0.04,6.7 0.84,13.39 0.42,20.08 -1.05,2.87 -4.35,3.84 -6.46,5.78 -3.85,3.57 -9,6.02 -11.17,11.08 -5.85,-0.23 -11.7,-0.75 -17.56,-0.55 -4.34,0.06 -8.78,0.77 -13.01,-0.57 0.46,-0.65 1.38,-1.95 1.84,-2.6 C 18.72,116.59 19.12,105.99 20.7,95.54 20.92,81.42 21.8,67.31 21.64,53.18 15.23,51.78 8.71,53.12 2.26,52.67 1.28,49.9 2.17,46.87 2.19,44 2.72,39.19 2.5,34.32 3.33,29.54 3.9,26.5 6.63,24.68 8.69,22.66 c 3.12,-2.8 5.6,-6.5 9.47,-8.35 3.96,0.55 7.43,-1.13 10.55,-3.38 m 2.61,2.58 c 4.92,-0.12 6.95,-4.97 9.78,-8.16 -3.46,2.48 -6.68,5.26 -9.78,8.16 M 43.85,5.67 C 41.7,8.13 39.6,10.64 37.81,13.39 41.49,11.27 44.66,8.42 47.95,5.77 46.58,5.73 45.21,5.7 43.85,5.67 m -1.26,7.8 c 4.74,-0.64 7.16,-5.28 10.19,-8.43 -3.93,2.09 -7.11,5.27 -10.19,8.43 m 7.17,-1.56 c 2.75,-1.86 5.33,-4.03 7.28,-6.75 -3.01,1.54 -5.4,3.99 -7.28,6.75 m 0.91,4.79 c -1.33,1.01 -2.14,2.49 -2.47,4.13 4.78,-1.83 8.97,-4.8 13.36,-7.38 0,-1.8 0,-3.61 0.02,-5.42 -3.52,3.03 -7.41,5.6 -10.91,8.67 M 33.66,16.46 c 3.16,0.41 6.37,0.49 9.53,0.03 -3.16,-0.36 -6.36,-0.31 -9.53,-0.03 m 15.71,6.98 c -0.33,1.28 -0.65,2.55 -0.98,3.83 4.38,-3.1 8.68,-6.36 13.52,-8.73 -0.06,-0.69 -0.17,-2.07 -0.23,-2.75 -4.19,2.41 -8.16,5.17 -12.31,7.65 M 28.76,17.6 c -2.05,2.95 -3.9,6.15 -6.65,8.51 -4.68,3.44 -10.65,4.15 -16.29,4.21 -0.61,5.59 -0.81,11.22 -1.01,16.83 6.42,0.83 12.9,0.8 19.34,0.27 0.3,9.2 -0.12,18.4 -0.43,27.6 -0.35,8.34 0.22,16.72 -0.79,25.03 -1.04,9.07 -1.89,18.31 -0.22,27.36 3.48,-0.02 6.95,-0.26 10.39,-0.82 -3.42,-0.14 -6.83,-0.33 -10.21,-0.84 1.67,-1.66 4.05,-1.08 6.13,-1.06 4.45,0.27 8.91,0.23 13.37,0.1 0.46,-4.22 0.82,-8.47 0.67,-12.72 0.59,0.11 1.78,0.35 2.38,0.47 0.07,-0.11 0.21,-0.33 0.28,-0.44 -3.81,-0.12 -2,-2.74 -0.28,-4 -0.05,-1.83 -0.14,-3.65 -0.28,-5.47 -0.24,1.92 -0.37,3.85 -0.52,5.78 -0.51,-0.14 -1.52,-0.41 -2.02,-0.55 0.3,-3.33 0.29,-6.68 0.26,-10.02 0.86,-0.43 1.72,-0.86 2.58,-1.3 0.23,-19.23 1.28,-38.45 1.14,-57.68 -0.36,-7.22 -0.07,-14.43 0.03,-21.65 -5.85,1.61 -11.92,0.72 -17.87,0.39 m -9.54,4.76 c -1.13,0.1 -2.33,1.5 -1.7,2.61 1.35,1.05 3.48,-2.04 1.7,-2.61 m 29.76,7.07 c -0.27,0.68 -0.8,2.05 -1.07,2.74 5.48,-2.17 9.59,-6.63 14.95,-9.01 -0.33,-0.37 -0.99,-1.12 -1.33,-1.49 -4.73,1.51 -8.59,4.88 -12.55,7.76 m 4.5,2.1 c -2.22,1.49 -4.89,2.73 -5.7,5.54 5.31,-2.09 9.62,-6 13.99,-9.55 0.32,-0.61 0.97,-1.81 1.29,-2.41 -3.41,1.8 -6.35,4.34 -9.58,6.42 m 0.47,4.52 c -2.22,1.63 -4.81,3.06 -5.81,5.82 4.76,-1.45 8.6,-4.9 13.43,-6.15 -2.9,5.6 -11.68,5.34 -13.2,11.81 4.46,-3.13 8.34,-8.65 14.37,-8.21 -0.14,-3.24 -0.19,-6.49 -0.28,-9.73 -2.89,2.09 -5.6,4.41 -8.51,6.46 m -5.69,17.06 c 4.16,-2.7 8.34,-5.39 12.29,-8.39 1.62,-0.99 1.91,-2.96 2.58,-4.57 -5.92,2.75 -12.46,6.57 -14.87,12.96 m 7.42,-2.45 c -2.77,2.21 -6.1,3.9 -7.9,7.11 3.95,-1.92 7.57,-4.44 11.2,-6.89 1.8,-1.16 3.03,-2.94 3.85,-4.89 -2.59,1.22 -4.91,2.9 -7.15,4.67 m -7.62,11.19 c 4.67,-1.96 8.44,-5.46 12.97,-7.7 -2.44,6.1 -10.79,7.02 -13.06,13.02 5.29,-2.05 9.6,-5.89 14.32,-8.94 -0.06,-2.5 -0.09,-5 -0.12,-7.5 -4.63,3.79 -10.42,6.29 -14.11,11.12 m -0.26,9.51 c 3.34,-1.28 6.19,-3.49 9.22,-5.35 2.21,-1.52 5.03,-2.95 5.35,-5.94 -4.86,3.76 -10.13,7.02 -14.57,11.29 m 1.19,2.71 c -1.29,0.98 -0.54,2.77 -0.76,4.11 4.45,-3.77 9.12,-7.27 14,-10.48 -0.03,-0.7 -0.08,-2.09 -0.11,-2.79 -4.31,3.15 -9.01,5.77 -13.13,9.16 m -1.45,7.32 c 3.3,-1.52 6.2,-3.73 9.3,-5.6 2.23,-1.45 4.76,-2.77 5.92,-5.33 -5.55,2.89 -10.45,6.93 -15.22,10.93 m -0.45,5.4 c 5.98,-2.58 11.8,-6.35 15.38,-11.92 -5.53,3.27 -11.85,6.33 -15.38,11.92 m 4.21,0.41 c -1.68,1.21 -3.81,2.18 -4.14,4.51 4.55,-2.02 8.37,-5.26 12.59,-7.83 -2.44,5.81 -9.98,6.96 -12.55,12.67 5.47,-2.1 9.4,-6.64 14.4,-9.54 -0.02,-2.53 -0.03,-5.07 -0.03,-7.61 -3.37,2.68 -6.71,5.4 -10.27,7.8 m -4.57,13.52 c 1.34,-0.1 2.8,-0.14 3.91,-1.01 3.73,-2.58 7.61,-4.94 11.41,-7.42 -0.17,-1.48 -0.34,-2.96 -0.5,-4.44 -4.41,4.89 -9.89,8.56 -14.82,12.87 m 3.28,2.14 c -1.55,0.91 -2.4,2.47 -2.9,4.15 3.62,-1.96 6.89,-4.5 10.49,-6.49 2.27,-1.37 5.22,-2.78 5,-5.94 -4.29,2.6 -8.43,5.46 -12.59,8.28 m 4.07,2.34 c -2.61,2.01 -5.66,3.69 -7.2,6.76 3.87,-2.05 7.25,-4.88 11.02,-7.09 2.18,-1.25 4.09,-2.93 5.52,-5.01 -3.64,0.71 -6.42,3.25 -9.34,5.34 m -5.47,8.64 c -1.3,0.65 -1.13,2.3 -1.63,3.45 3.88,-2.55 7.34,-5.69 11.34,-8.07 1.88,-1.35 4.7,-2.31 4.62,-5.11 -5.06,2.82 -9.48,6.6 -14.33,9.73 m 0.93,4.66 c -1.37,1.01 -2.01,2.58 -2.34,4.21 4.86,-3.22 8.99,-7.38 13.67,-10.83 1.44,-0.91 2.08,-2.49 2.65,-4.01 -5.22,2.75 -9.67,6.65 -13.98,10.63 m -5.3,7.23 c 1.45,-2.5 0.96,-5.45 0.48,-8.15 -0.47,2.69 -0.71,5.42 -0.48,8.15 z"
         id="path5"
         style="opacity:0.86000001;fill:#020000" />
    </g>
  </g>
</svg>
