<?xml version="1.0" encoding="UTF-8" standalone="no"?>
<!-- Created with Inkscape (http://www.inkscape.org/) -->

<svg
   xmlns:dc="http://purl.org/dc/elements/1.1/"
   xmlns:cc="http://creativecommons.org/ns#"
   xmlns:rdf="http://www.w3.org/1999/02/22-rdf-syntax-ns#"
   xmlns:svg="http://www.w3.org/2000/svg"
   xmlns="http://www.w3.org/2000/svg"
   version="1.1"
   width="59.900002"
   height="100"
   id="svg3186">
  <defs
     id="defs3188" />
  <metadata
     id="metadata3191">
    <rdf:RDF>
      <cc:Work
         rdf:about="">
        <dc:format>image/svg+xml</dc:format>
        <dc:type
           rdf:resource="http://purl.org/dc/dcmitype/StillImage" />
        <dc:title></dc:title>
      </cc:Work>
    </rdf:RDF>
  </metadata>
  <g
     transform="translate(0,-952.36218)"
     id="layer1">
    <g
       transform="matrix(0.79480776,0,0,0.79480776,-75.552173,950.86885)"
       id="g3108">
      <path
         d="M 112.83,9.81 C 119.1,4.2 127.8,2.1 136.04,1.88 c 4.61,-0.01 9.47,0.14 13.61,2.44 6.49,3.42 13,7.75 16.57,14.38 2.33,6.18 2.9,12.82 3.79,19.31 1.22,6.06 -0.6,12.12 -1.34,18.12 -0.57,3.09 -0.99,6.71 -3.72,8.7 -4.4,3.6 -8.28,7.75 -12.53,11.51 -5,3.92 -8.85,9.04 -13.43,13.4 3.79,0.42 7.61,0.6 11.39,1.14 5.17,0.8 10.37,-0.27 15.56,-0.21 0.91,0.57 1.82,1.13 2.73,1.7 0.56,6.66 -0.57,13.41 0.89,20 -4.31,4.78 -8.51,9.66 -13.07,14.2 -2.03,2.18 -4.9,-0.32 -7.36,0.04 -9.5,0.88 -19.08,1.26 -28.62,1.01 -6.48,-1.05 -13.05,-0.64 -19.57,-1.12 -2.27,0.06 -3.46,-2.19 -5.04,-3.43 -0.53,-4.66 -1.1,-9.43 -0.01,-14.06 1.93,-8.68 5.4,-17.15 10.82,-24.26 2.32,-3.3 5.12,-6.23 7.68,-9.34 4.7,-5.93 11.72,-9.63 15.96,-15.96 3.09,-5.52 1.33,-12.19 -1.3,-17.52 -4.54,4.31 -7.37,10.01 -11.46,14.67 -7.39,-0.38 -14.81,-0.63 -22.22,-0.56 -1.5,-10.99 2.63,-21.7 7.36,-31.39 2.62,-5.43 6.76,-9.88 10.1,-14.84 m 11.77,5.7 c 5.01,-1.28 7.52,-6.34 10.52,-10.1 -4.34,2.29 -7.12,6.67 -10.52,10.1 m 14.31,-9.37 c -1.91,3.73 -6.17,5.32 -8.15,8.94 3.78,-2.65 7.15,-5.83 10.48,-9.02 -0.58,0.02 -1.75,0.06 -2.33,0.08 m -15.13,4.62 c -1.35,1.95 -2.77,3.85 -3.99,5.89 3.63,-2.4 5.56,-6.48 7.96,-9.97 -1.68,0.98 -3.13,2.29 -3.97,4.08 m 21.18,-3.22 c -2.45,3.26 -5.62,5.83 -8.43,8.75 4.84,-1.05 8.1,-5.26 10.99,-8.98 -0.64,0.06 -1.92,0.17 -2.56,0.23 m 2.72,0.37 c 0.63,0.46 1.89,1.38 2.52,1.84 -2.49,3.21 -5.06,6.36 -7.24,9.78 3.68,-1.94 6.35,-5.23 9.8,-7.49 0.27,0.05 0.8,0.13 1.06,0.17 -1.78,3.44 -5.59,5.53 -8.08,8.54 3.43,-2.03 6.3,-5.41 10.08,-6.59 0.02,0.25 0.07,0.73 0.09,0.97 -2.6,3.04 -6.6,4.74 -8.4,8.48 4.16,-2.32 7.39,-5.88 10.85,-9.08 -3.01,-3.02 -6.69,-5.17 -10.68,-6.62 m -29.19,2.6 c -0.08,0.53 -0.24,1.61 -0.32,2.15 -2.33,1.87 -4.39,4.06 -6.13,6.5 4.74,-1.87 7.5,-6.32 10.42,-10.2 -1.33,0.5 -2.65,1.02 -3.97,1.55 m 23.56,4.85 c -1.26,0.04 -2.02,2.5 -0.37,2.47 1.2,-0.05 1.95,-2.49 0.37,-2.47 m 7.42,10.33 c 4.42,-2.84 9.68,-5.81 11.55,-11.01 -4.3,3.15 -7.92,7.13 -11.55,11.01 m -43.05,1.72 c -5.97,6.15 -8.23,15.03 -8.29,23.4 5.85,0.84 11.76,1.07 17.64,1.44 1.14,-4.78 1.33,-10.64 5.76,-13.73 2.42,-2.12 5.7,-1.02 8.49,-0.49 2.36,5.06 5.64,10.26 4.61,16.11 -0.41,9.05 -9.08,13.94 -15.02,19.47 -7.18,7.77 -14.11,16.08 -18.07,26.01 -2.59,7.38 -4.99,15.52 -2.24,23.22 6.56,-0.56 13.14,-1.66 19.72,-0.8 10.42,1.22 20.91,0.81 31.37,0.89 -0.21,-4.13 -0.71,-8.29 -0.16,-12.42 0.26,-1.43 0.43,-3.23 2.05,-3.82 0.36,5.62 -0.57,11.21 -0.42,16.83 3.89,-5.48 1.77,-12.75 2,-19.04 -3.64,-0.25 -7.29,-0.36 -10.93,-0.04 -6.78,0.5 -13.48,-0.82 -20.17,-1.7 0.32,-1.54 -0.08,-3.47 1.26,-4.6 3.74,-3.69 8.39,-6.26 12.42,-9.59 6.31,-5.91 12.94,-12.19 15.72,-20.62 -2.23,3.73 -4.33,7.61 -7.54,10.61 -3.86,3.72 -7.29,8 -11.78,11 6.09,-8.25 14.87,-14.75 18.3,-24.76 0.74,-0.28 1.49,-0.56 2.24,-0.84 1.53,-7.59 2.1,-15.62 -0.47,-23.06 -2.02,-5.63 -2.74,-12.23 -7.4,-16.46 -3.84,-3.43 -8.27,-6.75 -13.6,-7.14 -9.36,-0.28 -19.15,3.04 -25.49,10.13 m 55.3,-9.35 c -2.26,2.13 -4.28,4.57 -7.04,6.09 0.41,0.36 0.83,0.72 1.26,1.08 1.76,-1.86 3.85,-3.41 6.26,-4.34 -2.11,4.15 -6.7,6.23 -8.94,10.2 0.13,1.24 -0.84,4.44 1.39,3.71 4.11,-2.91 9.03,-5.76 11.02,-10.61 -4.5,2.49 -7.76,6.59 -12,9.43 1.15,-5.66 7.27,-7.91 11.09,-11.56 -1.01,-1.3 -1.48,-3.23 -3.04,-4 m -9.17,7.84 c -1.15,0.6 -1.52,1.48 -1.11,2.63 1.12,0.43 1.99,0.07 2.61,-1.07 0.07,-1.07 -0.43,-1.59 -1.5,-1.56 m 2.22,15.5 c 4.45,-2.16 8.08,-5.58 11.86,-8.7 -0.1,-0.7 -0.3,-2.1 -0.4,-2.8 -3.75,3.91 -7.89,7.43 -11.46,11.5 m 1.71,6.83 c 3.41,-2.22 6.28,-5.15 9.76,-7.27 -1.89,4.7 -7.15,6.71 -9.48,11.14 2.8,-1.96 5.42,-4.16 7.91,-6.49 2.37,-1.9 1.85,-5.21 2.29,-7.88 -3.81,3.15 -7.65,6.4 -10.48,10.5 m 0.24,8.88 c 3.39,-2.5 6.5,-5.48 8.53,-9.21 -3.41,2.47 -6.69,5.35 -8.53,9.21 m 4.05,4.12 c 1.75,-1.14 3.46,-2.35 5.19,-3.53 -0.02,-0.68 -0.06,-2.06 -0.08,-2.74 -1.75,2.05 -3.49,4.11 -5.11,6.27 m -34.52,39.12 c 3.76,-2.12 7.02,-5.01 10.07,-8.04 -3.79,2.06 -7.41,4.59 -10.07,8.04 m 10.71,1.42 c 3.8,-2.79 7.71,-5.63 10.52,-9.48 -4.14,2.37 -7.52,5.81 -10.52,9.48 m 13.08,-0.44 c 3.67,-2.49 7.11,-5.35 10.35,-8.39 -4.58,1.07 -7.43,5.06 -10.35,8.39 m 5.29,4.29 c 4.57,-1.94 8.19,-5.7 11.33,-9.43 l -0.38,-1.43 c -3.8,3.44 -8.22,6.44 -10.95,10.86 m -20.99,-5.47 c 0.57,0.51 0.57,0.51 0,0 m 27.1,4.19 c -2.21,2.1 -5.19,3.74 -5.91,6.96 3.5,-2.36 6.52,-5.34 9.68,-8.12 1.22,-0.82 1.43,-2.31 1.82,-3.61 -1.98,1.46 -3.78,3.12 -5.59,4.77 m -4.94,9.32 c -0.04,0.66 -0.1,1.97 -0.13,2.62 3.64,-3.76 9.05,-6.33 10.68,-11.61 -4.05,2.33 -7.11,5.92 -10.55,8.99 m 3.95,1.78 c -2.09,2.28 -4.7,4.5 -4.81,7.85 4.33,-4.1 8.91,-8.22 11.7,-13.59 -2.51,1.63 -4.84,3.54 -6.89,5.74 m -42.13,8.88 c 4.27,0.54 8.58,0.34 12.87,0.32 -4.27,-0.24 -8.65,-1.51 -12.87,-0.32 z"
         id="path7"
         style="opacity:0.86000001;fill:#020000" />
    </g>
  </g>
</svg>
