<?xml version="1.0" encoding="UTF-8" standalone="no"?>
<!-- Created with Inkscape (http://www.inkscape.org/) -->

<svg
   xmlns:dc="http://purl.org/dc/elements/1.1/"
   xmlns:cc="http://creativecommons.org/ns#"
   xmlns:rdf="http://www.w3.org/1999/02/22-rdf-syntax-ns#"
   xmlns:svg="http://www.w3.org/2000/svg"
   xmlns="http://www.w3.org/2000/svg"
   version="1.1"
   width="62.599998"
   height="100"
   id="svg3215">
  <defs
     id="defs3217" />
  <metadata
     id="metadata3220">
    <rdf:RDF>
      <cc:Work
         rdf:about="">
        <dc:format>image/svg+xml</dc:format>
        <dc:type
           rdf:resource="http://purl.org/dc/dcmitype/StillImage" />
        <dc:title></dc:title>
      </cc:Work>
    </rdf:RDF>
  </metadata>
  <g
     transform="translate(0,-952.36218)"
     id="layer1">
    <g
       transform="matrix(0.77613636,0,0,0.77613636,-158.74355,950.91857)"
       id="g3111">
      <path
         d="m 237.76,6.99 c 5.8,-2.48 11.82,-4.75 18.19,-5.13 10.08,1.64 20.39,6.34 25.63,15.56 4.3,6.71 3.92,14.98 3.06,22.57 -0.13,7.17 -2.73,14.2 -7.2,19.79 4.13,7.43 7.02,15.69 7.5,24.21 -0.11,5.74 -0.46,11.56 -1.93,17.13 -0.94,3.84 -3.57,7.07 -4.03,11.05 -5.7,3.96 -11.39,8.03 -17.63,11.09 -5.86,2.03 -11.39,4.92 -17.35,6.67 -4.55,1.74 -9.37,0.01 -14.03,-0.06 -3.93,-0.03 -7.14,-2.57 -10.37,-4.47 -6.55,-3.92 -10.88,-10.97 -12.33,-18.38 -0.75,-3.67 -1.68,-7.32 -2.11,-11.04 -0.74,-2.57 2.15,-3.7 3.6,-5.21 6.61,-5.07 12.85,-11.5 21.37,-13.06 -0.15,-4.61 -0.77,-9.21 -0.64,-13.82 0.05,-1.54 0.72,-3.59 2.62,-3.41 3.66,-0.36 7.28,-1.92 9.76,-4.69 1.92,-3.44 0.98,-7.86 -1.03,-11.07 -5.37,2.16 -7.94,7.86 -12.5,11.13 -7.58,-0.37 -14.99,1.73 -22.5,2.47 -2.95,-8.76 -0.49,-18.21 3.16,-26.35 6.86,-10.93 17.47,-19.01 28.76,-24.98 M 251,4.45 c 0.31,0.84 0.62,1.68 0.94,2.51 1.61,-0.72 3.21,-1.43 4.8,-2.2 C 254.83,4.61 252.91,4.54 251,4.45 m -5.79,10.41 c 5.36,-3.24 11.07,-5.87 16.21,-9.48 -6.34,0.87 -12,4.78 -16.21,9.48 m -8.72,-3.59 c 3.85,-0.9 7.14,-3.17 10.53,-5.12 -3.68,1.3 -7.69,2.28 -10.53,5.12 m 25.23,-3.53 c -5.71,2.65 -10.78,6.64 -15.03,11.25 3.16,-1.47 5.94,-3.6 8.77,-5.59 3.35,-2.37 7.14,-3.99 10.65,-6.09 -1.49,-0.21 -3.05,-0.38 -4.39,0.43 m 6.71,0.71 c -2.16,1.24 -4.33,2.45 -6.49,3.68 3.17,1.33 5.87,-0.81 8.32,-2.57 -0.46,-0.28 -1.37,-0.83 -1.83,-1.11 m 3.03,1.87 c -5.8,4.16 -12.06,7.56 -18.15,11.23 0.95,0.24 1.98,1.72 2.95,0.7 4.23,-2.78 8.3,-5.86 12.82,-8.19 1.09,-0.25 2.97,-2.1 3.43,0.04 -5.34,3.77 -11.96,5.92 -16.16,11.22 3.73,-0.77 6.75,-3.21 10.05,-4.96 3.47,-1.93 7.29,-3.06 10.99,-4.48 -1.9,-1.94 -3.9,-3.78 -5.93,-5.56 m -10.25,14.94 c -1.84,0.69 -2.07,2.26 -1.53,3.98 5.88,-4.15 12.27,-7.72 19.15,-9.87 -2.5,3.68 -7.23,4.3 -10.76,6.59 -2.75,1.83 -6.35,3.13 -7.56,6.5 6.87,-2.46 13.05,-6.52 19.98,-8.85 -4.8,5.63 -13.11,6.03 -18.36,11.17 0.38,0.46 1.13,1.38 1.51,1.83 6.01,-2.67 11.26,-7.42 18.07,-7.98 -5.44,3.8 -11.87,5.98 -17.22,9.93 -0.25,0.7 -0.74,2.12 -0.99,2.83 6.09,-3.67 12.66,-6.38 19.41,-8.59 -0.05,-5.52 -1.68,-10.84 -4.51,-15.56 -5.95,2.17 -11.77,4.75 -17.19,8.02 m -48.03,4.87 c -5.09,7.1 -7.22,16.25 -5.79,24.88 6.77,-0.04 13.36,-2.13 20.15,-1.62 1.41,-3.78 2.11,-7.98 4.68,-11.2 2.48,-1.52 6.11,-1.64 8.68,-0.2 4.41,3.85 5.3,11.12 2.13,16.02 -3.23,2.89 -7.28,5.04 -11.7,5.16 -0.1,5.84 -0.23,11.77 0.84,17.53 2.79,1.4 6.33,1.94 8.1,4.82 3.72,4.93 6.42,12.13 2.98,17.9 -2.81,4.8 -10.06,4.89 -13.64,0.97 -2.28,-2.9 -2.62,-6.71 -3.48,-10.17 -6.35,0.64 -12.73,0.58 -19.1,0.68 0.67,5.17 2.04,10.23 3.59,15.2 2.29,7.21 8.13,13.33 15.39,15.57 4.27,0.64 8.69,2.38 12.98,0.91 7.35,-2.29 14.55,-6.24 19.16,-12.57 4.06,-5.02 4.48,-11.75 5.39,-17.88 1.01,-5.46 -1.02,-10.77 -2.2,-16.02 -0.93,-4.47 -3.89,-8.3 -7.82,-10.58 1.16,-3 3.88,-4.76 5.84,-7.14 3.27,-8.22 3.9,-17.58 1.15,-26.05 -1.57,-5.57 -4.57,-11.4 -10.21,-13.71 -12.05,-7.03 -28.43,-2.99 -37.12,7.5 m 51.83,13.1 c -0.21,0.86 -0.63,2.58 -0.84,3.43 5.45,-3.78 11.79,-5.72 18.16,-7.34 0.12,-1.51 0.24,-3.02 0.36,-4.54 -6.3,1.79 -12.33,4.7 -17.68,8.45 m -0.48,5.71 c 0.02,0.48 0.06,1.46 0.08,1.94 5.55,-2.41 11.14,-4.77 17.06,-6.15 0.07,-1.36 0.14,-2.71 0.21,-4.06 -6.05,2.11 -12.12,4.49 -17.35,8.27 m 6.1,1.6 c -2.79,1.36 -6.2,2.39 -7.35,5.62 5.51,-2.8 11.11,-5.5 17.18,-6.85 0.21,-1.02 0.43,-2.05 0.65,-3.07 -3.57,1.25 -7.07,2.67 -10.48,4.3 m -7.93,9.38 c 5.12,-2.11 10.15,-4.46 15.57,-5.71 0.22,-0.69 0.66,-2.07 0.88,-2.76 -6.06,1.46 -11.81,4.27 -16.45,8.47 m -0.69,2.77 c 3.76,-1.11 7.43,-2.5 11.23,-3.5 1.51,-0.27 2.63,-1.34 3.72,-2.33 -5.23,1.2 -10.31,3.13 -14.95,5.83 m -4.44,4.87 c 5.36,-1.55 10.96,-2.98 15.55,-6.3 -5.34,1.64 -10.72,3.44 -15.55,6.3 m 0.67,3.8 c 5.62,-0.79 10.26,-5.05 16.14,-4.63 -3.9,3.17 -9.05,3.86 -13.34,6.3 0.03,0.49 0.09,1.48 0.11,1.98 5.55,-2.16 10.9,-5.52 17.06,-5.45 -4.29,2.58 -9.41,3.37 -13.61,6.13 -1.47,0.57 -1.47,2.29 -2,3.53 5.78,-2.36 11.62,-4.55 17.45,-6.76 -0.78,-2.91 -1.72,-5.79 -3.03,-8.51 -6.39,1.99 -13.21,3.62 -18.78,7.41 m 5.1,9.87 c 0.37,0.4 1.1,1.21 1.46,1.61 5.76,-1.11 11.14,-3.86 16.78,-5.53 -0.32,-0.8 -0.96,-2.4 -1.28,-3.21 -5.58,2.55 -11.5,4.3 -16.96,7.13 m 1.62,3.99 c 0.31,1.23 0.62,2.46 0.93,3.69 3.94,-2.52 8.29,-4.34 12.92,-5.08 2.07,-0.19 4.85,-1.8 3.38,-4.35 -6.04,0.82 -11.59,3.58 -17.23,5.74 m 15.35,-0.05 c -4.82,1.46 -9.61,3.07 -14.16,5.26 0.06,1.16 0.13,2.31 0.2,3.47 5.01,-2.62 10.44,-4.29 16.05,-4.99 0.08,-1.02 0.25,-3.07 0.33,-4.09 -0.61,0.09 -1.82,0.26 -2.42,0.35 M 228.7,95.21 c 2.61,-1.81 5.05,-3.85 7.42,-5.97 0.89,-0.96 2.35,-1.79 2.12,-3.34 -3.78,2.39 -7.23,5.44 -9.54,9.31 m -0.07,4.09 c 4.53,-2.77 8.34,-6.51 12.51,-9.78 -0.57,-0.08 -1.7,-0.25 -2.27,-0.34 -3.63,3.08 -7.81,5.93 -10.24,10.12 m 39.54,-4.14 c -1.63,0.65 -2.48,2.26 -3.38,3.65 5.13,-2.36 10.45,-4.44 16.14,-4.81 -3.33,7.85 -14.15,7.67 -17.67,15.16 5.6,-2.77 11.76,-4.55 16.93,-8.09 1.6,-3.28 1.55,-7.07 2.18,-10.6 -4.91,0.92 -9.79,2.27 -14.2,4.69 m -37.98,5.83 c 0.43,0.74 1.29,2.21 1.72,2.95 2.59,-3.98 6.53,-6.69 9.91,-9.92 -0.05,-0.74 -0.16,-2.22 -0.21,-2.96 -3.79,3.33 -7.56,6.68 -11.42,9.93 m 34.35,2.36 c 4.59,-1.64 8.97,-3.93 12.81,-6.95 -4.63,1.24 -10.36,2.36 -12.81,6.95 m -31.08,1.52 c 2.51,-0.18 5.48,-0.06 7.19,-2.28 2.14,-1.67 2.12,-4.49 2.16,-6.94 -3.28,2.89 -6.66,5.74 -9.35,9.22 m 29.41,7.11 c -2.42,2.76 -4.27,6 -6.86,8.64 1.04,-0.58 2.1,-1.16 3.14,-1.75 1.27,-2.95 3.86,-4.85 6.53,-6.44 0.61,0.5 1.22,1.01 1.82,1.53 -2.02,0.93 -3.88,2.16 -5.68,3.44 0.53,0.52 1.07,1.04 1.6,1.56 -1.99,0.89 -3.9,1.95 -5.69,3.2 2.3,-0.78 4.43,-1.94 6.46,-3.26 0.93,-0.32 1.86,-0.64 2.8,-0.95 -0.89,-0.64 -1.77,-1.27 -2.64,-1.93 3.96,-1.98 8.17,-3.49 11.84,-6 -2.6,0.75 -5.08,1.87 -7.61,2.83 0.18,-0.56 0.52,-1.69 0.69,-2.26 3.92,-1.26 8.51,-2.51 10.29,-6.66 -5.76,2.19 -11.63,4.48 -16.69,8.05 z"
         id="path9"
         style="opacity:0.86000001;fill:#020000" />
    </g>
  </g>
</svg>
