<?xml version="1.0" encoding="UTF-8" standalone="no"?>
<!-- Created with Inkscape (http://www.inkscape.org/) -->

<svg
   xmlns:dc="http://purl.org/dc/elements/1.1/"
   xmlns:cc="http://creativecommons.org/ns#"
   xmlns:rdf="http://www.w3.org/1999/02/22-rdf-syntax-ns#"
   xmlns:svg="http://www.w3.org/2000/svg"
   xmlns="http://www.w3.org/2000/svg"
   version="1.1"
   width="77.220001"
   height="100"
   id="svg3245">
  <defs
     id="defs3247" />
  <metadata
     id="metadata3250">
    <rdf:RDF>
      <cc:Work
         rdf:about="">
        <dc:format>image/svg+xml</dc:format>
        <dc:type
           rdf:resource="http://purl.org/dc/dcmitype/StillImage" />
        <dc:title></dc:title>
      </cc:Work>
    </rdf:RDF>
  </metadata>
  <g
     transform="translate(0,-952.36218)"
     id="layer1">
    <g
       transform="matrix(0.82869138,0,0,0.82869138,-255.66274,950.65915)"
       id="g3114">
      <path
         d="m 355.55,4.5 c 2.37,-0.98 4.68,-2.67 7.36,-2.42 8.11,0.88 16.28,0.32 24.42,0.07 -0.75,6.61 -0.8,13.26 -1.24,19.88 -0.02,8.73 1.19,17.41 1.71,26.12 0.44,3.46 0.16,7.07 1.26,10.42 3.05,0.15 6.11,0.05 9.17,0.12 1.25,5.39 1.55,10.93 2.27,16.4 0.29,2.62 1.34,5.17 1.17,7.83 -0.88,1.4 -2.93,1.42 -4.16,2.47 -3.01,2.37 -6.21,4.48 -9.37,6.64 0.29,5.42 1.22,10.76 2.09,16.1 -3.71,3.34 -8.05,5.97 -11.52,9.6 -1.73,1.58 -3.24,3.83 -5.77,4.1 -7.62,0.92 -15.3,0.99 -22.96,0.83 -1.17,-1.85 -2.39,-3.8 -2.41,-6.06 -0.31,-5.99 -0.08,-11.99 -0.14,-17.98 -11.08,1.17 -22.18,0.56 -33.29,0.55 -2.08,-1.96 -4.35,-4.22 -4.6,-7.24 -1.05,-6.89 -1.55,-14.04 -0.24,-20.91 5.22,-11.3 12.24,-21.65 18.18,-32.57 4.07,-6.41 8.12,-12.87 11.21,-19.82 1.51,-3.02 2.73,-6.33 5.16,-8.76 3.65,-2.28 7.89,-3.37 11.7,-5.37 m -1.62,8.25 c 5.09,-1.45 9.63,-4.41 13.6,-7.85 -5.01,1.63 -9.79,4.18 -13.6,7.85 m 15.5,-6.38 c -3.17,2.39 -6.48,4.58 -9.74,6.86 5.97,-1.64 11.05,-5.33 16.54,-8.04 -2.26,0.25 -4.9,-0.37 -6.8,1.18 m -21.54,5.61 c 3.47,-0.98 6.83,-2.52 9.44,-5.07 -3.38,1.22 -6.49,3.04 -9.44,5.07 m 18.96,1.12 c 3.61,-0.57 6.67,-2.65 9.31,-5.07 -3.2,1.51 -6.33,3.17 -9.31,5.07 m 2.72,5.22 c 4.79,-1.45 8.79,-4.64 13.48,-6.3 0.07,0.45 0.21,1.35 0.28,1.79 -4.2,3.26 -10.79,3.84 -13.1,9.13 4.56,-1.98 8.92,-4.4 13.6,-6.13 0.23,-2.54 0.47,-5.08 0.68,-7.62 -5.18,2.67 -10.54,5.26 -14.94,9.13 m -25.44,-4.23 c -1.76,3.83 -3.88,7.47 -5.72,11.26 -3.55,7.57 -9.01,14.04 -12.66,21.55 -4.21,7.13 -8.75,14.1 -12.2,21.65 -0.96,1.99 -1.21,4.22 -1.34,6.41 -0.32,6.61 -0.19,13.29 1.26,19.78 9.2,0.81 18.48,0.64 27.68,0.02 1.57,0.21 2.61,-0.89 3.56,-1.96 1.7,0.65 3.39,1.33 5.09,2.03 0.02,7.44 -0.26,14.93 0.64,22.33 0.21,0.98 0.12,2.53 1.59,2.26 5.39,0.61 10.86,0.18 16.18,-0.83 -5.62,-0.74 -11.82,0.51 -16.99,-2.14 6.51,-0.51 13.05,0.53 19.57,-0.3 -0.23,-7.5 0.08,-15 -0.16,-22.51 2.22,-0.21 4.45,-0.42 6.66,-0.71 -2.23,-0.26 -4.48,-0.5 -6.7,-0.87 3.21,-1.97 7.12,-1.47 10.7,-1.89 -0.37,-4.56 -0.73,-9.12 -0.56,-13.7 -3.84,0.38 -7.69,0.69 -11.54,0.79 2.92,-3.02 1.07,-7.39 1.27,-11.07 0.1,-15.93 -1.87,-31.77 -2.27,-47.68 -7.96,-0.83 -16.13,0.14 -23.93,-1.95 1.53,-0.48 3.12,-0.84 4.74,-0.59 6.4,0.71 12.87,0.75 19.29,0.3 -3.37,-0.72 -6.82,-0.56 -10.23,-0.61 -4.7,0.01 -9.26,-1.26 -13.93,-1.57 m 28.43,10.56 c -1.41,0.62 -1.6,2.28 -2.22,3.51 3.98,-1.95 7.85,-4.12 11.74,-6.25 1.17,-0.4 1.61,-1.52 1.95,-2.6 -4,1.37 -7.81,3.23 -11.47,5.34 m -2.12,7.92 c 4.43,-1.61 8.52,-4 12.85,-5.83 0.01,-0.78 0.02,-2.33 0.03,-3.11 -4.26,2.94 -10.42,4 -12.88,8.94 m 0.22,4.23 c 4.6,-1.34 8.71,-4.15 13.55,-4.74 -0.16,-0.83 -0.46,-2.5 -0.61,-3.33 -4.5,2.33 -9.62,4.04 -12.94,8.07 m 0.47,4.67 c 4.25,-1.24 7.91,-3.97 12.22,-5.02 l 0.64,1.54 c -3.95,3.19 -10.84,2.96 -12.58,8.62 4.6,-1.93 8.7,-4.79 13.01,-7.26 -0.13,-1.77 -0.27,-3.55 -0.4,-5.32 -4.65,1.62 -10.51,2.52 -12.89,7.44 m 2.5,7.25 c -1.23,0.94 -1.25,2.7 -1.87,3.99 2.75,-1.5 5.31,-3.3 7.97,-4.94 1.02,-0.54 4.07,-2.69 3.73,0.03 -3.43,3.54 -9.69,4.39 -11.23,9.48 4.41,-2.61 8.58,-5.6 12.94,-8.29 -0.23,-2.38 -0.46,-4.77 -0.69,-7.16 -3.76,2.05 -7.48,4.24 -10.85,6.89 m -0.98,11.27 c 0.02,0.9 0.06,2.72 0.08,3.62 4.39,-3.75 10,-6.35 13.18,-11.33 -5.22,0.94 -9.05,4.82 -13.26,7.71 m 0.85,6.54 c -0.54,1.07 -2.4,4.21 -0.1,4.07 2.75,-2.3 4.98,-5.15 7.73,-7.46 2.07,-1.85 4.74,-3.43 5.18,-6.44 -4.74,2.57 -9.13,5.91 -12.81,9.83 m 12.48,7.38 c -1.39,1.27 -2.58,2.74 -3.27,4.51 5.28,-3.19 9.01,-8.31 14.31,-11.48 0.14,-1.7 0.04,-3.42 0.01,-5.12 -3.49,4.2 -7.05,8.36 -11.05,12.09 m 1.68,3.73 c -1.84,1.66 -3.44,3.57 -4.83,5.61 4.49,-2.87 8.41,-6.52 12.54,-9.88 1.52,-0.99 1.93,-2.8 2.37,-4.44 -4,2.11 -6.75,5.76 -10.08,8.71 m 2.75,2.73 c -2.66,2.36 -6.12,4.07 -7.48,7.59 5.66,-2.86 10.84,-6.6 15.48,-10.89 -0.24,-0.78 -0.72,-2.33 -0.96,-3.1 -2.32,2.15 -4.66,4.3 -7.04,6.4 m -6.55,10.74 c 5.58,-2.96 10.94,-6.57 15.13,-11.35 -5.16,3.61 -10.4,7.18 -15.13,11.35 m -10.55,4.72 c 0.01,1.32 0.02,2.64 0.05,3.97 2.8,-1.67 5.17,-5.25 8.84,-4.5 -2.83,3.66 -8.1,5.04 -9.76,9.59 4.3,-2.12 7.37,-6.22 11.99,-7.71 1.01,-0.35 3.69,-1.62 1.1,-2.57 -3.77,-1.23 -8.25,0.81 -12.22,1.22 m 11.15,2.54 c -3.7,3.93 -9.51,5.88 -11.84,11.01 5.55,-2.7 10.51,-6.73 14.3,-11.59 -0.61,0.14 -1.84,0.43 -2.46,0.58 m -11.91,15.83 c 5.37,-2.17 9.37,-6.52 14.05,-9.78 0.01,-0.66 0.03,-1.98 0.04,-2.63 -4.73,4.08 -10.1,7.53 -14.09,12.41 z"
         id="path11"
         style="opacity:0.86000001;fill:#020000" />
      <path
         d="m 345.9,49.8 c 1.26,-2.57 4.39,-0.86 6.52,-0.96 0.11,6.46 -2.47,12.61 -2.2,19.08 -0.02,2.43 0.12,4.87 -0.17,7.29 -6.65,0.82 -13.36,1.76 -20.05,2.28 -0.33,-0.29 -0.99,-0.86 -1.32,-1.15 3.48,-4.75 6.6,-9.76 10.22,-14.42 2.83,-3.74 4.52,-8.17 7,-12.12 m -0.77,6.76 c -0.43,1.03 -0.84,2.06 -1.24,3.1 2.33,-1.51 4.53,-3.22 6.48,-5.21 -1.75,0.7 -3.49,1.42 -5.24,2.11 m -5.34,8.53 c 3.4,-1.59 6.55,-3.69 9.32,-6.24 -3.47,1.47 -6.71,3.51 -9.32,6.24 m -4.55,6.35 c 3.93,-1.64 7.82,-3.48 11.39,-5.83 1.18,-0.76 1.2,-2.39 1.8,-3.55 -4.38,3.14 -9.75,5.09 -13.19,9.38 m 11.17,-1.2 c 0.2,3.35 2.92,-1.6 0,0 z"
         id="path13"
         style="opacity:0.86000001;fill:#020000" />
    </g>
  </g>
</svg>
