<?xml version="1.0" encoding="UTF-8" standalone="no"?>
<!-- Created with Inkscape (http://www.inkscape.org/) -->

<svg
   xmlns:dc="http://purl.org/dc/elements/1.1/"
   xmlns:cc="http://creativecommons.org/ns#"
   xmlns:rdf="http://www.w3.org/1999/02/22-rdf-syntax-ns#"
   xmlns:svg="http://www.w3.org/2000/svg"
   xmlns="http://www.w3.org/2000/svg"
   version="1.1"
   width="67.489998"
   height="100"
   id="svg3276">
  <defs
     id="defs3278" />
  <metadata
     id="metadata3281">
    <rdf:RDF>
      <cc:Work
         rdf:about="">
        <dc:format>image/svg+xml</dc:format>
        <dc:type
           rdf:resource="http://purl.org/dc/dcmitype/StillImage" />
        <dc:title></dc:title>
      </cc:Work>
    </rdf:RDF>
  </metadata>
  <g
     transform="translate(0,-952.36218)"
     id="layer1">
    <g
       transform="matrix(0.79578627,0,0,0.79578627,-1.3184337,841.82747)"
       id="g3118">
      <path
         d="m 10.12,149.63 c 7.04,-1.17 11.37,-7.51 17.42,-10.73 4.48,2.32 9.61,1.9 14.48,2.18 12.97,0.24 25.95,1.35 38.92,0.29 -0.35,6.21 -0.26,12.43 -0.48,18.64 -0.12,2.57 1.32,4.83 2,7.23 -5.22,4.1 -11.79,6.14 -16.76,10.62 -8.67,-0.19 -17.34,0.22 -26.02,-0.08 l 0.13,1.7 c 5.44,0.02 10.94,-0.66 16.33,0.38 4.29,0.86 8.42,2.35 12.67,3.37 4.52,1.09 8.72,3.88 10.99,8.01 3.57,6.26 4.5,13.57 5.38,20.61 0.83,7.34 2.03,14.79 0.67,22.14 -0.21,1.72 -1.3,3.1 -2.3,4.44 -11.07,13.18 -26.6,22.83 -43.61,25.9 -8.97,0.74 -18.91,-0.03 -26,-6.19 -6.8,-5.01 -10.76,-13.01 -12.27,-21.16 -0.26,-5.85 3.35,-11.03 7.46,-14.85 1.97,-1.83 3.69,-3.91 4.99,-6.27 6.86,-0.79 13.74,0.5 20.61,0.55 1.5,1.79 0.67,4.45 1.02,6.6 -0.2,5 4.15,8.57 8.24,10.57 2.87,-0.67 3.2,-4.17 3.45,-6.59 0.03,-4.75 -1,-10.53 -5.48,-13.09 -3.2,-1.08 -6.61,-0.37 -9.88,-0.08 -5.34,0.72 -10.73,0.16 -16.09,0.37 -3.38,-0.01 -6.91,0.23 -10.14,-0.96 -2.08,-1.05 -1.4,-3.77 -1.47,-5.66 1.37,-18.35 0.93,-36.76 2.01,-55.12 1.24,-0.94 2.48,-1.89 3.73,-2.82 m 5.6,1.26 c 4.14,-1.55 7.3,-4.77 10.19,-8 -3.56,2.44 -7.22,4.83 -10.19,8 m 8.36,-0.2 c 4.55,-0.82 7.43,-4.8 10.28,-8.06 -4.08,1.73 -7.38,4.78 -10.28,8.06 m 16.56,0.69 c 3.71,-2.12 6.85,-5.13 9.65,-8.34 -3.48,2.44 -7.04,4.94 -9.65,8.34 m -7.01,-0.11 c 3.48,-1.67 6.14,-4.55 8.5,-7.53 -3.36,1.82 -6.64,4.09 -8.5,7.53 m 14.79,0.19 c 4.04,-1.28 6.54,-4.98 9.12,-8.09 -3.36,2.3 -6.53,4.94 -9.12,8.09 m 19.16,1.82 c 3.75,-1.73 7.12,-4.15 10.74,-6.13 0.06,-0.58 0.17,-1.75 0.23,-2.33 -3.96,2.37 -8.27,4.56 -10.97,8.46 m -9.34,-3.94 c -1.33,0.64 -1.35,1.32 -0.08,2.03 1.33,-0.65 1.36,-1.33 0.08,-2.03 m 9.37,6.34 c -0.31,0.71 -0.92,2.14 -1.22,2.85 3.88,-2.42 7.61,-5.23 12.13,-6.39 -0.03,-0.57 -0.09,-1.72 -0.11,-2.29 -3.57,1.99 -7.35,3.62 -10.8,5.83 M 23.66,153.5 c 4.46,0.26 8.92,0.3 13.38,0.3 4.82,0.03 9.75,1.2 14.46,-0.31 -4.82,-0.62 -9.69,0.02 -14.51,-0.48 -4.44,-0.39 -8.95,-0.42 -13.33,0.49 m 39.56,2.18 c -4.37,-0.47 -8.77,-0.32 -13.12,0.27 -4.74,0.65 -9.45,-0.6 -14.19,-0.42 -9.12,0.12 -18.22,-1.48 -27.33,-0.48 0.21,8.65 -0.68,17.27 -0.39,25.92 -0.51,9.76 -1.03,19.53 -1.05,29.31 6.57,2.66 13.9,1.01 20.79,1.35 5.87,0.53 12.79,-2.76 17.75,1.69 6.47,7.49 5.54,19.99 -1.59,26.73 -3.96,2.98 -9.77,5.28 -14.34,2.22 -3.73,-2.91 -5.64,-7.59 -6.31,-12.16 -5.84,0.28 -11.73,-0.16 -17.53,0.66 -3.4,12.33 5.7,25.06 16.94,29.59 12.53,3.17 27.11,1.37 37.06,-7.39 -4.47,1.51 -8.54,4.26 -13.31,4.82 2.97,-2.33 6.73,-3.21 9.83,-5.32 2.25,-1.52 4.43,-3.15 6.78,-4.52 8.23,-16.44 6.47,-37.57 -5.31,-51.86 -3.21,-2.9 -7.86,-2.58 -11.88,-2.89 -4.61,-0.22 -9.51,-1.34 -13.86,0.77 -1.52,0.64 -3.85,1.63 -4.95,-0.22 -0.62,-4.23 -0.35,-8.55 -0.7,-12.81 -0.27,-2 0.32,-3.94 1.06,-5.78 5.93,1.86 11.5,-1.58 17.43,-1.01 6.63,0.34 13.25,-0.04 19.87,-0.38 -0.1,-6.53 -0.08,-13.06 -0.24,-19.59 -0.35,0.38 -1.06,1.13 -1.41,1.5 m 5.2,3.79 c -1.56,0.75 -1.47,2.63 -1.99,4.04 3.46,-1.87 7.05,-3.55 10.36,-5.68 1.71,-0.71 1.5,-2.68 1.88,-4.18 -3.55,1.69 -7.04,3.54 -10.25,5.82 m -2.15,8.76 c 4.28,-2.48 10.31,-3.67 12.42,-8.62 -4.46,2.1 -10.38,3.67 -12.42,8.62 m 0.93,2.15 c 0.02,1.27 0.03,2.55 0.05,3.83 4,-2.3 8.28,-4.3 11.71,-7.46 -0.06,-0.44 -0.16,-1.33 -0.21,-1.77 -4.24,0.82 -7.73,3.55 -11.55,5.4 m -39.02,13.55 c 2.65,-1.86 5.1,-3.99 7.29,-6.36 -3.85,-0.2 -6.23,3.07 -7.29,6.36 m 1,6.05 c 3.51,-3.17 7.08,-6.54 8.79,-11.08 -4.22,2.22 -9.02,5.8 -8.79,11.08 m 13.68,-1.72 c 2.99,-1.66 5.58,-3.97 7.57,-6.75 -3.23,1.31 -5.67,3.89 -7.57,6.75 m 10.69,-5.66 c -3.69,2.16 -6.97,5.08 -9.61,8.44 3.76,-2.89 8.48,-5 11.03,-9.14 -0.35,0.17 -1.07,0.52 -1.42,0.7 m -1.91,5.81 c 1.93,-1.04 3.66,-2.38 5.31,-3.81 0.5,0.45 1.01,0.9 1.51,1.36 -2.25,1.62 -4.45,3.3 -6.63,5 1.78,0.45 3.56,0.93 5.33,1.42 2.83,-2.41 5.76,-4.75 8.09,-7.67 -3.64,1.58 -6.55,4.38 -10.1,6.12 1.04,-2.64 3.33,-4.34 5.43,-6.08 -0.81,-0.65 -1.61,-1.31 -2.39,-1.98 -2.46,1.53 -4.82,3.28 -6.55,5.64 m -15.01,2.01 c 2.96,-1.73 5.4,-4.18 7.6,-6.79 -2.96,1.72 -5.69,3.92 -7.6,6.79 m 21.91,4.22 c 4.35,-2.16 8.64,-5.01 11.19,-9.26 -4.3,2.24 -8.56,5.08 -11.19,9.26 m 2.32,1.54 c 5.03,-1.35 8.86,-5.28 12.29,-9 -4.45,2.47 -8.42,5.72 -12.29,9 m -19.54,-6.45 c 1.41,0.37 1.92,-0.12 1.54,-1.47 -1.4,-0.42 -1.91,0.07 -1.54,1.47 m 7,1.08 c 1.33,0.65 3.6,-0.97 3.32,-2.4 -1.3,-0.55 -3.83,0.85 -3.32,2.4 m 14.83,7.13 c 0.87,2.22 2.09,4.29 3.21,6.39 4.56,-2.41 8.77,-5.38 12.73,-8.67 -0.57,-0.91 -1.13,-1.82 -1.7,-2.72 -4.39,2.56 -7.89,6.29 -12.07,9.13 1.48,-5.73 7.89,-7.6 11.71,-11.48 -0.57,-0.24 -1.7,-0.71 -2.27,-0.94 -3.92,2.67 -7.69,5.59 -11.61,8.29 m 14.33,1.48 c -3.42,2.12 -6.82,4.27 -10.11,6.58 0.43,2.17 1.03,4.31 2.19,6.22 4.18,-3.41 8.93,-6.16 12.61,-10.14 l -1.22,-0.51 c -3.89,2.01 -6.84,5.42 -10.66,7.56 -0.28,-0.08 -0.82,-0.25 -1.09,-0.33 0,-0.24 0,-0.73 0,-0.97 3.71,-3.56 8.37,-5.91 12.08,-9.47 -1.32,0.06 -2.69,0.26 -3.8,1.06 m -7.59,16.32 c 4.95,-2.41 10.71,-5.29 12.98,-10.58 -4.68,2.97 -9.94,5.78 -12.98,10.58 m 0.46,3.97 c 3.84,-1.73 7.15,-4.36 10.6,-6.72 1.26,-0.75 1.98,-2.04 2.73,-3.24 -4.67,2.89 -10.35,5.11 -13.33,9.96 m 0.7,1.95 c 0.13,1.42 0.26,2.85 0.4,4.28 3.24,-2.59 6.44,-5.21 9.72,-7.75 1.43,-0.95 2.22,-2.48 2.67,-4.1 -4.49,2.14 -8.31,5.42 -12.79,7.57 M 12,228.51 c 2.95,-3.31 5.67,-6.82 8.13,-10.51 -2.94,3.26 -6.85,6.14 -8.13,10.51 m 3.95,-0.32 c 2.79,-2.83 5.15,-6.06 7.29,-9.4 -2.84,2.71 -6.31,5.42 -7.29,9.4 m 55.32,0.09 c -0.15,2.67 -0.35,5.35 -0.55,8.02 3.23,-2.67 6.4,-5.42 9.75,-7.94 1.77,-1.38 3.87,-2.67 4.41,-5.04 -4.95,2.45 -8.41,7.12 -13.55,9.26 2.93,-6 10.69,-7.71 13.34,-13.89 -4.81,2.68 -8.92,6.41 -13.4,9.59 m -48.5,-0.68 c 2.62,-2.07 4.6,-4.8 6.35,-7.6 -2.48,2.2 -4.73,4.69 -6.35,7.6 m -15.78,0.32 c 3.71,-0.49 5.29,-4.38 7.25,-7.08 -2.62,2.15 -5.06,4.5 -7.25,7.08 m 20.21,6.76 c 0.7,0.79 1.39,1.58 2.08,2.38 1.93,-3.14 5.59,-5.8 5.18,-9.87 -2.06,1.91 -3.9,4.05 -5.47,6.39 -0.46,-0.55 -0.91,-1.11 -1.36,-1.66 2.45,-2.94 5.21,-5.98 5.66,-9.96 -3.5,3.28 -7.34,7.51 -6.09,12.72 m 45.84,2.24 c -4.98,3.35 -5.57,9.83 -8.53,14.65 7.36,-4.35 13.52,-10.37 19.03,-16.84 -5.54,3.12 -10.2,7.51 -15.07,11.54 0.09,-0.52 0.27,-1.58 0.36,-2.1 3.86,-4.66 9.41,-7.53 13.6,-11.86 1.14,-0.97 1.42,-2.52 1.97,-3.82 -4.25,2.13 -7.71,5.44 -11.36,8.43 m -42.48,2.69 c 0.9,0.45 1.8,0.91 2.7,1.38 0.88,-2.83 2.68,-5.18 4.13,-7.7 -0.24,-0.56 -0.72,-1.68 -0.96,-2.24 -2.19,2.69 -4.21,5.51 -5.87,8.56 m 4.38,0.91 c 0.63,0.07 1.9,0.21 2.53,0.28 1.24,-2.09 2.48,-4.18 3.54,-6.37 -2.66,1.31 -4.44,3.7 -6.07,6.09 z"
         id="path17"
         style="opacity:0.86000001;fill:#020000" />
    </g>
  </g>
</svg>
