<?xml version="1.0" encoding="UTF-8" standalone="no"?>
<!-- Created with Inkscape (http://www.inkscape.org/) -->

<svg
   xmlns:dc="http://purl.org/dc/elements/1.1/"
   xmlns:cc="http://creativecommons.org/ns#"
   xmlns:rdf="http://www.w3.org/1999/02/22-rdf-syntax-ns#"
   xmlns:svg="http://www.w3.org/2000/svg"
   xmlns="http://www.w3.org/2000/svg"
   version="1.1"
   width="61.209999"
   height="100"
   id="svg3306">
  <defs
     id="defs3308" />
  <metadata
     id="metadata3311">
    <rdf:RDF>
      <cc:Work
         rdf:about="">
        <dc:format>image/svg+xml</dc:format>
        <dc:type
           rdf:resource="http://purl.org/dc/dcmitype/StillImage" />
        <dc:title></dc:title>
      </cc:Work>
    </rdf:RDF>
  </metadata>
  <g
     transform="translate(0,-952.36218)"
     id="layer1">
    <g
       transform="matrix(0.80037122,0,0,0.80037122,-85.668194,839.78593)"
       id="g3121">
      <path
         d="m 132.2,147.14 c 3.28,-1.86 5.73,-5.41 9.71,-5.81 6.5,-0.84 13.8,-1.55 19.61,2.11 4.83,3.05 9.98,6 13.3,10.81 3.13,4.6 6.26,9.35 8.08,14.64 -3.87,4.24 -8.07,8.17 -11.93,12.42 3.08,2.28 5.46,5.4 6.57,9.1 1.89,6.19 4.97,12.08 5.4,18.63 1.01,10.33 0.69,20.86 -1.08,31.1 -0.36,4.42 -4.75,6.33 -7.43,9.22 -6.4,7.79 -16.19,11.8 -25.75,14.14 -9.44,3.44 -20.65,2.85 -28.87,-3.28 -6.24,-4.73 -8.11,-12.88 -9.49,-20.16 -1.04,-8.01 -2.95,-15.95 -2.92,-24.06 0.08,-8.02 -1.06,-16.09 0.33,-24.06 1.8,-8.62 3.66,-17.38 7.98,-25.16 2.81,-8.28 8.9,-15.35 16.49,-19.64 m 11.8,1.41 c -0.53,-0.63 -1.06,-1.27 -1.58,-1.91 0.11,0.27 0.33,0.79 0.43,1.06 -1.07,0.19 -2.15,0.39 -3.22,0.59 -0.2,0.64 -0.6,1.92 -0.8,2.56 1.5,-1.32 4.16,-2.61 3.71,0.97 2.69,-2.92 6.02,-5.49 7.12,-9.5 -2.2,1.77 -4.04,3.92 -5.66,6.23 m 8.3,-5.29 c -1.21,0.95 -1.77,2.48 -2.57,3.76 1.06,-0.92 2.09,-1.86 3.13,-2.8 1.22,0.08 2.43,0.15 3.65,0.18 -1.33,-0.54 -2.69,-1.53 -4.21,-1.14 m -12.19,0.88 c -0.59,1.37 -0.16,1.87 1.28,1.5 0.58,-1.37 0.15,-1.87 -1.28,-1.5 m 18.27,0.34 c -3.13,2.81 -6.1,5.99 -7.82,9.87 2.89,-2.82 4.84,-7 8.74,-8.52 -1.05,4 -5.51,6.1 -6.64,10.2 3.48,-2.76 6.38,-6.16 9.13,-9.62 -0.98,-0.89 -2.2,-1.45 -3.41,-1.93 m 5.67,2.49 c -3.29,3.51 -6.77,6.97 -9.11,11.22 4.33,-2.46 6.62,-7.12 9.11,-11.22 m -12.82,1.34 c 0.55,0.5 0.55,0.5 0,0 m -4.18,1.92 c 0.41,-0.67 0.41,-0.67 0,0 m 18.79,-2.06 c -2.67,3.91 -5.54,7.69 -8.03,11.73 2.77,-2.95 6,-5.47 8.49,-8.66 1,-0.95 -0.25,-2.07 -0.46,-3.07 m -20.33,3.72 c 1.4,0.28 1.91,-0.27 1.54,-1.66 -1.4,-0.25 -1.92,0.3 -1.54,1.66 m 3.82,-1.65 c -1.21,0 -2.08,2.41 -0.47,2.46 1.22,0 2.12,-2.42 0.47,-2.46 m 11.9,8.98 c -1,0.81 -0.74,2.13 -0.85,3.25 3.88,-2.32 6.73,-5.87 10.07,-8.86 -0.9,5.08 -6.48,7.11 -7.94,11.84 3.71,-3.13 6.72,-6.98 10.12,-10.43 -1.26,-1.28 -2.54,-2.55 -3.82,-3.81 -2.36,2.83 -5.06,5.34 -7.58,8.01 m -42.86,8.14 c -5.23,7.22 -6.37,16.22 -8.35,24.66 -1.66,8.25 -0.28,16.67 -0.3,25 -0.07,6.45 1.86,12.68 2.46,19.06 0.62,6.8 2.42,13.71 6.44,19.32 4.8,5.36 12.4,7.16 19.35,7 7.82,-0.44 16.41,-2.25 21.51,-8.75 -5.31,2.68 -10.31,6.26 -16.28,7.33 5.25,-3.89 11.51,-6.21 16.67,-10.28 0.17,0.54 0.52,1.61 0.7,2.14 1.53,-1.86 3.23,-3.59 4.54,-5.61 1.94,-3.09 2.09,-6.82 2.51,-10.32 0.43,-3.99 1.48,-7.95 1.12,-11.99 -0.68,-7.71 -1.31,-15.73 -4.9,-22.73 -3.41,-4.91 -9.05,-7.8 -14.66,-9.43 -7.45,-1.42 -15.33,0.97 -21.15,5.71 -2.66,0.27 0.04,-2.59 0.03,-3.76 -0.66,-6.86 1.82,-14.02 7.3,-18.35 4.5,-0.88 9.22,1 11.7,4.88 3.6,0.66 7.24,1.02 10.89,1.21 3.09,0.13 6.46,0.97 9.25,-0.84 -5.72,-1.29 -11.95,-0.01 -17.34,-2.68 5.82,0.3 11.63,0.99 17.45,0.28 -1.46,-7.89 -6.15,-15.11 -12.74,-19.67 -4.98,-5.21 -12.81,-6.37 -19.66,-5.48 -7.57,1.01 -12.19,7.75 -16.54,13.3 M 164.5,168 c 3.48,-2.86 7,-5.86 9.58,-9.58 -0.13,-0.53 -0.41,-1.57 -0.55,-2.1 -3.09,3.82 -7.01,7.11 -9.03,11.68 m 1.6,2.3 c 3.25,-2.24 5.67,-5.65 9.49,-7.01 -2.55,3.66 -6.45,6.31 -8.18,10.55 4.23,-2.42 7.3,-6.36 10.38,-10.04 -0.49,-1.4 -1.21,-2.69 -1.86,-4.02 -3.45,3.34 -6.94,6.67 -9.83,10.52 m 12.21,-4.28 c -3.02,3.49 -6.07,6.95 -9.01,10.5 0.09,0.67 0.26,2.01 0.34,2.68 3.87,-3.67 7.47,-7.62 10.6,-11.94 -0.49,-0.31 -1.45,-0.93 -1.93,-1.24 m -45.29,17.07 c -0.28,0.6 -0.84,1.79 -1.12,2.39 3.06,-2.02 6.13,-4.06 8.84,-6.53 -2.64,1.25 -5.13,2.78 -7.72,4.14 m 10.02,-3 c -4.22,2.83 -8.23,5.98 -12.1,9.27 -0.23,0.69 -0.7,2.06 -0.93,2.74 4.52,-3.07 7.83,-8.14 13.54,-9.15 -0.13,-0.96 -0.29,-1.92 -0.51,-2.86 m 2.63,9.34 c 2.23,-1.15 4.15,-2.81 5.71,-4.78 -2.37,0.95 -4.23,2.74 -5.71,4.78 m 9.07,1.68 c 1.05,-0.62 3.14,-1.85 4.19,-2.46 0.54,0.45 1.07,0.91 1.6,1.38 -1.14,0.85 -2.27,1.72 -3.38,2.61 -0.88,-0.52 -2.63,-1.55 -3.5,-2.06 1.02,1.38 2.27,2.89 4.07,3.19 1.51,-1.3 2.84,-2.8 4.33,-4.13 0.44,-0.41 1.31,-1.23 1.75,-1.64 -0.87,0.44 -2.61,1.33 -3.48,1.77 0.75,-1.66 1.6,-3.27 2.44,-4.89 -3.19,1.3 -6,3.41 -8.02,6.23 m -4.67,0.15 c 2.87,-1.01 5.07,-3.15 6.98,-5.44 -2.63,1.37 -5.25,2.96 -6.98,5.44 m 11.98,-1.62 1.6,0.88 c -1.21,0.97 -2.41,1.94 -3.61,2.92 0.34,0.1 1.02,0.31 1.36,0.41 2.94,-2.94 6.41,-5.23 9.65,-7.82 -2.98,1.27 -5.51,4.15 -9,3.61 m -0.46,6.56 c 0.92,1.25 1.83,2.5 2.86,3.66 3.92,-2.66 8.94,-4.19 11.85,-8.05 -4.8,-1.17 -7.76,5.17 -12.1,6.01 -0.08,-0.27 -0.25,-0.82 -0.34,-1.1 3.22,-3.54 8.13,-5.13 10.9,-9.13 -5.43,0.92 -9.44,4.88 -13.17,8.61 m 4.45,5.13 c 0.33,0.96 0.66,1.92 1,2.89 3.37,-2.43 7.33,-4.19 10.14,-7.3 l 0.29,-1.57 c -4.43,0.48 -7.77,3.77 -11.43,5.98 m 4.77,2.42 c 2.85,-0.89 5.64,-1.96 8.46,-2.94 -3.11,-1.79 -5.89,1.58 -8.46,2.94 m 5.23,0.05 c -3.24,1.56 -8.03,3.26 -7.09,7.8 3.82,-2.64 7.64,-5.27 11.37,-8.04 -1.42,-0.07 -2.95,-0.46 -4.28,0.24 m -5.82,9.5 c -0.01,1.66 -0.07,3.32 -0.09,4.99 3.55,-2.44 7.05,-4.94 10.85,-6.99 -0.42,-0.02 -1.27,-0.06 -1.69,-0.08 -2.76,1.33 -5.18,3.35 -7.99,4.51 -1.09,-1.35 0.59,-2.31 1.58,-2.98 2.71,-1.85 6.04,-3.1 7.75,-6.1 -4.07,1.14 -7.26,3.99 -10.41,6.65 m 0.2,6.51 c 0.14,0.68 0.44,2.03 0.59,2.71 3.71,-2.81 9.15,-4.32 10.65,-9.2 -3.81,2.07 -7.29,4.69 -11.24,6.49 m 0.77,5.27 c -0.02,1.94 -0.06,3.89 -0.11,5.84 3.21,-2.19 6.38,-4.46 9.66,-6.54 0.09,-0.77 0.26,-2.3 0.35,-3.06 -2.93,2.12 -5.75,4.42 -8.85,6.29 0.6,-3.68 4.36,-5.25 6.76,-7.63 -2.71,1.52 -5.31,3.24 -7.81,5.1 m -0.66,8.4 c -0.18,1.86 -0.36,3.71 -0.53,5.58 3.6,-2.85 7.53,-5.33 10.67,-8.72 -3.49,1.55 -6.5,3.95 -9.9,5.66 0.04,-0.48 0.12,-1.43 0.16,-1.9 3.18,-2.67 7.06,-4.36 10.16,-7.13 -3.71,1.84 -7.09,4.26 -10.56,6.51 m -1.3,9.62 c 3.84,-2.98 7.94,-5.67 11.37,-9.13 -4.29,2.32 -8.32,5.27 -11.37,9.13 m -3.82,7.95 c 3.65,-1.67 7.07,-3.89 9.97,-6.69 -3.64,1.69 -7.34,3.58 -9.97,6.69 z"
         id="path21"
         style="opacity:0.86000001;fill:#020000" />
      <path
         d="m 140.42,207.5 c 3.24,-0.74 6.38,1.51 7.75,4.33 3.89,7.4 2.9,16.2 1.35,24.09 -0.8,3.61 -2.16,8.44 -6.52,8.93 -4.86,1.14 -8.76,-2.9 -11.18,-6.56 -1.43,-6.63 -1,-13.53 -0.45,-20.24 0.15,-3.31 2.66,-5.7 4.68,-8.06 1.08,-1.36 2.65,-2.25 4.37,-2.49 m -4.55,11.42 c 3.01,-1.22 5.73,-3.05 8.03,-5.33 0.57,0.5 1.14,1.01 1.71,1.53 l -1.9,0.78 c 0.89,-0.05 2.67,-0.15 3.56,-0.2 -4.34,4.18 -9.39,7.49 -14.03,11.31 l 0.68,1.08 c 4.93,-3.36 9.78,-6.84 14.78,-10.09 -1.07,-1.96 -2.29,-3.83 -3.39,-5.78 -3.53,1.62 -6.83,3.79 -9.44,6.7 M 133.3,224 c 3.1,-1.85 6.04,-3.94 8.91,-6.13 -3.33,1.43 -6.76,3.08 -8.91,6.13 m 0.25,7.96 c 4.04,-2.29 7.37,-5.67 11.54,-7.77 1.67,-1.01 4.09,-1.54 3.78,-4.13 -5.31,3.61 -11.35,6.72 -15.32,11.9 m 7.38,-3.01 c -2.39,1.89 -5.29,3.52 -6.27,6.62 5.4,-3.45 11.44,-6.84 14.88,-12.43 -3.05,1.66 -5.89,3.67 -8.61,5.81 m -4.95,9.24 c 4.29,-1.8 7.78,-4.95 11.29,-7.92 -0.09,0.61 -0.27,1.84 -0.36,2.45 -3.16,2.69 -6.85,4.86 -9.41,8.2 4.22,-2.4 8.4,-5.16 11.44,-9.02 -0.61,-1.14 -1.15,-2.31 -1.66,-3.48 -3.72,3.32 -7.77,6.25 -11.3,9.77 z"
         id="path27"
         style="opacity:0.86000001;fill:#020000" />
    </g>
  </g>
</svg>
