<?xml version="1.0" encoding="UTF-8" standalone="no"?>
<!-- Created with Inkscape (http://www.inkscape.org/) -->

<svg
   xmlns:dc="http://purl.org/dc/elements/1.1/"
   xmlns:cc="http://creativecommons.org/ns#"
   xmlns:rdf="http://www.w3.org/1999/02/22-rdf-syntax-ns#"
   xmlns:svg="http://www.w3.org/2000/svg"
   xmlns="http://www.w3.org/2000/svg"
   version="1.1"
   width="65.540001"
   height="100"
   id="svg3337">
  <defs
     id="defs3339" />
  <metadata
     id="metadata3342">
    <rdf:RDF>
      <cc:Work
         rdf:about="">
        <dc:format>image/svg+xml</dc:format>
        <dc:type
           rdf:resource="http://purl.org/dc/dcmitype/StillImage" />
        <dc:title></dc:title>
      </cc:Work>
    </rdf:RDF>
  </metadata>
  <g
     transform="translate(0,-952.36218)"
     id="layer1">
    <g
       transform="matrix(0.80935255,0,0,0.80935255,-170.93526,840.34862)"
       id="g3125">
      <path
         d="m 211.2,150.79 c 7.07,-3.85 15.49,-5.75 21.12,-11.84 12.58,-0.1 25.15,-1.01 37.71,-0.25 5.96,0.22 11.91,-0.23 17.86,-0.08 0.21,0.66 0.64,1.98 0.85,2.64 0.52,0.28 1.55,0.84 2.07,1.12 1.07,8.84 0.58,17.76 1.31,26.63 0.57,4.37 -4.04,6.72 -6.06,10.03 -7.9,11.47 -13.21,24.59 -16.74,38.01 -1.61,7.89 -2.05,15.97 -1.96,24.01 0.12,1.86 -0.85,3.5 -1.57,5.14 -6.62,4.07 -10.99,10.76 -17.07,15.5 -8.1,-0.06 -16.36,1.07 -24.31,-1 -0.03,-8.17 0.52,-16.35 1.28,-24.49 1.12,-7.89 3.91,-15.41 5.78,-23.13 4.26,-12.74 11.33,-24.24 18.28,-35.65 -4.57,0.17 -9.13,0.34 -13.7,0.54 -7.46,0.48 -14.92,-0.64 -22.39,-0.02 -3.88,-8.51 -1.61,-18.14 -2.46,-27.16 m 68.55,-6.07 c -2.79,2.01 -6.15,3.37 -8.22,6.23 5.32,-2.54 10.55,-5.38 15.29,-8.91 -2.77,-1.05 -4.91,1.37 -7.07,2.68 m -13.79,6.26 c 5.03,-2.34 9.2,-6.11 13.85,-9.09 -6.12,-0.25 -9.78,5.44 -13.85,9.09 m -41.27,0.51 c 4.55,-2.28 8.8,-5.19 12.59,-8.59 -5.13,1.2 -8.98,5 -12.59,8.59 m 29.96,-0.18 c 4.16,-2.59 8.37,-5.12 12.36,-7.96 -5.05,0.69 -9.17,4.2 -12.36,7.96 m 16.5,-8.26 c -3.88,2.76 -8.03,5.21 -11.6,8.38 4.61,-1.55 8.18,-5.07 11.6,-8.38 m -40.38,8.99 c 4.16,-2.08 7.76,-5.18 10.78,-8.69 -4.09,2.14 -7.97,4.98 -10.78,8.69 m 6.01,-0.11 c 3.91,-2.19 7.52,-4.96 10.59,-8.24 -4.31,1.5 -7.85,4.66 -10.59,8.24 m 12,0.14 c 3.92,-1.92 7.05,-5.04 10.09,-8.09 -4.04,1.62 -7.73,4.39 -10.09,8.09 m -6.21,0.03 c 4.01,-1.3 7,-4.43 9.72,-7.51 -3.73,1.71 -7.58,3.85 -9.72,7.51 m 44.89,-4.59 c -3.95,2.18 -8.22,4.51 -10.35,8.69 3.85,-2.71 7.37,-5.93 11.67,-7.96 -0.01,-1.18 -0.02,-2.37 -0.03,-3.55 -0.43,0.94 -0.86,1.88 -1.29,2.82 m -69.86,3.58 c 2.49,-0.33 4.66,-1.61 6.62,-3.09 -2.42,0.49 -4.72,1.5 -6.62,3.09 m 61.95,7.14 c 3.8,-1.76 7.4,-3.99 10.6,-6.71 -4.47,0.07 -7.84,3.59 -10.6,6.71 m -65.76,-5.17 c -0.16,6.73 -0.14,13.48 1.03,20.14 9.54,0.17 19.1,1.22 28.62,0.11 4.8,-0.62 9.39,-3.14 14.32,-2.01 -4.19,4.78 -7.79,10.02 -10.68,15.68 -13.27,21.23 -20.56,46.49 -19.39,71.58 1.61,-0.26 3.13,-0.84 4.36,-1.94 5.56,-0.12 11.12,-0.28 16.68,-0.55 0.21,-7.06 0.51,-14.14 2.16,-21.03 2.24,-14.36 5.9,-28.84 13.95,-41.14 3.18,-6.51 7.77,-12.14 11.51,-18.29 -1.5,1.05 -2.9,2.26 -4,3.74 -4.36,5.71 -9.11,11.3 -11.94,17.98 -0.85,2 -1.81,3.98 -3.36,5.54 1.54,-9.93 8.43,-17.74 14.42,-25.38 1.19,-1.7 2.82,-3.02 4.68,-3.95 0.88,-7.16 -1.26,-14.12 -1.77,-21.21 -1.72,0.82 -3.42,1.92 -5.4,1.88 -7.3,0.26 -14.6,0.21 -21.9,0.01 -11.08,-0.86 -22.24,0.21 -33.29,-1.16 m 64.33,10 c 3.42,-1.3 6.32,-3.6 8.98,-6.05 -3.15,1.75 -6.42,3.46 -8.98,6.05 m 0.57,4.88 c 3.5,-2.03 6.79,-4.45 10.57,-5.96 0.07,-1.05 0.14,-2.1 0.22,-3.15 -4.03,2.43 -8.2,5.06 -10.79,9.11 m -0.28,4.26 c 4.1,-1.84 7.94,-4.32 11.23,-7.39 -4.42,1.19 -8.18,4.07 -11.23,7.39 m 0.34,9.08 c 3.17,-1.56 5.74,-4.08 7.45,-7.17 -2.84,1.99 -5.46,4.32 -7.45,7.17 m -9.26,9.45 c 3.87,-2.05 8.72,-3.51 10.73,-7.76 -3.75,2.3 -7.81,4.39 -10.73,7.76 m -2.94,5.55 c 3.81,-1.53 7.88,-3.23 10.28,-6.76 -3.77,1.67 -7.2,4.03 -10.28,6.76 m -3.67,6.55 c 3.61,-1.73 6.9,-4.02 10.41,-5.95 0.16,-0.42 0.49,-1.26 0.65,-1.69 -3.94,2.15 -7.79,4.54 -11.06,7.64 m -2.77,5.44 c 4.61,-1.89 9.61,-4.03 12.55,-8.26 -4.55,2.11 -8.86,4.85 -12.55,8.26 m -1.2,7.64 c -1.43,0.91 -1.92,2.61 -2.69,4.01 3.65,-2.18 6.91,-4.93 10.4,-7.34 1.39,-0.86 2.09,-2.39 2.88,-3.75 -3.58,2.28 -7.15,4.6 -10.59,7.08 m -3.82,8.93 c 4.32,-2.73 9.48,-4.81 12.43,-9.19 -4.49,2.44 -9.55,4.8 -12.43,9.19 m -0.85,4.29 c 4.59,-2.62 9.34,-5.26 12.89,-9.25 -4.46,2.83 -8.82,5.87 -12.89,9.25 m 3.15,1.18 c -1.69,1.11 -2.99,2.66 -3.89,4.46 4.6,-3.45 10.34,-5.74 13.61,-10.67 -3.77,1.13 -6.56,4.04 -9.72,6.21 m -4.86,9.56 c 4.53,-3.44 9.99,-6.03 13.4,-10.7 -4.92,2.88 -9.85,6.18 -13.4,10.7 m -0.86,4.95 c 2.42,-1.55 4.61,-3.42 6.91,-5.14 2.55,-1.95 5.6,-3.36 7.39,-6.14 -5.37,2.87 -10.18,6.82 -14.3,11.28 m -0.14,4.84 c 4.26,-2.36 7.86,-5.7 11.9,-8.38 1.44,-0.78 2.05,-2.24 2.23,-3.81 -5.37,3.17 -10.36,7.18 -14.13,12.19 z"
         id="path19"
         style="opacity:0.86000001;fill:#020000" />
    </g>
  </g>
</svg>
