<?xml version="1.0" encoding="UTF-8" standalone="no"?>
<!-- Created with Inkscape (http://www.inkscape.org/) -->

<svg
   xmlns:dc="http://purl.org/dc/elements/1.1/"
   xmlns:cc="http://creativecommons.org/ns#"
   xmlns:rdf="http://www.w3.org/1999/02/22-rdf-syntax-ns#"
   xmlns:svg="http://www.w3.org/2000/svg"
   xmlns="http://www.w3.org/2000/svg"
   version="1.1"
   width="66.510002"
   height="100"
   id="svg3370">
  <defs
     id="defs3372" />
  <metadata
     id="metadata3375">
    <rdf:RDF>
      <cc:Work
         rdf:about="">
        <dc:format>image/svg+xml</dc:format>
        <dc:type
           rdf:resource="http://purl.org/dc/dcmitype/StillImage" />
        <dc:title></dc:title>
      </cc:Work>
    </rdf:RDF>
  </metadata>
  <g
     transform="translate(0,-952.36218)"
     id="layer1">
    <g
       transform="matrix(0.7657545,0,0,0.7657545,-240.9574,849.00306)"
       id="g3128">
      <path
         d="m 367.31,135.99 c 3.28,-2.22 7.25,-0.37 10.2,1.52 4.95,3.92 10.12,8.02 12.94,13.83 2.41,4.99 5.12,10.02 5.71,15.63 1.27,9.01 2.32,19.06 -2.93,27.09 4.9,7.8 6.34,17.03 7.79,25.96 1.5,9.39 -0.37,19.41 -5.57,27.41 -5.88,6.99 -14.35,11.72 -23.32,13.38 -5.45,0.95 -10.55,3.49 -16.12,3.79 -5.26,0.61 -10.66,1.74 -15.88,0.17 -8.41,-1.98 -14.5,-8.67 -19.47,-15.32 -2.88,-3.96 -4.16,-8.76 -5.46,-13.41 -1.19,-4.33 -0.06,-8.81 0.24,-13.18 0.4,-7.48 3.96,-14.61 8.95,-20.08 -2.97,-2.8 -4.8,-6.51 -5.91,-10.39 -1.1,-3.88 -2.66,-7.88 -1.9,-11.97 1.37,-7.95 2.4,-16.64 7.95,-22.94 5.79,-6.47 13.36,-11.04 21.1,-14.77 7.04,-2.77 13.8,-7.18 21.68,-6.72 m -5.1,3.07 c -1.24,1.47 1.42,2.47 2.22,1.17 1.27,-1.46 -1.44,-2.49 -2.22,-1.17 m 7.53,4.79 c -3.34,2.31 -7.31,3.38 -10.96,5.06 7.18,-0.59 13.22,-4.92 19.49,-8.04 -3.26,-1.38 -5.92,1.48 -8.53,2.98 m -7.08,7.03 c 5.19,-1.76 10.65,-3.45 14.86,-7.13 -5.04,2.18 -10.08,4.43 -14.86,7.13 m 8.65,-1.55 c -2.1,1.13 -5.37,1.68 -5.47,4.65 5.6,-2.79 11.6,-5.48 15.75,-10.34 -3.43,1.91 -6.63,4.21 -10.28,5.69 m 9.84,-2.17 c -4.32,3.11 -9.14,5.46 -13.38,8.67 6.14,-2.38 11.89,-5.66 17.6,-8.92 -1.43,-0.36 -3.01,-0.95 -4.22,0.25 m -53.33,10.68 c -6.49,6.2 -8.1,15.57 -8.71,24.13 0.06,7.81 2.97,15.98 9.62,20.56 -2.65,2.79 -5.83,5.21 -7.42,8.84 -3.4,5.6 -3.74,12.27 -4.24,18.63 -0.37,3.97 1.07,7.76 2.24,11.48 1.86,6.05 6.48,10.69 10.92,14.98 6.42,1.74 12.7,4.06 19.37,4.73 -1.33,0.6 -2.65,1.2 -3.97,1.82 7.51,-0.05 14.47,-3.08 21.1,-6.3 3.87,-2.46 7.11,-6.03 8.8,-10.32 1.65,-4 3.55,-8.03 3.81,-12.41 0.66,-11.11 -2.9,-22.69 -10.6,-30.87 9.96,-12.45 10.56,-32.26 -0.64,-44.15 -4.25,-5.86 -11.44,-8.23 -18.13,-10 -8.35,-1.05 -16.19,3.44 -22.15,8.88 m 42.84,-0.48 c 0.27,0.56 0.79,1.69 1.06,2.25 5.6,-2.48 10.49,-6.22 15.84,-9.15 -0.49,-0.48 -1.47,-1.43 -1.96,-1.91 -4.54,3.69 -10.39,5.2 -14.94,8.81 m 2.28,3.63 c 0.45,0.4 1.34,1.19 1.79,1.59 4.89,-2.31 9.71,-4.8 14.28,-7.7 -0.19,-0.84 -0.58,-2.5 -0.77,-3.34 -4.52,4.02 -10.01,6.63 -15.3,9.45 m 1.49,4.48 c 2.55,0.77 4.61,-1.03 6.68,-2.16 3.51,-2.23 7.55,-3.81 10.28,-7.07 -6.02,2.29 -11.61,5.68 -16.96,9.23 m 1.69,3.87 c 5.02,-1.76 9.81,-4.2 14.26,-7.12 1.22,-0.58 1.17,-2.06 1.55,-3.15 -5.38,3.19 -11.53,5.6 -15.81,10.27 m 5.84,-0.31 c -1.85,1.01 -4.25,1.8 -4.65,4.2 5.56,-1.81 9.99,-5.86 15.44,-7.9 -3.17,5.82 -11.12,6.09 -14.36,11.7 4.78,-1.51 9.04,-4.3 13.88,-5.66 -2.94,3.86 -7.84,4.98 -11.88,7.24 -1.62,0.5 -1.23,2.52 -1.75,3.76 5.59,-2.23 10.61,-5.6 15.77,-8.66 -0.56,-3.65 -0.96,-7.32 -1.39,-10.99 -3.63,2.21 -7.25,4.44 -11.06,6.31 m 4.04,11.91 c -2.84,1.73 -6.16,2.94 -8.11,5.81 5.03,-1.95 9.85,-4.48 14.33,-7.49 1.52,-0.85 2.26,-2.46 2.84,-4.04 -3.09,1.8 -5.98,3.92 -9.06,5.72 m -9.23,10.12 c 5.64,-2.06 10.08,-6.49 15.89,-8.18 0.09,0.29 0.28,0.87 0.37,1.16 -4.29,3.43 -10.09,5.2 -14.38,8.92 4.67,-1.77 9.21,-4.53 14.42,-3.46 0.9,-3.15 2.22,-6.32 1.51,-9.67 -5.69,4.14 -12.58,6.47 -17.81,11.23 m 3.91,4.94 c 0.1,-0.68 0.32,-2.04 0.42,-2.73 -1.99,1.42 -4.07,2.72 -5.93,4.3 0.93,-0.51 2.78,-1.53 3.71,-2.05 0.55,0.52 1.09,1.05 1.64,1.58 l -1.71,1.15 c 4.36,-2.19 8.74,-4.45 12.59,-7.49 -3.83,1.2 -7.21,3.39 -10.72,5.24 m 0.06,5.05 c 2.77,-0.95 5.37,-2.37 7.61,-4.26 -2.77,0.96 -5.33,2.44 -7.61,4.26 m 0.86,1.48 c -2.89,1.33 -6.07,2.3 -8.32,4.68 6.47,-1.45 11.99,-5.73 18.5,-7.02 0.01,0.25 0.05,0.74 0.07,0.98 -5.04,2.87 -10.51,4.86 -15.71,7.4 0.28,1 0.56,1.99 0.86,2.99 5.24,-3.87 11.4,-6.14 17.16,-9.08 -0.77,-1.87 -1.52,-3.75 -2.32,-5.6 -3.36,1.97 -6.65,4.1 -10.24,5.65 m -3.58,10.63 c 0.35,0.97 0.71,1.94 1.07,2.91 5.58,-2.96 11.54,-5.13 17.23,-7.89 -0.47,-1.37 -0.93,-2.74 -1.38,-4.11 -5.92,2.48 -11.57,5.55 -16.92,9.09 m 3.96,3.81 c -1.4,0.71 -1.96,2.25 -2.66,3.55 6.18,-2.01 11.82,-5.33 17.92,-7.54 -0.1,-0.78 -0.29,-2.35 -0.38,-3.13 -5.05,2.16 -10.19,4.23 -14.88,7.12 m 1.75,3.75 c -1.6,0.63 -2.6,2.05 -3.52,3.41 5.48,-0.83 10.56,-3.25 16.04,-4.1 -4.05,3.56 -9.5,4.28 -14.34,6.19 -0.25,0.67 -0.76,2 -1.01,2.67 5.93,-1.71 11.66,-5.24 18.06,-4.39 -0.48,-3.36 -0.94,-6.73 -1.49,-10.08 -4.57,2.11 -9.15,4.24 -13.74,6.3 m -1.56,10.64 c -0.26,0.68 -0.77,2.05 -1.03,2.73 5.92,-1.7 11.86,-3.34 17.65,-5.46 0.01,-1.24 0.03,-2.48 0.05,-3.72 -5.64,1.85 -11.69,3.06 -16.67,6.45 m 1.54,4.39 c -1.59,0.45 -2.49,1.87 -3.36,3.15 5.53,-1.48 10.82,-3.96 16.58,-4.44 -0.92,1.39 -2.27,2.33 -3.93,2.55 -5.14,1.42 -10.97,2.65 -14.51,6.99 5.45,-0.85 10.43,-3.34 15.73,-4.77 0.58,0.2 1.76,0.62 2.34,0.82 0.76,-3.17 1.53,-6.35 2.12,-9.57 -5.06,1.54 -10.06,3.3 -14.97,5.27 m -7.06,13.18 c 5.49,-0.4 10.62,-2.62 15.7,-4.58 1.97,-0.63 3.04,-2.46 4.22,-4.01 -6.71,2.57 -14.52,3.45 -19.92,8.59 m 12.92,-1.65 c -0.99,0.42 -3.03,0.42 -3.13,1.77 1.56,0.75 3.54,-0.08 4.87,-1.01 1.05,-1.11 -1.21,-1.09 -1.74,-0.76 m -9.09,6.55 c 1.27,0.69 4.01,-0.16 4.02,-1.74 -1.27,-0.62 -3.99,0.18 -4.02,1.74 z"
         id="path15"
         style="opacity:0.86000001;fill:#020000" />
      <path
         d="m 341.76,169.94 c 2.24,-5.62 11.16,-3.84 13.23,1.09 2.5,5.91 1.85,12.55 1.36,18.79 -0.28,-0.53 -0.86,-1.6 -1.14,-2.13 -1.84,2.36 -3.26,5.5 -6.23,6.63 -3.04,0.95 -6.09,-1.13 -7.45,-3.77 -3.35,-6.38 -2.74,-14.21 0.23,-20.61 m 0.7,3.62 c 0.44,0.59 0.89,1.18 1.36,1.76 2.15,-2.23 4.99,-3.56 7.57,-5.22 -3.35,-0.11 -6.33,1.51 -8.93,3.46 m 4.19,1.02 c -1.84,0.99 -4.22,1.43 -5.16,3.53 4.6,-0.97 9,-2.83 12.91,-5.45 -2.81,-1.31 -5.28,0.86 -7.75,1.92 m -4.25,5.75 c -0.25,0.72 -0.76,2.17 -1.01,2.89 4.26,-2.44 10.1,-3.28 12.69,-7.79 -3.93,1.51 -8,2.82 -11.68,4.9 m -0.76,5.68 c 3.62,-1.01 7.19,-2.29 10.58,-3.91 1.41,-0.51 1.57,-2.15 2.18,-3.3 -4.43,2.04 -8.94,4.13 -12.76,7.21 m 1.5,2.35 c 3.68,-0.87 7.21,-2.39 10.25,-4.65 -3.7,0.82 -7.14,2.52 -10.25,4.65 m 1.55,2.49 c 3.24,-0.79 6.3,-2.24 8.81,-4.46 -3.18,0.96 -6.13,2.52 -8.81,4.46 z"
         id="path23"
         style="opacity:0.86000001;fill:#020000" />
      <path
         d="m 373.65,183.28 c 0.29,0.04 0.86,0.12 1.14,0.16 -1.33,6.46 -3.25,13.09 -7.61,18.2 1.73,-6.28 5.75,-11.77 6.47,-18.36 z"
         id="path25"
         style="opacity:0.86000001;fill:#020000" />
      <path
         d="m 347.29,211.43 c 2.99,-0.64 7.22,-0.69 8.73,2.56 2.38,3.53 2.77,7.91 2.41,12.04 -0.22,5.57 -0.95,11.48 -4.2,16.18 -2.28,3.43 -8.37,3.92 -10.46,0.02 -4.45,-7.29 -4.05,-16.36 -2,-24.35 0.76,-2.8 2.81,-5.35 5.52,-6.45 M 342.51,224 c 4.14,-1.85 8.04,-4.39 12.63,-5.02 -3.81,3.54 -9.7,4.01 -12.89,8.24 4.83,-1.36 9.25,-3.83 14.09,-5.17 -0.48,-2.07 -0.96,-4.15 -1.46,-6.21 -4.25,2.4 -10.7,2.84 -12.37,8.16 m -0.15,7.13 c 3.99,-0.99 7.73,-2.7 11.44,-4.43 1.64,-0.48 2.28,-2.11 2.96,-3.52 -4.91,2.3 -10.84,3.58 -14.4,7.95 m 3.63,0.87 c -1.61,0.57 -2.62,1.88 -3.05,3.53 3.84,-1.66 7.52,-3.87 11.72,-4.51 -3.23,3 -7.58,4.32 -11.01,7.06 3.34,-0.73 6.53,-1.98 9.79,-2.97 -1.2,1.07 -2.41,2.13 -3.63,3.18 1.6,-0.52 3.21,-1.03 4.82,-1.55 0.62,-3.03 1.03,-6.11 1.35,-9.19 -3.38,1.38 -6.69,2.89 -9.99,4.45 m 4.43,8.63 c 0.92,0.86 2.92,-0.4 2.22,-1.6 -0.93,-0.94 -2.9,0.42 -2.22,1.6 z"
         id="path29"
         style="opacity:0.86000001;fill:#020000" />
      <path
         d="m 367.16,252.18 c 1.73,-1.52 3.41,-3.11 5.27,-4.49 0.03,3.18 -2.77,5 -5.07,6.62 -3.58,2.24 -7.55,4 -11.8,4.42 3.68,-2.52 8.26,-3.5 11.6,-6.55 z"
         id="path31"
         style="opacity:0.86000001;fill:#020000" />
    </g>
  </g>
</svg>
