<?xml version="1.0" encoding="UTF-8" standalone="no"?>
<!-- Created with Inkscape (http://www.inkscape.org/) -->

<svg
   xmlns:dc="http://purl.org/dc/elements/1.1/"
   xmlns:cc="http://creativecommons.org/ns#"
   xmlns:rdf="http://www.w3.org/1999/02/22-rdf-syntax-ns#"
   xmlns:svg="http://www.w3.org/2000/svg"
   xmlns="http://www.w3.org/2000/svg"
   version="1.1"
   width="67.440002"
   height="100"
   id="svg3409">
  <defs
     id="defs3411" />
  <metadata
     id="metadata3414">
    <rdf:RDF>
      <cc:Work
         rdf:about="">
        <dc:format>image/svg+xml</dc:format>
        <dc:type
           rdf:resource="http://purl.org/dc/dcmitype/StillImage" />
        <dc:title></dc:title>
      </cc:Work>
    </rdf:RDF>
  </metadata>
  <g
     transform="translate(0,-952.36218)"
     id="layer1">
    <g
       transform="matrix(0.76143115,0,0,0.76143115,-2.4188001,748.75911)"
       id="g3135">
      <path
         d="m 38.97,269 c 8.07,-3.13 17.16,-1.31 24.79,2.27 3.5,1.77 7.74,2.54 10.24,5.83 -2.74,-0.87 -5.38,-2 -8.06,-3.02 7.05,4.23 14.66,8.71 18.51,16.31 3.01,4.95 4.12,10.68 5.54,16.21 2.05,7.98 1.03,16.27 1.75,24.4 -0.23,7.44 0.39,15.05 -1.46,22.34 -1.79,5.45 -2.52,11.34 -5.68,16.26 -2.37,4.8 -7.04,7.67 -10.84,11.2 -6.75,6.58 -14.77,11.77 -23.34,15.65 -3.62,1.5 -7.52,2.3 -11.44,2.15 -6.35,-0.08 -13.35,1.13 -18.98,-2.58 -6.47,-4.45 -12.3,-10.46 -14.64,-18.13 -1.01,-2.98 -2.94,-7 0.37,-9.28 4.42,-2.89 9.07,-5.47 13.47,-8.43 -7.27,-4.34 -11.46,-12.19 -13.43,-20.2 -4.24,-11.46 -3.24,-24.86 2.7,-35.56 1.71,-3.61 2.72,-7.55 4.96,-10.9 3.37,-5.24 6.42,-10.83 11.12,-15.03 4.14,-4.11 9.65,-6.25 14.42,-9.49 m -10.99,14.76 c 0.56,-0.04 1.68,-0.12 2.24,-0.16 2.86,-3.02 6.47,-5.14 9.73,-7.68 1.73,-1.3 3.46,-2.82 5.73,-3.02 -0.06,-0.54 -0.17,-1.6 -0.23,-2.13 -6.26,3.69 -11.89,8.36 -17.47,12.99 m 18.93,-10.9 c 0.7,-0.41 0.7,-0.41 0,0 m -1.23,0.04 c -0.76,0.77 -3.27,1.77 -2.26,3.11 1.44,-0.39 3.44,-1.5 3.49,-3.15 -0.31,0.01 -0.92,0.03 -1.23,0.04 m -22.65,11.35 c 5.11,-2.81 9.67,-6.59 14.03,-10.44 -5.53,2.11 -9.88,6.37 -14.03,10.44 m 14.87,-0.32 c 5.27,-3 9.91,-7.08 14.01,-11.52 -5.41,2.78 -9.99,7.01 -14.01,11.52 m 4.47,0.58 c 5.46,-2.4 9.82,-6.63 14.72,-9.94 -0.19,0.96 -0.57,2.87 -0.75,3.83 0.58,-1.25 1.14,-2.51 1.68,-3.77 0.41,0.55 1.24,1.64 1.65,2.18 -3.63,3.16 -7.87,5.66 -10.86,9.51 3.65,-1.55 6.45,-4.45 9.48,-6.91 l 1.22,1.35 -0.96,-1.31 c 1.62,-1.2 3.23,-2.39 4.81,-3.62 -2.69,-1 -5.34,-2.38 -8.26,-2.52 -4.57,3.29 -9.02,6.93 -12.73,11.2 m -8.59,-1.1 c 2.93,-1.62 5.93,-3.48 8.01,-6.14 -3.32,0.84 -5.8,3.65 -8.01,6.14 m 25.73,-2.65 c -0.91,0.73 -1.76,1.51 -2.61,2.3 3.35,-1.77 6.64,-3.71 9.55,-6.16 -2.49,0.95 -4.9,2.13 -6.94,3.86 m 7.45,-1.78 c -4.48,2.78 -9.32,5.39 -12.54,9.7 3.37,-1.56 6.13,-4.12 9.35,-5.93 2.16,-1.3 4.56,-2.26 6.45,-3.98 -1.09,-0.25 -2.29,-0.58 -3.26,0.21 m -9.36,11.2 c 1.91,0.84 3.1,-1.16 4.45,-2.07 3.18,-3.21 7.56,-4.69 10.98,-7.58 -5.78,1.84 -11.75,4.66 -15.43,9.65 m 2.65,3.05 c 5.31,-3.08 10.38,-6.56 15.77,-9.51 -0.46,-0.39 -1.37,-1.17 -1.83,-1.56 -4.99,3.15 -10.94,5.68 -13.94,11.07 m 1.97,2.35 c 5.47,-2.17 9.74,-6.72 15.59,-8.09 -3.99,3.64 -8.83,6.2 -13.1,9.5 0.31,0.63 0.92,1.88 1.23,2.51 4.89,-3.75 10.41,-6.58 16.13,-8.83 -1.47,-1.94 -2.96,-3.86 -4.48,-5.76 -5.34,3.18 -11.47,5.63 -15.37,10.67 m -38.61,-6.89 c -6.59,3.42 -10.5,10.17 -12.84,16.97 -5.01,8.28 -6.12,18.42 -4.42,27.83 1.46,5.06 3.1,10.11 5.24,14.94 2.75,6.18 9.06,9.64 15.14,11.81 7.79,2.64 16.11,-0.77 22.24,-5.62 -0.14,5.36 -0.54,10.85 -2.34,15.94 -1.92,3.42 -5.34,5.82 -8.69,7.73 -3.9,0.68 -6.41,-3.06 -8.53,-5.7 -7.72,-0.03 -15.47,-0.12 -23.12,-1.3 1.33,9.74 7.97,18.11 16.4,22.87 4.97,2.73 10.89,1.27 16.3,1.52 5.51,0.24 11.16,-1.49 15.16,-5.37 -4.83,1 -9.16,3.73 -14.14,4.11 2.55,-2.3 5.99,-2.98 9.03,-4.36 3.46,-1.49 6.6,-3.61 9.51,-5.98 0.75,0.26 1.5,0.52 2.25,0.79 0.86,-1.15 1.75,-2.27 2.52,-3.48 7.98,-15.83 8.09,-34.08 7.72,-51.41 0.14,-1.53 -1.3,-2.35 -2.16,-3.34 0.43,-0.31 1.3,-0.92 1.74,-1.22 -1.58,-10.8 -3.49,-22.49 -11.36,-30.68 -3.24,-4.05 -8.48,-5.27 -13.11,-6.99 -7.23,-2.49 -15.73,-3.1 -22.54,0.94 m 54.58,5.49 c -4.27,2.15 -8.7,4.42 -11.65,8.33 6.16,-2.48 11.82,-6.09 17.95,-8.68 -1.97,-1.81 -4.3,-0.58 -6.3,0.35 m -9.26,10.12 c 0.08,0.73 0.22,2.2 0.3,2.93 3.33,-2.37 6.72,-4.7 10.48,-6.35 2.28,-1.23 5.54,-1.92 5.67,-5.09 -6.01,1.61 -11.4,4.97 -16.45,8.51 m 7.57,0.15 c -2.65,1.75 -5.81,3.17 -7.1,6.3 5.62,-1.22 10.14,-5.17 15.77,-6.4 -4.04,4.73 -12.01,4.89 -14.59,10.9 5.99,-2.31 11.31,-6.14 17.56,-7.86 -0.65,-2.58 -1.56,-5.09 -2.69,-7.5 -3.04,1.4 -6.13,2.75 -8.95,4.56 m 3.33,8.32 c -3.06,1.9 -6.96,3.08 -8.63,6.56 4.31,-1.59 8.14,-4.23 12.49,-5.73 2.28,-0.98 5.4,-1.41 5.44,-4.6 -3.29,0.73 -6.43,2 -9.3,3.77 m -6.09,8 c -1.03,0.65 -1.26,1.93 -1.78,2.94 5.22,-2.71 10.14,-5.94 15.26,-8.8 l 0.88,1.25 c -4.41,3.35 -9.8,5.26 -13.82,9.15 -1.22,0.96 -1.25,2.65 -1.77,4 5.2,-3.08 10.56,-5.89 16.31,-7.79 0.05,-2.74 0.04,-5.47 -0.07,-8.2 -5.41,1.54 -10.44,4.21 -15.01,7.45 m 7.1,9.03 c -2.82,2.2 -6.91,3.44 -8.02,7.2 5.1,-2.86 10.17,-5.87 14.93,-9.27 1.7,-1.03 0.95,-3.43 1.54,-4.97 -3.11,1.99 -5.24,5.16 -8.45,7.04 m -7.02,2.29 c 3.34,-1.75 6.4,-3.99 9.33,-6.35 -3.54,1.38 -6.81,3.47 -9.33,6.35 m 0.07,7.08 c -0.28,0.68 -0.85,2.03 -1.14,2.71 5.64,-2.79 11.45,-5.28 16.84,-8.53 -0.2,-0.95 -0.59,-2.85 -0.79,-3.81 -5.03,3.12 -10.21,6.04 -14.91,9.63 m 0.02,5.13 c -0.28,0.65 -0.84,1.96 -1.13,2.61 6.2,-2.94 12.15,-6.54 17.33,-11.05 -5.83,1.86 -11.14,5.07 -16.2,8.44 m 0.26,4.88 c -1.44,0.92 -1.17,2.84 -1.67,4.26 5.48,-3.19 10.82,-6.61 16.39,-9.63 0,-1.44 0.01,-2.88 0.01,-4.31 -4.95,3.16 -10.07,6.11 -14.73,9.68 m -1.7,7.21 c -0.1,0.71 -0.29,2.13 -0.39,2.84 4.55,-3.4 9.64,-5.92 14.65,-8.56 2.15,-0.71 1.9,-3.21 2.41,-4.99 -6.08,2.71 -11.31,6.85 -16.67,10.71 m -1.33,7.05 c 5.11,-2.17 9.81,-5.16 14.78,-7.63 1.55,-0.62 1.75,-2.45 2.45,-3.75 -6.19,2.94 -12.73,6.04 -17.23,11.38 m -0.69,4.5 c 3.25,-1.4 6.19,-3.39 9.44,-4.79 2.64,-1.26 6.13,-2.05 6.68,-5.46 -5.8,2.59 -11.75,5.52 -16.12,10.25 m -36.06,2.49 c -0.46,0.98 -2.1,2.33 -0.38,3.23 3.16,-3.11 5.96,-6.79 10.1,-8.67 -2.42,3.86 -6.2,6.62 -8.64,10.47 3.38,-0.94 5.74,-3.59 7.99,-6.09 1.98,-1.96 1.59,-5 2.16,-7.51 -3.94,2.56 -8.51,4.56 -11.23,8.57 m -15.57,-0.22 c 3.23,-1.87 5.74,-4.69 8.11,-7.52 -3.16,1.94 -6.04,4.41 -8.11,7.52 m 49.95,2.96 c 4.39,-2.04 8.32,-4.92 12.79,-6.8 1.73,-0.63 2.66,-2.27 3.66,-3.69 -5.9,2.7 -12.14,5.45 -16.45,10.49 m 3.78,0.43 c -1.98,1.15 -3.99,2.39 -5.19,4.42 3.4,-1.74 6.38,-4.14 9.74,-5.93 2.12,-1.13 4.24,-2.35 5.79,-4.22 -3.72,1.38 -6.92,3.77 -10.34,5.73 z"
         id="path33"
         style="opacity:0.86000001;fill:#020000" />
      <path
         d="m 30.93,305.01 c 2.17,-2.66 5.89,-2.23 8.94,-2.81 3.06,3.27 6.02,6.89 6.71,11.48 1.61,7.59 3.4,16.25 -0.56,23.41 -3.28,4.8 -10.5,3.75 -14.41,0.37 -3.74,-5.72 -3.8,-12.9 -4.05,-19.51 -0.3,-4.47 0.36,-9.44 3.37,-12.94 M 30,310.39 c 2.29,-1.3 4.14,-3.22 5.38,-5.54 -2.46,1.11 -4.25,3.12 -5.38,5.54 m 9.16,-4.43 c -3.77,2.89 -7.81,5.76 -10.35,9.87 4.2,-2.4 7.49,-6.03 10.35,-9.87 m -7.63,14.67 c -1.28,0.83 -1.59,2.36 -2.11,3.7 3.69,-2.96 6.68,-6.81 10.94,-9.04 1.68,-1.16 4.76,-1.78 3.66,-4.51 -4.55,2.74 -8.37,6.52 -12.49,9.85 m -2.35,-1.15 c 2.64,-1.35 4.84,-3.37 6.75,-5.6 -2.63,1.34 -5.23,2.97 -6.75,5.6 m 1.76,6.82 c 3.86,-2.23 7.27,-5.13 11.03,-7.51 1.57,-0.9 2.64,-2.37 3.24,-4.06 -5.2,3.26 -9.77,7.41 -14.27,11.57 m 5.52,-0.77 c -2.12,1.81 -4.9,3.03 -6.14,5.69 5.52,-3.83 11.26,-7.54 15.83,-12.54 -3.98,1.08 -6.54,4.45 -9.69,6.85 m -4.94,7.29 c 0.54,1.4 1.34,2.67 2.28,3.84 2.93,-2.11 6.01,-3.99 9.17,-5.74 1.47,-0.53 1.86,-2.12 2.51,-3.36 -4.15,1.62 -7.45,4.68 -10.79,7.51 -0.38,-0.34 -1.13,-1.02 -1.51,-1.36 3.6,-4.43 10.37,-6.1 12.84,-11.83 -4.97,3.47 -9.5,7.52 -14.5,10.94 m 11.8,0.53 c -1.08,0.11 -2.58,1.38 -1.94,2.53 1.3,0.76 3.97,-2 1.94,-2.53 z"
         id="path41"
         style="opacity:0.86000001;fill:#020000" />
      <path
         d="m 37.32,358.44 c 4.28,-3.6 9.42,-6.01 13.47,-9.94 -1.87,5.81 -7.93,8.69 -13.47,9.94 z"
         id="path47"
         style="opacity:0.86000001;fill:#020000" />
    </g>
  </g>
</svg>
