<?xml version="1.0" encoding="UTF-8" standalone="no"?>
<!-- Created with Inkscape (http://www.inkscape.org/) -->

<svg
   xmlns:dc="http://purl.org/dc/elements/1.1/"
   xmlns:cc="http://creativecommons.org/ns#"
   xmlns:rdf="http://www.w3.org/1999/02/22-rdf-syntax-ns#"
   xmlns:svg="http://www.w3.org/2000/svg"
   xmlns="http://www.w3.org/2000/svg"
   version="1.1"
   width="30"
   height="100"
   viewBox="0 0 24 80"
   id="svg2">
  <metadata
     id="metadata13">
    <rdf:RDF>
      <cc:Work
         rdf:about="">
        <dc:format>image/svg+xml</dc:format>
        <dc:type
           rdf:resource="http://purl.org/dc/dcmitype/StillImage" />
        <dc:title></dc:title>
      </cc:Work>
    </rdf:RDF>
  </metadata>
  <defs
     id="defs11" />
  <g
     transform="matrix(0.71991114,0,0,0.71991114,-8.0744525,44.983522)"
     id="#020000db">
    <path
       d="m 24.6,13.88 c 5.94,0.96 12.1,-2.15 17.79,0.29 0.68,1.28 1.39,2.53 2.11,3.78 0.1,6.52 0.11,13.06 -0.43,19.56 -6.09,1.72 -7.75,9.61 -13.9,11.13 -5.81,-0.09 -11.63,-0.52 -17.45,-0.09 -0.73,-2.1 -1.57,-4.23 -1.5,-6.48 0.11,-6.1 0.3,-12.2 0.45,-18.3 4.67,-2.77 9.1,-6.01 12.93,-9.89 m 3.38,8.73 c 0.45,0.1 1.35,0.28 1.8,0.38 2.07,-2.77 4.6,-5.13 7.32,-7.26 -3.84,1.03 -6.01,4.68 -9.12,6.88 m 13.76,-5.72 c -2.99,3.24 -6.66,5.83 -9.17,9.5 3.21,-2.33 6.71,-4.44 9.38,-7.41 -0.06,-0.52 -0.16,-1.57 -0.21,-2.09 m -17.88,6.34 c 2.36,-0.93 3.99,-2.92 5.52,-4.85 -2.08,1.32 -4.02,2.88 -5.52,4.85 m 8.8,7.33 c 3.83,-2.04 8.43,-4.41 9.75,-8.87 -3.56,2.5 -7.93,4.71 -9.75,8.87 M 13.71,25.99 c -0.08,4.66 0.19,9.32 -0.01,13.99 0.11,1.39 -0.2,3.27 1.14,4.19 5.5,0.53 11.04,-0.16 16.56,0.12 0.59,-6.29 0,-12.67 -1,-18.89 -2.84,2.1 -6.46,2.01 -9.81,2.39 0.15,-0.56 0.43,-1.66 0.57,-2.22 2.68,0.85 5.45,0.39 8.1,-0.32 -5.2,-0.5 -10.38,0.21 -15.55,0.74 m 20.28,7.14 c -0.12,0.63 -0.34,1.87 -0.45,2.49 3.38,-2.9 6.35,-6.26 8.97,-9.85 -2.81,2.48 -5.95,4.62 -8.52,7.36 m -0.48,6.99 c 3.4,-3.08 8.52,-5.65 8.79,-10.78 -2.87,3.63 -7.2,6.3 -8.79,10.78 z"
       id="path5"
       style="opacity:0.86000001;fill:#020000" />
    <path
       d="m 15.69,27.03 c 0.72,-0.06 2.16,-0.17 2.88,-0.23 1.22,1.6 -3.45,1.99 -2.88,0.23 z"
       id="path7"
       style="opacity:0.86000001;fill:#020000" />
  </g>
</svg>
