<?xml version="1.0" encoding="UTF-8" standalone="no"?>
<svg
   xmlns:dc="http://purl.org/dc/elements/1.1/"
   xmlns:cc="http://creativecommons.org/ns#"
   xmlns:rdf="http://www.w3.org/1999/02/22-rdf-syntax-ns#"
   xmlns:svg="http://www.w3.org/2000/svg"
   xmlns="http://www.w3.org/2000/svg"
   height="237.06"
   width="107.93671"
   xml:space="preserve"
   enable-background="new 0 0 446 795"
   viewBox="0 0 107.93671 237.06"
   y="0px"
   x="0px"
   id="Layer_1"
   version="1.1"><metadata
     id="metadata743"><rdf:RDF><cc:Work
         rdf:about=""><dc:format>image/svg+xml</dc:format><dc:type
           rdf:resource="http://purl.org/dc/dcmitype/StillImage" /><dc:title></dc:title></cc:Work></rdf:RDF></metadata><defs
     id="defs741"><linearGradient
       id="SVGID_35_"
       gradientUnits="userSpaceOnUse"
       x1="4115.4932"
       y1="-788.17828"
       x2="4512.0293"
       y2="-669.31439"
       gradientTransform="matrix(-0.49478404,0.16513665,-0.16513665,-0.49478404,2018.8492,-884.10006)"><stop
         offset="0"
         style="stop-color:#FFFF00"
         id="stop1040" /><stop
         offset="0.1538"
         style="stop-color:#F7931E"
         id="stop1042" /><stop
         offset="0.3022"
         style="stop-color:#ED1C24"
         id="stop1044" /><stop
         offset="0.489"
         style="stop-color:#AD4498"
         id="stop1046" /><stop
         offset="0.5139"
         style="stop-color:#A44B9D"
         id="stop1048" /><stop
         offset="0.5536"
         style="stop-color:#8D5DAA"
         id="stop1050" /><stop
         offset="0.6032"
         style="stop-color:#677ABF"
         id="stop1052" /><stop
         offset="0.6603"
         style="stop-color:#33A3DC"
         id="stop1054" /><stop
         offset="0.6703"
         style="stop-color:#29ABE2"
         id="stop1056" /><stop
         offset="0.8242"
         style="stop-color:#0071BC"
         id="stop1058" /><stop
         offset="1"
         style="stop-color:#8CC63F"
         id="stop1060" /></linearGradient><linearGradient
       id="SVGID_23_"
       gradientUnits="userSpaceOnUse"
       x1="3599.7292"
       y1="314.3775"
       x2="4265.0635"
       y2="513.81519"
       gradientTransform="matrix(-0.3616211,0.37591278,-0.37591278,-0.3616211,1541.8171,-1106.2491)"><stop
         offset="0"
         style="stop-color:#FFFF00"
         id="stop740" /><stop
         offset="0.1538"
         style="stop-color:#F7931E"
         id="stop742" /><stop
         offset="0.3022"
         style="stop-color:#ED1C24"
         id="stop744" /><stop
         offset="0.489"
         style="stop-color:#AD4498"
         id="stop746" /><stop
         offset="0.5139"
         style="stop-color:#A44B9D"
         id="stop748" /><stop
         offset="0.5536"
         style="stop-color:#8D5DAA"
         id="stop750" /><stop
         offset="0.6032"
         style="stop-color:#677ABF"
         id="stop752" /><stop
         offset="0.6603"
         style="stop-color:#33A3DC"
         id="stop754" /><stop
         offset="0.6703"
         style="stop-color:#29ABE2"
         id="stop756" /><stop
         offset="0.8242"
         style="stop-color:#0071BC"
         id="stop758" /><stop
         offset="1"
         style="stop-color:#8CC63F"
         id="stop760" /></linearGradient><linearGradient
       id="SVGID_6_"
       gradientUnits="userSpaceOnUse"
       x1="-1343.6786"
       y1="1315.9854"
       x2="-1007.5373"
       y2="1439.2378"
       gradientTransform="matrix(0.3688191,0.3688191,-0.3688191,0.3688191,1002.9396,122.89031)"><stop
         offset="0"
         style="stop-color:#FFFF00"
         id="stop315" /><stop
         offset="0.1538"
         style="stop-color:#F7931E"
         id="stop317" /><stop
         offset="0.3022"
         style="stop-color:#ED1C24"
         id="stop319" /><stop
         offset="0.489"
         style="stop-color:#AD4498"
         id="stop321" /><stop
         offset="0.5139"
         style="stop-color:#A44B9D"
         id="stop323" /><stop
         offset="0.5536"
         style="stop-color:#8D5DAA"
         id="stop325" /><stop
         offset="0.6032"
         style="stop-color:#677ABF"
         id="stop327" /><stop
         offset="0.6603"
         style="stop-color:#33A3DC"
         id="stop329" /><stop
         offset="0.6703"
         style="stop-color:#29ABE2"
         id="stop331" /><stop
         offset="0.8242"
         style="stop-color:#0071BC"
         id="stop333" /><stop
         offset="1"
         style="stop-color:#8CC63F"
         id="stop335" /></linearGradient><linearGradient
       id="SVGID_5_"
       gradientUnits="userSpaceOnUse"
       x1="-1295.6128"
       y1="1422.2119"
       x2="-942.86511"
       y2="1551.5535"
       gradientTransform="matrix(0.3688191,0.3688191,-0.3688191,0.3688191,999.15872,-19.517738)"><stop
         offset="0"
         style="stop-color:#FFFF00"
         id="stop290" /><stop
         offset="0.1538"
         style="stop-color:#F7931E"
         id="stop292" /><stop
         offset="0.3022"
         style="stop-color:#ED1C24"
         id="stop294" /><stop
         offset="0.489"
         style="stop-color:#AD4498"
         id="stop296" /><stop
         offset="0.5139"
         style="stop-color:#A44B9D"
         id="stop298" /><stop
         offset="0.5536"
         style="stop-color:#8D5DAA"
         id="stop300" /><stop
         offset="0.6032"
         style="stop-color:#677ABF"
         id="stop302" /><stop
         offset="0.6603"
         style="stop-color:#33A3DC"
         id="stop304" /><stop
         offset="0.6703"
         style="stop-color:#29ABE2"
         id="stop306" /><stop
         offset="0.8242"
         style="stop-color:#0071BC"
         id="stop308" /><stop
         offset="1"
         style="stop-color:#8CC63F"
         id="stop310" /></linearGradient><linearGradient
       id="SVGID_38_"
       gradientUnits="userSpaceOnUse"
       x1="4429.2339"
       y1="-642.07239"
       x2="4130.1514"
       y2="-746.97443"
       gradientTransform="matrix(-0.49478404,0.16513665,-0.16513665,-0.49478404,2040.2733,-862.04571)"><stop
         offset="0"
         style="stop-color:#FFFF00"
         id="stop1115" /><stop
         offset="0.1538"
         style="stop-color:#F7931E"
         id="stop1117" /><stop
         offset="0.3022"
         style="stop-color:#ED1C24"
         id="stop1119" /><stop
         offset="0.489"
         style="stop-color:#AD4498"
         id="stop1121" /><stop
         offset="0.5139"
         style="stop-color:#A44B9D"
         id="stop1123" /><stop
         offset="0.5536"
         style="stop-color:#8D5DAA"
         id="stop1125" /><stop
         offset="0.6032"
         style="stop-color:#677ABF"
         id="stop1127" /><stop
         offset="0.6603"
         style="stop-color:#33A3DC"
         id="stop1129" /><stop
         offset="0.6703"
         style="stop-color:#29ABE2"
         id="stop1131" /><stop
         offset="0.8242"
         style="stop-color:#0071BC"
         id="stop1133" /><stop
         offset="1"
         style="stop-color:#8CC63F"
         id="stop1135" /></linearGradient><linearGradient
       id="SVGID_44_"
       gradientUnits="userSpaceOnUse"
       x1="3670.8298"
       y1="-703.61401"
       x2="4178.3569"
       y2="-517.51971"
       gradientTransform="matrix(-0.43401755,0.14485553,-0.14485553,-0.43401755,1728.2671,-781.83232)"><stop
         offset="0"
         style="stop-color:#FFFF00"
         id="stop1265" /><stop
         offset="0.1538"
         style="stop-color:#F7931E"
         id="stop1267" /><stop
         offset="0.3022"
         style="stop-color:#ED1C24"
         id="stop1269" /><stop
         offset="0.489"
         style="stop-color:#AD4498"
         id="stop1271" /><stop
         offset="0.5139"
         style="stop-color:#A44B9D"
         id="stop1273" /><stop
         offset="0.5536"
         style="stop-color:#8D5DAA"
         id="stop1275" /><stop
         offset="0.6032"
         style="stop-color:#677ABF"
         id="stop1277" /><stop
         offset="0.6603"
         style="stop-color:#33A3DC"
         id="stop1279" /><stop
         offset="0.6703"
         style="stop-color:#29ABE2"
         id="stop1281" /><stop
         offset="0.8242"
         style="stop-color:#0071BC"
         id="stop1283" /><stop
         offset="1"
         style="stop-color:#8CC63F"
         id="stop1285" /></linearGradient><linearGradient
       id="SVGID_43_"
       gradientUnits="userSpaceOnUse"
       x1="3918.009"
       y1="-1078.0195"
       x2="3605.1096"
       y2="-1187.7677"
       gradientTransform="matrix(0.04172889,0.33312671,-0.33312671,0.04172889,-481.9503,-1194.6553)"><stop
         offset="0"
         style="stop-color:#FFFF00"
         id="stop1240" /><stop
         offset="0.1538"
         style="stop-color:#F7931E"
         id="stop1242" /><stop
         offset="0.3022"
         style="stop-color:#ED1C24"
         id="stop1244" /><stop
         offset="0.489"
         style="stop-color:#AD4498"
         id="stop1246" /><stop
         offset="0.5139"
         style="stop-color:#A44B9D"
         id="stop1248" /><stop
         offset="0.5536"
         style="stop-color:#8D5DAA"
         id="stop1250" /><stop
         offset="0.6032"
         style="stop-color:#677ABF"
         id="stop1252" /><stop
         offset="0.6603"
         style="stop-color:#33A3DC"
         id="stop1254" /><stop
         offset="0.6703"
         style="stop-color:#29ABE2"
         id="stop1256" /><stop
         offset="0.8242"
         style="stop-color:#0071BC"
         id="stop1258" /><stop
         offset="1"
         style="stop-color:#8CC63F"
         id="stop1260" /></linearGradient><linearGradient
       id="SVGID_34_"
       gradientUnits="userSpaceOnUse"
       x1="1222.7109"
       y1="608.40039"
       x2="1579.2853"
       y2="739.14502"
       gradientTransform="matrix(-0.02490385,0.14877448,-0.14877448,-0.02490385,202.46053,-139.47569)"><stop
         offset="0"
         style="stop-color:#FFFF00"
         id="stop1015" /><stop
         offset="0.1538"
         style="stop-color:#F7931E"
         id="stop1017" /><stop
         offset="0.3022"
         style="stop-color:#ED1C24"
         id="stop1019" /><stop
         offset="0.489"
         style="stop-color:#AD4498"
         id="stop1021" /><stop
         offset="0.5139"
         style="stop-color:#A44B9D"
         id="stop1023" /><stop
         offset="0.5536"
         style="stop-color:#8D5DAA"
         id="stop1025" /><stop
         offset="0.6032"
         style="stop-color:#677ABF"
         id="stop1027" /><stop
         offset="0.6603"
         style="stop-color:#33A3DC"
         id="stop1029" /><stop
         offset="0.6703"
         style="stop-color:#29ABE2"
         id="stop1031" /><stop
         offset="0.8242"
         style="stop-color:#0071BC"
         id="stop1033" /><stop
         offset="1"
         style="stop-color:#8CC63F"
         id="stop1035" /></linearGradient><linearGradient
       id="SVGID_32_"
       gradientUnits="userSpaceOnUse"
       x1="904.19971"
       y1="-918.20099"
       x2="3844.8372"
       y2="160.03841"
       gradientTransform="matrix(-0.08437075,0.11511503,-0.11511503,-0.08437075,378.69444,-368.22744)"><stop
         offset="0"
         style="stop-color:#FFFF00"
         id="stop965" /><stop
         offset="0.1538"
         style="stop-color:#F7931E"
         id="stop967" /><stop
         offset="0.3022"
         style="stop-color:#ED1C24"
         id="stop969" /><stop
         offset="0.489"
         style="stop-color:#AD4498"
         id="stop971" /><stop
         offset="0.5139"
         style="stop-color:#A44B9D"
         id="stop973" /><stop
         offset="0.5536"
         style="stop-color:#8D5DAA"
         id="stop975" /><stop
         offset="0.6032"
         style="stop-color:#677ABF"
         id="stop977" /><stop
         offset="0.6603"
         style="stop-color:#33A3DC"
         id="stop979" /><stop
         offset="0.6703"
         style="stop-color:#29ABE2"
         id="stop981" /><stop
         offset="0.8242"
         style="stop-color:#0071BC"
         id="stop983" /><stop
         offset="1"
         style="stop-color:#8CC63F"
         id="stop985" /></linearGradient><linearGradient
       id="SVGID_26_"
       gradientUnits="userSpaceOnUse"
       x1="4366.7158"
       y1="786.03632"
       x2="2483.8164"
       y2="125.6173"
       gradientTransform="matrix(-0.3172089,0.32974534,-0.32974534,-0.3172089,1371.175,-983.33107)"><stop
         offset="0"
         style="stop-color:#FFFF00"
         id="stop815" /><stop
         offset="0.1538"
         style="stop-color:#F7931E"
         id="stop817" /><stop
         offset="0.3022"
         style="stop-color:#ED1C24"
         id="stop819" /><stop
         offset="0.489"
         style="stop-color:#AD4498"
         id="stop821" /><stop
         offset="0.5139"
         style="stop-color:#A44B9D"
         id="stop823" /><stop
         offset="0.5536"
         style="stop-color:#8D5DAA"
         id="stop825" /><stop
         offset="0.6032"
         style="stop-color:#677ABF"
         id="stop827" /><stop
         offset="0.6603"
         style="stop-color:#33A3DC"
         id="stop829" /><stop
         offset="0.6703"
         style="stop-color:#29ABE2"
         id="stop831" /><stop
         offset="0.8242"
         style="stop-color:#0071BC"
         id="stop833" /><stop
         offset="1"
         style="stop-color:#8CC63F"
         id="stop835" /></linearGradient><linearGradient
       id="SVGID_2_"
       gradientUnits="userSpaceOnUse"
       x1="-994.23492"
       y1="1145.0823"
       x2="-553.07141"
       y2="1277.3236"
       gradientTransform="matrix(0.3884634,0.3884634,-0.3884634,0.3884634,848.13435,-64.955786)"><stop
         offset="0"
         style="stop-color:#FFFF00"
         id="stop215" /><stop
         offset="0.1538"
         style="stop-color:#F7931E"
         id="stop217" /><stop
         offset="0.3022"
         style="stop-color:#ED1C24"
         id="stop219" /><stop
         offset="0.489"
         style="stop-color:#AD4498"
         id="stop221" /><stop
         offset="0.5139"
         style="stop-color:#A44B9D"
         id="stop223" /><stop
         offset="0.5536"
         style="stop-color:#8D5DAA"
         id="stop225" /><stop
         offset="0.6032"
         style="stop-color:#677ABF"
         id="stop227" /><stop
         offset="0.6603"
         style="stop-color:#33A3DC"
         id="stop229" /><stop
         offset="0.6703"
         style="stop-color:#29ABE2"
         id="stop231" /><stop
         offset="0.8242"
         style="stop-color:#0071BC"
         id="stop233" /><stop
         offset="1"
         style="stop-color:#8CC63F"
         id="stop235" /></linearGradient></defs><g
     id="g3483"><path
       style="fill:url(#SVGID_38_)"
       id="path1137"
       d="m 55.84482,167.50213 -0.365116,10.17108 18.360108,0.73023 -0.208637,4.74651 -20.394325,26.70562 -4.224912,-0.15648 1.043189,-27.43585 -5.737534,-0.20864 0.208638,-4.7465 5.737533,0.20863 0.365116,-10.17108 5.21594,0.15648 z m -0.573753,14.91759 -0.730233,19.09034 13.978719,-18.62091 -13.248486,-0.46943 z" /><path
       style="fill:url(#SVGID_5_)"
       id="path312"
       d="m 60.633793,189.46516 3.233883,0.73022 c -0.312956,1.87774 -0.156478,3.39036 0.365115,4.43355 0.573754,1.09535 1.460464,1.87774 2.66013,2.34717 1.460463,0.5216 2.868766,0.5216 4.224911,-0.10434 1.356144,-0.62591 2.347173,-1.6691 2.920926,-3.18172 0.521594,-1.4083 0.521594,-2.76445 -0.05216,-4.01627 -0.573754,-1.25183 -1.564782,-2.1907 -3.025245,-2.7123 -0.573754,-0.20863 -1.356145,-0.36511 -2.295014,-0.46942 l 1.356145,-2.55582 c 0.208637,0.10434 0.365115,0.15649 0.469434,0.20864 1.303985,0.46943 2.60797,0.57375 3.911955,0.31296 1.303985,-0.31296 2.242854,-1.14751 2.764448,-2.55581 0.417275,-1.14751 0.417275,-2.1907 -0.104318,-3.23388 -0.469434,-1.0432 -1.356144,-1.77343 -2.55581,-2.24286 -1.199666,-0.46944 -2.347173,-0.46944 -3.44252,0 -1.095348,0.46943 -2.034217,1.40831 -2.816608,2.8166 l -2.868767,-1.72125 c 1.147507,-1.9299 2.607971,-3.18173 4.381389,-3.8598 1.77342,-0.62592 3.651158,-0.57376 5.633216,0.15648 1.356144,0.52159 2.503651,1.30398 3.44252,2.29501 0.938867,1.04319 1.51262,2.13854 1.721258,3.39037 0.208638,1.25182 0.104317,2.45149 -0.312957,3.59899 -0.417274,1.09535 -1.095347,1.98206 -1.982054,2.66013 -0.93887,0.67808 -2.034217,1.04319 -3.390361,1.14751 1.356144,0.8867 2.242854,2.03422 2.660129,3.44252 0.417276,1.4083 0.312956,2.86876 -0.312957,4.53786 -0.83455,2.1907 -2.347172,3.75548 -4.485707,4.69436 -2.190696,0.93886 -4.485709,0.93886 -6.937201,0 -2.190695,-0.83456 -3.807635,-2.1907 -4.746505,-4.01629 -0.782391,-1.92989 -0.991028,-3.96411 -0.417275,-6.10264 z" /><path
       style="fill:url(#SVGID_6_)"
       id="path337"
       d="m 58.781326,212.16739 2.138535,-5.68539 -10.32756,-3.91195 0.991028,-2.66013 16.638848,-11.31859 2.399332,0.88672 -5.789692,15.38701 3.233882,1.19967 -0.991029,2.66013 -3.233882,-1.19966 -2.138536,5.68537 -2.920926,-1.04318 z m 3.129564,-8.39767 4.016274,-10.69268 -11.475068,7.92823 7.458794,2.76445 z" /><path
       style="fill:url(#SVGID_23_)"
       id="path762"
       d="m 48.046531,161.80795 0.782391,3.49467 c -1.669101,0.46944 -2.920926,1.25183 -3.651158,2.34717 -0.730231,1.0432 -1.043188,2.29502 -0.83455,3.599 0.208637,1.61695 0.991028,2.92093 2.347173,3.8598 1.356144,0.93887 3.077404,1.30399 5.059461,1.04319 1.929897,-0.2608 3.338202,-0.99103 4.32923,-2.1907 0.991029,-1.19966 1.356145,-2.71229 1.095347,-4.43354 -0.156478,-1.09536 -0.521593,-2.03422 -1.095347,-2.81661 -0.625913,-0.7824 -1.356144,-1.40831 -2.190695,-1.82558 l 0,-3.23388 14.395994,0.83455 1.77342,13.6136 -3.233883,0.41728 -1.408304,-10.90132 -7.563112,-0.52159 c 1.356143,1.51262 2.138534,3.12956 2.399332,4.95513 0.312956,2.39934 -0.260798,4.53787 -1.72126,6.36346 -1.460463,1.87773 -3.44252,2.97308 -6.05049,3.28604 -2.503651,0.31295 -4.694346,-0.10434 -6.728562,-1.30399 -2.451492,-1.46046 -3.859796,-3.70332 -4.277071,-6.72857 -0.312956,-2.50364 0.104318,-4.59001 1.303984,-6.36344 1.251827,-1.82558 2.973087,-2.97309 5.2681,-3.49467 z" /><path
       style="fill:url(#SVGID_35_)"
       id="path1062"
       d="m 44.956801,189.47032 c 1.616942,0.67807 2.764448,1.56478 3.49468,2.66012 0.730231,1.14752 1.095347,2.4515 1.043188,4.01629 -0.104318,2.29501 -0.991029,4.2249 -2.712289,5.73753 -1.72126,1.51262 -3.964115,2.24285 -6.728562,2.13853 -2.764449,-0.10433 -5.007302,-0.99103 -6.624243,-2.66013 -1.616942,-1.6691 -2.399333,-3.70331 -2.295014,-5.99832 0.05216,-1.46047 0.469435,-2.76446 1.303985,-3.80764 0.83455,-1.0432 2.034216,-1.87775 3.651158,-2.39933 -1.929898,-0.73024 -3.390361,-1.77343 -4.32923,-3.23389 -0.991029,-1.46046 -1.408304,-3.18173 -1.356145,-5.16378 0.104318,-2.71229 1.147507,-4.95515 3.129564,-6.72856 1.982058,-1.77342 4.590027,-2.60797 7.719591,-2.50365 3.129563,0.10434 5.633215,1.1475 7.510953,3.0774 1.877739,1.92989 2.712289,4.27707 2.60797,7.09368 -0.104318,2.08638 -0.678072,3.80764 -1.77342,5.16378 -1.147506,1.25182 -2.660129,2.13853 -4.642186,2.60797 z m 2.399333,-8.03254 c 0.05216,-1.09536 -0.156478,-2.1907 -0.678073,-3.28605 -0.469434,-1.04319 -1.251825,-1.87774 -2.242854,-2.50365 -1.043187,-0.62592 -2.138535,-0.93887 -3.338202,-0.99103 -1.877738,-0.0522 -3.44252,0.46944 -4.694345,1.61694 -1.251825,1.14751 -1.929898,2.66013 -1.982057,4.53787 -0.05216,1.87773 0.469435,3.44252 1.72126,4.7465 1.199666,1.30399 2.764448,1.9299 4.642186,2.03423 1.82558,0.0522 3.390361,-0.46944 4.642187,-1.66911 1.147507,-1.14751 1.825578,-2.66013 1.929898,-4.4857 z m -1.82558,14.65679 c 0.05216,-1.51263 -0.365115,-2.76445 -1.303985,-3.75548 -0.938869,-0.99104 -2.190694,-1.51262 -3.703316,-1.56478 -1.512624,-0.0522 -2.764449,0.36511 -3.755477,1.30398 -0.991029,0.8867 -1.512623,2.03422 -1.564782,3.44252 -0.05216,1.40831 0.417275,2.66013 1.356144,3.65115 0.938869,0.99104 2.190695,1.56478 3.651158,1.61695 1.512622,0.0522 2.764448,-0.36512 3.755477,-1.30398 0.938869,-0.93887 1.512623,-2.03423 1.564781,-3.39036 z" /></g><g
     id="g3475"><path
       style="fill:url(#SVGID_2_)"
       id="path237"
       d="m 39.431566,31.933174 -0.659248,2.362317 C 37.563689,34.0208 36.574815,34.130677 35.80569,34.51524 c -0.824061,0.384563 -1.373437,1.04381 -1.703064,1.922813 -0.384562,1.043815 -0.329626,2.087626 0.164814,3.131441 0.549375,1.043811 1.428373,1.812937 2.746874,2.307376 1.263564,0.49444 2.362316,0.49444 3.351191,0.05494 0.988879,-0.4395 1.703064,-1.208625 2.142567,-2.362312 0.274686,-0.714189 0.329622,-1.428378 0.219749,-2.087627 -0.109877,-0.714189 -0.329626,-1.3185 -0.769125,-1.81294 l 1.043811,-1.977754 8.570259,5.219068 -3.351191,8.954821 -2.087626,-0.769125 2.691937,-7.141881 -4.449937,-2.801815 c 0.329621,1.373437 0.274685,2.637003 -0.164813,3.79069 -0.604312,1.593191 -1.648128,2.691938 -3.131442,3.351191 -1.483314,0.659245 -3.076501,0.659245 -4.779564,0.05493 -1.648128,-0.604312 -2.856757,-1.593185 -3.680818,-3.021564 -1.043815,-1.703064 -1.153688,-3.57094 -0.384563,-5.54869 0.604312,-1.648127 1.593187,-2.801814 2.856751,-3.461067 1.373438,-0.659248 2.801816,-0.824062 4.340066,-0.384563 z" /><path
       style="fill:url(#SVGID_26_)"
       id="path837"
       d="m 52.167479,29.888406 1.098084,-3.660279 19.994271,6.085212 -0.915069,2.928223 c -2.607949,1.509866 -5.398911,3.660279 -8.372888,6.542749 -2.973976,2.882469 -5.581925,5.993706 -7.732339,9.33371 -1.555618,2.333428 -2.882469,5.032883 -4.026306,8.052614 l -3.889047,-1.189591 c 0.777811,-2.424934 2.150415,-5.215897 4.117814,-8.372887 1.967401,-3.156991 4.300828,-6.085213 6.95453,-8.738916 2.699455,-2.653702 5.307404,-4.804116 7.915353,-6.405487 L 52.167479,29.888406 Z" /><path
       style="fill:url(#SVGID_32_)"
       id="path987"
       d="m 63.703505,61.738691 -3.918506,1.059206 -6.722601,-24.959284 c -0.693925,1.158817 -1.69523,2.387732 -2.98788,3.698986 -1.292651,1.311249 -2.476152,2.363049 -3.582599,3.130883 l -1.011916,-3.780857 c 1.912898,-1.624981 3.491815,-3.377888 4.732951,-5.287017 1.241123,-1.909132 2.01653,-3.640504 2.326227,-5.194099 l 2.528735,-0.685315 8.635589,32.017497 z" /><path
       style="fill:url(#SVGID_34_)"
       id="path1037"
       d="m 50.515759,58.186976 1.297231,3.182745 c -1.50841,0.739119 -2.53413,1.674335 -3.04699,2.805639 -0.52794,1.13131 -0.58828,2.322953 -0.19609,3.559849 0.467605,1.493324 1.43299,2.579379 2.88106,3.273249 1.448075,0.678785 3.107324,0.724035 4.977755,0.135755 1.779925,-0.55811 3.01682,-1.493325 3.725775,-2.820724 0.70895,-1.312316 0.81454,-2.790561 0.30168,-4.389473 -0.316766,-0.99555 -0.829625,-1.84026 -1.53858,-2.503961 -0.70895,-0.6637 -1.493325,-1.116224 -2.368201,-1.342485 l -0.543029,-3.031903 13.771784,-1.644166 3.967116,12.595222 -2.971565,0.935215 -3.182745,-10.106347 -7.240371,0.76929 c 1.53858,1.191645 2.564301,2.60955 3.092241,4.283884 0.693869,2.217358 0.51286,4.314048 -0.543025,6.320233 -1.05589,2.006186 -2.79056,3.37884 -5.188931,4.133045 -2.292784,0.724035 -4.479979,0.678785 -6.576669,-0.135755 -2.564295,-0.98047 -4.283885,-2.86598 -5.15876,-5.686706 -0.72404,-2.307869 -0.6637,-4.389472 0.165924,-6.244816 0.859791,-1.84026 2.307866,-3.212915 4.37439,-4.08779 z" /><path
       style="fill:url(#SVGID_43_)"
       id="path1262"
       d="m 38.108385,59.711911 c -1.439656,0.370938 -2.705042,0.351726 -3.764812,-0.06962 -1.091119,-0.409366 -1.983989,-1.146166 -2.733948,-2.261123 -1.103273,-1.662755 -1.456732,-3.432591 -1.041012,-5.352852 0.415717,-1.920268 1.631094,-3.535353 3.590794,-4.895975 1.9717,-1.329266 3.968396,-1.841385 5.927387,-1.512368 1.990344,0.317018 3.521475,1.312906 4.656097,2.963669 0.725971,1.052243 1.039694,2.154339 1.047216,3.301672 -0.02383,1.159329 -0.44057,2.325155 -1.28156,3.50948 1.678517,-0.498242 3.230731,-0.480915 4.656662,0.052 1.413937,0.501549 2.58353,1.491947 3.547491,2.884491 1.317275,1.940337 1.715966,4.016369 1.251408,6.278811 -0.476551,2.231079 -1.839464,4.118259 -4.069375,5.618177 -2.229918,1.499927 -4.489463,2.076641 -6.727916,1.674797 -2.269808,-0.389856 -4.053667,-1.576623 -5.382934,-3.54832 -0.999951,-1.486612 -1.457587,-2.964984 -1.384912,-4.466484 -0.0214,-1.465521 0.586217,-2.88408 1.709414,-4.176351 z m 2.429222,6.726895 c 0.523964,0.806016 1.231441,1.434015 2.134427,1.915337 0.871622,0.493323 1.804083,0.675816 2.85272,0.598213 1.005287,-0.09697 1.957975,-0.425416 2.814709,-1.004724 1.310467,-0.896631 2.120093,-2.068959 2.428883,-3.516999 0.277431,-1.436042 -0.03815,-2.824975 -0.903434,-4.147434 -0.908628,-1.341822 -2.11232,-2.139451 -3.579716,-2.40489 -1.467401,-0.265444 -2.899687,0.03079 -4.241508,0.939415 -1.310467,0.89663 -2.088739,2.056971 -2.366165,3.493013 -0.296798,1.479389 -0.02457,2.848964 0.860084,4.128069 z M 34.370719,55.390514 c 0.725975,1.052247 1.657571,1.70235 2.814151,1.90695 1.156574,0.204605 2.282663,-0.0464 3.366266,-0.784366 1.052243,-0.725976 1.702346,-1.657571 1.950301,-2.794783 0.216598,-1.125229 0.02096,-2.200596 -0.637698,-3.170762 -0.682623,-1.032881 -1.633582,-1.639632 -2.790162,-1.84424 -1.168571,-0.23596 -2.294664,0.01505 -3.346908,0.741019 -1.052243,0.725975 -1.702341,1.657571 -1.950297,2.794783 -0.235965,1.168576 -0.05229,2.212587 0.594347,3.151399 z" /><path
       style="fill:url(#SVGID_44_)"
       id="path1287"
       d="m 70.276775,60.51176 1.875894,-5.032883 -9.104943,-3.340004 0.869316,-2.379181 14.641113,-10.111515 2.10466,0.777804 -5.032882,13.634538 2.836715,1.05233 -0.869316,2.379181 -2.836715,-1.052329 -1.875892,5.032882 -2.60795,-0.960823 z m 2.699456,-7.412064 3.477264,-9.470971 -10.065765,7.046036 6.588501,2.424935 z" /></g></svg>